<?xml version="1.0" encoding="utf-8"?>
<svg xmlns="http://www.w3.org/2000/svg" xmlns:xlink="http://www.w3.org/1999/xlink" width="1000" height="300" viewBox="0 0 4000 1200">
<defs>
  <clipPath id="clip550">
    <rect x="0" y="0" width="4000" height="1200"/>
  </clipPath>
</defs>
<path clip-path="url(#clip550)" d="M0 1200 L4000 1200 L4000 0 L0 0  Z" fill="#ffffff" fill-rule="evenodd" fill-opacity="1"/>
<defs>
  <clipPath id="clip551">
    <rect x="800" y="0" width="2801" height="1200"/>
  </clipPath>
</defs>
<path clip-path="url(#clip550)" d="M238.804 1066.85 L3952.76 1066.85 L3952.76 47.2441 L238.804 47.2441  Z" fill="#ffffff" fill-rule="evenodd" fill-opacity="1"/>
<defs>
  <clipPath id="clip552">
    <rect x="238" y="47" width="3715" height="1021"/>
  </clipPath>
</defs>
<polyline clip-path="url(#clip552)" style="stroke:#000000; stroke-linecap:round; stroke-linejoin:round; stroke-width:2; stroke-opacity:0.1; fill:none" points="671.197,1066.85 671.197,47.2441 "/>
<polyline clip-path="url(#clip552)" style="stroke:#000000; stroke-linecap:round; stroke-linejoin:round; stroke-width:2; stroke-opacity:0.1; fill:none" points="1485.24,1066.85 1485.24,47.2441 "/>
<polyline clip-path="url(#clip552)" style="stroke:#000000; stroke-linecap:round; stroke-linejoin:round; stroke-width:2; stroke-opacity:0.1; fill:none" points="2299.29,1066.85 2299.29,47.2441 "/>
<polyline clip-path="url(#clip552)" style="stroke:#000000; stroke-linecap:round; stroke-linejoin:round; stroke-width:2; stroke-opacity:0.1; fill:none" points="3113.34,1066.85 3113.34,47.2441 "/>
<polyline clip-path="url(#clip552)" style="stroke:#000000; stroke-linecap:round; stroke-linejoin:round; stroke-width:2; stroke-opacity:0.1; fill:none" points="3927.39,1066.85 3927.39,47.2441 "/>
<polyline clip-path="url(#clip552)" style="stroke:#000000; stroke-linecap:round; stroke-linejoin:round; stroke-width:2; stroke-opacity:0.1; fill:none" points="238.804,1005.52 3952.76,1005.52 "/>
<polyline clip-path="url(#clip552)" style="stroke:#000000; stroke-linecap:round; stroke-linejoin:round; stroke-width:2; stroke-opacity:0.1; fill:none" points="238.804,809.123 3952.76,809.123 "/>
<polyline clip-path="url(#clip552)" style="stroke:#000000; stroke-linecap:round; stroke-linejoin:round; stroke-width:2; stroke-opacity:0.1; fill:none" points="238.804,612.73 3952.76,612.73 "/>
<polyline clip-path="url(#clip552)" style="stroke:#000000; stroke-linecap:round; stroke-linejoin:round; stroke-width:2; stroke-opacity:0.1; fill:none" points="238.804,416.338 3952.76,416.338 "/>
<polyline clip-path="url(#clip552)" style="stroke:#000000; stroke-linecap:round; stroke-linejoin:round; stroke-width:2; stroke-opacity:0.1; fill:none" points="238.804,219.945 3952.76,219.945 "/>
<polyline clip-path="url(#clip550)" style="stroke:#000000; stroke-linecap:round; stroke-linejoin:round; stroke-width:4; stroke-opacity:1; fill:none" points="238.804,1066.85 3952.76,1066.85 "/>
<polyline clip-path="url(#clip550)" style="stroke:#000000; stroke-linecap:round; stroke-linejoin:round; stroke-width:4; stroke-opacity:1; fill:none" points="671.197,1066.85 671.197,1047.95 "/>
<polyline clip-path="url(#clip550)" style="stroke:#000000; stroke-linecap:round; stroke-linejoin:round; stroke-width:4; stroke-opacity:1; fill:none" points="1485.24,1066.85 1485.24,1047.95 "/>
<polyline clip-path="url(#clip550)" style="stroke:#000000; stroke-linecap:round; stroke-linejoin:round; stroke-width:4; stroke-opacity:1; fill:none" points="2299.29,1066.85 2299.29,1047.95 "/>
<polyline clip-path="url(#clip550)" style="stroke:#000000; stroke-linecap:round; stroke-linejoin:round; stroke-width:4; stroke-opacity:1; fill:none" points="3113.34,1066.85 3113.34,1047.95 "/>
<polyline clip-path="url(#clip550)" style="stroke:#000000; stroke-linecap:round; stroke-linejoin:round; stroke-width:4; stroke-opacity:1; fill:none" points="3927.39,1066.85 3927.39,1047.95 "/>
<path clip-path="url(#clip550)" d="M630.803 1138.11 L638.442 1138.11 L638.442 1111.75 L630.132 1113.41 L630.132 1109.16 L638.396 1107.49 L643.072 1107.49 L643.072 1138.11 L650.711 1138.11 L650.711 1142.05 L630.803 1142.05 L630.803 1138.11 Z" fill="#000000" fill-rule="nonzero" fill-opacity="1" /><path clip-path="url(#clip550)" d="M670.155 1110.57 Q666.544 1110.57 664.715 1114.13 Q662.91 1117.67 662.91 1124.8 Q662.91 1131.91 664.715 1135.47 Q666.544 1139.02 670.155 1139.02 Q673.789 1139.02 675.595 1135.47 Q677.424 1131.91 677.424 1124.8 Q677.424 1117.67 675.595 1114.13 Q673.789 1110.57 670.155 1110.57 M670.155 1106.86 Q675.965 1106.86 679.021 1111.47 Q682.099 1116.05 682.099 1124.8 Q682.099 1133.53 679.021 1138.14 Q675.965 1142.72 670.155 1142.72 Q664.345 1142.72 661.266 1138.14 Q658.211 1133.53 658.211 1124.8 Q658.211 1116.05 661.266 1111.47 Q664.345 1106.86 670.155 1106.86 Z" fill="#000000" fill-rule="nonzero" fill-opacity="1" /><path clip-path="url(#clip550)" d="M700.317 1110.57 Q696.706 1110.57 694.877 1114.13 Q693.072 1117.67 693.072 1124.8 Q693.072 1131.91 694.877 1135.47 Q696.706 1139.02 700.317 1139.02 Q703.951 1139.02 705.757 1135.47 Q707.585 1131.91 707.585 1124.8 Q707.585 1117.67 705.757 1114.13 Q703.951 1110.57 700.317 1110.57 M700.317 1106.86 Q706.127 1106.86 709.183 1111.47 Q712.261 1116.05 712.261 1124.8 Q712.261 1133.53 709.183 1138.14 Q706.127 1142.72 700.317 1142.72 Q694.507 1142.72 691.428 1138.14 Q688.373 1133.53 688.373 1124.8 Q688.373 1116.05 691.428 1111.47 Q694.507 1106.86 700.317 1106.86 Z" fill="#000000" fill-rule="nonzero" fill-opacity="1" /><path clip-path="url(#clip550)" d="M1448.94 1138.11 L1465.26 1138.11 L1465.26 1142.05 L1443.31 1142.05 L1443.31 1138.11 Q1445.97 1135.36 1450.56 1130.73 Q1455.16 1126.08 1456.34 1124.73 Q1458.59 1122.21 1459.47 1120.47 Q1460.37 1118.72 1460.37 1117.03 Q1460.37 1114.27 1458.43 1112.53 Q1456.51 1110.8 1453.4 1110.8 Q1451.21 1110.8 1448.75 1111.56 Q1446.32 1112.33 1443.54 1113.88 L1443.54 1109.16 Q1446.37 1108.02 1448.82 1107.44 Q1451.27 1106.86 1453.31 1106.86 Q1458.68 1106.86 1461.88 1109.55 Q1465.07 1112.23 1465.07 1116.72 Q1465.07 1118.85 1464.26 1120.78 Q1463.47 1122.67 1461.37 1125.27 Q1460.79 1125.94 1457.69 1129.16 Q1454.58 1132.35 1448.94 1138.11 Z" fill="#000000" fill-rule="nonzero" fill-opacity="1" /><path clip-path="url(#clip550)" d="M1485.07 1110.57 Q1481.46 1110.57 1479.63 1114.13 Q1477.83 1117.67 1477.83 1124.8 Q1477.83 1131.91 1479.63 1135.47 Q1481.46 1139.02 1485.07 1139.02 Q1488.7 1139.02 1490.51 1135.47 Q1492.34 1131.91 1492.34 1124.8 Q1492.34 1117.67 1490.51 1114.13 Q1488.7 1110.57 1485.07 1110.57 M1485.07 1106.86 Q1490.88 1106.86 1493.94 1111.47 Q1497.02 1116.05 1497.02 1124.8 Q1497.02 1133.53 1493.94 1138.14 Q1490.88 1142.72 1485.07 1142.72 Q1479.26 1142.72 1476.18 1138.14 Q1473.13 1133.53 1473.13 1124.8 Q1473.13 1116.05 1476.18 1111.47 Q1479.26 1106.86 1485.07 1106.86 Z" fill="#000000" fill-rule="nonzero" fill-opacity="1" /><path clip-path="url(#clip550)" d="M1515.23 1110.57 Q1511.62 1110.57 1509.79 1114.13 Q1507.99 1117.67 1507.99 1124.8 Q1507.99 1131.91 1509.79 1135.47 Q1511.62 1139.02 1515.23 1139.02 Q1518.87 1139.02 1520.67 1135.47 Q1522.5 1131.91 1522.5 1124.8 Q1522.5 1117.67 1520.67 1114.13 Q1518.87 1110.57 1515.23 1110.57 M1515.23 1106.86 Q1521.04 1106.86 1524.1 1111.47 Q1527.18 1116.05 1527.18 1124.8 Q1527.18 1133.53 1524.1 1138.14 Q1521.04 1142.72 1515.23 1142.72 Q1509.42 1142.72 1506.34 1138.14 Q1503.29 1133.53 1503.29 1124.8 Q1503.29 1116.05 1506.34 1111.47 Q1509.42 1106.86 1515.23 1106.86 Z" fill="#000000" fill-rule="nonzero" fill-opacity="1" /><path clip-path="url(#clip550)" d="M2273.05 1123.41 Q2276.41 1124.13 2278.29 1126.4 Q2280.18 1128.67 2280.18 1132 Q2280.18 1137.12 2276.66 1139.92 Q2273.15 1142.72 2266.66 1142.72 Q2264.49 1142.72 2262.17 1142.28 Q2259.88 1141.86 2257.43 1141.01 L2257.43 1136.49 Q2259.37 1137.63 2261.69 1138.21 Q2264 1138.78 2266.53 1138.78 Q2270.92 1138.78 2273.22 1137.05 Q2275.53 1135.31 2275.53 1132 Q2275.53 1128.95 2273.38 1127.23 Q2271.25 1125.5 2267.43 1125.5 L2263.4 1125.5 L2263.4 1121.66 L2267.61 1121.66 Q2271.06 1121.66 2272.89 1120.29 Q2274.72 1118.9 2274.72 1116.31 Q2274.72 1113.65 2272.82 1112.23 Q2270.95 1110.8 2267.43 1110.8 Q2265.51 1110.8 2263.31 1111.22 Q2261.11 1111.63 2258.47 1112.51 L2258.47 1108.34 Q2261.13 1107.6 2263.45 1107.23 Q2265.79 1106.86 2267.85 1106.86 Q2273.17 1106.86 2276.27 1109.29 Q2279.37 1111.7 2279.37 1115.82 Q2279.37 1118.69 2277.73 1120.68 Q2276.09 1122.65 2273.05 1123.41 Z" fill="#000000" fill-rule="nonzero" fill-opacity="1" /><path clip-path="url(#clip550)" d="M2299.05 1110.57 Q2295.44 1110.57 2293.61 1114.13 Q2291.8 1117.67 2291.8 1124.8 Q2291.8 1131.91 2293.61 1135.47 Q2295.44 1139.02 2299.05 1139.02 Q2302.68 1139.02 2304.49 1135.47 Q2306.32 1131.91 2306.32 1124.8 Q2306.32 1117.67 2304.49 1114.13 Q2302.68 1110.57 2299.05 1110.57 M2299.05 1106.86 Q2304.86 1106.86 2307.91 1111.47 Q2310.99 1116.05 2310.99 1124.8 Q2310.99 1133.53 2307.91 1138.14 Q2304.86 1142.72 2299.05 1142.72 Q2293.24 1142.72 2290.16 1138.14 Q2287.1 1133.53 2287.1 1124.8 Q2287.1 1116.05 2290.16 1111.47 Q2293.24 1106.86 2299.05 1106.86 Z" fill="#000000" fill-rule="nonzero" fill-opacity="1" /><path clip-path="url(#clip550)" d="M2329.21 1110.57 Q2325.6 1110.57 2323.77 1114.13 Q2321.97 1117.67 2321.97 1124.8 Q2321.97 1131.91 2323.77 1135.47 Q2325.6 1139.02 2329.21 1139.02 Q2332.85 1139.02 2334.65 1135.47 Q2336.48 1131.91 2336.48 1124.8 Q2336.48 1117.67 2334.65 1114.13 Q2332.85 1110.57 2329.21 1110.57 M2329.21 1106.86 Q2335.02 1106.86 2338.08 1111.47 Q2341.16 1116.05 2341.16 1124.8 Q2341.16 1133.53 2338.08 1138.14 Q2335.02 1142.72 2329.21 1142.72 Q2323.4 1142.72 2320.32 1138.14 Q2317.27 1133.53 2317.27 1124.8 Q2317.27 1116.05 2320.32 1111.47 Q2323.4 1106.86 2329.21 1106.86 Z" fill="#000000" fill-rule="nonzero" fill-opacity="1" /><path clip-path="url(#clip550)" d="M3086.43 1111.56 L3074.62 1130.01 L3086.43 1130.01 L3086.43 1111.56 M3085.2 1107.49 L3091.08 1107.49 L3091.08 1130.01 L3096.01 1130.01 L3096.01 1133.9 L3091.08 1133.9 L3091.08 1142.05 L3086.43 1142.05 L3086.43 1133.9 L3070.83 1133.9 L3070.83 1129.39 L3085.2 1107.49 Z" fill="#000000" fill-rule="nonzero" fill-opacity="1" /><path clip-path="url(#clip550)" d="M3113.74 1110.57 Q3110.13 1110.57 3108.3 1114.13 Q3106.5 1117.67 3106.5 1124.8 Q3106.5 1131.91 3108.3 1135.47 Q3110.13 1139.02 3113.74 1139.02 Q3117.38 1139.02 3119.18 1135.47 Q3121.01 1131.91 3121.01 1124.8 Q3121.01 1117.67 3119.18 1114.13 Q3117.38 1110.57 3113.74 1110.57 M3113.74 1106.86 Q3119.55 1106.86 3122.61 1111.47 Q3125.69 1116.05 3125.69 1124.8 Q3125.69 1133.53 3122.61 1138.14 Q3119.55 1142.72 3113.74 1142.72 Q3107.93 1142.72 3104.86 1138.14 Q3101.8 1133.53 3101.8 1124.8 Q3101.8 1116.05 3104.86 1111.47 Q3107.93 1106.86 3113.74 1106.86 Z" fill="#000000" fill-rule="nonzero" fill-opacity="1" /><path clip-path="url(#clip550)" d="M3143.91 1110.57 Q3140.3 1110.57 3138.47 1114.13 Q3136.66 1117.67 3136.66 1124.8 Q3136.66 1131.91 3138.47 1135.47 Q3140.3 1139.02 3143.91 1139.02 Q3147.54 1139.02 3149.35 1135.47 Q3151.17 1131.91 3151.17 1124.8 Q3151.17 1117.67 3149.35 1114.13 Q3147.54 1110.57 3143.91 1110.57 M3143.91 1106.86 Q3149.72 1106.86 3152.77 1111.47 Q3155.85 1116.05 3155.85 1124.8 Q3155.85 1133.53 3152.77 1138.14 Q3149.72 1142.72 3143.91 1142.72 Q3138.1 1142.72 3135.02 1138.14 Q3131.96 1133.53 3131.96 1124.8 Q3131.96 1116.05 3135.02 1111.47 Q3138.1 1106.86 3143.91 1106.86 Z" fill="#000000" fill-rule="nonzero" fill-opacity="1" /><path clip-path="url(#clip550)" d="M3887.01 1107.49 L3905.36 1107.49 L3905.36 1111.42 L3891.29 1111.42 L3891.29 1119.9 Q3892.31 1119.55 3893.32 1119.39 Q3894.34 1119.2 3895.36 1119.2 Q3901.15 1119.2 3904.53 1122.37 Q3907.91 1125.54 3907.91 1130.96 Q3907.91 1136.54 3904.44 1139.64 Q3900.96 1142.72 3894.64 1142.72 Q3892.47 1142.72 3890.2 1142.35 Q3887.95 1141.98 3885.55 1141.24 L3885.55 1136.54 Q3887.63 1137.67 3889.85 1138.23 Q3892.07 1138.78 3894.55 1138.78 Q3898.56 1138.78 3900.89 1136.68 Q3903.23 1134.57 3903.23 1130.96 Q3903.23 1127.35 3900.89 1125.24 Q3898.56 1123.14 3894.55 1123.14 Q3892.68 1123.14 3890.8 1123.55 Q3888.95 1123.97 3887.01 1124.85 L3887.01 1107.49 Z" fill="#000000" fill-rule="nonzero" fill-opacity="1" /><path clip-path="url(#clip550)" d="M3927.12 1110.57 Q3923.51 1110.57 3921.68 1114.13 Q3919.88 1117.67 3919.88 1124.8 Q3919.88 1131.91 3921.68 1135.47 Q3923.51 1139.02 3927.12 1139.02 Q3930.76 1139.02 3932.56 1135.47 Q3934.39 1131.91 3934.39 1124.8 Q3934.39 1117.67 3932.56 1114.13 Q3930.76 1110.57 3927.12 1110.57 M3927.12 1106.86 Q3932.93 1106.86 3935.99 1111.47 Q3939.07 1116.05 3939.07 1124.8 Q3939.07 1133.53 3935.99 1138.14 Q3932.93 1142.72 3927.12 1142.72 Q3921.31 1142.72 3918.23 1138.14 Q3915.18 1133.53 3915.18 1124.8 Q3915.18 1116.05 3918.23 1111.47 Q3921.31 1106.86 3927.12 1106.86 Z" fill="#000000" fill-rule="nonzero" fill-opacity="1" /><path clip-path="url(#clip550)" d="M3957.28 1110.57 Q3953.67 1110.57 3951.84 1114.13 Q3950.04 1117.67 3950.04 1124.8 Q3950.04 1131.91 3951.84 1135.47 Q3953.67 1139.02 3957.28 1139.02 Q3960.92 1139.02 3962.72 1135.47 Q3964.55 1131.91 3964.55 1124.8 Q3964.55 1117.67 3962.72 1114.13 Q3960.92 1110.57 3957.28 1110.57 M3957.28 1106.86 Q3963.09 1106.86 3966.15 1111.47 Q3969.23 1116.05 3969.23 1124.8 Q3969.23 1133.53 3966.15 1138.14 Q3963.09 1142.72 3957.28 1142.72 Q3951.47 1142.72 3948.39 1138.14 Q3945.34 1133.53 3945.34 1124.8 Q3945.34 1116.05 3948.39 1111.47 Q3951.47 1106.86 3957.28 1106.86 Z" fill="#000000" fill-rule="nonzero" fill-opacity="1" /><path clip-path="url(#clip550)" d="M1942.26 1200.1 Q1942.26 1204.81 1939.88 1209.35 Q1937.53 1213.89 1933.82 1216.69 Q1930.12 1219.46 1926.35 1219.46 Q1924.1 1219.46 1922.58 1218.24 Q1921.1 1216.98 1920.3 1215.21 Q1919.68 1217.4 1918.36 1222.65 Q1917.04 1227.9 1917.04 1228.41 Q1917.04 1228.7 1917.11 1228.83 Q1917.17 1228.96 1917.46 1229.12 Q1917.75 1229.32 1918.46 1229.38 Q1919.17 1229.48 1920.36 1229.48 Q1920.97 1229.48 1921.2 1229.48 Q1921.45 1229.51 1921.68 1229.67 Q1921.94 1229.83 1921.94 1230.19 Q1921.94 1231.51 1920.75 1231.51 Q1919.68 1231.51 1917.49 1231.41 Q1915.3 1231.31 1914.21 1231.31 Q1913.27 1231.31 1911.41 1231.41 Q1909.54 1231.51 1908.67 1231.51 Q1907.8 1231.51 1907.8 1230.73 Q1907.8 1230.28 1907.93 1229.99 Q1908.02 1229.73 1908.28 1229.61 Q1908.54 1229.51 1908.77 1229.48 Q1908.96 1229.48 1909.35 1229.48 Q1910.83 1229.48 1911.47 1229.22 Q1912.12 1228.99 1912.34 1228.51 Q1912.6 1228.06 1912.89 1226.77 L1920.3 1197.4 Q1920.75 1195.43 1920.75 1194.05 Q1920.75 1192.31 1920.2 1191.67 Q1919.65 1191.02 1918.69 1191.02 Q1917.01 1191.02 1915.92 1193.02 Q1914.82 1195.02 1913.89 1198.88 Q1913.6 1199.94 1913.4 1200.17 Q1913.24 1200.39 1912.76 1200.39 Q1911.95 1200.36 1911.95 1199.72 Q1911.95 1199.56 1912.21 1198.53 Q1912.47 1197.46 1912.95 1195.92 Q1913.47 1194.34 1914.02 1193.34 Q1914.34 1192.67 1914.63 1192.21 Q1914.92 1191.76 1915.5 1191.05 Q1916.11 1190.35 1916.98 1189.96 Q1917.85 1189.57 1918.91 1189.57 Q1920.97 1189.57 1922.68 1190.8 Q1924.39 1192.02 1924.84 1194.5 Q1926.67 1192.34 1928.93 1190.96 Q1931.18 1189.57 1933.47 1189.57 Q1937.27 1189.57 1939.75 1192.54 Q1942.26 1195.47 1942.26 1200.1 M1937.49 1197.21 Q1937.49 1194.28 1936.37 1192.67 Q1935.27 1191.02 1933.27 1191.02 Q1930.79 1191.02 1927.93 1193.53 Q1925.09 1195.92 1924.51 1198.14 L1921.26 1211.05 L1921.07 1212.12 Q1921.07 1212.31 1921.16 1212.89 Q1921.29 1213.44 1921.65 1214.34 Q1922.03 1215.24 1922.55 1216.05 Q1923.1 1216.82 1924.06 1217.4 Q1925.06 1217.98 1926.29 1217.98 Q1928.25 1217.98 1930.38 1216.24 Q1932.53 1214.5 1934.14 1211.22 Q1935.14 1209.09 1936.3 1204.52 Q1937.49 1199.91 1937.49 1197.21 Z" fill="#000000" fill-rule="nonzero" fill-opacity="1" /><path clip-path="url(#clip550)" d="M1948.95 1257.94 Q1951.41 1257.94 1951.97 1257.62 Q1952.56 1257.33 1952.56 1255.86 L1952.56 1234.24 Q1952.56 1232.71 1951.97 1232.33 Q1951.41 1231.94 1948.95 1231.94 L1948.95 1230.5 L1955.6 1230 L1955.6 1233.05 Q1958.38 1230 1962.07 1230 Q1966 1230 1968.86 1233.05 Q1971.72 1236.09 1971.72 1240.44 Q1971.72 1244.84 1968.68 1247.88 Q1965.64 1250.93 1961.42 1250.93 Q1959.12 1250.93 1957.57 1249.75 Q1956.03 1248.56 1955.74 1247.68 L1955.74 1248.11 L1955.74 1255.86 Q1955.74 1257.35 1956.33 1257.64 Q1956.91 1257.94 1959.35 1257.94 L1959.35 1259.36 Q1954.5 1259.22 1954.14 1259.22 Q1953.69 1259.22 1948.95 1259.36 L1948.95 1257.94 M1955.74 1245.15 Q1955.74 1245.85 1955.83 1246.1 Q1955.94 1246.35 1956.39 1247.09 Q1958.22 1249.89 1961.2 1249.89 Q1961.22 1249.89 1961.24 1249.89 Q1963.88 1249.89 1965.88 1247.21 Q1967.89 1244.5 1967.89 1240.44 Q1967.89 1236.57 1966.07 1233.86 Q1964.24 1231.15 1961.71 1231.15 Q1959.91 1231.15 1958.33 1232.12 Q1956.75 1233.09 1955.74 1234.85 L1955.74 1245.15 Z" fill="#000000" fill-rule="nonzero" fill-opacity="1" /><path clip-path="url(#clip550)" d="M1977.09 1250.41 L1977.09 1248.99 Q1979.54 1248.99 1980.11 1248.69 Q1980.69 1248.38 1980.69 1246.89 L1980.69 1234.51 Q1980.69 1232.8 1980.08 1232.37 Q1979.5 1231.94 1977.09 1231.94 L1977.09 1230.5 L1983.51 1230 L1983.51 1235.08 Q1984.16 1233.09 1985.54 1231.56 Q1986.94 1230 1989.19 1230 Q1990.68 1230 1991.63 1230.84 Q1992.6 1231.67 1992.6 1232.82 Q1992.6 1233.84 1991.96 1234.36 Q1991.36 1234.85 1990.61 1234.85 Q1989.78 1234.85 1989.19 1234.33 Q1988.63 1233.79 1988.63 1232.87 Q1988.63 1232.3 1988.88 1231.88 Q1989.15 1231.43 1989.35 1231.27 Q1989.55 1231.11 1989.69 1231.06 Q1989.6 1231.02 1989.19 1231.02 Q1986.64 1231.02 1985.18 1233.57 Q1983.74 1236.09 1983.74 1239.7 L1983.74 1246.8 Q1983.74 1248.13 1984.28 1248.56 Q1984.84 1248.99 1987.25 1248.99 L1988.22 1248.99 L1988.22 1250.41 Q1986.37 1250.27 1982.36 1250.27 Q1981.8 1250.27 1980.92 1250.29 Q1980.04 1250.32 1978.89 1250.36 Q1977.74 1250.41 1977.09 1250.41 Z" fill="#000000" fill-rule="nonzero" fill-opacity="1" /><path clip-path="url(#clip550)" d="M1995.99 1240.24 Q1995.99 1235.89 1998.78 1232.8 Q2001.58 1229.71 2005.59 1229.71 Q2009.65 1229.71 2011.74 1232.35 Q2013.86 1234.99 2013.86 1238.77 Q2013.86 1239.47 2013.68 1239.61 Q2013.5 1239.74 2012.71 1239.74 L1999.82 1239.74 Q1999.82 1244.46 2001.22 1246.66 Q2003.15 1249.75 2006.42 1249.75 Q2006.87 1249.75 2007.42 1249.66 Q2007.96 1249.57 2009.06 1249.19 Q2010.17 1248.78 2011.14 1247.72 Q2012.1 1246.66 2012.67 1245 Q2012.8 1244.34 2013.25 1244.37 Q2013.86 1244.37 2013.86 1244.91 Q2013.86 1245.31 2013.41 1246.24 Q2012.98 1247.14 2012.15 1248.22 Q2011.32 1249.3 2009.69 1250.11 Q2008.09 1250.93 2006.15 1250.93 Q2002.09 1250.93 1999.03 1247.86 Q1995.99 1244.77 1995.99 1240.24 M1999.86 1238.77 L2010.82 1238.77 Q2010.82 1237.81 2010.64 1236.72 Q2010.48 1235.64 2009.99 1234.15 Q2009.51 1232.64 2008.38 1231.7 Q2007.26 1230.75 2005.59 1230.75 Q2004.85 1230.75 2004.03 1231.06 Q2003.24 1231.38 2002.28 1232.15 Q2001.31 1232.91 2000.63 1234.65 Q1999.95 1236.38 1999.86 1238.77 Z" fill="#000000" fill-rule="nonzero" fill-opacity="1" /><path clip-path="url(#clip550)" d="M2016.28 1250.41 L2016.28 1248.99 Q2018.73 1248.99 2019.3 1248.69 Q2019.86 1248.38 2019.86 1246.89 L2019.86 1222.88 Q2019.86 1221.17 2019.25 1220.74 Q2018.67 1220.31 2016.28 1220.31 L2016.28 1218.87 L2022.91 1218.37 L2022.91 1246.89 Q2022.91 1248.38 2023.49 1248.69 Q2024.08 1248.99 2026.51 1248.99 L2026.51 1250.41 Q2025.95 1250.41 2024.78 1250.36 Q2023.6 1250.32 2022.75 1250.29 Q2021.89 1250.27 2021.4 1250.27 Q2020.85 1250.27 2016.28 1250.41 Z" fill="#000000" fill-rule="nonzero" fill-opacity="1" /><path clip-path="url(#clip550)" d="M2028.57 1250.41 L2028.57 1248.99 Q2031.02 1248.99 2031.59 1248.69 Q2032.15 1248.38 2032.15 1246.89 L2032.15 1234.47 Q2032.15 1232.76 2031.56 1232.35 Q2031 1231.94 2028.75 1231.94 L2028.75 1230.5 L2035.19 1230 L2035.19 1246.94 Q2035.19 1248.31 2035.69 1248.65 Q2036.19 1248.99 2038.44 1248.99 L2038.44 1250.41 Q2033.73 1250.27 2033.64 1250.27 Q2033.01 1250.27 2028.57 1250.41 M2030.5 1221.96 Q2030.5 1221.03 2031.2 1220.29 Q2031.92 1219.52 2032.94 1219.52 Q2033.95 1219.52 2034.67 1220.22 Q2035.4 1220.9 2035.4 1221.98 Q2035.4 1223.04 2034.67 1223.74 Q2033.95 1224.41 2032.94 1224.41 Q2031.88 1224.41 2031.18 1223.67 Q2030.5 1222.93 2030.5 1221.96 Z" fill="#000000" fill-rule="nonzero" fill-opacity="1" /><path clip-path="url(#clip550)" d="M2041.59 1250.41 L2041.59 1248.99 Q2044.05 1248.99 2044.61 1248.69 Q2045.18 1248.38 2045.18 1246.89 L2045.18 1234.51 Q2045.18 1232.8 2044.57 1232.37 Q2043.98 1231.94 2041.59 1231.94 L2041.59 1230.5 L2048.09 1230 L2048.09 1234.85 Q2050.25 1230 2054.92 1230 Q2060.33 1230 2061.07 1234.51 Q2061.86 1232.76 2063.51 1231.38 Q2065.17 1230 2067.77 1230 Q2071.24 1230 2072.61 1231.72 Q2073.63 1232.87 2073.83 1234.15 Q2074.03 1235.44 2074.03 1238.77 L2074.03 1247.59 Q2074.08 1248.56 2074.82 1248.78 Q2075.57 1248.99 2077.64 1248.99 L2077.64 1250.41 Q2072.93 1250.27 2072.48 1250.27 Q2072.12 1250.27 2067.25 1250.41 L2067.25 1248.99 Q2069.71 1248.99 2070.27 1248.69 Q2070.85 1248.38 2070.85 1246.89 L2070.85 1236.14 Q2070.85 1233.79 2070.13 1232.42 Q2069.41 1231.02 2067.43 1231.02 Q2065.04 1231.02 2063.12 1233.03 Q2061.21 1235.03 2061.21 1238.41 L2061.21 1246.89 Q2061.21 1248.38 2061.77 1248.69 Q2062.36 1248.99 2064.81 1248.99 L2064.81 1250.41 Q2060.1 1250.27 2059.63 1250.27 Q2059.27 1250.27 2054.42 1250.41 L2054.42 1248.99 Q2056.88 1248.99 2057.44 1248.69 Q2058.03 1248.38 2058.03 1246.89 L2058.03 1236.14 Q2058.03 1233.79 2057.31 1232.42 Q2056.58 1231.02 2054.6 1231.02 Q2052.21 1231.02 2050.29 1233.03 Q2048.38 1235.03 2048.38 1238.41 L2048.38 1246.89 Q2048.38 1248.38 2048.94 1248.69 Q2049.53 1248.99 2051.96 1248.99 L2051.96 1250.41 Q2047.25 1250.27 2046.8 1250.27 Q2046.44 1250.27 2041.59 1250.41 Z" fill="#000000" fill-rule="nonzero" fill-opacity="1" /><path clip-path="url(#clip550)" d="M2138.98 1235.21 L2138.98 1169.25 L2148.94 1169.25 L2148.94 1170.77 L2143.4 1170.77 L2143.4 1233.7 L2148.94 1233.7 L2148.94 1235.21 L2138.98 1235.21 Z" fill="#000000" fill-rule="nonzero" fill-opacity="1" /><path clip-path="url(#clip550)" d="M2157.13 1218.72 L2157.13 1216.69 Q2160.64 1216.69 2161.45 1216.27 Q2162.25 1215.82 2162.25 1213.7 L2162.25 1196.01 Q2162.25 1193.57 2161.38 1192.96 Q2160.54 1192.34 2157.13 1192.34 L2157.13 1190.28 L2166.41 1189.57 L2166.41 1196.5 Q2169.5 1189.57 2176.16 1189.57 Q2183.89 1189.57 2184.96 1196.01 Q2186.08 1193.5 2188.43 1191.54 Q2190.82 1189.57 2194.52 1189.57 Q2199.48 1189.57 2201.45 1192.02 Q2202.9 1193.66 2203.19 1195.5 Q2203.48 1197.34 2203.48 1202.1 L2203.48 1214.69 Q2203.54 1216.08 2204.6 1216.4 Q2205.67 1216.69 2208.63 1216.69 L2208.63 1218.72 Q2201.9 1218.53 2201.25 1218.53 Q2200.74 1218.53 2193.78 1218.72 L2193.78 1216.69 Q2197.29 1216.69 2198.1 1216.27 Q2198.93 1215.82 2198.93 1213.7 L2198.93 1198.33 Q2198.93 1194.98 2197.9 1193.02 Q2196.87 1191.02 2194.04 1191.02 Q2190.62 1191.02 2187.89 1193.89 Q2185.15 1196.76 2185.15 1201.59 L2185.15 1213.7 Q2185.15 1215.82 2185.96 1216.27 Q2186.79 1216.69 2190.3 1216.69 L2190.3 1218.72 Q2183.57 1218.53 2182.9 1218.53 Q2182.38 1218.53 2175.46 1218.72 L2175.46 1216.69 Q2178.97 1216.69 2179.77 1216.27 Q2180.61 1215.82 2180.61 1213.7 L2180.61 1198.33 Q2180.61 1194.98 2179.58 1193.02 Q2178.55 1191.02 2175.71 1191.02 Q2172.3 1191.02 2169.56 1193.89 Q2166.82 1196.76 2166.82 1201.59 L2166.82 1213.7 Q2166.82 1215.82 2167.63 1216.27 Q2168.47 1216.69 2171.95 1216.69 L2171.95 1218.72 Q2165.21 1218.53 2164.57 1218.53 Q2164.06 1218.53 2157.13 1218.72 Z" fill="#000000" fill-rule="nonzero" fill-opacity="1" /><path clip-path="url(#clip550)" d="M2211.24 1218.72 L2211.24 1216.69 Q2214.75 1216.69 2215.56 1216.27 Q2216.36 1215.82 2216.36 1213.7 L2216.36 1196.01 Q2216.36 1193.57 2215.49 1192.96 Q2214.65 1192.34 2211.24 1192.34 L2211.24 1190.28 L2220.52 1189.57 L2220.52 1196.5 Q2223.61 1189.57 2230.27 1189.57 Q2238 1189.57 2239.07 1196.01 Q2240.19 1193.5 2242.54 1191.54 Q2244.93 1189.57 2248.63 1189.57 Q2253.59 1189.57 2255.56 1192.02 Q2257.01 1193.66 2257.3 1195.5 Q2257.59 1197.34 2257.59 1202.1 L2257.59 1214.69 Q2257.65 1216.08 2258.71 1216.4 Q2259.78 1216.69 2262.74 1216.69 L2262.74 1218.72 Q2256.01 1218.53 2255.36 1218.53 Q2254.85 1218.53 2247.89 1218.72 L2247.89 1216.69 Q2251.4 1216.69 2252.21 1216.27 Q2253.04 1215.82 2253.04 1213.7 L2253.04 1198.33 Q2253.04 1194.98 2252.01 1193.02 Q2250.98 1191.02 2248.15 1191.02 Q2244.73 1191.02 2242 1193.89 Q2239.26 1196.76 2239.26 1201.59 L2239.26 1213.7 Q2239.26 1215.82 2240.07 1216.27 Q2240.9 1216.69 2244.41 1216.69 L2244.41 1218.72 Q2237.68 1218.53 2237.01 1218.53 Q2236.49 1218.53 2229.57 1218.72 L2229.57 1216.69 Q2233.08 1216.69 2233.88 1216.27 Q2234.72 1215.82 2234.72 1213.7 L2234.72 1198.33 Q2234.72 1194.98 2233.69 1193.02 Q2232.66 1191.02 2229.82 1191.02 Q2226.41 1191.02 2223.67 1193.89 Q2220.93 1196.76 2220.93 1201.59 L2220.93 1213.7 Q2220.93 1215.82 2221.74 1216.27 Q2222.58 1216.69 2226.06 1216.69 L2226.06 1218.72 Q2219.32 1218.53 2218.68 1218.53 Q2218.17 1218.53 2211.24 1218.72 Z" fill="#000000" fill-rule="nonzero" fill-opacity="1" /><path clip-path="url(#clip550)" d="M2265.61 1233.7 L2271.15 1233.7 L2271.15 1170.77 L2265.61 1170.77 L2265.61 1169.25 L2275.57 1169.25 L2275.57 1235.21 L2265.61 1235.21 L2265.61 1233.7 Z" fill="#000000" fill-rule="nonzero" fill-opacity="1" /><polyline clip-path="url(#clip550)" style="stroke:#000000; stroke-linecap:round; stroke-linejoin:round; stroke-width:4; stroke-opacity:1; fill:none" points="238.804,1066.85 238.804,47.2441 "/>
<polyline clip-path="url(#clip550)" style="stroke:#000000; stroke-linecap:round; stroke-linejoin:round; stroke-width:4; stroke-opacity:1; fill:none" points="238.804,1005.52 257.702,1005.52 "/>
<polyline clip-path="url(#clip550)" style="stroke:#000000; stroke-linecap:round; stroke-linejoin:round; stroke-width:4; stroke-opacity:1; fill:none" points="238.804,809.123 257.702,809.123 "/>
<polyline clip-path="url(#clip550)" style="stroke:#000000; stroke-linecap:round; stroke-linejoin:round; stroke-width:4; stroke-opacity:1; fill:none" points="238.804,612.73 257.702,612.73 "/>
<polyline clip-path="url(#clip550)" style="stroke:#000000; stroke-linecap:round; stroke-linejoin:round; stroke-width:4; stroke-opacity:1; fill:none" points="238.804,416.338 257.702,416.338 "/>
<polyline clip-path="url(#clip550)" style="stroke:#000000; stroke-linecap:round; stroke-linejoin:round; stroke-width:4; stroke-opacity:1; fill:none" points="238.804,219.945 257.702,219.945 "/>
<path clip-path="url(#clip550)" d="M80.1242 988.235 L102.346 988.235 L102.346 990.226 L89.8 1022.8 L84.9158 1022.8 L96.7213 992.171 L80.1242 992.171 L80.1242 988.235 Z" fill="#000000" fill-rule="nonzero" fill-opacity="1" /><path clip-path="url(#clip550)" d="M115.494 1018.86 L131.814 1018.86 L131.814 1022.8 L109.869 1022.8 L109.869 1018.86 Q112.531 1016.11 117.115 1011.48 Q121.721 1006.82 122.902 1005.48 Q125.147 1002.96 126.027 1001.22 Q126.929 999.462 126.929 997.772 Q126.929 995.018 124.985 993.282 Q123.064 991.546 119.962 991.546 Q117.763 991.546 115.309 992.309 Q112.879 993.073 110.101 994.624 L110.101 989.902 Q112.925 988.768 115.379 988.189 Q117.832 987.61 119.869 987.61 Q125.24 987.61 128.434 990.296 Q131.629 992.981 131.629 997.471 Q131.629 999.601 130.818 1001.52 Q130.031 1003.42 127.925 1006.01 Q127.346 1006.68 124.244 1009.9 Q121.142 1013.1 115.494 1018.86 Z" fill="#000000" fill-rule="nonzero" fill-opacity="1" /><path clip-path="url(#clip550)" d="M141.628 1016.92 L146.513 1016.92 L146.513 1022.8 L141.628 1022.8 L141.628 1016.92 Z" fill="#000000" fill-rule="nonzero" fill-opacity="1" /><path clip-path="url(#clip550)" d="M167.276 1003.65 Q164.128 1003.65 162.276 1005.8 Q160.448 1007.96 160.448 1011.71 Q160.448 1015.43 162.276 1017.61 Q164.128 1019.76 167.276 1019.76 Q170.425 1019.76 172.253 1017.61 Q174.105 1015.43 174.105 1011.71 Q174.105 1007.96 172.253 1005.8 Q170.425 1003.65 167.276 1003.65 M176.559 988.999 L176.559 993.259 Q174.8 992.425 172.994 991.985 Q171.212 991.546 169.452 991.546 Q164.823 991.546 162.369 994.671 Q159.939 997.796 159.591 1004.11 Q160.957 1002.1 163.017 1001.04 Q165.077 999.948 167.554 999.948 Q172.763 999.948 175.772 1003.12 Q178.804 1006.27 178.804 1011.71 Q178.804 1017.03 175.656 1020.25 Q172.508 1023.47 167.276 1023.47 Q161.281 1023.47 158.11 1018.88 Q154.939 1014.28 154.939 1005.55 Q154.939 997.356 158.827 992.495 Q162.716 987.61 169.267 987.61 Q171.026 987.61 172.809 987.958 Q174.614 988.305 176.559 988.999 Z" fill="#000000" fill-rule="nonzero" fill-opacity="1" /><path clip-path="url(#clip550)" d="M80.4714 791.843 L102.693 791.843 L102.693 793.834 L90.1473 826.403 L85.263 826.403 L97.0685 795.778 L80.4714 795.778 L80.4714 791.843 Z" fill="#000000" fill-rule="nonzero" fill-opacity="1" /><path clip-path="url(#clip550)" d="M115.842 822.468 L132.161 822.468 L132.161 826.403 L110.217 826.403 L110.217 822.468 Q112.879 819.713 117.462 815.083 Q122.068 810.431 123.249 809.088 Q125.494 806.565 126.374 804.829 Q127.277 803.07 127.277 801.38 Q127.277 798.625 125.332 796.889 Q123.411 795.153 120.309 795.153 Q118.11 795.153 115.656 795.917 Q113.226 796.681 110.448 798.232 L110.448 793.51 Q113.272 792.375 115.726 791.797 Q118.18 791.218 120.217 791.218 Q125.587 791.218 128.781 793.903 Q131.976 796.588 131.976 801.079 Q131.976 803.209 131.166 805.13 Q130.379 807.028 128.272 809.621 Q127.693 810.292 124.592 813.509 Q121.49 816.704 115.842 822.468 Z" fill="#000000" fill-rule="nonzero" fill-opacity="1" /><path clip-path="url(#clip550)" d="M141.976 820.523 L146.86 820.523 L146.86 826.403 L141.976 826.403 L141.976 820.523 Z" fill="#000000" fill-rule="nonzero" fill-opacity="1" /><path clip-path="url(#clip550)" d="M157.184 825.685 L157.184 821.426 Q158.943 822.259 160.749 822.699 Q162.554 823.139 164.29 823.139 Q168.92 823.139 171.351 820.037 Q173.804 816.912 174.151 810.57 Q172.809 812.56 170.749 813.625 Q168.688 814.69 166.189 814.69 Q161.003 814.69 157.971 811.565 Q154.962 808.417 154.962 802.977 Q154.962 797.653 158.11 794.435 Q161.258 791.218 166.489 791.218 Q172.485 791.218 175.633 795.824 Q178.804 800.408 178.804 809.158 Q178.804 817.329 174.915 822.213 Q171.05 827.074 164.499 827.074 Q162.739 827.074 160.934 826.727 Q159.128 826.38 157.184 825.685 M166.489 811.033 Q169.638 811.033 171.466 808.88 Q173.318 806.727 173.318 802.977 Q173.318 799.25 171.466 797.097 Q169.638 794.922 166.489 794.922 Q163.341 794.922 161.489 797.097 Q159.661 799.25 159.661 802.977 Q159.661 806.727 161.489 808.88 Q163.341 811.033 166.489 811.033 Z" fill="#000000" fill-rule="nonzero" fill-opacity="1" /><path clip-path="url(#clip550)" d="M81.8834 595.45 L104.106 595.45 L104.106 597.441 L91.5593 630.01 L86.675 630.01 L98.4805 599.385 L81.8834 599.385 L81.8834 595.45 Z" fill="#000000" fill-rule="nonzero" fill-opacity="1" /><path clip-path="url(#clip550)" d="M127.392 611.376 Q130.749 612.094 132.624 614.362 Q134.522 616.631 134.522 619.964 Q134.522 625.08 131.004 627.881 Q127.485 630.682 121.004 630.682 Q118.828 630.682 116.513 630.242 Q114.221 629.825 111.768 628.969 L111.768 624.455 Q113.712 625.589 116.027 626.168 Q118.342 626.746 120.865 626.746 Q125.263 626.746 127.554 625.01 Q129.869 623.274 129.869 619.964 Q129.869 616.908 127.716 615.196 Q125.587 613.459 121.767 613.459 L117.74 613.459 L117.74 609.617 L121.953 609.617 Q125.402 609.617 127.23 608.251 Q129.059 606.862 129.059 604.27 Q129.059 601.608 127.161 600.196 Q125.286 598.76 121.767 598.76 Q119.846 598.76 117.647 599.177 Q115.448 599.594 112.809 600.473 L112.809 596.307 Q115.471 595.566 117.786 595.196 Q120.124 594.825 122.184 594.825 Q127.508 594.825 130.61 597.256 Q133.712 599.663 133.712 603.784 Q133.712 606.654 132.068 608.645 Q130.425 610.612 127.392 611.376 Z" fill="#000000" fill-rule="nonzero" fill-opacity="1" /><path clip-path="url(#clip550)" d="M143.388 624.131 L148.272 624.131 L148.272 630.01 L143.388 630.01 L143.388 624.131 Z" fill="#000000" fill-rule="nonzero" fill-opacity="1" /><path clip-path="url(#clip550)" d="M162.485 626.075 L178.804 626.075 L178.804 630.01 L156.86 630.01 L156.86 626.075 Q159.522 623.32 164.105 618.691 Q168.712 614.038 169.892 612.696 Q172.138 610.172 173.017 608.436 Q173.92 606.677 173.92 604.987 Q173.92 602.233 171.976 600.497 Q170.054 598.76 166.952 598.76 Q164.753 598.76 162.3 599.524 Q159.869 600.288 157.091 601.839 L157.091 597.117 Q159.915 595.983 162.369 595.404 Q164.823 594.825 166.86 594.825 Q172.23 594.825 175.425 597.51 Q178.619 600.196 178.619 604.686 Q178.619 606.816 177.809 608.737 Q177.022 610.635 174.915 613.228 Q174.337 613.899 171.235 617.117 Q168.133 620.311 162.485 626.075 Z" fill="#000000" fill-rule="nonzero" fill-opacity="1" /><path clip-path="url(#clip550)" d="M81.2816 399.058 L103.504 399.058 L103.504 401.048 L90.9574 433.618 L86.0732 433.618 L97.8787 402.993 L81.2816 402.993 L81.2816 399.058 Z" fill="#000000" fill-rule="nonzero" fill-opacity="1" /><path clip-path="url(#clip550)" d="M126.791 414.984 Q130.147 415.701 132.022 417.97 Q133.92 420.238 133.92 423.571 Q133.92 428.687 130.402 431.488 Q126.883 434.289 120.402 434.289 Q118.226 434.289 115.911 433.849 Q113.619 433.433 111.166 432.576 L111.166 428.062 Q113.11 429.196 115.425 429.775 Q117.74 430.354 120.263 430.354 Q124.661 430.354 126.953 428.618 Q129.267 426.882 129.267 423.571 Q129.267 420.516 127.115 418.803 Q124.985 417.067 121.166 417.067 L117.138 417.067 L117.138 413.224 L121.351 413.224 Q124.8 413.224 126.629 411.859 Q128.457 410.47 128.457 407.877 Q128.457 405.215 126.559 403.803 Q124.684 402.368 121.166 402.368 Q119.244 402.368 117.045 402.785 Q114.846 403.201 112.207 404.081 L112.207 399.914 Q114.869 399.173 117.184 398.803 Q119.522 398.433 121.582 398.433 Q126.906 398.433 130.008 400.863 Q133.11 403.271 133.11 407.391 Q133.11 410.261 131.466 412.252 Q129.823 414.22 126.791 414.984 Z" fill="#000000" fill-rule="nonzero" fill-opacity="1" /><path clip-path="url(#clip550)" d="M142.786 427.738 L147.67 427.738 L147.67 433.618 L142.786 433.618 L142.786 427.738 Z" fill="#000000" fill-rule="nonzero" fill-opacity="1" /><path clip-path="url(#clip550)" d="M157.902 399.058 L176.258 399.058 L176.258 402.993 L162.184 402.993 L162.184 411.465 Q163.202 411.118 164.221 410.956 Q165.239 410.771 166.258 410.771 Q172.045 410.771 175.425 413.942 Q178.804 417.113 178.804 422.53 Q178.804 428.108 175.332 431.21 Q171.86 434.289 165.54 434.289 Q163.364 434.289 161.096 433.919 Q158.851 433.548 156.443 432.808 L156.443 428.108 Q158.527 429.243 160.749 429.798 Q162.971 430.354 165.448 430.354 Q169.452 430.354 171.79 428.247 Q174.128 426.141 174.128 422.53 Q174.128 418.919 171.79 416.812 Q169.452 414.706 165.448 414.706 Q163.573 414.706 161.698 415.122 Q159.846 415.539 157.902 416.419 L157.902 399.058 Z" fill="#000000" fill-rule="nonzero" fill-opacity="1" /><path clip-path="url(#clip550)" d="M80.3788 202.665 L102.601 202.665 L102.601 204.656 L90.0547 237.225 L85.1704 237.225 L96.9759 206.6 L80.3788 206.6 L80.3788 202.665 Z" fill="#000000" fill-rule="nonzero" fill-opacity="1" /><path clip-path="url(#clip550)" d="M125.888 218.591 Q129.244 219.309 131.119 221.577 Q133.017 223.846 133.017 227.179 Q133.017 232.295 129.499 235.096 Q125.98 237.896 119.499 237.896 Q117.323 237.896 115.008 237.457 Q112.717 237.04 110.263 236.183 L110.263 231.67 Q112.207 232.804 114.522 233.383 Q116.837 233.961 119.36 233.961 Q123.758 233.961 126.05 232.225 Q128.365 230.489 128.365 227.179 Q128.365 224.123 126.212 222.41 Q124.082 220.674 120.263 220.674 L116.235 220.674 L116.235 216.832 L120.448 216.832 Q123.897 216.832 125.726 215.466 Q127.554 214.077 127.554 211.485 Q127.554 208.823 125.656 207.41 Q123.781 205.975 120.263 205.975 Q118.342 205.975 116.142 206.392 Q113.943 206.809 111.305 207.688 L111.305 203.522 Q113.967 202.781 116.281 202.41 Q118.619 202.04 120.679 202.04 Q126.004 202.04 129.105 204.471 Q132.207 206.878 132.207 210.998 Q132.207 213.869 130.564 215.86 Q128.92 217.827 125.888 218.591 Z" fill="#000000" fill-rule="nonzero" fill-opacity="1" /><path clip-path="url(#clip550)" d="M141.883 231.346 L146.767 231.346 L146.767 237.225 L141.883 237.225 L141.883 231.346 Z" fill="#000000" fill-rule="nonzero" fill-opacity="1" /><path clip-path="url(#clip550)" d="M166.952 220.813 Q163.619 220.813 161.698 222.596 Q159.8 224.378 159.8 227.503 Q159.8 230.628 161.698 232.41 Q163.619 234.193 166.952 234.193 Q170.286 234.193 172.207 232.41 Q174.128 230.605 174.128 227.503 Q174.128 224.378 172.207 222.596 Q170.309 220.813 166.952 220.813 M162.276 218.822 Q159.267 218.082 157.577 216.022 Q155.911 213.961 155.911 210.998 Q155.911 206.855 158.851 204.448 Q161.814 202.04 166.952 202.04 Q172.114 202.04 175.054 204.448 Q177.994 206.855 177.994 210.998 Q177.994 213.961 176.304 216.022 Q174.638 218.082 171.651 218.822 Q175.031 219.609 176.906 221.901 Q178.804 224.193 178.804 227.503 Q178.804 232.526 175.725 235.211 Q172.67 237.896 166.952 237.896 Q161.235 237.896 158.156 235.211 Q155.101 232.526 155.101 227.503 Q155.101 224.193 156.999 221.901 Q158.897 219.609 162.276 218.822 M160.564 211.438 Q160.564 214.123 162.23 215.628 Q163.92 217.133 166.952 217.133 Q169.962 217.133 171.651 215.628 Q173.364 214.123 173.364 211.438 Q173.364 208.753 171.651 207.248 Q169.962 205.744 166.952 205.744 Q163.92 205.744 162.23 207.248 Q160.564 208.753 160.564 211.438 Z" fill="#000000" fill-rule="nonzero" fill-opacity="1" /><path clip-path="url(#clip550)" d="M-34.024 638.691 Q-32.2526 638.691 -31.1576 639.818 Q-30.0626 640.913 -30.0626 642.298 Q-30.0626 643.296 -30.6745 644.037 Q-31.2865 644.745 -32.3493 644.745 Q-33.4442 644.745 -34.6037 643.908 Q-35.7631 643.071 -35.9241 641.17 Q-37.1157 642.426 -37.1157 644.423 Q-37.1157 645.422 -36.4716 646.259 Q-35.8597 647.064 -34.8613 647.515 Q-33.8307 647.998 -28.0015 649.093 Q-26.1013 649.447 -24.2656 649.769 Q-22.4298 650.091 -20.4975 650.478 L-20.4975 645.003 Q-20.4975 644.294 -20.4653 644.004 Q-20.4331 643.715 -20.2721 643.489 Q-20.111 643.232 -19.7568 643.232 Q-18.855 643.232 -18.6296 643.65 Q-18.4363 644.037 -18.4363 645.196 L-18.4363 650.864 L2.46529 654.826 Q3.0772 654.922 5.00955 655.341 Q6.90969 655.727 10.0337 656.661 Q13.1898 657.595 15.0578 658.529 Q16.1206 659.045 17.119 659.721 Q18.1495 660.365 19.1801 661.299 Q20.2107 662.233 20.8226 663.457 Q21.4667 664.681 21.4667 665.969 Q21.4667 668.159 20.2429 669.866 Q19.0191 671.573 16.9257 671.573 Q15.1544 671.573 14.0594 670.478 Q12.9644 669.35 12.9644 667.966 Q12.9644 666.967 13.5763 666.259 Q14.1882 665.518 15.251 665.518 Q15.7019 665.518 16.2172 665.679 Q16.7325 665.84 17.3122 666.194 Q17.9241 666.549 18.3428 667.322 Q18.7615 668.094 18.8259 669.157 Q20.0175 667.901 20.0175 665.969 Q20.0175 665.357 19.7598 664.809 Q19.5344 664.262 18.9547 663.811 Q18.375 663.328 17.7953 662.974 Q17.2478 662.619 16.185 662.265 Q15.1544 661.911 14.3815 661.685 Q13.6085 661.46 12.2237 661.17 Q10.8388 660.848 10.0015 660.687 Q9.19631 660.526 7.61822 660.236 L-18.4363 655.309 L-18.4363 659.657 Q-18.4363 660.429 -18.4685 660.752 Q-18.5007 661.041 -18.6618 661.267 Q-18.855 661.492 -19.2415 661.492 Q-19.8534 661.492 -20.111 661.235 Q-20.4009 660.945 -20.4331 660.623 Q-20.4975 660.301 -20.4975 659.528 L-20.4975 654.954 Q-28.6456 653.409 -30.8356 652.797 Q-33.1544 652.088 -34.7647 650.993 Q-36.4072 649.898 -37.1801 648.674 Q-37.9531 647.45 -38.2429 646.452 Q-38.565 645.422 -38.565 644.423 Q-38.565 642.169 -37.3412 640.43 Q-36.1495 638.691 -34.024 638.691 Z" fill="#000000" fill-rule="nonzero" fill-opacity="1" /><path clip-path="url(#clip550)" d="M24.4297 587.296 L-41.5279 587.296 L-41.5279 577.344 L-40.0142 577.344 L-40.0142 582.883 L22.916 582.883 L22.916 577.344 L24.4297 577.344 L24.4297 587.296 Z" fill="#000000" fill-rule="nonzero" fill-opacity="1" /><path clip-path="url(#clip550)" d="M7.94028 569.15 L5.91131 569.15 Q5.91131 565.639 5.49264 564.834 Q5.04175 564.029 2.91617 564.029 L-14.7648 564.029 Q-17.2125 564.029 -17.8244 564.898 Q-18.4363 565.736 -18.4363 569.15 L-20.4975 569.15 L-21.206 559.874 L-14.2818 559.874 Q-21.206 556.783 -21.206 550.116 Q-21.206 542.387 -14.7648 541.324 Q-17.2769 540.197 -19.2415 537.846 Q-21.206 535.462 -21.206 531.759 Q-21.206 526.799 -18.7584 524.834 Q-17.1159 523.385 -15.2801 523.095 Q-13.4444 522.805 -8.67794 522.805 L3.91455 522.805 Q5.2994 522.741 5.62146 521.678 Q5.91131 520.615 5.91131 517.652 L7.94028 517.652 Q7.74705 524.383 7.74705 525.028 Q7.74705 525.543 7.94028 532.499 L5.91131 532.499 Q5.91131 528.989 5.49264 528.184 Q5.04175 527.346 2.91617 527.346 L-12.446 527.346 Q-15.7954 527.346 -17.76 528.377 Q-19.7568 529.408 -19.7568 532.242 Q-19.7568 535.656 -16.8904 538.393 Q-14.0241 541.131 -9.19324 541.131 L2.91617 541.131 Q5.04175 541.131 5.49264 540.325 Q5.91131 539.488 5.91131 535.978 L7.94028 535.978 Q7.74705 542.709 7.74705 543.385 Q7.74705 543.9 7.94028 550.825 L5.91131 550.825 Q5.91131 547.314 5.49264 546.509 Q5.04175 545.672 2.91617 545.672 L-12.446 545.672 Q-15.7954 545.672 -17.76 546.702 Q-19.7568 547.733 -19.7568 550.567 Q-19.7568 553.981 -16.8904 556.718 Q-14.0241 559.456 -9.19324 559.456 L2.91617 559.456 Q5.04175 559.456 5.49264 558.651 Q5.91131 557.813 5.91131 554.335 L7.94028 554.335 Q7.74705 561.066 7.74705 561.71 Q7.74705 562.225 7.94028 569.15 Z" fill="#000000" fill-rule="nonzero" fill-opacity="1" /><path clip-path="url(#clip550)" d="M7.94028 515.04 L5.91131 515.04 Q5.91131 511.529 5.49264 510.724 Q5.04175 509.919 2.91617 509.919 L-14.7648 509.919 Q-17.2125 509.919 -17.8244 510.789 Q-18.4363 511.626 -18.4363 515.04 L-20.4975 515.04 L-21.206 505.764 L-14.2818 505.764 Q-21.206 502.673 -21.206 496.006 Q-21.206 488.277 -14.7648 487.214 Q-17.2769 486.087 -19.2415 483.736 Q-21.206 481.352 -21.206 477.649 Q-21.206 472.689 -18.7584 470.724 Q-17.1159 469.275 -15.2801 468.985 Q-13.4444 468.695 -8.67794 468.695 L3.91455 468.695 Q5.2994 468.631 5.62146 467.568 Q5.91131 466.505 5.91131 463.543 L7.94028 463.543 Q7.74705 470.274 7.74705 470.918 Q7.74705 471.433 7.94028 478.389 L5.91131 478.389 Q5.91131 474.879 5.49264 474.074 Q5.04175 473.237 2.91617 473.237 L-12.446 473.237 Q-15.7954 473.237 -17.76 474.267 Q-19.7568 475.298 -19.7568 478.132 Q-19.7568 481.546 -16.8904 484.283 Q-14.0241 487.021 -9.19324 487.021 L2.91617 487.021 Q5.04175 487.021 5.49264 486.215 Q5.91131 485.378 5.91131 481.868 L7.94028 481.868 Q7.74705 488.599 7.74705 489.275 Q7.74705 489.79 7.94028 496.715 L5.91131 496.715 Q5.91131 493.204 5.49264 492.399 Q5.04175 491.562 2.91617 491.562 L-12.446 491.562 Q-15.7954 491.562 -17.76 492.592 Q-19.7568 493.623 -19.7568 496.457 Q-19.7568 499.871 -16.8904 502.608 Q-14.0241 505.346 -9.19324 505.346 L2.91617 505.346 Q5.04175 505.346 5.49264 504.541 Q5.91131 503.703 5.91131 500.225 L7.94028 500.225 Q7.74705 506.956 7.74705 507.6 Q7.74705 508.115 7.94028 515.04 Z" fill="#000000" fill-rule="nonzero" fill-opacity="1" /><path clip-path="url(#clip550)" d="M22.916 460.666 L22.916 455.126 L-40.0142 455.126 L-40.0142 460.666 L-41.5279 460.666 L-41.5279 450.714 L24.4297 450.714 L24.4297 460.666 L22.916 460.666 Z" fill="#000000" fill-rule="nonzero" fill-opacity="1" /><polyline clip-path="url(#clip552)" style="stroke:#000000; stroke-linecap:round; stroke-linejoin:round; stroke-width:4; stroke-opacity:1; fill:none" points="343.916,842.047 347.239,842.047 "/>
<polyline clip-path="url(#clip552)" style="stroke:#000000; stroke-linecap:round; stroke-linejoin:round; stroke-width:4; stroke-opacity:1; fill:none" points="425.321,777.721 428.644,777.721 "/>
<polyline clip-path="url(#clip552)" style="stroke:#000000; stroke-linecap:round; stroke-linejoin:round; stroke-width:4; stroke-opacity:1; fill:none" points="506.726,746.889 510.049,746.889 "/>
<polyline clip-path="url(#clip552)" style="stroke:#000000; stroke-linecap:round; stroke-linejoin:round; stroke-width:4; stroke-opacity:1; fill:none" points="588.13,636.849 591.454,636.849 "/>
<polyline clip-path="url(#clip552)" style="stroke:#000000; stroke-linecap:round; stroke-linejoin:round; stroke-width:4; stroke-opacity:1; fill:none" points="669.535,690.029 672.858,690.029 "/>
<polyline clip-path="url(#clip552)" style="stroke:#000000; stroke-linecap:round; stroke-linejoin:round; stroke-width:4; stroke-opacity:1; fill:none" points="750.94,604.9 754.263,604.9 "/>
<polyline clip-path="url(#clip552)" style="stroke:#000000; stroke-linecap:round; stroke-linejoin:round; stroke-width:4; stroke-opacity:1; fill:none" points="913.749,629.31 917.073,629.31 "/>
<polyline clip-path="url(#clip552)" style="stroke:#000000; stroke-linecap:round; stroke-linejoin:round; stroke-width:4; stroke-opacity:1; fill:none" points="995.154,650.185 998.477,650.185 "/>
<polyline clip-path="url(#clip552)" style="stroke:#000000; stroke-linecap:round; stroke-linejoin:round; stroke-width:4; stroke-opacity:1; fill:none" points="1076.56,691.072 1079.88,691.072 "/>
<polyline clip-path="url(#clip552)" style="stroke:#000000; stroke-linecap:round; stroke-linejoin:round; stroke-width:4; stroke-opacity:1; fill:none" points="1157.96,687.455 1161.29,687.455 "/>
<polyline clip-path="url(#clip552)" style="stroke:#000000; stroke-linecap:round; stroke-linejoin:round; stroke-width:4; stroke-opacity:1; fill:none" points="1239.37,580.123 1242.69,580.123 "/>
<polyline clip-path="url(#clip552)" style="stroke:#000000; stroke-linecap:round; stroke-linejoin:round; stroke-width:4; stroke-opacity:1; fill:none" points="1320.77,457.173 1324.1,457.173 "/>
<polyline clip-path="url(#clip552)" style="stroke:#000000; stroke-linecap:round; stroke-linejoin:round; stroke-width:4; stroke-opacity:1; fill:none" points="1402.18,585.811 1405.5,585.811 "/>
<polyline clip-path="url(#clip552)" style="stroke:#000000; stroke-linecap:round; stroke-linejoin:round; stroke-width:4; stroke-opacity:1; fill:none" points="1483.58,670.169 1486.91,670.169 "/>
<polyline clip-path="url(#clip552)" style="stroke:#000000; stroke-linecap:round; stroke-linejoin:round; stroke-width:4; stroke-opacity:1; fill:none" points="1564.99,684.526 1568.31,684.526 "/>
<polyline clip-path="url(#clip552)" style="stroke:#000000; stroke-linecap:round; stroke-linejoin:round; stroke-width:4; stroke-opacity:1; fill:none" points="1646.39,440.641 1649.72,440.641 "/>
<polyline clip-path="url(#clip552)" style="stroke:#000000; stroke-linecap:round; stroke-linejoin:round; stroke-width:4; stroke-opacity:1; fill:none" points="1727.8,244.527 1731.12,244.527 "/>
<polyline clip-path="url(#clip552)" style="stroke:#000000; stroke-linecap:round; stroke-linejoin:round; stroke-width:4; stroke-opacity:1; fill:none" points="1809.2,617.397 1812.53,617.397 "/>
<polyline clip-path="url(#clip552)" style="stroke:#000000; stroke-linecap:round; stroke-linejoin:round; stroke-width:4; stroke-opacity:1; fill:none" points="1890.61,519.724 1893.93,519.724 "/>
<polyline clip-path="url(#clip552)" style="stroke:#000000; stroke-linecap:round; stroke-linejoin:round; stroke-width:4; stroke-opacity:1; fill:none" points="1972.01,644.258 1975.33,644.258 "/>
<polyline clip-path="url(#clip552)" style="stroke:#000000; stroke-linecap:round; stroke-linejoin:round; stroke-width:4; stroke-opacity:1; fill:none" points="2053.42,247.824 2056.74,247.824 "/>
<polyline clip-path="url(#clip552)" style="stroke:#000000; stroke-linecap:round; stroke-linejoin:round; stroke-width:4; stroke-opacity:1; fill:none" points="2134.82,636.467 2138.14,636.467 "/>
<polyline clip-path="url(#clip552)" style="stroke:#000000; stroke-linecap:round; stroke-linejoin:round; stroke-width:4; stroke-opacity:1; fill:none" points="2216.23,679.811 2219.55,679.811 "/>
<polyline clip-path="url(#clip552)" style="stroke:#000000; stroke-linecap:round; stroke-linejoin:round; stroke-width:4; stroke-opacity:1; fill:none" points="2297.63,353.447 2300.95,353.447 "/>
<polyline clip-path="url(#clip552)" style="stroke:#000000; stroke-linecap:round; stroke-linejoin:round; stroke-width:4; stroke-opacity:1; fill:none" points="2379.04,851.226 2382.36,851.226 "/>
<polyline clip-path="url(#clip552)" style="stroke:#000000; stroke-linecap:round; stroke-linejoin:round; stroke-width:4; stroke-opacity:1; fill:none" points="2460.44,563.549 2463.76,563.549 "/>
<polyline clip-path="url(#clip552)" style="stroke:#000000; stroke-linecap:round; stroke-linejoin:round; stroke-width:4; stroke-opacity:1; fill:none" points="2541.84,705.532 2545.17,705.532 "/>
<polyline clip-path="url(#clip552)" style="stroke:#000000; stroke-linecap:round; stroke-linejoin:round; stroke-width:4; stroke-opacity:1; fill:none" points="2623.25,446.823 2626.57,446.823 "/>
<polyline clip-path="url(#clip552)" style="stroke:#000000; stroke-linecap:round; stroke-linejoin:round; stroke-width:4; stroke-opacity:1; fill:none" points="2704.65,626.766 2707.98,626.766 "/>
<polyline clip-path="url(#clip552)" style="stroke:#000000; stroke-linecap:round; stroke-linejoin:round; stroke-width:4; stroke-opacity:1; fill:none" points="2786.06,827.113 2789.38,827.113 "/>
<polyline clip-path="url(#clip552)" style="stroke:#000000; stroke-linecap:round; stroke-linejoin:round; stroke-width:4; stroke-opacity:1; fill:none" points="2867.46,607.191 2870.79,607.191 "/>
<polyline clip-path="url(#clip552)" style="stroke:#000000; stroke-linecap:round; stroke-linejoin:round; stroke-width:4; stroke-opacity:1; fill:none" points="2948.87,396.015 2952.19,396.015 "/>
<polyline clip-path="url(#clip552)" style="stroke:#000000; stroke-linecap:round; stroke-linejoin:round; stroke-width:4; stroke-opacity:1; fill:none" points="3030.27,640.216 3033.6,640.216 "/>
<polyline clip-path="url(#clip552)" style="stroke:#000000; stroke-linecap:round; stroke-linejoin:round; stroke-width:4; stroke-opacity:1; fill:none" points="3111.68,448.636 3115,448.636 "/>
<polyline clip-path="url(#clip552)" style="stroke:#000000; stroke-linecap:round; stroke-linejoin:round; stroke-width:4; stroke-opacity:1; fill:none" points="3193.08,492.012 3196.41,492.012 "/>
<polyline clip-path="url(#clip552)" style="stroke:#000000; stroke-linecap:round; stroke-linejoin:round; stroke-width:4; stroke-opacity:1; fill:none" points="3274.49,545.966 3277.81,545.966 "/>
<polyline clip-path="url(#clip552)" style="stroke:#000000; stroke-linecap:round; stroke-linejoin:round; stroke-width:4; stroke-opacity:1; fill:none" points="3355.89,378.061 3359.22,378.061 "/>
<polyline clip-path="url(#clip552)" style="stroke:#000000; stroke-linecap:round; stroke-linejoin:round; stroke-width:4; stroke-opacity:1; fill:none" points="3437.3,683.454 3440.62,683.454 "/>
<polyline clip-path="url(#clip552)" style="stroke:#000000; stroke-linecap:round; stroke-linejoin:round; stroke-width:4; stroke-opacity:1; fill:none" points="3518.7,530.22 3522.03,530.22 "/>
<polyline clip-path="url(#clip552)" style="stroke:#000000; stroke-linecap:round; stroke-linejoin:round; stroke-width:4; stroke-opacity:1; fill:none" points="3600.11,382.271 3603.43,382.271 "/>
<polyline clip-path="url(#clip552)" style="stroke:#000000; stroke-linecap:round; stroke-linejoin:round; stroke-width:4; stroke-opacity:1; fill:none" points="3681.51,477.977 3684.83,477.977 "/>
<polyline clip-path="url(#clip552)" style="stroke:#000000; stroke-linecap:round; stroke-linejoin:round; stroke-width:4; stroke-opacity:1; fill:none" points="3762.92,581.576 3766.24,581.576 "/>
<polyline clip-path="url(#clip552)" style="stroke:#000000; stroke-linecap:round; stroke-linejoin:round; stroke-width:4; stroke-opacity:1; fill:none" points="3844.32,450.579 3847.64,450.579 "/>
<line clip-path="url(#clip552)" x1="343.916" y1="858.047" x2="343.916" y2="826.047" style="stroke:#000000; stroke-width:4; stroke-opacity:1"/>
<line clip-path="url(#clip552)" x1="347.239" y1="858.047" x2="347.239" y2="826.047" style="stroke:#000000; stroke-width:4; stroke-opacity:1"/>
<line clip-path="url(#clip552)" x1="425.321" y1="793.721" x2="425.321" y2="761.721" style="stroke:#000000; stroke-width:4; stroke-opacity:1"/>
<line clip-path="url(#clip552)" x1="428.644" y1="793.721" x2="428.644" y2="761.721" style="stroke:#000000; stroke-width:4; stroke-opacity:1"/>
<line clip-path="url(#clip552)" x1="506.726" y1="762.889" x2="506.726" y2="730.889" style="stroke:#000000; stroke-width:4; stroke-opacity:1"/>
<line clip-path="url(#clip552)" x1="510.049" y1="762.889" x2="510.049" y2="730.889" style="stroke:#000000; stroke-width:4; stroke-opacity:1"/>
<line clip-path="url(#clip552)" x1="588.13" y1="652.849" x2="588.13" y2="620.849" style="stroke:#000000; stroke-width:4; stroke-opacity:1"/>
<line clip-path="url(#clip552)" x1="591.454" y1="652.849" x2="591.454" y2="620.849" style="stroke:#000000; stroke-width:4; stroke-opacity:1"/>
<line clip-path="url(#clip552)" x1="669.535" y1="706.029" x2="669.535" y2="674.029" style="stroke:#000000; stroke-width:4; stroke-opacity:1"/>
<line clip-path="url(#clip552)" x1="672.858" y1="706.029" x2="672.858" y2="674.029" style="stroke:#000000; stroke-width:4; stroke-opacity:1"/>
<line clip-path="url(#clip552)" x1="750.94" y1="620.9" x2="750.94" y2="588.9" style="stroke:#000000; stroke-width:4; stroke-opacity:1"/>
<line clip-path="url(#clip552)" x1="754.263" y1="620.9" x2="754.263" y2="588.9" style="stroke:#000000; stroke-width:4; stroke-opacity:1"/>
<line clip-path="url(#clip552)" x1="913.749" y1="645.31" x2="913.749" y2="613.31" style="stroke:#000000; stroke-width:4; stroke-opacity:1"/>
<line clip-path="url(#clip552)" x1="917.073" y1="645.31" x2="917.073" y2="613.31" style="stroke:#000000; stroke-width:4; stroke-opacity:1"/>
<line clip-path="url(#clip552)" x1="995.154" y1="666.185" x2="995.154" y2="634.185" style="stroke:#000000; stroke-width:4; stroke-opacity:1"/>
<line clip-path="url(#clip552)" x1="998.477" y1="666.185" x2="998.477" y2="634.185" style="stroke:#000000; stroke-width:4; stroke-opacity:1"/>
<line clip-path="url(#clip552)" x1="1076.56" y1="707.072" x2="1076.56" y2="675.072" style="stroke:#000000; stroke-width:4; stroke-opacity:1"/>
<line clip-path="url(#clip552)" x1="1079.88" y1="707.072" x2="1079.88" y2="675.072" style="stroke:#000000; stroke-width:4; stroke-opacity:1"/>
<line clip-path="url(#clip552)" x1="1157.96" y1="703.455" x2="1157.96" y2="671.455" style="stroke:#000000; stroke-width:4; stroke-opacity:1"/>
<line clip-path="url(#clip552)" x1="1161.29" y1="703.455" x2="1161.29" y2="671.455" style="stroke:#000000; stroke-width:4; stroke-opacity:1"/>
<line clip-path="url(#clip552)" x1="1239.37" y1="596.123" x2="1239.37" y2="564.123" style="stroke:#000000; stroke-width:4; stroke-opacity:1"/>
<line clip-path="url(#clip552)" x1="1242.69" y1="596.123" x2="1242.69" y2="564.123" style="stroke:#000000; stroke-width:4; stroke-opacity:1"/>
<line clip-path="url(#clip552)" x1="1320.77" y1="473.173" x2="1320.77" y2="441.173" style="stroke:#000000; stroke-width:4; stroke-opacity:1"/>
<line clip-path="url(#clip552)" x1="1324.1" y1="473.173" x2="1324.1" y2="441.173" style="stroke:#000000; stroke-width:4; stroke-opacity:1"/>
<line clip-path="url(#clip552)" x1="1402.18" y1="601.811" x2="1402.18" y2="569.811" style="stroke:#000000; stroke-width:4; stroke-opacity:1"/>
<line clip-path="url(#clip552)" x1="1405.5" y1="601.811" x2="1405.5" y2="569.811" style="stroke:#000000; stroke-width:4; stroke-opacity:1"/>
<line clip-path="url(#clip552)" x1="1483.58" y1="686.169" x2="1483.58" y2="654.169" style="stroke:#000000; stroke-width:4; stroke-opacity:1"/>
<line clip-path="url(#clip552)" x1="1486.91" y1="686.169" x2="1486.91" y2="654.169" style="stroke:#000000; stroke-width:4; stroke-opacity:1"/>
<line clip-path="url(#clip552)" x1="1564.99" y1="700.526" x2="1564.99" y2="668.526" style="stroke:#000000; stroke-width:4; stroke-opacity:1"/>
<line clip-path="url(#clip552)" x1="1568.31" y1="700.526" x2="1568.31" y2="668.526" style="stroke:#000000; stroke-width:4; stroke-opacity:1"/>
<line clip-path="url(#clip552)" x1="1646.39" y1="456.641" x2="1646.39" y2="424.641" style="stroke:#000000; stroke-width:4; stroke-opacity:1"/>
<line clip-path="url(#clip552)" x1="1649.72" y1="456.641" x2="1649.72" y2="424.641" style="stroke:#000000; stroke-width:4; stroke-opacity:1"/>
<line clip-path="url(#clip552)" x1="1727.8" y1="260.527" x2="1727.8" y2="228.527" style="stroke:#000000; stroke-width:4; stroke-opacity:1"/>
<line clip-path="url(#clip552)" x1="1731.12" y1="260.527" x2="1731.12" y2="228.527" style="stroke:#000000; stroke-width:4; stroke-opacity:1"/>
<line clip-path="url(#clip552)" x1="1809.2" y1="633.397" x2="1809.2" y2="601.397" style="stroke:#000000; stroke-width:4; stroke-opacity:1"/>
<line clip-path="url(#clip552)" x1="1812.53" y1="633.397" x2="1812.53" y2="601.397" style="stroke:#000000; stroke-width:4; stroke-opacity:1"/>
<line clip-path="url(#clip552)" x1="1890.61" y1="535.724" x2="1890.61" y2="503.724" style="stroke:#000000; stroke-width:4; stroke-opacity:1"/>
<line clip-path="url(#clip552)" x1="1893.93" y1="535.724" x2="1893.93" y2="503.724" style="stroke:#000000; stroke-width:4; stroke-opacity:1"/>
<line clip-path="url(#clip552)" x1="1972.01" y1="660.258" x2="1972.01" y2="628.258" style="stroke:#000000; stroke-width:4; stroke-opacity:1"/>
<line clip-path="url(#clip552)" x1="1975.33" y1="660.258" x2="1975.33" y2="628.258" style="stroke:#000000; stroke-width:4; stroke-opacity:1"/>
<line clip-path="url(#clip552)" x1="2053.42" y1="263.824" x2="2053.42" y2="231.824" style="stroke:#000000; stroke-width:4; stroke-opacity:1"/>
<line clip-path="url(#clip552)" x1="2056.74" y1="263.824" x2="2056.74" y2="231.824" style="stroke:#000000; stroke-width:4; stroke-opacity:1"/>
<line clip-path="url(#clip552)" x1="2134.82" y1="652.467" x2="2134.82" y2="620.467" style="stroke:#000000; stroke-width:4; stroke-opacity:1"/>
<line clip-path="url(#clip552)" x1="2138.14" y1="652.467" x2="2138.14" y2="620.467" style="stroke:#000000; stroke-width:4; stroke-opacity:1"/>
<line clip-path="url(#clip552)" x1="2216.23" y1="695.811" x2="2216.23" y2="663.811" style="stroke:#000000; stroke-width:4; stroke-opacity:1"/>
<line clip-path="url(#clip552)" x1="2219.55" y1="695.811" x2="2219.55" y2="663.811" style="stroke:#000000; stroke-width:4; stroke-opacity:1"/>
<line clip-path="url(#clip552)" x1="2297.63" y1="369.447" x2="2297.63" y2="337.447" style="stroke:#000000; stroke-width:4; stroke-opacity:1"/>
<line clip-path="url(#clip552)" x1="2300.95" y1="369.447" x2="2300.95" y2="337.447" style="stroke:#000000; stroke-width:4; stroke-opacity:1"/>
<line clip-path="url(#clip552)" x1="2379.04" y1="867.226" x2="2379.04" y2="835.226" style="stroke:#000000; stroke-width:4; stroke-opacity:1"/>
<line clip-path="url(#clip552)" x1="2382.36" y1="867.226" x2="2382.36" y2="835.226" style="stroke:#000000; stroke-width:4; stroke-opacity:1"/>
<line clip-path="url(#clip552)" x1="2460.44" y1="579.549" x2="2460.44" y2="547.549" style="stroke:#000000; stroke-width:4; stroke-opacity:1"/>
<line clip-path="url(#clip552)" x1="2463.76" y1="579.549" x2="2463.76" y2="547.549" style="stroke:#000000; stroke-width:4; stroke-opacity:1"/>
<line clip-path="url(#clip552)" x1="2541.84" y1="721.532" x2="2541.84" y2="689.532" style="stroke:#000000; stroke-width:4; stroke-opacity:1"/>
<line clip-path="url(#clip552)" x1="2545.17" y1="721.532" x2="2545.17" y2="689.532" style="stroke:#000000; stroke-width:4; stroke-opacity:1"/>
<line clip-path="url(#clip552)" x1="2623.25" y1="462.823" x2="2623.25" y2="430.823" style="stroke:#000000; stroke-width:4; stroke-opacity:1"/>
<line clip-path="url(#clip552)" x1="2626.57" y1="462.823" x2="2626.57" y2="430.823" style="stroke:#000000; stroke-width:4; stroke-opacity:1"/>
<line clip-path="url(#clip552)" x1="2704.65" y1="642.766" x2="2704.65" y2="610.766" style="stroke:#000000; stroke-width:4; stroke-opacity:1"/>
<line clip-path="url(#clip552)" x1="2707.98" y1="642.766" x2="2707.98" y2="610.766" style="stroke:#000000; stroke-width:4; stroke-opacity:1"/>
<line clip-path="url(#clip552)" x1="2786.06" y1="843.113" x2="2786.06" y2="811.113" style="stroke:#000000; stroke-width:4; stroke-opacity:1"/>
<line clip-path="url(#clip552)" x1="2789.38" y1="843.113" x2="2789.38" y2="811.113" style="stroke:#000000; stroke-width:4; stroke-opacity:1"/>
<line clip-path="url(#clip552)" x1="2867.46" y1="623.191" x2="2867.46" y2="591.191" style="stroke:#000000; stroke-width:4; stroke-opacity:1"/>
<line clip-path="url(#clip552)" x1="2870.79" y1="623.191" x2="2870.79" y2="591.191" style="stroke:#000000; stroke-width:4; stroke-opacity:1"/>
<line clip-path="url(#clip552)" x1="2948.87" y1="412.015" x2="2948.87" y2="380.015" style="stroke:#000000; stroke-width:4; stroke-opacity:1"/>
<line clip-path="url(#clip552)" x1="2952.19" y1="412.015" x2="2952.19" y2="380.015" style="stroke:#000000; stroke-width:4; stroke-opacity:1"/>
<line clip-path="url(#clip552)" x1="3030.27" y1="656.216" x2="3030.27" y2="624.216" style="stroke:#000000; stroke-width:4; stroke-opacity:1"/>
<line clip-path="url(#clip552)" x1="3033.6" y1="656.216" x2="3033.6" y2="624.216" style="stroke:#000000; stroke-width:4; stroke-opacity:1"/>
<line clip-path="url(#clip552)" x1="3111.68" y1="464.636" x2="3111.68" y2="432.636" style="stroke:#000000; stroke-width:4; stroke-opacity:1"/>
<line clip-path="url(#clip552)" x1="3115" y1="464.636" x2="3115" y2="432.636" style="stroke:#000000; stroke-width:4; stroke-opacity:1"/>
<line clip-path="url(#clip552)" x1="3193.08" y1="508.012" x2="3193.08" y2="476.012" style="stroke:#000000; stroke-width:4; stroke-opacity:1"/>
<line clip-path="url(#clip552)" x1="3196.41" y1="508.012" x2="3196.41" y2="476.012" style="stroke:#000000; stroke-width:4; stroke-opacity:1"/>
<line clip-path="url(#clip552)" x1="3274.49" y1="561.966" x2="3274.49" y2="529.966" style="stroke:#000000; stroke-width:4; stroke-opacity:1"/>
<line clip-path="url(#clip552)" x1="3277.81" y1="561.966" x2="3277.81" y2="529.966" style="stroke:#000000; stroke-width:4; stroke-opacity:1"/>
<line clip-path="url(#clip552)" x1="3355.89" y1="394.061" x2="3355.89" y2="362.061" style="stroke:#000000; stroke-width:4; stroke-opacity:1"/>
<line clip-path="url(#clip552)" x1="3359.22" y1="394.061" x2="3359.22" y2="362.061" style="stroke:#000000; stroke-width:4; stroke-opacity:1"/>
<line clip-path="url(#clip552)" x1="3437.3" y1="699.454" x2="3437.3" y2="667.454" style="stroke:#000000; stroke-width:4; stroke-opacity:1"/>
<line clip-path="url(#clip552)" x1="3440.62" y1="699.454" x2="3440.62" y2="667.454" style="stroke:#000000; stroke-width:4; stroke-opacity:1"/>
<line clip-path="url(#clip552)" x1="3518.7" y1="546.22" x2="3518.7" y2="514.22" style="stroke:#000000; stroke-width:4; stroke-opacity:1"/>
<line clip-path="url(#clip552)" x1="3522.03" y1="546.22" x2="3522.03" y2="514.22" style="stroke:#000000; stroke-width:4; stroke-opacity:1"/>
<line clip-path="url(#clip552)" x1="3600.11" y1="398.271" x2="3600.11" y2="366.271" style="stroke:#000000; stroke-width:4; stroke-opacity:1"/>
<line clip-path="url(#clip552)" x1="3603.43" y1="398.271" x2="3603.43" y2="366.271" style="stroke:#000000; stroke-width:4; stroke-opacity:1"/>
<line clip-path="url(#clip552)" x1="3681.51" y1="493.977" x2="3681.51" y2="461.977" style="stroke:#000000; stroke-width:4; stroke-opacity:1"/>
<line clip-path="url(#clip552)" x1="3684.83" y1="493.977" x2="3684.83" y2="461.977" style="stroke:#000000; stroke-width:4; stroke-opacity:1"/>
<line clip-path="url(#clip552)" x1="3762.92" y1="597.576" x2="3762.92" y2="565.576" style="stroke:#000000; stroke-width:4; stroke-opacity:1"/>
<line clip-path="url(#clip552)" x1="3766.24" y1="597.576" x2="3766.24" y2="565.576" style="stroke:#000000; stroke-width:4; stroke-opacity:1"/>
<line clip-path="url(#clip552)" x1="3844.32" y1="466.579" x2="3844.32" y2="434.579" style="stroke:#000000; stroke-width:4; stroke-opacity:1"/>
<line clip-path="url(#clip552)" x1="3847.64" y1="466.579" x2="3847.64" y2="434.579" style="stroke:#000000; stroke-width:4; stroke-opacity:1"/>
<polyline clip-path="url(#clip552)" style="stroke:#000000; stroke-linecap:round; stroke-linejoin:round; stroke-width:4; stroke-opacity:1; fill:none" points="345.578,1002.2 345.578,681.89 "/>
<polyline clip-path="url(#clip552)" style="stroke:#000000; stroke-linecap:round; stroke-linejoin:round; stroke-width:4; stroke-opacity:1; fill:none" points="426.982,907.797 426.982,647.645 "/>
<polyline clip-path="url(#clip552)" style="stroke:#000000; stroke-linecap:round; stroke-linejoin:round; stroke-width:4; stroke-opacity:1; fill:none" points="508.387,856.25 508.387,637.528 "/>
<polyline clip-path="url(#clip552)" style="stroke:#000000; stroke-linecap:round; stroke-linejoin:round; stroke-width:4; stroke-opacity:1; fill:none" points="589.792,733.697 589.792,540.002 "/>
<polyline clip-path="url(#clip552)" style="stroke:#000000; stroke-linecap:round; stroke-linejoin:round; stroke-width:4; stroke-opacity:1; fill:none" points="671.197,780.622 671.197,599.436 "/>
<polyline clip-path="url(#clip552)" style="stroke:#000000; stroke-linecap:round; stroke-linejoin:round; stroke-width:4; stroke-opacity:1; fill:none" points="752.601,694.523 752.601,515.276 "/>
<polyline clip-path="url(#clip552)" style="stroke:#000000; stroke-linecap:round; stroke-linejoin:round; stroke-width:4; stroke-opacity:1; fill:none" points="915.411,726.212 915.411,532.407 "/>
<polyline clip-path="url(#clip552)" style="stroke:#000000; stroke-linecap:round; stroke-linejoin:round; stroke-width:4; stroke-opacity:1; fill:none" points="996.816,753.025 996.816,547.345 "/>
<polyline clip-path="url(#clip552)" style="stroke:#000000; stroke-linecap:round; stroke-linejoin:round; stroke-width:4; stroke-opacity:1; fill:none" points="1078.22,800.435 1078.22,581.709 "/>
<polyline clip-path="url(#clip552)" style="stroke:#000000; stroke-linecap:round; stroke-linejoin:round; stroke-width:4; stroke-opacity:1; fill:none" points="1159.63,803.373 1159.63,571.537 "/>
<polyline clip-path="url(#clip552)" style="stroke:#000000; stroke-linecap:round; stroke-linejoin:round; stroke-width:4; stroke-opacity:1; fill:none" points="1241.03,702.231 1241.03,458.015 "/>
<polyline clip-path="url(#clip552)" style="stroke:#000000; stroke-linecap:round; stroke-linejoin:round; stroke-width:4; stroke-opacity:1; fill:none" points="1322.43,585.222 1322.43,329.125 "/>
<polyline clip-path="url(#clip552)" style="stroke:#000000; stroke-linecap:round; stroke-linejoin:round; stroke-width:4; stroke-opacity:1; fill:none" points="1403.84,720.228 1403.84,451.395 "/>
<polyline clip-path="url(#clip552)" style="stroke:#000000; stroke-linecap:round; stroke-linejoin:round; stroke-width:4; stroke-opacity:1; fill:none" points="1485.24,810.544 1485.24,529.794 "/>
<polyline clip-path="url(#clip552)" style="stroke:#000000; stroke-linecap:round; stroke-linejoin:round; stroke-width:4; stroke-opacity:1; fill:none" points="1566.65,830.372 1566.65,538.681 "/>
<polyline clip-path="url(#clip552)" style="stroke:#000000; stroke-linecap:round; stroke-linejoin:round; stroke-width:4; stroke-opacity:1; fill:none" points="1648.05,590.981 1648.05,290.301 "/>
<polyline clip-path="url(#clip552)" style="stroke:#000000; stroke-linecap:round; stroke-linejoin:round; stroke-width:4; stroke-opacity:1; fill:none" points="1729.46,399.229 1729.46,89.8253 "/>
<polyline clip-path="url(#clip552)" style="stroke:#000000; stroke-linecap:round; stroke-linejoin:round; stroke-width:4; stroke-opacity:1; fill:none" points="1810.86,777.662 1810.86,457.132 "/>
<polyline clip-path="url(#clip552)" style="stroke:#000000; stroke-linecap:round; stroke-linejoin:round; stroke-width:4; stroke-opacity:1; fill:none" points="1892.27,684.089 1892.27,355.359 "/>
<polyline clip-path="url(#clip552)" style="stroke:#000000; stroke-linecap:round; stroke-linejoin:round; stroke-width:4; stroke-opacity:1; fill:none" points="1973.67,813.042 1973.67,475.474 "/>
<polyline clip-path="url(#clip552)" style="stroke:#000000; stroke-linecap:round; stroke-linejoin:round; stroke-width:4; stroke-opacity:1; fill:none" points="2055.08,419.547 2055.08,76.1008 "/>
<polyline clip-path="url(#clip552)" style="stroke:#000000; stroke-linecap:round; stroke-linejoin:round; stroke-width:4; stroke-opacity:1; fill:none" points="2136.48,812.804 2136.48,460.13 "/>
<polyline clip-path="url(#clip552)" style="stroke:#000000; stroke-linecap:round; stroke-linejoin:round; stroke-width:4; stroke-opacity:1; fill:none" points="2217.89,859.74 2217.89,499.882 "/>
<polyline clip-path="url(#clip552)" style="stroke:#000000; stroke-linecap:round; stroke-linejoin:round; stroke-width:4; stroke-opacity:1; fill:none" points="2299.29,535.955 2299.29,170.939 "/>
<polyline clip-path="url(#clip552)" style="stroke:#000000; stroke-linecap:round; stroke-linejoin:round; stroke-width:4; stroke-opacity:1; fill:none" points="2380.7,1037.99 2380.7,664.46 "/>
<polyline clip-path="url(#clip552)" style="stroke:#000000; stroke-linecap:round; stroke-linejoin:round; stroke-width:4; stroke-opacity:1; fill:none" points="2462.1,752.679 2462.1,374.418 "/>
<polyline clip-path="url(#clip552)" style="stroke:#000000; stroke-linecap:round; stroke-linejoin:round; stroke-width:4; stroke-opacity:1; fill:none" points="2543.51,897.816 2543.51,513.247 "/>
<polyline clip-path="url(#clip552)" style="stroke:#000000; stroke-linecap:round; stroke-linejoin:round; stroke-width:4; stroke-opacity:1; fill:none" points="2624.91,641.285 2624.91,252.36 "/>
<polyline clip-path="url(#clip552)" style="stroke:#000000; stroke-linecap:round; stroke-linejoin:round; stroke-width:4; stroke-opacity:1; fill:none" points="2706.32,824.193 2706.32,429.34 "/>
<polyline clip-path="url(#clip552)" style="stroke:#000000; stroke-linecap:round; stroke-linejoin:round; stroke-width:4; stroke-opacity:1; fill:none" points="2787.72,1027.41 2787.72,626.814 "/>
<polyline clip-path="url(#clip552)" style="stroke:#000000; stroke-linecap:round; stroke-linejoin:round; stroke-width:4; stroke-opacity:1; fill:none" points="2869.13,809.418 2869.13,404.964 "/>
<polyline clip-path="url(#clip552)" style="stroke:#000000; stroke-linecap:round; stroke-linejoin:round; stroke-width:4; stroke-opacity:1; fill:none" points="2950.53,600.101 2950.53,191.928 "/>
<polyline clip-path="url(#clip552)" style="stroke:#000000; stroke-linecap:round; stroke-linejoin:round; stroke-width:4; stroke-opacity:1; fill:none" points="3031.93,846.934 3031.93,433.499 "/>
<polyline clip-path="url(#clip552)" style="stroke:#000000; stroke-linecap:round; stroke-linejoin:round; stroke-width:4; stroke-opacity:1; fill:none" points="3113.34,657.075 3113.34,240.196 "/>
<polyline clip-path="url(#clip552)" style="stroke:#000000; stroke-linecap:round; stroke-linejoin:round; stroke-width:4; stroke-opacity:1; fill:none" points="3194.74,702.525 3194.74,281.498 "/>
<polyline clip-path="url(#clip552)" style="stroke:#000000; stroke-linecap:round; stroke-linejoin:round; stroke-width:4; stroke-opacity:1; fill:none" points="3276.15,758.489 3276.15,333.443 "/>
<polyline clip-path="url(#clip552)" style="stroke:#000000; stroke-linecap:round; stroke-linejoin:round; stroke-width:4; stroke-opacity:1; fill:none" points="3357.55,592.129 3357.55,163.994 "/>
<polyline clip-path="url(#clip552)" style="stroke:#000000; stroke-linecap:round; stroke-linejoin:round; stroke-width:4; stroke-opacity:1; fill:none" points="3438.96,899.814 3438.96,467.094 "/>
<polyline clip-path="url(#clip552)" style="stroke:#000000; stroke-linecap:round; stroke-linejoin:round; stroke-width:4; stroke-opacity:1; fill:none" points="3520.36,748.016 3520.36,312.424 "/>
<polyline clip-path="url(#clip552)" style="stroke:#000000; stroke-linecap:round; stroke-linejoin:round; stroke-width:4; stroke-opacity:1; fill:none" points="3601.77,601.458 3601.77,163.083 "/>
<polyline clip-path="url(#clip552)" style="stroke:#000000; stroke-linecap:round; stroke-linejoin:round; stroke-width:4; stroke-opacity:1; fill:none" points="3683.17,698.898 3683.17,257.055 "/>
<polyline clip-path="url(#clip552)" style="stroke:#000000; stroke-linecap:round; stroke-linejoin:round; stroke-width:4; stroke-opacity:1; fill:none" points="3764.58,804.183 3764.58,358.97 "/>
<polyline clip-path="url(#clip552)" style="stroke:#000000; stroke-linecap:round; stroke-linejoin:round; stroke-width:4; stroke-opacity:1; fill:none" points="3845.98,674.443 3845.98,226.715 "/>
<line clip-path="url(#clip552)" x1="361.578" y1="1002.2" x2="329.578" y2="1002.2" style="stroke:#000000; stroke-width:4; stroke-opacity:1"/>
<line clip-path="url(#clip552)" x1="361.578" y1="681.89" x2="329.578" y2="681.89" style="stroke:#000000; stroke-width:4; stroke-opacity:1"/>
<line clip-path="url(#clip552)" x1="442.982" y1="907.797" x2="410.982" y2="907.797" style="stroke:#000000; stroke-width:4; stroke-opacity:1"/>
<line clip-path="url(#clip552)" x1="442.982" y1="647.645" x2="410.982" y2="647.645" style="stroke:#000000; stroke-width:4; stroke-opacity:1"/>
<line clip-path="url(#clip552)" x1="524.387" y1="856.25" x2="492.387" y2="856.25" style="stroke:#000000; stroke-width:4; stroke-opacity:1"/>
<line clip-path="url(#clip552)" x1="524.387" y1="637.528" x2="492.387" y2="637.528" style="stroke:#000000; stroke-width:4; stroke-opacity:1"/>
<line clip-path="url(#clip552)" x1="605.792" y1="733.697" x2="573.792" y2="733.697" style="stroke:#000000; stroke-width:4; stroke-opacity:1"/>
<line clip-path="url(#clip552)" x1="605.792" y1="540.002" x2="573.792" y2="540.002" style="stroke:#000000; stroke-width:4; stroke-opacity:1"/>
<line clip-path="url(#clip552)" x1="687.197" y1="780.622" x2="655.197" y2="780.622" style="stroke:#000000; stroke-width:4; stroke-opacity:1"/>
<line clip-path="url(#clip552)" x1="687.197" y1="599.436" x2="655.197" y2="599.436" style="stroke:#000000; stroke-width:4; stroke-opacity:1"/>
<line clip-path="url(#clip552)" x1="768.601" y1="694.523" x2="736.601" y2="694.523" style="stroke:#000000; stroke-width:4; stroke-opacity:1"/>
<line clip-path="url(#clip552)" x1="768.601" y1="515.276" x2="736.601" y2="515.276" style="stroke:#000000; stroke-width:4; stroke-opacity:1"/>
<line clip-path="url(#clip552)" x1="931.411" y1="726.212" x2="899.411" y2="726.212" style="stroke:#000000; stroke-width:4; stroke-opacity:1"/>
<line clip-path="url(#clip552)" x1="931.411" y1="532.407" x2="899.411" y2="532.407" style="stroke:#000000; stroke-width:4; stroke-opacity:1"/>
<line clip-path="url(#clip552)" x1="1012.82" y1="753.025" x2="980.816" y2="753.025" style="stroke:#000000; stroke-width:4; stroke-opacity:1"/>
<line clip-path="url(#clip552)" x1="1012.82" y1="547.345" x2="980.816" y2="547.345" style="stroke:#000000; stroke-width:4; stroke-opacity:1"/>
<line clip-path="url(#clip552)" x1="1094.22" y1="800.435" x2="1062.22" y2="800.435" style="stroke:#000000; stroke-width:4; stroke-opacity:1"/>
<line clip-path="url(#clip552)" x1="1094.22" y1="581.709" x2="1062.22" y2="581.709" style="stroke:#000000; stroke-width:4; stroke-opacity:1"/>
<line clip-path="url(#clip552)" x1="1175.63" y1="803.373" x2="1143.63" y2="803.373" style="stroke:#000000; stroke-width:4; stroke-opacity:1"/>
<line clip-path="url(#clip552)" x1="1175.63" y1="571.537" x2="1143.63" y2="571.537" style="stroke:#000000; stroke-width:4; stroke-opacity:1"/>
<line clip-path="url(#clip552)" x1="1257.03" y1="702.231" x2="1225.03" y2="702.231" style="stroke:#000000; stroke-width:4; stroke-opacity:1"/>
<line clip-path="url(#clip552)" x1="1257.03" y1="458.015" x2="1225.03" y2="458.015" style="stroke:#000000; stroke-width:4; stroke-opacity:1"/>
<line clip-path="url(#clip552)" x1="1338.43" y1="585.222" x2="1306.43" y2="585.222" style="stroke:#000000; stroke-width:4; stroke-opacity:1"/>
<line clip-path="url(#clip552)" x1="1338.43" y1="329.125" x2="1306.43" y2="329.125" style="stroke:#000000; stroke-width:4; stroke-opacity:1"/>
<line clip-path="url(#clip552)" x1="1419.84" y1="720.228" x2="1387.84" y2="720.228" style="stroke:#000000; stroke-width:4; stroke-opacity:1"/>
<line clip-path="url(#clip552)" x1="1419.84" y1="451.395" x2="1387.84" y2="451.395" style="stroke:#000000; stroke-width:4; stroke-opacity:1"/>
<line clip-path="url(#clip552)" x1="1501.24" y1="810.544" x2="1469.24" y2="810.544" style="stroke:#000000; stroke-width:4; stroke-opacity:1"/>
<line clip-path="url(#clip552)" x1="1501.24" y1="529.794" x2="1469.24" y2="529.794" style="stroke:#000000; stroke-width:4; stroke-opacity:1"/>
<line clip-path="url(#clip552)" x1="1582.65" y1="830.372" x2="1550.65" y2="830.372" style="stroke:#000000; stroke-width:4; stroke-opacity:1"/>
<line clip-path="url(#clip552)" x1="1582.65" y1="538.681" x2="1550.65" y2="538.681" style="stroke:#000000; stroke-width:4; stroke-opacity:1"/>
<line clip-path="url(#clip552)" x1="1664.05" y1="590.981" x2="1632.05" y2="590.981" style="stroke:#000000; stroke-width:4; stroke-opacity:1"/>
<line clip-path="url(#clip552)" x1="1664.05" y1="290.301" x2="1632.05" y2="290.301" style="stroke:#000000; stroke-width:4; stroke-opacity:1"/>
<line clip-path="url(#clip552)" x1="1745.46" y1="399.229" x2="1713.46" y2="399.229" style="stroke:#000000; stroke-width:4; stroke-opacity:1"/>
<line clip-path="url(#clip552)" x1="1745.46" y1="89.8253" x2="1713.46" y2="89.8253" style="stroke:#000000; stroke-width:4; stroke-opacity:1"/>
<line clip-path="url(#clip552)" x1="1826.86" y1="777.662" x2="1794.86" y2="777.662" style="stroke:#000000; stroke-width:4; stroke-opacity:1"/>
<line clip-path="url(#clip552)" x1="1826.86" y1="457.132" x2="1794.86" y2="457.132" style="stroke:#000000; stroke-width:4; stroke-opacity:1"/>
<line clip-path="url(#clip552)" x1="1908.27" y1="684.089" x2="1876.27" y2="684.089" style="stroke:#000000; stroke-width:4; stroke-opacity:1"/>
<line clip-path="url(#clip552)" x1="1908.27" y1="355.359" x2="1876.27" y2="355.359" style="stroke:#000000; stroke-width:4; stroke-opacity:1"/>
<line clip-path="url(#clip552)" x1="1989.67" y1="813.042" x2="1957.67" y2="813.042" style="stroke:#000000; stroke-width:4; stroke-opacity:1"/>
<line clip-path="url(#clip552)" x1="1989.67" y1="475.474" x2="1957.67" y2="475.474" style="stroke:#000000; stroke-width:4; stroke-opacity:1"/>
<line clip-path="url(#clip552)" x1="2071.08" y1="419.547" x2="2039.08" y2="419.547" style="stroke:#000000; stroke-width:4; stroke-opacity:1"/>
<line clip-path="url(#clip552)" x1="2071.08" y1="76.1008" x2="2039.08" y2="76.1008" style="stroke:#000000; stroke-width:4; stroke-opacity:1"/>
<line clip-path="url(#clip552)" x1="2152.48" y1="812.804" x2="2120.48" y2="812.804" style="stroke:#000000; stroke-width:4; stroke-opacity:1"/>
<line clip-path="url(#clip552)" x1="2152.48" y1="460.13" x2="2120.48" y2="460.13" style="stroke:#000000; stroke-width:4; stroke-opacity:1"/>
<line clip-path="url(#clip552)" x1="2233.89" y1="859.74" x2="2201.89" y2="859.74" style="stroke:#000000; stroke-width:4; stroke-opacity:1"/>
<line clip-path="url(#clip552)" x1="2233.89" y1="499.882" x2="2201.89" y2="499.882" style="stroke:#000000; stroke-width:4; stroke-opacity:1"/>
<line clip-path="url(#clip552)" x1="2315.29" y1="535.955" x2="2283.29" y2="535.955" style="stroke:#000000; stroke-width:4; stroke-opacity:1"/>
<line clip-path="url(#clip552)" x1="2315.29" y1="170.939" x2="2283.29" y2="170.939" style="stroke:#000000; stroke-width:4; stroke-opacity:1"/>
<line clip-path="url(#clip552)" x1="2396.7" y1="1037.99" x2="2364.7" y2="1037.99" style="stroke:#000000; stroke-width:4; stroke-opacity:1"/>
<line clip-path="url(#clip552)" x1="2396.7" y1="664.46" x2="2364.7" y2="664.46" style="stroke:#000000; stroke-width:4; stroke-opacity:1"/>
<line clip-path="url(#clip552)" x1="2478.1" y1="752.679" x2="2446.1" y2="752.679" style="stroke:#000000; stroke-width:4; stroke-opacity:1"/>
<line clip-path="url(#clip552)" x1="2478.1" y1="374.418" x2="2446.1" y2="374.418" style="stroke:#000000; stroke-width:4; stroke-opacity:1"/>
<line clip-path="url(#clip552)" x1="2559.51" y1="897.816" x2="2527.51" y2="897.816" style="stroke:#000000; stroke-width:4; stroke-opacity:1"/>
<line clip-path="url(#clip552)" x1="2559.51" y1="513.247" x2="2527.51" y2="513.247" style="stroke:#000000; stroke-width:4; stroke-opacity:1"/>
<line clip-path="url(#clip552)" x1="2640.91" y1="641.285" x2="2608.91" y2="641.285" style="stroke:#000000; stroke-width:4; stroke-opacity:1"/>
<line clip-path="url(#clip552)" x1="2640.91" y1="252.36" x2="2608.91" y2="252.36" style="stroke:#000000; stroke-width:4; stroke-opacity:1"/>
<line clip-path="url(#clip552)" x1="2722.32" y1="824.193" x2="2690.32" y2="824.193" style="stroke:#000000; stroke-width:4; stroke-opacity:1"/>
<line clip-path="url(#clip552)" x1="2722.32" y1="429.34" x2="2690.32" y2="429.34" style="stroke:#000000; stroke-width:4; stroke-opacity:1"/>
<line clip-path="url(#clip552)" x1="2803.72" y1="1027.41" x2="2771.72" y2="1027.41" style="stroke:#000000; stroke-width:4; stroke-opacity:1"/>
<line clip-path="url(#clip552)" x1="2803.72" y1="626.814" x2="2771.72" y2="626.814" style="stroke:#000000; stroke-width:4; stroke-opacity:1"/>
<line clip-path="url(#clip552)" x1="2885.13" y1="809.418" x2="2853.13" y2="809.418" style="stroke:#000000; stroke-width:4; stroke-opacity:1"/>
<line clip-path="url(#clip552)" x1="2885.13" y1="404.964" x2="2853.13" y2="404.964" style="stroke:#000000; stroke-width:4; stroke-opacity:1"/>
<line clip-path="url(#clip552)" x1="2966.53" y1="600.101" x2="2934.53" y2="600.101" style="stroke:#000000; stroke-width:4; stroke-opacity:1"/>
<line clip-path="url(#clip552)" x1="2966.53" y1="191.928" x2="2934.53" y2="191.928" style="stroke:#000000; stroke-width:4; stroke-opacity:1"/>
<line clip-path="url(#clip552)" x1="3047.93" y1="846.934" x2="3015.93" y2="846.934" style="stroke:#000000; stroke-width:4; stroke-opacity:1"/>
<line clip-path="url(#clip552)" x1="3047.93" y1="433.499" x2="3015.93" y2="433.499" style="stroke:#000000; stroke-width:4; stroke-opacity:1"/>
<line clip-path="url(#clip552)" x1="3129.34" y1="657.075" x2="3097.34" y2="657.075" style="stroke:#000000; stroke-width:4; stroke-opacity:1"/>
<line clip-path="url(#clip552)" x1="3129.34" y1="240.196" x2="3097.34" y2="240.196" style="stroke:#000000; stroke-width:4; stroke-opacity:1"/>
<line clip-path="url(#clip552)" x1="3210.74" y1="702.525" x2="3178.74" y2="702.525" style="stroke:#000000; stroke-width:4; stroke-opacity:1"/>
<line clip-path="url(#clip552)" x1="3210.74" y1="281.498" x2="3178.74" y2="281.498" style="stroke:#000000; stroke-width:4; stroke-opacity:1"/>
<line clip-path="url(#clip552)" x1="3292.15" y1="758.489" x2="3260.15" y2="758.489" style="stroke:#000000; stroke-width:4; stroke-opacity:1"/>
<line clip-path="url(#clip552)" x1="3292.15" y1="333.443" x2="3260.15" y2="333.443" style="stroke:#000000; stroke-width:4; stroke-opacity:1"/>
<line clip-path="url(#clip552)" x1="3373.55" y1="592.129" x2="3341.55" y2="592.129" style="stroke:#000000; stroke-width:4; stroke-opacity:1"/>
<line clip-path="url(#clip552)" x1="3373.55" y1="163.994" x2="3341.55" y2="163.994" style="stroke:#000000; stroke-width:4; stroke-opacity:1"/>
<line clip-path="url(#clip552)" x1="3454.96" y1="899.814" x2="3422.96" y2="899.814" style="stroke:#000000; stroke-width:4; stroke-opacity:1"/>
<line clip-path="url(#clip552)" x1="3454.96" y1="467.094" x2="3422.96" y2="467.094" style="stroke:#000000; stroke-width:4; stroke-opacity:1"/>
<line clip-path="url(#clip552)" x1="3536.36" y1="748.016" x2="3504.36" y2="748.016" style="stroke:#000000; stroke-width:4; stroke-opacity:1"/>
<line clip-path="url(#clip552)" x1="3536.36" y1="312.424" x2="3504.36" y2="312.424" style="stroke:#000000; stroke-width:4; stroke-opacity:1"/>
<line clip-path="url(#clip552)" x1="3617.77" y1="601.458" x2="3585.77" y2="601.458" style="stroke:#000000; stroke-width:4; stroke-opacity:1"/>
<line clip-path="url(#clip552)" x1="3617.77" y1="163.083" x2="3585.77" y2="163.083" style="stroke:#000000; stroke-width:4; stroke-opacity:1"/>
<line clip-path="url(#clip552)" x1="3699.17" y1="698.898" x2="3667.17" y2="698.898" style="stroke:#000000; stroke-width:4; stroke-opacity:1"/>
<line clip-path="url(#clip552)" x1="3699.17" y1="257.055" x2="3667.17" y2="257.055" style="stroke:#000000; stroke-width:4; stroke-opacity:1"/>
<line clip-path="url(#clip552)" x1="3780.58" y1="804.183" x2="3748.58" y2="804.183" style="stroke:#000000; stroke-width:4; stroke-opacity:1"/>
<line clip-path="url(#clip552)" x1="3780.58" y1="358.97" x2="3748.58" y2="358.97" style="stroke:#000000; stroke-width:4; stroke-opacity:1"/>
<line clip-path="url(#clip552)" x1="3861.98" y1="674.443" x2="3829.98" y2="674.443" style="stroke:#000000; stroke-width:4; stroke-opacity:1"/>
<line clip-path="url(#clip552)" x1="3861.98" y1="226.715" x2="3829.98" y2="226.715" style="stroke:#000000; stroke-width:4; stroke-opacity:1"/>
<circle clip-path="url(#clip552)" cx="345.578" cy="842.047" r="14.4" fill="#000000" fill-rule="evenodd" fill-opacity="1" stroke="none"/>
<circle clip-path="url(#clip552)" cx="426.982" cy="777.721" r="14.4" fill="#000000" fill-rule="evenodd" fill-opacity="1" stroke="none"/>
<circle clip-path="url(#clip552)" cx="508.387" cy="746.889" r="14.4" fill="#000000" fill-rule="evenodd" fill-opacity="1" stroke="none"/>
<circle clip-path="url(#clip552)" cx="589.792" cy="636.849" r="14.4" fill="#000000" fill-rule="evenodd" fill-opacity="1" stroke="none"/>
<circle clip-path="url(#clip552)" cx="671.197" cy="690.029" r="14.4" fill="#000000" fill-rule="evenodd" fill-opacity="1" stroke="none"/>
<circle clip-path="url(#clip552)" cx="752.601" cy="604.9" r="14.4" fill="#000000" fill-rule="evenodd" fill-opacity="1" stroke="none"/>
<circle clip-path="url(#clip552)" cx="915.411" cy="629.31" r="14.4" fill="#000000" fill-rule="evenodd" fill-opacity="1" stroke="none"/>
<circle clip-path="url(#clip552)" cx="996.816" cy="650.185" r="14.4" fill="#000000" fill-rule="evenodd" fill-opacity="1" stroke="none"/>
<circle clip-path="url(#clip552)" cx="1078.22" cy="691.072" r="14.4" fill="#000000" fill-rule="evenodd" fill-opacity="1" stroke="none"/>
<circle clip-path="url(#clip552)" cx="1159.63" cy="687.455" r="14.4" fill="#000000" fill-rule="evenodd" fill-opacity="1" stroke="none"/>
<circle clip-path="url(#clip552)" cx="1241.03" cy="580.123" r="14.4" fill="#000000" fill-rule="evenodd" fill-opacity="1" stroke="none"/>
<circle clip-path="url(#clip552)" cx="1322.43" cy="457.173" r="14.4" fill="#000000" fill-rule="evenodd" fill-opacity="1" stroke="none"/>
<circle clip-path="url(#clip552)" cx="1403.84" cy="585.811" r="14.4" fill="#000000" fill-rule="evenodd" fill-opacity="1" stroke="none"/>
<circle clip-path="url(#clip552)" cx="1485.24" cy="670.169" r="14.4" fill="#000000" fill-rule="evenodd" fill-opacity="1" stroke="none"/>
<circle clip-path="url(#clip552)" cx="1566.65" cy="684.526" r="14.4" fill="#000000" fill-rule="evenodd" fill-opacity="1" stroke="none"/>
<circle clip-path="url(#clip552)" cx="1648.05" cy="440.641" r="14.4" fill="#000000" fill-rule="evenodd" fill-opacity="1" stroke="none"/>
<circle clip-path="url(#clip552)" cx="1729.46" cy="244.527" r="14.4" fill="#000000" fill-rule="evenodd" fill-opacity="1" stroke="none"/>
<circle clip-path="url(#clip552)" cx="1810.86" cy="617.397" r="14.4" fill="#000000" fill-rule="evenodd" fill-opacity="1" stroke="none"/>
<circle clip-path="url(#clip552)" cx="1892.27" cy="519.724" r="14.4" fill="#000000" fill-rule="evenodd" fill-opacity="1" stroke="none"/>
<circle clip-path="url(#clip552)" cx="1973.67" cy="644.258" r="14.4" fill="#000000" fill-rule="evenodd" fill-opacity="1" stroke="none"/>
<circle clip-path="url(#clip552)" cx="2055.08" cy="247.824" r="14.4" fill="#000000" fill-rule="evenodd" fill-opacity="1" stroke="none"/>
<circle clip-path="url(#clip552)" cx="2136.48" cy="636.467" r="14.4" fill="#000000" fill-rule="evenodd" fill-opacity="1" stroke="none"/>
<circle clip-path="url(#clip552)" cx="2217.89" cy="679.811" r="14.4" fill="#000000" fill-rule="evenodd" fill-opacity="1" stroke="none"/>
<circle clip-path="url(#clip552)" cx="2299.29" cy="353.447" r="14.4" fill="#000000" fill-rule="evenodd" fill-opacity="1" stroke="none"/>
<circle clip-path="url(#clip552)" cx="2380.7" cy="851.226" r="14.4" fill="#000000" fill-rule="evenodd" fill-opacity="1" stroke="none"/>
<circle clip-path="url(#clip552)" cx="2462.1" cy="563.549" r="14.4" fill="#000000" fill-rule="evenodd" fill-opacity="1" stroke="none"/>
<circle clip-path="url(#clip552)" cx="2543.51" cy="705.532" r="14.4" fill="#000000" fill-rule="evenodd" fill-opacity="1" stroke="none"/>
<circle clip-path="url(#clip552)" cx="2624.91" cy="446.823" r="14.4" fill="#000000" fill-rule="evenodd" fill-opacity="1" stroke="none"/>
<circle clip-path="url(#clip552)" cx="2706.32" cy="626.766" r="14.4" fill="#000000" fill-rule="evenodd" fill-opacity="1" stroke="none"/>
<circle clip-path="url(#clip552)" cx="2787.72" cy="827.113" r="14.4" fill="#000000" fill-rule="evenodd" fill-opacity="1" stroke="none"/>
<circle clip-path="url(#clip552)" cx="2869.13" cy="607.191" r="14.4" fill="#000000" fill-rule="evenodd" fill-opacity="1" stroke="none"/>
<circle clip-path="url(#clip552)" cx="2950.53" cy="396.015" r="14.4" fill="#000000" fill-rule="evenodd" fill-opacity="1" stroke="none"/>
<circle clip-path="url(#clip552)" cx="3031.93" cy="640.216" r="14.4" fill="#000000" fill-rule="evenodd" fill-opacity="1" stroke="none"/>
<circle clip-path="url(#clip552)" cx="3113.34" cy="448.636" r="14.4" fill="#000000" fill-rule="evenodd" fill-opacity="1" stroke="none"/>
<circle clip-path="url(#clip552)" cx="3194.74" cy="492.012" r="14.4" fill="#000000" fill-rule="evenodd" fill-opacity="1" stroke="none"/>
<circle clip-path="url(#clip552)" cx="3276.15" cy="545.966" r="14.4" fill="#000000" fill-rule="evenodd" fill-opacity="1" stroke="none"/>
<circle clip-path="url(#clip552)" cx="3357.55" cy="378.061" r="14.4" fill="#000000" fill-rule="evenodd" fill-opacity="1" stroke="none"/>
<circle clip-path="url(#clip552)" cx="3438.96" cy="683.454" r="14.4" fill="#000000" fill-rule="evenodd" fill-opacity="1" stroke="none"/>
<circle clip-path="url(#clip552)" cx="3520.36" cy="530.22" r="14.4" fill="#000000" fill-rule="evenodd" fill-opacity="1" stroke="none"/>
<circle clip-path="url(#clip552)" cx="3601.77" cy="382.271" r="14.4" fill="#000000" fill-rule="evenodd" fill-opacity="1" stroke="none"/>
<circle clip-path="url(#clip552)" cx="3683.17" cy="477.977" r="14.4" fill="#000000" fill-rule="evenodd" fill-opacity="1" stroke="none"/>
<circle clip-path="url(#clip552)" cx="3764.58" cy="581.576" r="14.4" fill="#000000" fill-rule="evenodd" fill-opacity="1" stroke="none"/>
<circle clip-path="url(#clip552)" cx="3845.98" cy="450.579" r="14.4" fill="#000000" fill-rule="evenodd" fill-opacity="1" stroke="none"/>
</svg>
