<?xml version="1.0" encoding="utf-8"?>
<svg xmlns="http://www.w3.org/2000/svg" xmlns:xlink="http://www.w3.org/1999/xlink" width="600" height="400" viewBox="0 0 2400 1600">
<defs>
  <clipPath id="clip170">
    <rect x="0" y="0" width="2400" height="1600"/>
  </clipPath>
</defs>
<path clip-path="url(#clip170)" d="M0 1600 L2400 1600 L2400 0 L0 0  Z" fill="#ffffff" fill-rule="evenodd" fill-opacity="1"/>
<defs>
  <clipPath id="clip171">
    <rect x="480" y="0" width="1681" height="1600"/>
  </clipPath>
</defs>
<path clip-path="url(#clip170)" d="M249.264 1411 L2352.76 1411 L2352.76 47.2441 L249.264 47.2441  Z" fill="#ffffff" fill-rule="evenodd" fill-opacity="1"/>
<defs>
  <clipPath id="clip172">
    <rect x="249" y="47" width="2104" height="1365"/>
  </clipPath>
</defs>
<polyline clip-path="url(#clip172)" style="stroke:#000000; stroke-linecap:round; stroke-linejoin:round; stroke-width:2; stroke-opacity:0.1; fill:none" points="338.64,1411 338.64,47.2441 "/>
<polyline clip-path="url(#clip172)" style="stroke:#000000; stroke-linecap:round; stroke-linejoin:round; stroke-width:2; stroke-opacity:0.1; fill:none" points="800.135,1411 800.135,47.2441 "/>
<polyline clip-path="url(#clip172)" style="stroke:#000000; stroke-linecap:round; stroke-linejoin:round; stroke-width:2; stroke-opacity:0.1; fill:none" points="1261.63,1411 1261.63,47.2441 "/>
<polyline clip-path="url(#clip172)" style="stroke:#000000; stroke-linecap:round; stroke-linejoin:round; stroke-width:2; stroke-opacity:0.1; fill:none" points="1723.12,1411 1723.12,47.2441 "/>
<polyline clip-path="url(#clip172)" style="stroke:#000000; stroke-linecap:round; stroke-linejoin:round; stroke-width:2; stroke-opacity:0.1; fill:none" points="2184.62,1411 2184.62,47.2441 "/>
<polyline clip-path="url(#clip172)" style="stroke:#000000; stroke-linecap:round; stroke-linejoin:round; stroke-width:2; stroke-opacity:0.1; fill:none" points="249.264,1144.29 2352.76,1144.29 "/>
<polyline clip-path="url(#clip172)" style="stroke:#000000; stroke-linecap:round; stroke-linejoin:round; stroke-width:2; stroke-opacity:0.1; fill:none" points="249.264,866.649 2352.76,866.649 "/>
<polyline clip-path="url(#clip172)" style="stroke:#000000; stroke-linecap:round; stroke-linejoin:round; stroke-width:2; stroke-opacity:0.1; fill:none" points="249.264,589.004 2352.76,589.004 "/>
<polyline clip-path="url(#clip172)" style="stroke:#000000; stroke-linecap:round; stroke-linejoin:round; stroke-width:2; stroke-opacity:0.1; fill:none" points="249.264,311.358 2352.76,311.358 "/>
<polyline clip-path="url(#clip170)" style="stroke:#000000; stroke-linecap:round; stroke-linejoin:round; stroke-width:4; stroke-opacity:1; fill:none" points="249.264,1411 2352.76,1411 "/>
<polyline clip-path="url(#clip170)" style="stroke:#000000; stroke-linecap:round; stroke-linejoin:round; stroke-width:4; stroke-opacity:1; fill:none" points="338.64,1411 338.64,1392.1 "/>
<polyline clip-path="url(#clip170)" style="stroke:#000000; stroke-linecap:round; stroke-linejoin:round; stroke-width:4; stroke-opacity:1; fill:none" points="800.135,1411 800.135,1392.1 "/>
<polyline clip-path="url(#clip170)" style="stroke:#000000; stroke-linecap:round; stroke-linejoin:round; stroke-width:4; stroke-opacity:1; fill:none" points="1261.63,1411 1261.63,1392.1 "/>
<polyline clip-path="url(#clip170)" style="stroke:#000000; stroke-linecap:round; stroke-linejoin:round; stroke-width:4; stroke-opacity:1; fill:none" points="1723.12,1411 1723.12,1392.1 "/>
<polyline clip-path="url(#clip170)" style="stroke:#000000; stroke-linecap:round; stroke-linejoin:round; stroke-width:4; stroke-opacity:1; fill:none" points="2184.62,1411 2184.62,1392.1 "/>
<path clip-path="url(#clip170)" d="M298.247 1469.46 L305.886 1469.46 L305.886 1443.1 L297.576 1444.76 L297.576 1440.5 L305.84 1438.84 L310.515 1438.84 L310.515 1469.46 L318.154 1469.46 L318.154 1473.4 L298.247 1473.4 L298.247 1469.46 Z" fill="#000000" fill-rule="nonzero" fill-opacity="1" /><path clip-path="url(#clip170)" d="M337.599 1441.92 Q333.988 1441.92 332.159 1445.48 Q330.353 1449.02 330.353 1456.15 Q330.353 1463.26 332.159 1466.82 Q333.988 1470.37 337.599 1470.37 Q341.233 1470.37 343.038 1466.82 Q344.867 1463.26 344.867 1456.15 Q344.867 1449.02 343.038 1445.48 Q341.233 1441.92 337.599 1441.92 M337.599 1438.21 Q343.409 1438.21 346.464 1442.82 Q349.543 1447.4 349.543 1456.15 Q349.543 1464.88 346.464 1469.49 Q343.409 1474.07 337.599 1474.07 Q331.789 1474.07 328.71 1469.49 Q325.654 1464.88 325.654 1456.15 Q325.654 1447.4 328.71 1442.82 Q331.789 1438.21 337.599 1438.21 Z" fill="#000000" fill-rule="nonzero" fill-opacity="1" /><path clip-path="url(#clip170)" d="M367.761 1441.92 Q364.149 1441.92 362.321 1445.48 Q360.515 1449.02 360.515 1456.15 Q360.515 1463.26 362.321 1466.82 Q364.149 1470.37 367.761 1470.37 Q371.395 1470.37 373.2 1466.82 Q375.029 1463.26 375.029 1456.15 Q375.029 1449.02 373.2 1445.48 Q371.395 1441.92 367.761 1441.92 M367.761 1438.21 Q373.571 1438.21 376.626 1442.82 Q379.705 1447.4 379.705 1456.15 Q379.705 1464.88 376.626 1469.49 Q373.571 1474.07 367.761 1474.07 Q361.95 1474.07 358.872 1469.49 Q355.816 1464.88 355.816 1456.15 Q355.816 1447.4 358.872 1442.82 Q361.95 1438.21 367.761 1438.21 Z" fill="#000000" fill-rule="nonzero" fill-opacity="1" /><path clip-path="url(#clip170)" d="M763.827 1469.46 L780.146 1469.46 L780.146 1473.4 L758.202 1473.4 L758.202 1469.46 Q760.864 1466.71 765.447 1462.08 Q770.054 1457.43 771.234 1456.08 Q773.48 1453.56 774.359 1451.82 Q775.262 1450.06 775.262 1448.37 Q775.262 1445.62 773.318 1443.88 Q771.397 1442.15 768.295 1442.15 Q766.096 1442.15 763.642 1442.91 Q761.211 1443.68 758.434 1445.23 L758.434 1440.5 Q761.258 1439.37 763.711 1438.79 Q766.165 1438.21 768.202 1438.21 Q773.572 1438.21 776.767 1440.9 Q779.961 1443.58 779.961 1448.07 Q779.961 1450.2 779.151 1452.12 Q778.364 1454.02 776.258 1456.62 Q775.679 1457.29 772.577 1460.5 Q769.475 1463.7 763.827 1469.46 Z" fill="#000000" fill-rule="nonzero" fill-opacity="1" /><path clip-path="url(#clip170)" d="M799.961 1441.92 Q796.35 1441.92 794.521 1445.48 Q792.716 1449.02 792.716 1456.15 Q792.716 1463.26 794.521 1466.82 Q796.35 1470.37 799.961 1470.37 Q803.595 1470.37 805.401 1466.82 Q807.23 1463.26 807.23 1456.15 Q807.23 1449.02 805.401 1445.48 Q803.595 1441.92 799.961 1441.92 M799.961 1438.21 Q805.771 1438.21 808.827 1442.82 Q811.906 1447.4 811.906 1456.15 Q811.906 1464.88 808.827 1469.49 Q805.771 1474.07 799.961 1474.07 Q794.151 1474.07 791.072 1469.49 Q788.017 1464.88 788.017 1456.15 Q788.017 1447.4 791.072 1442.82 Q794.151 1438.21 799.961 1438.21 Z" fill="#000000" fill-rule="nonzero" fill-opacity="1" /><path clip-path="url(#clip170)" d="M830.123 1441.92 Q826.512 1441.92 824.683 1445.48 Q822.878 1449.02 822.878 1456.15 Q822.878 1463.26 824.683 1466.82 Q826.512 1470.37 830.123 1470.37 Q833.757 1470.37 835.563 1466.82 Q837.392 1463.26 837.392 1456.15 Q837.392 1449.02 835.563 1445.48 Q833.757 1441.92 830.123 1441.92 M830.123 1438.21 Q835.933 1438.21 838.989 1442.82 Q842.067 1447.4 842.067 1456.15 Q842.067 1464.88 838.989 1469.49 Q835.933 1474.07 830.123 1474.07 Q824.313 1474.07 821.234 1469.49 Q818.179 1464.88 818.179 1456.15 Q818.179 1447.4 821.234 1442.82 Q824.313 1438.21 830.123 1438.21 Z" fill="#000000" fill-rule="nonzero" fill-opacity="1" /><path clip-path="url(#clip170)" d="M1235.39 1454.76 Q1238.75 1455.48 1240.62 1457.75 Q1242.52 1460.02 1242.52 1463.35 Q1242.52 1468.47 1239 1471.27 Q1235.48 1474.07 1229 1474.07 Q1226.83 1474.07 1224.51 1473.63 Q1222.22 1473.21 1219.77 1472.36 L1219.77 1467.84 Q1221.71 1468.98 1224.03 1469.55 Q1226.34 1470.13 1228.86 1470.13 Q1233.26 1470.13 1235.55 1468.4 Q1237.87 1466.66 1237.87 1463.35 Q1237.87 1460.3 1235.72 1458.58 Q1233.59 1456.85 1229.77 1456.85 L1225.74 1456.85 L1225.74 1453 L1229.95 1453 Q1233.4 1453 1235.23 1451.64 Q1237.06 1450.25 1237.06 1447.66 Q1237.06 1444.99 1235.16 1443.58 Q1233.28 1442.15 1229.77 1442.15 Q1227.84 1442.15 1225.65 1442.56 Q1223.45 1442.98 1220.81 1443.86 L1220.81 1439.69 Q1223.47 1438.95 1225.78 1438.58 Q1228.12 1438.21 1230.18 1438.21 Q1235.51 1438.21 1238.61 1440.64 Q1241.71 1443.05 1241.71 1447.17 Q1241.71 1450.04 1240.07 1452.03 Q1238.42 1454 1235.39 1454.76 Z" fill="#000000" fill-rule="nonzero" fill-opacity="1" /><path clip-path="url(#clip170)" d="M1261.39 1441.92 Q1257.78 1441.92 1255.95 1445.48 Q1254.14 1449.02 1254.14 1456.15 Q1254.14 1463.26 1255.95 1466.82 Q1257.78 1470.37 1261.39 1470.37 Q1265.02 1470.37 1266.83 1466.82 Q1268.65 1463.26 1268.65 1456.15 Q1268.65 1449.02 1266.83 1445.48 Q1265.02 1441.92 1261.39 1441.92 M1261.39 1438.21 Q1267.2 1438.21 1270.25 1442.82 Q1273.33 1447.4 1273.33 1456.15 Q1273.33 1464.88 1270.25 1469.49 Q1267.2 1474.07 1261.39 1474.07 Q1255.58 1474.07 1252.5 1469.49 Q1249.44 1464.88 1249.44 1456.15 Q1249.44 1447.4 1252.5 1442.82 Q1255.58 1438.21 1261.39 1438.21 Z" fill="#000000" fill-rule="nonzero" fill-opacity="1" /><path clip-path="url(#clip170)" d="M1291.55 1441.92 Q1287.94 1441.92 1286.11 1445.48 Q1284.3 1449.02 1284.3 1456.15 Q1284.3 1463.26 1286.11 1466.82 Q1287.94 1470.37 1291.55 1470.37 Q1295.18 1470.37 1296.99 1466.82 Q1298.82 1463.26 1298.82 1456.15 Q1298.82 1449.02 1296.99 1445.48 Q1295.18 1441.92 1291.55 1441.92 M1291.55 1438.21 Q1297.36 1438.21 1300.41 1442.82 Q1303.49 1447.4 1303.49 1456.15 Q1303.49 1464.88 1300.41 1469.49 Q1297.36 1474.07 1291.55 1474.07 Q1285.74 1474.07 1282.66 1469.49 Q1279.6 1464.88 1279.6 1456.15 Q1279.6 1447.4 1282.66 1442.82 Q1285.74 1438.21 1291.55 1438.21 Z" fill="#000000" fill-rule="nonzero" fill-opacity="1" /><path clip-path="url(#clip170)" d="M1696.21 1442.91 L1684.41 1461.36 L1696.21 1461.36 L1696.21 1442.91 M1694.99 1438.84 L1700.87 1438.84 L1700.87 1461.36 L1705.8 1461.36 L1705.8 1465.25 L1700.87 1465.25 L1700.87 1473.4 L1696.21 1473.4 L1696.21 1465.25 L1680.61 1465.25 L1680.61 1460.74 L1694.99 1438.84 Z" fill="#000000" fill-rule="nonzero" fill-opacity="1" /><path clip-path="url(#clip170)" d="M1723.53 1441.92 Q1719.92 1441.92 1718.09 1445.48 Q1716.28 1449.02 1716.28 1456.15 Q1716.28 1463.26 1718.09 1466.82 Q1719.92 1470.37 1723.53 1470.37 Q1727.16 1470.37 1728.97 1466.82 Q1730.8 1463.26 1730.8 1456.15 Q1730.8 1449.02 1728.97 1445.48 Q1727.16 1441.92 1723.53 1441.92 M1723.53 1438.21 Q1729.34 1438.21 1732.39 1442.82 Q1735.47 1447.4 1735.47 1456.15 Q1735.47 1464.88 1732.39 1469.49 Q1729.34 1474.07 1723.53 1474.07 Q1717.72 1474.07 1714.64 1469.49 Q1711.58 1464.88 1711.58 1456.15 Q1711.58 1447.4 1714.64 1442.82 Q1717.72 1438.21 1723.53 1438.21 Z" fill="#000000" fill-rule="nonzero" fill-opacity="1" /><path clip-path="url(#clip170)" d="M1753.69 1441.92 Q1750.08 1441.92 1748.25 1445.48 Q1746.45 1449.02 1746.45 1456.15 Q1746.45 1463.26 1748.25 1466.82 Q1750.08 1470.37 1753.69 1470.37 Q1757.32 1470.37 1759.13 1466.82 Q1760.96 1463.26 1760.96 1456.15 Q1760.96 1449.02 1759.13 1445.48 Q1757.32 1441.92 1753.69 1441.92 M1753.69 1438.21 Q1759.5 1438.21 1762.56 1442.82 Q1765.64 1447.4 1765.64 1456.15 Q1765.64 1464.88 1762.56 1469.49 Q1759.5 1474.07 1753.69 1474.07 Q1747.88 1474.07 1744.8 1469.49 Q1741.75 1464.88 1741.75 1456.15 Q1741.75 1447.4 1744.8 1442.82 Q1747.88 1438.21 1753.69 1438.21 Z" fill="#000000" fill-rule="nonzero" fill-opacity="1" /><path clip-path="url(#clip170)" d="M2144.24 1438.84 L2162.59 1438.84 L2162.59 1442.77 L2148.52 1442.77 L2148.52 1451.24 Q2149.54 1450.9 2150.56 1450.74 Q2151.57 1450.55 2152.59 1450.55 Q2158.38 1450.55 2161.76 1453.72 Q2165.14 1456.89 2165.14 1462.31 Q2165.14 1467.89 2161.67 1470.99 Q2158.19 1474.07 2151.88 1474.07 Q2149.7 1474.07 2147.43 1473.7 Q2145.19 1473.33 2142.78 1472.59 L2142.78 1467.89 Q2144.86 1469.02 2147.08 1469.58 Q2149.31 1470.13 2151.78 1470.13 Q2155.79 1470.13 2158.13 1468.03 Q2160.46 1465.92 2160.46 1462.31 Q2160.46 1458.7 2158.13 1456.59 Q2155.79 1454.49 2151.78 1454.49 Q2149.91 1454.49 2148.03 1454.9 Q2146.18 1455.32 2144.24 1456.2 L2144.24 1438.84 Z" fill="#000000" fill-rule="nonzero" fill-opacity="1" /><path clip-path="url(#clip170)" d="M2184.35 1441.92 Q2180.74 1441.92 2178.91 1445.48 Q2177.11 1449.02 2177.11 1456.15 Q2177.11 1463.26 2178.91 1466.82 Q2180.74 1470.37 2184.35 1470.37 Q2187.99 1470.37 2189.79 1466.82 Q2191.62 1463.26 2191.62 1456.15 Q2191.62 1449.02 2189.79 1445.48 Q2187.99 1441.92 2184.35 1441.92 M2184.35 1438.21 Q2190.16 1438.21 2193.22 1442.82 Q2196.3 1447.4 2196.3 1456.15 Q2196.3 1464.88 2193.22 1469.49 Q2190.16 1474.07 2184.35 1474.07 Q2178.54 1474.07 2175.46 1469.49 Q2172.41 1464.88 2172.41 1456.15 Q2172.41 1447.4 2175.46 1442.82 Q2178.54 1438.21 2184.35 1438.21 Z" fill="#000000" fill-rule="nonzero" fill-opacity="1" /><path clip-path="url(#clip170)" d="M2214.51 1441.92 Q2210.9 1441.92 2209.07 1445.48 Q2207.27 1449.02 2207.27 1456.15 Q2207.27 1463.26 2209.07 1466.82 Q2210.9 1470.37 2214.51 1470.37 Q2218.15 1470.37 2219.95 1466.82 Q2221.78 1463.26 2221.78 1456.15 Q2221.78 1449.02 2219.95 1445.48 Q2218.15 1441.92 2214.51 1441.92 M2214.51 1438.21 Q2220.32 1438.21 2223.38 1442.82 Q2226.46 1447.4 2226.46 1456.15 Q2226.46 1464.88 2223.38 1469.49 Q2220.32 1474.07 2214.51 1474.07 Q2208.7 1474.07 2205.62 1469.49 Q2202.57 1464.88 2202.57 1456.15 Q2202.57 1447.4 2205.62 1442.82 Q2208.7 1438.21 2214.51 1438.21 Z" fill="#000000" fill-rule="nonzero" fill-opacity="1" /><path clip-path="url(#clip170)" d="M1147.45 1520.27 Q1147.45 1524.97 1145.07 1529.51 Q1142.72 1534.05 1139.01 1536.85 Q1135.31 1539.62 1131.54 1539.62 Q1129.29 1539.62 1127.77 1538.4 Q1126.29 1537.14 1125.49 1535.37 Q1124.87 1537.56 1123.55 1542.81 Q1122.23 1548.06 1122.23 1548.58 Q1122.23 1548.87 1122.3 1548.99 Q1122.36 1549.12 1122.65 1549.28 Q1122.94 1549.48 1123.65 1549.54 Q1124.36 1549.64 1125.55 1549.64 Q1126.16 1549.64 1126.39 1549.64 Q1126.65 1549.67 1126.87 1549.83 Q1127.13 1549.99 1127.13 1550.35 Q1127.13 1551.67 1125.94 1551.67 Q1124.87 1551.67 1122.68 1551.57 Q1120.49 1551.47 1119.4 1551.47 Q1118.47 1551.47 1116.6 1551.57 Q1114.73 1551.67 1113.86 1551.67 Q1112.99 1551.67 1112.99 1550.89 Q1112.99 1550.44 1113.12 1550.15 Q1113.22 1549.9 1113.47 1549.77 Q1113.73 1549.67 1113.96 1549.64 Q1114.15 1549.64 1114.54 1549.64 Q1116.02 1549.64 1116.66 1549.38 Q1117.31 1549.16 1117.53 1548.67 Q1117.79 1548.22 1118.08 1546.93 L1125.49 1517.56 Q1125.94 1515.6 1125.94 1514.21 Q1125.94 1512.47 1125.39 1511.83 Q1124.84 1511.19 1123.88 1511.19 Q1122.2 1511.19 1121.11 1513.18 Q1120.01 1515.18 1119.08 1519.04 Q1118.79 1520.11 1118.59 1520.33 Q1118.43 1520.56 1117.95 1520.56 Q1117.15 1520.52 1117.15 1519.88 Q1117.15 1519.72 1117.4 1518.69 Q1117.66 1517.63 1118.14 1516.08 Q1118.66 1514.5 1119.21 1513.5 Q1119.53 1512.83 1119.82 1512.38 Q1120.11 1511.93 1120.69 1511.22 Q1121.3 1510.51 1122.17 1510.12 Q1123.04 1509.74 1124.1 1509.74 Q1126.16 1509.74 1127.87 1510.96 Q1129.58 1512.18 1130.03 1514.66 Q1131.86 1512.51 1134.12 1511.12 Q1136.37 1509.74 1138.66 1509.74 Q1142.46 1509.74 1144.94 1512.7 Q1147.45 1515.63 1147.45 1520.27 M1142.68 1517.37 Q1142.68 1514.44 1141.56 1512.83 Q1140.46 1511.19 1138.47 1511.19 Q1135.99 1511.19 1133.12 1513.7 Q1130.29 1516.08 1129.71 1518.3 L1126.45 1531.22 L1126.26 1532.28 Q1126.26 1532.47 1126.36 1533.05 Q1126.48 1533.6 1126.84 1534.5 Q1127.23 1535.4 1127.74 1536.21 Q1128.29 1536.98 1129.25 1537.56 Q1130.25 1538.14 1131.48 1538.14 Q1133.44 1538.14 1135.57 1536.4 Q1137.72 1534.66 1139.33 1531.38 Q1140.33 1529.25 1141.49 1524.68 Q1142.68 1520.07 1142.68 1517.37 Z" fill="#000000" fill-rule="nonzero" fill-opacity="1" /><path clip-path="url(#clip170)" d="M1154.16 1578.11 Q1156.61 1578.11 1157.18 1577.79 Q1157.76 1577.5 1157.76 1576.03 L1157.76 1554.41 Q1157.76 1552.88 1157.18 1552.5 Q1156.61 1552.11 1154.16 1552.11 L1154.16 1550.67 L1160.81 1550.17 L1160.81 1553.22 Q1163.58 1550.17 1167.28 1550.17 Q1171.2 1550.17 1174.06 1553.22 Q1176.93 1556.26 1176.93 1560.61 Q1176.93 1565.01 1173.88 1568.05 Q1170.84 1571.09 1166.62 1571.09 Q1164.32 1571.09 1162.77 1569.92 Q1161.23 1568.73 1160.94 1567.85 L1160.94 1568.28 L1160.94 1576.03 Q1160.94 1577.52 1161.53 1577.81 Q1162.11 1578.11 1164.55 1578.11 L1164.55 1579.53 Q1159.7 1579.39 1159.34 1579.39 Q1158.89 1579.39 1154.16 1579.53 L1154.16 1578.11 M1160.94 1565.32 Q1160.94 1566.02 1161.03 1566.27 Q1161.14 1566.52 1161.6 1567.26 Q1163.42 1570.06 1166.4 1570.06 Q1166.42 1570.06 1166.44 1570.06 Q1169.08 1570.06 1171.09 1567.38 Q1173.09 1564.67 1173.09 1560.61 Q1173.09 1556.73 1171.27 1554.03 Q1169.44 1551.32 1166.92 1551.32 Q1165.11 1551.32 1163.53 1552.29 Q1161.96 1553.26 1160.94 1555.02 L1160.94 1565.32 Z" fill="#000000" fill-rule="nonzero" fill-opacity="1" /><path clip-path="url(#clip170)" d="M1182.29 1570.58 L1182.29 1569.16 Q1184.75 1569.16 1185.31 1568.86 Q1185.9 1568.55 1185.9 1567.06 L1185.9 1554.68 Q1185.9 1552.97 1185.29 1552.54 Q1184.71 1552.11 1182.29 1552.11 L1182.29 1550.67 L1188.72 1550.17 L1188.72 1555.25 Q1189.37 1553.26 1190.75 1551.73 Q1192.14 1550.17 1194.4 1550.17 Q1195.89 1550.17 1196.83 1551.01 Q1197.8 1551.84 1197.8 1552.99 Q1197.8 1554.01 1197.17 1554.52 Q1196.56 1555.02 1195.82 1555.02 Q1194.99 1555.02 1194.4 1554.5 Q1193.84 1553.96 1193.84 1553.04 Q1193.84 1552.47 1194.08 1552.05 Q1194.35 1551.59 1194.56 1551.44 Q1194.76 1551.28 1194.9 1551.23 Q1194.81 1551.19 1194.4 1551.19 Q1191.85 1551.19 1190.39 1553.74 Q1188.94 1556.26 1188.94 1559.87 L1188.94 1566.97 Q1188.94 1568.3 1189.48 1568.73 Q1190.05 1569.16 1192.46 1569.16 L1193.43 1569.16 L1193.43 1570.58 Q1191.58 1570.44 1187.57 1570.44 Q1187 1570.44 1186.13 1570.46 Q1185.25 1570.49 1184.1 1570.53 Q1182.95 1570.58 1182.29 1570.58 Z" fill="#000000" fill-rule="nonzero" fill-opacity="1" /><path clip-path="url(#clip170)" d="M1201.2 1560.41 Q1201.2 1556.06 1203.99 1552.97 Q1206.79 1549.88 1210.8 1549.88 Q1214.86 1549.88 1216.96 1552.52 Q1219.07 1555.16 1219.07 1558.94 Q1219.07 1559.64 1218.89 1559.78 Q1218.71 1559.91 1217.92 1559.91 L1205.03 1559.91 Q1205.03 1564.62 1206.43 1566.83 Q1208.37 1569.92 1211.64 1569.92 Q1212.09 1569.92 1212.63 1569.83 Q1213.17 1569.74 1214.27 1569.36 Q1215.38 1568.95 1216.35 1567.89 Q1217.32 1566.83 1217.88 1565.17 Q1218.02 1564.51 1218.47 1564.53 Q1219.07 1564.53 1219.07 1565.08 Q1219.07 1565.48 1218.62 1566.41 Q1218.2 1567.31 1217.36 1568.39 Q1216.53 1569.47 1214.9 1570.28 Q1213.3 1571.09 1211.36 1571.09 Q1207.31 1571.09 1204.24 1568.03 Q1201.2 1564.94 1201.2 1560.41 M1205.07 1558.94 L1216.03 1558.94 Q1216.03 1557.97 1215.85 1556.89 Q1215.69 1555.81 1215.2 1554.32 Q1214.72 1552.81 1213.6 1551.86 Q1212.47 1550.92 1210.8 1550.92 Q1210.06 1550.92 1209.25 1551.23 Q1208.46 1551.55 1207.49 1552.32 Q1206.52 1553.08 1205.84 1554.82 Q1205.17 1556.55 1205.07 1558.94 Z" fill="#000000" fill-rule="nonzero" fill-opacity="1" /><path clip-path="url(#clip170)" d="M1221.49 1570.58 L1221.49 1569.16 Q1223.95 1569.16 1224.52 1568.86 Q1225.08 1568.55 1225.08 1567.06 L1225.08 1543.05 Q1225.08 1541.34 1224.47 1540.91 Q1223.88 1540.48 1221.49 1540.48 L1221.49 1539.04 L1228.12 1538.54 L1228.12 1567.06 Q1228.12 1568.55 1228.71 1568.86 Q1229.29 1569.16 1231.73 1569.16 L1231.73 1570.58 Q1231.17 1570.58 1229.99 1570.53 Q1228.82 1570.49 1227.96 1570.46 Q1227.11 1570.44 1226.61 1570.44 Q1226.07 1570.44 1221.49 1570.58 Z" fill="#000000" fill-rule="nonzero" fill-opacity="1" /><path clip-path="url(#clip170)" d="M1233.79 1570.58 L1233.79 1569.16 Q1236.24 1569.16 1236.81 1568.86 Q1237.37 1568.55 1237.37 1567.06 L1237.37 1554.64 Q1237.37 1552.92 1236.78 1552.52 Q1236.22 1552.11 1233.97 1552.11 L1233.97 1550.67 L1240.41 1550.17 L1240.41 1567.1 Q1240.41 1568.48 1240.91 1568.82 Q1241.41 1569.16 1243.66 1569.16 L1243.66 1570.58 Q1238.95 1570.44 1238.86 1570.44 Q1238.23 1570.44 1233.79 1570.58 M1235.72 1542.13 Q1235.72 1541.2 1236.42 1540.46 Q1237.14 1539.69 1238.16 1539.69 Q1239.17 1539.69 1239.89 1540.39 Q1240.62 1541.07 1240.62 1542.15 Q1240.62 1543.21 1239.89 1543.91 Q1239.17 1544.58 1238.16 1544.58 Q1237.1 1544.58 1236.4 1543.84 Q1235.72 1543.1 1235.72 1542.13 Z" fill="#000000" fill-rule="nonzero" fill-opacity="1" /><path clip-path="url(#clip170)" d="M1246.82 1570.58 L1246.82 1569.16 Q1249.27 1569.16 1249.84 1568.86 Q1250.4 1568.55 1250.4 1567.06 L1250.4 1554.68 Q1250.4 1552.97 1249.79 1552.54 Q1249.2 1552.11 1246.82 1552.11 L1246.82 1550.67 L1253.31 1550.17 L1253.31 1555.02 Q1255.47 1550.17 1260.14 1550.17 Q1265.55 1550.17 1266.29 1554.68 Q1267.08 1552.92 1268.73 1551.55 Q1270.4 1550.17 1272.99 1550.17 Q1276.46 1550.17 1277.84 1551.89 Q1278.85 1553.04 1279.05 1554.32 Q1279.26 1555.61 1279.26 1558.94 L1279.26 1567.76 Q1279.3 1568.73 1280.05 1568.95 Q1280.79 1569.16 1282.86 1569.16 L1282.86 1570.58 Q1278.15 1570.44 1277.7 1570.44 Q1277.34 1570.44 1272.47 1570.58 L1272.47 1569.16 Q1274.93 1569.16 1275.49 1568.86 Q1276.08 1568.55 1276.08 1567.06 L1276.08 1556.31 Q1276.08 1553.96 1275.36 1552.59 Q1274.63 1551.19 1272.65 1551.19 Q1270.26 1551.19 1268.34 1553.19 Q1266.43 1555.2 1266.43 1558.58 L1266.43 1567.06 Q1266.43 1568.55 1266.99 1568.86 Q1267.58 1569.16 1270.04 1569.16 L1270.04 1570.58 Q1265.32 1570.44 1264.85 1570.44 Q1264.49 1570.44 1259.64 1570.58 L1259.64 1569.16 Q1262.1 1569.16 1262.66 1568.86 Q1263.25 1568.55 1263.25 1567.06 L1263.25 1556.31 Q1263.25 1553.96 1262.53 1552.59 Q1261.81 1551.19 1259.82 1551.19 Q1257.43 1551.19 1255.52 1553.19 Q1253.6 1555.2 1253.6 1558.58 L1253.6 1567.06 Q1253.6 1568.55 1254.16 1568.86 Q1254.75 1569.16 1257.19 1569.16 L1257.19 1570.58 Q1252.47 1570.44 1252.02 1570.44 Q1251.66 1570.44 1246.82 1570.58 Z" fill="#000000" fill-rule="nonzero" fill-opacity="1" /><path clip-path="url(#clip170)" d="M1344.22 1555.37 L1344.22 1489.41 L1354.17 1489.41 L1354.17 1490.93 L1348.63 1490.93 L1348.63 1553.86 L1354.17 1553.86 L1354.17 1555.37 L1344.22 1555.37 Z" fill="#000000" fill-rule="nonzero" fill-opacity="1" /><path clip-path="url(#clip170)" d="M1362.37 1538.88 L1362.37 1536.85 Q1365.88 1536.85 1366.69 1536.43 Q1367.49 1535.98 1367.49 1533.86 L1367.49 1516.18 Q1367.49 1513.73 1366.62 1513.12 Q1365.78 1512.51 1362.37 1512.51 L1362.37 1510.44 L1371.64 1509.74 L1371.64 1516.66 Q1374.74 1509.74 1381.4 1509.74 Q1389.13 1509.74 1390.2 1516.18 Q1391.32 1513.67 1393.67 1511.7 Q1396.06 1509.74 1399.76 1509.74 Q1404.72 1509.74 1406.68 1512.18 Q1408.13 1513.83 1408.42 1515.66 Q1408.71 1517.5 1408.71 1522.26 L1408.71 1534.86 Q1408.78 1536.24 1409.84 1536.56 Q1410.9 1536.85 1413.87 1536.85 L1413.87 1538.88 Q1407.14 1538.69 1406.49 1538.69 Q1405.98 1538.69 1399.02 1538.88 L1399.02 1536.85 Q1402.53 1536.85 1403.34 1536.43 Q1404.17 1535.98 1404.17 1533.86 L1404.17 1518.5 Q1404.17 1515.15 1403.14 1513.18 Q1402.11 1511.19 1399.28 1511.19 Q1395.86 1511.19 1393.13 1514.05 Q1390.39 1516.92 1390.39 1521.75 L1390.39 1533.86 Q1390.39 1535.98 1391.19 1536.43 Q1392.03 1536.85 1395.54 1536.85 L1395.54 1538.88 Q1388.81 1538.69 1388.13 1538.69 Q1387.62 1538.69 1380.69 1538.88 L1380.69 1536.85 Q1384.21 1536.85 1385.01 1536.43 Q1385.85 1535.98 1385.85 1533.86 L1385.85 1518.5 Q1385.85 1515.15 1384.82 1513.18 Q1383.79 1511.19 1380.95 1511.19 Q1377.54 1511.19 1374.8 1514.05 Q1372.06 1516.92 1372.06 1521.75 L1372.06 1533.86 Q1372.06 1535.98 1372.87 1536.43 Q1373.71 1536.85 1377.18 1536.85 L1377.18 1538.88 Q1370.45 1538.69 1369.81 1538.69 Q1369.29 1538.69 1362.37 1538.88 Z" fill="#000000" fill-rule="nonzero" fill-opacity="1" /><path clip-path="url(#clip170)" d="M1416.49 1538.88 L1416.49 1536.85 Q1420 1536.85 1420.81 1536.43 Q1421.61 1535.98 1421.61 1533.86 L1421.61 1516.18 Q1421.61 1513.73 1420.74 1513.12 Q1419.91 1512.51 1416.49 1512.51 L1416.49 1510.44 L1425.77 1509.74 L1425.77 1516.66 Q1428.86 1509.74 1435.53 1509.74 Q1443.26 1509.74 1444.32 1516.18 Q1445.45 1513.67 1447.8 1511.7 Q1450.18 1509.74 1453.88 1509.74 Q1458.84 1509.74 1460.81 1512.18 Q1462.26 1513.83 1462.55 1515.66 Q1462.84 1517.5 1462.84 1522.26 L1462.84 1534.86 Q1462.9 1536.24 1463.96 1536.56 Q1465.03 1536.85 1467.99 1536.85 L1467.99 1538.88 Q1461.26 1538.69 1460.61 1538.69 Q1460.1 1538.69 1453.14 1538.88 L1453.14 1536.85 Q1456.65 1536.85 1457.46 1536.43 Q1458.3 1535.98 1458.3 1533.86 L1458.3 1518.5 Q1458.3 1515.15 1457.27 1513.18 Q1456.23 1511.19 1453.4 1511.19 Q1449.99 1511.19 1447.25 1514.05 Q1444.51 1516.92 1444.51 1521.75 L1444.51 1533.86 Q1444.51 1535.98 1445.32 1536.43 Q1446.15 1536.85 1449.66 1536.85 L1449.66 1538.88 Q1442.93 1538.69 1442.26 1538.69 Q1441.74 1538.69 1434.82 1538.88 L1434.82 1536.85 Q1438.33 1536.85 1439.13 1536.43 Q1439.97 1535.98 1439.97 1533.86 L1439.97 1518.5 Q1439.97 1515.15 1438.94 1513.18 Q1437.91 1511.19 1435.08 1511.19 Q1431.66 1511.19 1428.92 1514.05 Q1426.19 1516.92 1426.19 1521.75 L1426.19 1533.86 Q1426.19 1535.98 1426.99 1536.43 Q1427.83 1536.85 1431.31 1536.85 L1431.31 1538.88 Q1424.58 1538.69 1423.93 1538.69 Q1423.42 1538.69 1416.49 1538.88 Z" fill="#000000" fill-rule="nonzero" fill-opacity="1" /><path clip-path="url(#clip170)" d="M1470.88 1553.86 L1476.42 1553.86 L1476.42 1490.93 L1470.88 1490.93 L1470.88 1489.41 L1480.83 1489.41 L1480.83 1555.37 L1470.88 1555.37 L1470.88 1553.86 Z" fill="#000000" fill-rule="nonzero" fill-opacity="1" /><polyline clip-path="url(#clip170)" style="stroke:#000000; stroke-linecap:round; stroke-linejoin:round; stroke-width:4; stroke-opacity:1; fill:none" points="249.264,1411 249.264,47.2441 "/>
<polyline clip-path="url(#clip170)" style="stroke:#000000; stroke-linecap:round; stroke-linejoin:round; stroke-width:4; stroke-opacity:1; fill:none" points="249.264,1144.29 268.162,1144.29 "/>
<polyline clip-path="url(#clip170)" style="stroke:#000000; stroke-linecap:round; stroke-linejoin:round; stroke-width:4; stroke-opacity:1; fill:none" points="249.264,866.649 268.162,866.649 "/>
<polyline clip-path="url(#clip170)" style="stroke:#000000; stroke-linecap:round; stroke-linejoin:round; stroke-width:4; stroke-opacity:1; fill:none" points="249.264,589.004 268.162,589.004 "/>
<polyline clip-path="url(#clip170)" style="stroke:#000000; stroke-linecap:round; stroke-linejoin:round; stroke-width:4; stroke-opacity:1; fill:none" points="249.264,311.358 268.162,311.358 "/>
<path clip-path="url(#clip170)" d="M114.746 1127.01 L136.968 1127.01 L136.968 1129.01 L124.422 1161.57 L119.538 1161.57 L131.343 1130.95 L114.746 1130.95 L114.746 1127.01 Z" fill="#000000" fill-rule="nonzero" fill-opacity="1" /><path clip-path="url(#clip170)" d="M160.255 1142.94 Q163.612 1143.66 165.487 1145.93 Q167.385 1148.2 167.385 1151.53 Q167.385 1156.64 163.866 1159.45 Q160.348 1162.25 153.866 1162.25 Q151.691 1162.25 149.376 1161.81 Q147.084 1161.39 144.63 1160.53 L144.63 1156.02 Q146.575 1157.15 148.89 1157.73 Q151.204 1158.31 153.728 1158.31 Q158.126 1158.31 160.417 1156.58 Q162.732 1154.84 162.732 1151.53 Q162.732 1148.47 160.579 1146.76 Q158.45 1145.02 154.63 1145.02 L150.603 1145.02 L150.603 1141.18 L154.815 1141.18 Q158.265 1141.18 160.093 1139.82 Q161.922 1138.43 161.922 1135.83 Q161.922 1133.17 160.024 1131.76 Q158.149 1130.33 154.63 1130.33 Q152.709 1130.33 150.51 1130.74 Q148.311 1131.16 145.672 1132.04 L145.672 1127.87 Q148.334 1127.13 150.649 1126.76 Q152.987 1126.39 155.047 1126.39 Q160.371 1126.39 163.473 1128.82 Q166.575 1131.23 166.575 1135.35 Q166.575 1138.22 164.931 1140.21 Q163.288 1142.18 160.255 1142.94 Z" fill="#000000" fill-rule="nonzero" fill-opacity="1" /><path clip-path="url(#clip170)" d="M176.251 1155.7 L181.135 1155.7 L181.135 1161.57 L176.251 1161.57 L176.251 1155.7 Z" fill="#000000" fill-rule="nonzero" fill-opacity="1" /><path clip-path="url(#clip170)" d="M201.32 1130.09 Q197.709 1130.09 195.88 1133.66 Q194.075 1137.2 194.075 1144.33 Q194.075 1151.44 195.88 1155 Q197.709 1158.54 201.32 1158.54 Q204.954 1158.54 206.76 1155 Q208.588 1151.44 208.588 1144.33 Q208.588 1137.2 206.76 1133.66 Q204.954 1130.09 201.32 1130.09 M201.32 1126.39 Q207.13 1126.39 210.186 1131 Q213.264 1135.58 213.264 1144.33 Q213.264 1153.06 210.186 1157.66 Q207.13 1162.25 201.32 1162.25 Q195.51 1162.25 192.431 1157.66 Q189.375 1153.06 189.375 1144.33 Q189.375 1135.58 192.431 1131 Q195.51 1126.39 201.32 1126.39 Z" fill="#000000" fill-rule="nonzero" fill-opacity="1" /><path clip-path="url(#clip170)" d="M116.343 849.369 L138.566 849.369 L138.566 851.36 L126.019 883.929 L121.135 883.929 L132.941 853.304 L116.343 853.304 L116.343 849.369 Z" fill="#000000" fill-rule="nonzero" fill-opacity="1" /><path clip-path="url(#clip170)" d="M161.852 865.295 Q165.209 866.013 167.084 868.281 Q168.982 870.55 168.982 873.883 Q168.982 878.999 165.464 881.8 Q161.945 884.601 155.464 884.601 Q153.288 884.601 150.973 884.161 Q148.681 883.744 146.228 882.888 L146.228 878.374 Q148.172 879.508 150.487 880.087 Q152.802 880.665 155.325 880.665 Q159.723 880.665 162.015 878.929 Q164.329 877.193 164.329 873.883 Q164.329 870.828 162.177 869.115 Q160.047 867.378 156.228 867.378 L152.2 867.378 L152.2 863.536 L156.413 863.536 Q159.862 863.536 161.69 862.17 Q163.519 860.781 163.519 858.189 Q163.519 855.527 161.621 854.115 Q159.746 852.679 156.228 852.679 Q154.306 852.679 152.107 853.096 Q149.908 853.513 147.269 854.392 L147.269 850.226 Q149.931 849.485 152.246 849.115 Q154.584 848.744 156.644 848.744 Q161.968 848.744 165.07 851.175 Q168.172 853.582 168.172 857.703 Q168.172 860.573 166.528 862.564 Q164.885 864.531 161.852 865.295 Z" fill="#000000" fill-rule="nonzero" fill-opacity="1" /><path clip-path="url(#clip170)" d="M177.848 878.05 L182.732 878.05 L182.732 883.929 L177.848 883.929 L177.848 878.05 Z" fill="#000000" fill-rule="nonzero" fill-opacity="1" /><path clip-path="url(#clip170)" d="M196.945 879.994 L213.264 879.994 L213.264 883.929 L191.32 883.929 L191.32 879.994 Q193.982 877.24 198.565 872.61 Q203.172 867.957 204.352 866.615 Q206.598 864.091 207.477 862.355 Q208.38 860.596 208.38 858.906 Q208.38 856.152 206.436 854.416 Q204.514 852.679 201.412 852.679 Q199.213 852.679 196.76 853.443 Q194.329 854.207 191.551 855.758 L191.551 851.036 Q194.375 849.902 196.829 849.323 Q199.283 848.744 201.32 848.744 Q206.69 848.744 209.885 851.429 Q213.079 854.115 213.079 858.605 Q213.079 860.735 212.269 862.656 Q211.482 864.554 209.375 867.147 Q208.797 867.818 205.695 871.036 Q202.593 874.23 196.945 879.994 Z" fill="#000000" fill-rule="nonzero" fill-opacity="1" /><path clip-path="url(#clip170)" d="M114.26 571.724 L136.482 571.724 L136.482 573.714 L123.936 606.284 L119.052 606.284 L130.857 575.659 L114.26 575.659 L114.26 571.724 Z" fill="#000000" fill-rule="nonzero" fill-opacity="1" /><path clip-path="url(#clip170)" d="M159.769 587.649 Q163.126 588.367 165.001 590.636 Q166.899 592.904 166.899 596.237 Q166.899 601.353 163.38 604.154 Q159.862 606.955 153.38 606.955 Q151.204 606.955 148.89 606.515 Q146.598 606.098 144.144 605.242 L144.144 600.728 Q146.089 601.862 148.403 602.441 Q150.718 603.02 153.241 603.02 Q157.64 603.02 159.931 601.284 Q162.246 599.548 162.246 596.237 Q162.246 593.182 160.093 591.469 Q157.964 589.733 154.144 589.733 L150.116 589.733 L150.116 585.89 L154.329 585.89 Q157.778 585.89 159.607 584.524 Q161.436 583.136 161.436 580.543 Q161.436 577.881 159.538 576.469 Q157.663 575.034 154.144 575.034 Q152.223 575.034 150.024 575.45 Q147.825 575.867 145.186 576.747 L145.186 572.58 Q147.848 571.839 150.163 571.469 Q152.501 571.099 154.561 571.099 Q159.885 571.099 162.987 573.529 Q166.089 575.937 166.089 580.057 Q166.089 582.927 164.445 584.918 Q162.802 586.886 159.769 587.649 Z" fill="#000000" fill-rule="nonzero" fill-opacity="1" /><path clip-path="url(#clip170)" d="M175.764 600.404 L180.649 600.404 L180.649 606.284 L175.764 606.284 L175.764 600.404 Z" fill="#000000" fill-rule="nonzero" fill-opacity="1" /><path clip-path="url(#clip170)" d="M203.681 575.798 L191.875 594.247 L203.681 594.247 L203.681 575.798 M202.454 571.724 L208.334 571.724 L208.334 594.247 L213.264 594.247 L213.264 598.136 L208.334 598.136 L208.334 606.284 L203.681 606.284 L203.681 598.136 L188.079 598.136 L188.079 593.622 L202.454 571.724 Z" fill="#000000" fill-rule="nonzero" fill-opacity="1" /><path clip-path="url(#clip170)" d="M114.584 294.078 L136.806 294.078 L136.806 296.069 L124.26 328.638 L119.376 328.638 L131.181 298.013 L114.584 298.013 L114.584 294.078 Z" fill="#000000" fill-rule="nonzero" fill-opacity="1" /><path clip-path="url(#clip170)" d="M160.093 310.004 Q163.45 310.721 165.325 312.99 Q167.223 315.258 167.223 318.592 Q167.223 323.707 163.704 326.508 Q160.186 329.309 153.704 329.309 Q151.528 329.309 149.214 328.869 Q146.922 328.453 144.468 327.596 L144.468 323.082 Q146.413 324.217 148.728 324.795 Q151.042 325.374 153.566 325.374 Q157.964 325.374 160.255 323.638 Q162.57 321.902 162.57 318.592 Q162.57 315.536 160.417 313.823 Q158.288 312.087 154.468 312.087 L150.441 312.087 L150.441 308.245 L154.653 308.245 Q158.103 308.245 159.931 306.879 Q161.76 305.49 161.76 302.897 Q161.76 300.235 159.862 298.823 Q157.987 297.388 154.468 297.388 Q152.547 297.388 150.348 297.805 Q148.149 298.221 145.51 299.101 L145.51 294.934 Q148.172 294.194 150.487 293.823 Q152.825 293.453 154.885 293.453 Q160.209 293.453 163.311 295.883 Q166.413 298.291 166.413 302.411 Q166.413 305.282 164.769 307.272 Q163.126 309.24 160.093 310.004 Z" fill="#000000" fill-rule="nonzero" fill-opacity="1" /><path clip-path="url(#clip170)" d="M176.089 322.758 L180.973 322.758 L180.973 328.638 L176.089 328.638 L176.089 322.758 Z" fill="#000000" fill-rule="nonzero" fill-opacity="1" /><path clip-path="url(#clip170)" d="M201.737 309.495 Q198.588 309.495 196.737 311.647 Q194.908 313.8 194.908 317.55 Q194.908 321.277 196.737 323.453 Q198.588 325.606 201.737 325.606 Q204.885 325.606 206.713 323.453 Q208.565 321.277 208.565 317.55 Q208.565 313.8 206.713 311.647 Q204.885 309.495 201.737 309.495 M211.019 294.842 L211.019 299.101 Q209.26 298.268 207.454 297.828 Q205.672 297.388 203.912 297.388 Q199.283 297.388 196.829 300.513 Q194.399 303.638 194.051 309.957 Q195.417 307.944 197.477 306.879 Q199.537 305.791 202.014 305.791 Q207.223 305.791 210.232 308.962 Q213.264 312.11 213.264 317.55 Q213.264 322.874 210.116 326.092 Q206.968 329.309 201.737 329.309 Q195.741 329.309 192.57 324.726 Q189.399 320.119 189.399 311.393 Q189.399 303.198 193.288 298.337 Q197.176 293.453 203.727 293.453 Q205.487 293.453 207.269 293.8 Q209.074 294.147 211.019 294.842 Z" fill="#000000" fill-rule="nonzero" fill-opacity="1" /><path clip-path="url(#clip170)" d="M24.1199 810.787 Q25.8912 810.787 26.9862 811.915 Q28.0812 813.01 28.0812 814.395 Q28.0812 815.393 27.4693 816.134 Q26.8574 816.842 25.7946 816.842 Q24.6996 816.842 23.5402 816.005 Q22.3807 815.167 22.2197 813.267 Q21.0281 814.523 21.0281 816.52 Q21.0281 817.519 21.6722 818.356 Q22.2841 819.161 23.2825 819.612 Q24.3131 820.095 30.1424 821.19 Q32.0425 821.544 33.8782 821.866 Q35.714 822.188 37.6463 822.575 L37.6463 817.1 Q37.6463 816.391 37.6785 816.101 Q37.7107 815.812 37.8718 815.586 Q38.0328 815.329 38.3871 815.329 Q39.2888 815.329 39.5143 815.747 Q39.7075 816.134 39.7075 817.293 L39.7075 822.961 L60.6091 826.923 Q61.221 827.019 63.1534 827.438 Q65.0535 827.824 68.1775 828.758 Q71.3337 829.692 73.2016 830.626 Q74.2644 831.142 75.2628 831.818 Q76.2934 832.462 77.3239 833.396 Q78.3545 834.33 78.9664 835.554 Q79.6106 836.778 79.6106 838.066 Q79.6106 840.256 78.3867 841.963 Q77.1629 843.67 75.0695 843.67 Q73.2982 843.67 72.2032 842.575 Q71.1082 841.447 71.1082 840.063 Q71.1082 839.064 71.7201 838.356 Q72.332 837.615 73.3948 837.615 Q73.8457 837.615 74.361 837.776 Q74.8763 837.937 75.456 838.291 Q76.0679 838.646 76.4866 839.419 Q76.9053 840.191 76.9697 841.254 Q78.1613 839.998 78.1613 838.066 Q78.1613 837.454 77.9036 836.906 Q77.6782 836.359 77.0985 835.908 Q76.5188 835.425 75.9391 835.071 Q75.3916 834.716 74.3288 834.362 Q73.2982 834.008 72.5253 833.782 Q71.7523 833.557 70.3675 833.267 Q68.9826 832.945 68.1453 832.784 Q67.3401 832.623 65.762 832.333 L39.7075 827.406 L39.7075 831.754 Q39.7075 832.526 39.6753 832.849 Q39.6431 833.138 39.4821 833.364 Q39.2888 833.589 38.9023 833.589 Q38.2904 833.589 38.0328 833.332 Q37.7429 833.042 37.7107 832.72 Q37.6463 832.398 37.6463 831.625 L37.6463 827.051 Q29.4982 825.506 27.3082 824.894 Q24.9894 824.185 23.3791 823.09 Q21.7366 821.995 20.9637 820.771 Q20.1907 819.547 19.9009 818.549 Q19.5788 817.519 19.5788 816.52 Q19.5788 814.266 20.8027 812.527 Q21.9943 810.787 24.1199 810.787 Z" fill="#000000" fill-rule="nonzero" fill-opacity="1" /><path clip-path="url(#clip170)" d="M82.5735 759.382 L16.6159 759.382 L16.6159 749.431 L18.1296 749.431 L18.1296 754.97 L81.0598 754.97 L81.0598 749.431 L82.5735 749.431 L82.5735 759.382 Z" fill="#000000" fill-rule="nonzero" fill-opacity="1" /><path clip-path="url(#clip170)" d="M66.0841 741.232 L64.0551 741.232 Q64.0551 737.722 63.6364 736.916 Q63.1856 736.111 61.06 736.111 L43.379 736.111 Q40.9313 736.111 40.3194 736.981 Q39.7075 737.818 39.7075 741.232 L37.6463 741.232 L36.9378 731.957 L43.8621 731.957 Q36.9378 728.865 36.9378 722.198 Q36.9378 714.469 43.379 713.406 Q40.8669 712.279 38.9023 709.928 Q36.9378 707.545 36.9378 703.841 Q36.9378 698.881 39.3854 696.917 Q41.0279 695.468 42.8637 695.178 Q44.6994 694.888 49.4659 694.888 L62.0584 694.888 Q63.4432 694.823 63.7653 693.761 Q64.0551 692.698 64.0551 689.735 L66.0841 689.735 Q65.8909 696.466 65.8909 697.11 Q65.8909 697.625 66.0841 704.582 L64.0551 704.582 Q64.0551 701.071 63.6364 700.266 Q63.1856 699.429 61.06 699.429 L45.6978 699.429 Q42.3484 699.429 40.3838 700.459 Q38.3871 701.49 38.3871 704.324 Q38.3871 707.738 41.2534 710.475 Q44.1197 713.213 48.9506 713.213 L61.06 713.213 Q63.1856 713.213 63.6364 712.408 Q64.0551 711.57 64.0551 708.06 L66.0841 708.06 Q65.8909 714.791 65.8909 715.467 Q65.8909 715.983 66.0841 722.907 L64.0551 722.907 Q64.0551 719.396 63.6364 718.591 Q63.1856 717.754 61.06 717.754 L45.6978 717.754 Q42.3484 717.754 40.3838 718.785 Q38.3871 719.815 38.3871 722.649 Q38.3871 726.063 41.2534 728.801 Q44.1197 731.538 48.9506 731.538 L61.06 731.538 Q63.1856 731.538 63.6364 730.733 Q64.0551 729.896 64.0551 726.417 L66.0841 726.417 Q65.8909 733.148 65.8909 733.793 Q65.8909 734.308 66.0841 741.232 Z" fill="#000000" fill-rule="nonzero" fill-opacity="1" /><path clip-path="url(#clip170)" d="M66.0841 687.109 L64.0551 687.109 Q64.0551 683.599 63.6364 682.794 Q63.1856 681.988 61.06 681.988 L43.379 681.988 Q40.9313 681.988 40.3194 682.858 Q39.7075 683.695 39.7075 687.109 L37.6463 687.109 L36.9378 677.834 L43.8621 677.834 Q36.9378 674.742 36.9378 668.075 Q36.9378 660.346 43.379 659.283 Q40.8669 658.156 38.9023 655.805 Q36.9378 653.422 36.9378 649.718 Q36.9378 644.758 39.3854 642.794 Q41.0279 641.345 42.8637 641.055 Q44.6994 640.765 49.4659 640.765 L62.0584 640.765 Q63.4432 640.7 63.7653 639.638 Q64.0551 638.575 64.0551 635.612 L66.0841 635.612 Q65.8909 642.343 65.8909 642.987 Q65.8909 643.502 66.0841 650.459 L64.0551 650.459 Q64.0551 646.948 63.6364 646.143 Q63.1856 645.306 61.06 645.306 L45.6978 645.306 Q42.3484 645.306 40.3838 646.337 Q38.3871 647.367 38.3871 650.201 Q38.3871 653.615 41.2534 656.353 Q44.1197 659.09 48.9506 659.09 L61.06 659.09 Q63.1856 659.09 63.6364 658.285 Q64.0551 657.448 64.0551 653.937 L66.0841 653.937 Q65.8909 660.668 65.8909 661.344 Q65.8909 661.86 66.0841 668.784 L64.0551 668.784 Q64.0551 665.274 63.6364 664.468 Q63.1856 663.631 61.06 663.631 L45.6978 663.631 Q42.3484 663.631 40.3838 664.662 Q38.3871 665.692 38.3871 668.526 Q38.3871 671.94 41.2534 674.678 Q44.1197 677.415 48.9506 677.415 L61.06 677.415 Q63.1856 677.415 63.6364 676.61 Q64.0551 675.773 64.0551 672.294 L66.0841 672.294 Q65.8909 679.025 65.8909 679.67 Q65.8909 680.185 66.0841 687.109 Z" fill="#000000" fill-rule="nonzero" fill-opacity="1" /><path clip-path="url(#clip170)" d="M81.0598 632.722 L81.0598 627.183 L18.1296 627.183 L18.1296 632.722 L16.6159 632.722 L16.6159 622.771 L82.5735 622.771 L82.5735 632.722 L81.0598 632.722 Z" fill="#000000" fill-rule="nonzero" fill-opacity="1" /><polyline clip-path="url(#clip172)" style="stroke:#000000; stroke-linecap:round; stroke-linejoin:round; stroke-width:4; stroke-opacity:1; fill:none" points="308.797,1352.94 354.946,1216.53 401.096,1151.14 447.245,917.796 493.395,1030.57 539.544,850.043 631.843,901.807 677.993,946.075 724.142,1032.78 770.291,1025.11 816.441,797.502 862.59,536.777 908.74,809.565 954.889,988.453 1001.04,1018.9 1047.19,501.718 1093.34,85.8409 1139.49,876.545 1185.64,669.421 1231.79,933.506 1277.94,92.8313 1324.08,916.986 1370.23,1008.9 1416.38,316.815 1462.53,1372.4 1508.68,762.355 1554.83,1063.44 1600.98,514.827 1647.13,896.414 1693.28,1321.27 1739.43,854.903 1785.58,407.084 1831.73,924.936 1877.88,518.672 1924.03,610.655 1970.18,725.069 2016.33,369.013 2062.48,1016.63 2108.63,691.679 2154.77,377.938 2200.92,580.892 2247.07,800.584 2293.22,522.793 "/>
</svg>
