<?xml version="1.0" encoding="utf-8"?>
<svg xmlns="http://www.w3.org/2000/svg" xmlns:xlink="http://www.w3.org/1999/xlink" width="600" height="400" viewBox="0 0 2400 1600">
<defs>
  <clipPath id="clip210">
    <rect x="0" y="0" width="2400" height="1600"/>
  </clipPath>
</defs>
<path clip-path="url(#clip210)" d="M0 1600 L2400 1600 L2400 0 L0 0  Z" fill="#ffffff" fill-rule="evenodd" fill-opacity="1"/>
<defs>
  <clipPath id="clip211">
    <rect x="480" y="0" width="1681" height="1600"/>
  </clipPath>
</defs>
<path clip-path="url(#clip210)" d="M234.125 1423.18 L2352.76 1423.18 L2352.76 47.2441 L234.125 47.2441  Z" fill="#ffffff" fill-rule="evenodd" fill-opacity="1"/>
<defs>
  <clipPath id="clip212">
    <rect x="234" y="47" width="2120" height="1377"/>
  </clipPath>
</defs>
<polyline clip-path="url(#clip212)" style="stroke:#000000; stroke-linecap:round; stroke-linejoin:round; stroke-width:2; stroke-opacity:0.1; fill:none" points="324.145,1423.18 324.145,47.2441 "/>
<polyline clip-path="url(#clip212)" style="stroke:#000000; stroke-linecap:round; stroke-linejoin:round; stroke-width:2; stroke-opacity:0.1; fill:none" points="788.961,1423.18 788.961,47.2441 "/>
<polyline clip-path="url(#clip212)" style="stroke:#000000; stroke-linecap:round; stroke-linejoin:round; stroke-width:2; stroke-opacity:0.1; fill:none" points="1253.78,1423.18 1253.78,47.2441 "/>
<polyline clip-path="url(#clip212)" style="stroke:#000000; stroke-linecap:round; stroke-linejoin:round; stroke-width:2; stroke-opacity:0.1; fill:none" points="1718.59,1423.18 1718.59,47.2441 "/>
<polyline clip-path="url(#clip212)" style="stroke:#000000; stroke-linecap:round; stroke-linejoin:round; stroke-width:2; stroke-opacity:0.1; fill:none" points="2183.41,1423.18 2183.41,47.2441 "/>
<polyline clip-path="url(#clip212)" style="stroke:#000000; stroke-linecap:round; stroke-linejoin:round; stroke-width:2; stroke-opacity:0.1; fill:none" points="234.125,1306.75 2352.76,1306.75 "/>
<polyline clip-path="url(#clip212)" style="stroke:#000000; stroke-linecap:round; stroke-linejoin:round; stroke-width:2; stroke-opacity:0.1; fill:none" points="234.125,1040.75 2352.76,1040.75 "/>
<polyline clip-path="url(#clip212)" style="stroke:#000000; stroke-linecap:round; stroke-linejoin:round; stroke-width:2; stroke-opacity:0.1; fill:none" points="234.125,774.756 2352.76,774.756 "/>
<polyline clip-path="url(#clip212)" style="stroke:#000000; stroke-linecap:round; stroke-linejoin:round; stroke-width:2; stroke-opacity:0.1; fill:none" points="234.125,508.762 2352.76,508.762 "/>
<polyline clip-path="url(#clip212)" style="stroke:#000000; stroke-linecap:round; stroke-linejoin:round; stroke-width:2; stroke-opacity:0.1; fill:none" points="234.125,242.768 2352.76,242.768 "/>
<polyline clip-path="url(#clip210)" style="stroke:#000000; stroke-linecap:round; stroke-linejoin:round; stroke-width:4; stroke-opacity:1; fill:none" points="234.125,1423.18 2352.76,1423.18 "/>
<polyline clip-path="url(#clip210)" style="stroke:#000000; stroke-linecap:round; stroke-linejoin:round; stroke-width:4; stroke-opacity:1; fill:none" points="324.145,1423.18 324.145,1404.28 "/>
<polyline clip-path="url(#clip210)" style="stroke:#000000; stroke-linecap:round; stroke-linejoin:round; stroke-width:4; stroke-opacity:1; fill:none" points="788.961,1423.18 788.961,1404.28 "/>
<polyline clip-path="url(#clip210)" style="stroke:#000000; stroke-linecap:round; stroke-linejoin:round; stroke-width:4; stroke-opacity:1; fill:none" points="1253.78,1423.18 1253.78,1404.28 "/>
<polyline clip-path="url(#clip210)" style="stroke:#000000; stroke-linecap:round; stroke-linejoin:round; stroke-width:4; stroke-opacity:1; fill:none" points="1718.59,1423.18 1718.59,1404.28 "/>
<polyline clip-path="url(#clip210)" style="stroke:#000000; stroke-linecap:round; stroke-linejoin:round; stroke-width:4; stroke-opacity:1; fill:none" points="2183.41,1423.18 2183.41,1404.28 "/>
<path clip-path="url(#clip210)" d="M283.751 1481.64 L291.39 1481.64 L291.39 1455.28 L283.08 1456.95 L283.08 1452.69 L291.344 1451.02 L296.02 1451.02 L296.02 1481.64 L303.659 1481.64 L303.659 1485.58 L283.751 1485.58 L283.751 1481.64 Z" fill="#000000" fill-rule="nonzero" fill-opacity="1" /><path clip-path="url(#clip210)" d="M323.103 1454.1 Q319.492 1454.1 317.663 1457.66 Q315.858 1461.2 315.858 1468.33 Q315.858 1475.44 317.663 1479.01 Q319.492 1482.55 323.103 1482.55 Q326.737 1482.55 328.543 1479.01 Q330.372 1475.44 330.372 1468.33 Q330.372 1461.2 328.543 1457.66 Q326.737 1454.1 323.103 1454.1 M323.103 1450.39 Q328.913 1450.39 331.969 1455 Q335.047 1459.58 335.047 1468.33 Q335.047 1477.06 331.969 1481.67 Q328.913 1486.25 323.103 1486.25 Q317.293 1486.25 314.214 1481.67 Q311.159 1477.06 311.159 1468.33 Q311.159 1459.58 314.214 1455 Q317.293 1450.39 323.103 1450.39 Z" fill="#000000" fill-rule="nonzero" fill-opacity="1" /><path clip-path="url(#clip210)" d="M353.265 1454.1 Q349.654 1454.1 347.825 1457.66 Q346.02 1461.2 346.02 1468.33 Q346.02 1475.44 347.825 1479.01 Q349.654 1482.55 353.265 1482.55 Q356.899 1482.55 358.705 1479.01 Q360.533 1475.44 360.533 1468.33 Q360.533 1461.2 358.705 1457.66 Q356.899 1454.1 353.265 1454.1 M353.265 1450.39 Q359.075 1450.39 362.131 1455 Q365.209 1459.58 365.209 1468.33 Q365.209 1477.06 362.131 1481.67 Q359.075 1486.25 353.265 1486.25 Q347.455 1486.25 344.376 1481.67 Q341.321 1477.06 341.321 1468.33 Q341.321 1459.58 344.376 1455 Q347.455 1450.39 353.265 1450.39 Z" fill="#000000" fill-rule="nonzero" fill-opacity="1" /><path clip-path="url(#clip210)" d="M752.653 1481.64 L768.972 1481.64 L768.972 1485.58 L747.028 1485.58 L747.028 1481.64 Q749.69 1478.89 754.273 1474.26 Q758.88 1469.61 760.06 1468.27 Q762.306 1465.74 763.185 1464.01 Q764.088 1462.25 764.088 1460.56 Q764.088 1457.8 762.144 1456.07 Q760.222 1454.33 757.12 1454.33 Q754.921 1454.33 752.468 1455.09 Q750.037 1455.86 747.259 1457.41 L747.259 1452.69 Q750.083 1451.55 752.537 1450.97 Q754.991 1450.39 757.028 1450.39 Q762.398 1450.39 765.593 1453.08 Q768.787 1455.77 768.787 1460.26 Q768.787 1462.39 767.977 1464.31 Q767.19 1466.2 765.083 1468.8 Q764.505 1469.47 761.403 1472.69 Q758.301 1475.88 752.653 1481.64 Z" fill="#000000" fill-rule="nonzero" fill-opacity="1" /><path clip-path="url(#clip210)" d="M788.787 1454.1 Q785.176 1454.1 783.347 1457.66 Q781.542 1461.2 781.542 1468.33 Q781.542 1475.44 783.347 1479.01 Q785.176 1482.55 788.787 1482.55 Q792.421 1482.55 794.227 1479.01 Q796.055 1475.44 796.055 1468.33 Q796.055 1461.2 794.227 1457.66 Q792.421 1454.1 788.787 1454.1 M788.787 1450.39 Q794.597 1450.39 797.653 1455 Q800.731 1459.58 800.731 1468.33 Q800.731 1477.06 797.653 1481.67 Q794.597 1486.25 788.787 1486.25 Q782.977 1486.25 779.898 1481.67 Q776.843 1477.06 776.843 1468.33 Q776.843 1459.58 779.898 1455 Q782.977 1450.39 788.787 1450.39 Z" fill="#000000" fill-rule="nonzero" fill-opacity="1" /><path clip-path="url(#clip210)" d="M818.949 1454.1 Q815.338 1454.1 813.509 1457.66 Q811.704 1461.2 811.704 1468.33 Q811.704 1475.44 813.509 1479.01 Q815.338 1482.55 818.949 1482.55 Q822.583 1482.55 824.389 1479.01 Q826.217 1475.44 826.217 1468.33 Q826.217 1461.2 824.389 1457.66 Q822.583 1454.1 818.949 1454.1 M818.949 1450.39 Q824.759 1450.39 827.815 1455 Q830.893 1459.58 830.893 1468.33 Q830.893 1477.06 827.815 1481.67 Q824.759 1486.25 818.949 1486.25 Q813.139 1486.25 810.06 1481.67 Q807.004 1477.06 807.004 1468.33 Q807.004 1459.58 810.06 1455 Q813.139 1450.39 818.949 1450.39 Z" fill="#000000" fill-rule="nonzero" fill-opacity="1" /><path clip-path="url(#clip210)" d="M1227.54 1466.95 Q1230.89 1467.66 1232.77 1469.93 Q1234.67 1472.2 1234.67 1475.53 Q1234.67 1480.65 1231.15 1483.45 Q1227.63 1486.25 1221.15 1486.25 Q1218.97 1486.25 1216.66 1485.81 Q1214.37 1485.39 1211.91 1484.54 L1211.91 1480.02 Q1213.86 1481.16 1216.17 1481.74 Q1218.49 1482.32 1221.01 1482.32 Q1225.41 1482.32 1227.7 1480.58 Q1230.01 1478.84 1230.01 1475.53 Q1230.01 1472.48 1227.86 1470.77 Q1225.73 1469.03 1221.91 1469.03 L1217.89 1469.03 L1217.89 1465.19 L1222.1 1465.19 Q1225.55 1465.19 1227.38 1463.82 Q1229.2 1462.43 1229.2 1459.84 Q1229.2 1457.18 1227.31 1455.77 Q1225.43 1454.33 1221.91 1454.33 Q1219.99 1454.33 1217.79 1454.75 Q1215.59 1455.16 1212.95 1456.04 L1212.95 1451.88 Q1215.62 1451.14 1217.93 1450.77 Q1220.27 1450.39 1222.33 1450.39 Q1227.65 1450.39 1230.76 1452.83 Q1233.86 1455.23 1233.86 1459.35 Q1233.86 1462.22 1232.21 1464.21 Q1230.57 1466.18 1227.54 1466.95 Z" fill="#000000" fill-rule="nonzero" fill-opacity="1" /><path clip-path="url(#clip210)" d="M1253.53 1454.1 Q1249.92 1454.1 1248.09 1457.66 Q1246.29 1461.2 1246.29 1468.33 Q1246.29 1475.44 1248.09 1479.01 Q1249.92 1482.55 1253.53 1482.55 Q1257.17 1482.55 1258.97 1479.01 Q1260.8 1475.44 1260.8 1468.33 Q1260.8 1461.2 1258.97 1457.66 Q1257.17 1454.1 1253.53 1454.1 M1253.53 1450.39 Q1259.34 1450.39 1262.4 1455 Q1265.48 1459.58 1265.48 1468.33 Q1265.48 1477.06 1262.4 1481.67 Q1259.34 1486.25 1253.53 1486.25 Q1247.72 1486.25 1244.64 1481.67 Q1241.59 1477.06 1241.59 1468.33 Q1241.59 1459.58 1244.64 1455 Q1247.72 1450.39 1253.53 1450.39 Z" fill="#000000" fill-rule="nonzero" fill-opacity="1" /><path clip-path="url(#clip210)" d="M1283.7 1454.1 Q1280.08 1454.1 1278.26 1457.66 Q1276.45 1461.2 1276.45 1468.33 Q1276.45 1475.44 1278.26 1479.01 Q1280.08 1482.55 1283.7 1482.55 Q1287.33 1482.55 1289.14 1479.01 Q1290.96 1475.44 1290.96 1468.33 Q1290.96 1461.2 1289.14 1457.66 Q1287.33 1454.1 1283.7 1454.1 M1283.7 1450.39 Q1289.51 1450.39 1292.56 1455 Q1295.64 1459.58 1295.64 1468.33 Q1295.64 1477.06 1292.56 1481.67 Q1289.51 1486.25 1283.7 1486.25 Q1277.89 1486.25 1274.81 1481.67 Q1271.75 1477.06 1271.75 1468.33 Q1271.75 1459.58 1274.81 1455 Q1277.89 1450.39 1283.7 1450.39 Z" fill="#000000" fill-rule="nonzero" fill-opacity="1" /><path clip-path="url(#clip210)" d="M1691.68 1455.09 L1679.88 1473.54 L1691.68 1473.54 L1691.68 1455.09 M1690.46 1451.02 L1696.34 1451.02 L1696.34 1473.54 L1701.27 1473.54 L1701.27 1477.43 L1696.34 1477.43 L1696.34 1485.58 L1691.68 1485.58 L1691.68 1477.43 L1676.08 1477.43 L1676.08 1472.92 L1690.46 1451.02 Z" fill="#000000" fill-rule="nonzero" fill-opacity="1" /><path clip-path="url(#clip210)" d="M1719 1454.1 Q1715.39 1454.1 1713.56 1457.66 Q1711.75 1461.2 1711.75 1468.33 Q1711.75 1475.44 1713.56 1479.01 Q1715.39 1482.55 1719 1482.55 Q1722.63 1482.55 1724.44 1479.01 Q1726.27 1475.44 1726.27 1468.33 Q1726.27 1461.2 1724.44 1457.66 Q1722.63 1454.1 1719 1454.1 M1719 1450.39 Q1724.81 1450.39 1727.86 1455 Q1730.94 1459.58 1730.94 1468.33 Q1730.94 1477.06 1727.86 1481.67 Q1724.81 1486.25 1719 1486.25 Q1713.19 1486.25 1710.11 1481.67 Q1707.05 1477.06 1707.05 1468.33 Q1707.05 1459.58 1710.11 1455 Q1713.19 1450.39 1719 1450.39 Z" fill="#000000" fill-rule="nonzero" fill-opacity="1" /><path clip-path="url(#clip210)" d="M1749.16 1454.1 Q1745.55 1454.1 1743.72 1457.66 Q1741.91 1461.2 1741.91 1468.33 Q1741.91 1475.44 1743.72 1479.01 Q1745.55 1482.55 1749.16 1482.55 Q1752.79 1482.55 1754.6 1479.01 Q1756.43 1475.44 1756.43 1468.33 Q1756.43 1461.2 1754.6 1457.66 Q1752.79 1454.1 1749.16 1454.1 M1749.16 1450.39 Q1754.97 1450.39 1758.02 1455 Q1761.1 1459.58 1761.1 1468.33 Q1761.1 1477.06 1758.02 1481.67 Q1754.97 1486.25 1749.16 1486.25 Q1743.35 1486.25 1740.27 1481.67 Q1737.21 1477.06 1737.21 1468.33 Q1737.21 1459.58 1740.27 1455 Q1743.35 1450.39 1749.16 1450.39 Z" fill="#000000" fill-rule="nonzero" fill-opacity="1" /><path clip-path="url(#clip210)" d="M2143.03 1451.02 L2161.38 1451.02 L2161.38 1454.96 L2147.31 1454.96 L2147.31 1463.43 Q2148.33 1463.08 2149.35 1462.92 Q2150.36 1462.73 2151.38 1462.73 Q2157.17 1462.73 2160.55 1465.9 Q2163.93 1469.08 2163.93 1474.49 Q2163.93 1480.07 2160.46 1483.17 Q2156.98 1486.25 2150.67 1486.25 Q2148.49 1486.25 2146.22 1485.88 Q2143.98 1485.51 2141.57 1484.77 L2141.57 1480.07 Q2143.65 1481.2 2145.87 1481.76 Q2148.1 1482.32 2150.57 1482.32 Q2154.58 1482.32 2156.92 1480.21 Q2159.25 1478.1 2159.25 1474.49 Q2159.25 1470.88 2156.92 1468.77 Q2154.58 1466.67 2150.57 1466.67 Q2148.7 1466.67 2146.82 1467.08 Q2144.97 1467.5 2143.03 1468.38 L2143.03 1451.02 Z" fill="#000000" fill-rule="nonzero" fill-opacity="1" /><path clip-path="url(#clip210)" d="M2183.14 1454.1 Q2179.53 1454.1 2177.7 1457.66 Q2175.9 1461.2 2175.9 1468.33 Q2175.9 1475.44 2177.7 1479.01 Q2179.53 1482.55 2183.14 1482.55 Q2186.78 1482.55 2188.58 1479.01 Q2190.41 1475.44 2190.41 1468.33 Q2190.41 1461.2 2188.58 1457.66 Q2186.78 1454.1 2183.14 1454.1 M2183.14 1450.39 Q2188.95 1450.39 2192.01 1455 Q2195.09 1459.58 2195.09 1468.33 Q2195.09 1477.06 2192.01 1481.67 Q2188.95 1486.25 2183.14 1486.25 Q2177.33 1486.25 2174.25 1481.67 Q2171.2 1477.06 2171.2 1468.33 Q2171.2 1459.58 2174.25 1455 Q2177.33 1450.39 2183.14 1450.39 Z" fill="#000000" fill-rule="nonzero" fill-opacity="1" /><path clip-path="url(#clip210)" d="M2213.3 1454.1 Q2209.69 1454.1 2207.86 1457.66 Q2206.06 1461.2 2206.06 1468.33 Q2206.06 1475.44 2207.86 1479.01 Q2209.69 1482.55 2213.3 1482.55 Q2216.94 1482.55 2218.74 1479.01 Q2220.57 1475.44 2220.57 1468.33 Q2220.57 1461.2 2218.74 1457.66 Q2216.94 1454.1 2213.3 1454.1 M2213.3 1450.39 Q2219.11 1450.39 2222.17 1455 Q2225.25 1459.58 2225.25 1468.33 Q2225.25 1477.06 2222.17 1481.67 Q2219.11 1486.25 2213.3 1486.25 Q2207.49 1486.25 2204.41 1481.67 Q2201.36 1477.06 2201.36 1468.33 Q2201.36 1459.58 2204.41 1455 Q2207.49 1450.39 2213.3 1450.39 Z" fill="#000000" fill-rule="nonzero" fill-opacity="1" /><path clip-path="url(#clip210)" d="M1212.92 1537.25 Q1212.92 1541.95 1210.54 1546.5 Q1208.19 1551.04 1204.48 1553.84 Q1200.78 1556.61 1197.01 1556.61 Q1194.76 1556.61 1193.24 1555.38 Q1191.76 1554.13 1190.96 1552.36 Q1190.35 1554.55 1189.02 1559.8 Q1187.7 1565.05 1187.7 1565.56 Q1187.7 1565.85 1187.77 1565.98 Q1187.83 1566.11 1188.12 1566.27 Q1188.41 1566.46 1189.12 1566.53 Q1189.83 1566.62 1191.02 1566.62 Q1191.63 1566.62 1191.86 1566.62 Q1192.12 1566.66 1192.34 1566.82 Q1192.6 1566.98 1192.6 1567.33 Q1192.6 1568.65 1191.41 1568.65 Q1190.35 1568.65 1188.16 1568.56 Q1185.97 1568.46 1184.87 1568.46 Q1183.94 1568.46 1182.07 1568.56 Q1180.2 1568.65 1179.33 1568.65 Q1178.46 1568.65 1178.46 1567.88 Q1178.46 1567.43 1178.59 1567.14 Q1178.69 1566.88 1178.94 1566.75 Q1179.2 1566.66 1179.43 1566.62 Q1179.62 1566.62 1180.01 1566.62 Q1181.49 1566.62 1182.13 1566.37 Q1182.78 1566.14 1183 1565.66 Q1183.26 1565.21 1183.55 1563.92 L1190.96 1534.55 Q1191.41 1532.58 1191.41 1531.2 Q1191.41 1529.46 1190.86 1528.81 Q1190.31 1528.17 1189.35 1528.17 Q1187.67 1528.17 1186.58 1530.17 Q1185.48 1532.16 1184.55 1536.03 Q1184.26 1537.09 1184.07 1537.32 Q1183.9 1537.54 1183.42 1537.54 Q1182.62 1537.51 1182.62 1536.87 Q1182.62 1536.71 1182.87 1535.67 Q1183.13 1534.61 1183.61 1533.07 Q1184.13 1531.49 1184.68 1530.49 Q1185 1529.81 1185.29 1529.36 Q1185.58 1528.91 1186.16 1528.2 Q1186.77 1527.49 1187.64 1527.11 Q1188.51 1526.72 1189.57 1526.72 Q1191.63 1526.72 1193.34 1527.95 Q1195.05 1529.17 1195.5 1531.65 Q1197.33 1529.49 1199.59 1528.11 Q1201.84 1526.72 1204.13 1526.72 Q1207.93 1526.72 1210.41 1529.68 Q1212.92 1532.62 1212.92 1537.25 M1208.15 1534.35 Q1208.15 1531.42 1207.03 1529.81 Q1205.93 1528.17 1203.94 1528.17 Q1201.46 1528.17 1198.59 1530.68 Q1195.76 1533.07 1195.18 1535.29 L1191.92 1548.2 L1191.73 1549.27 Q1191.73 1549.46 1191.83 1550.04 Q1191.96 1550.59 1192.31 1551.49 Q1192.7 1552.39 1193.21 1553.19 Q1193.76 1553.97 1194.73 1554.55 Q1195.72 1555.13 1196.95 1555.13 Q1198.91 1555.13 1201.04 1553.39 Q1203.2 1551.65 1204.81 1548.36 Q1205.8 1546.24 1206.96 1541.66 Q1208.15 1537.06 1208.15 1534.35 Z" fill="#000000" fill-rule="nonzero" fill-opacity="1" /><path clip-path="url(#clip210)" d="M1263.61 1572.36 L1263.61 1506.4 L1273.56 1506.4 L1273.56 1507.91 L1268.02 1507.91 L1268.02 1570.84 L1273.56 1570.84 L1273.56 1572.36 L1263.61 1572.36 Z" fill="#000000" fill-rule="nonzero" fill-opacity="1" /><path clip-path="url(#clip210)" d="M1281.76 1555.87 L1281.76 1553.84 Q1285.27 1553.84 1286.08 1553.42 Q1286.88 1552.97 1286.88 1550.84 L1286.88 1533.16 Q1286.88 1530.72 1286.01 1530.1 Q1285.17 1529.49 1281.76 1529.49 L1281.76 1527.43 L1291.04 1526.72 L1291.04 1533.65 Q1294.13 1526.72 1300.79 1526.72 Q1308.52 1526.72 1309.59 1533.16 Q1310.71 1530.65 1313.06 1528.69 Q1315.45 1526.72 1319.15 1526.72 Q1324.11 1526.72 1326.08 1529.17 Q1327.52 1530.81 1327.81 1532.65 Q1328.1 1534.48 1328.1 1539.25 L1328.1 1551.84 Q1328.17 1553.23 1329.23 1553.55 Q1330.29 1553.84 1333.26 1553.84 L1333.26 1555.87 Q1326.53 1555.67 1325.88 1555.67 Q1325.37 1555.67 1318.41 1555.87 L1318.41 1553.84 Q1321.92 1553.84 1322.73 1553.42 Q1323.56 1552.97 1323.56 1550.84 L1323.56 1535.48 Q1323.56 1532.13 1322.53 1530.17 Q1321.5 1528.17 1318.67 1528.17 Q1315.25 1528.17 1312.52 1531.04 Q1309.78 1533.9 1309.78 1538.73 L1309.78 1550.84 Q1309.78 1552.97 1310.58 1553.42 Q1311.42 1553.84 1314.93 1553.84 L1314.93 1555.87 Q1308.2 1555.67 1307.52 1555.67 Q1307.01 1555.67 1300.09 1555.87 L1300.09 1553.84 Q1303.6 1553.84 1304.4 1553.42 Q1305.24 1552.97 1305.24 1550.84 L1305.24 1535.48 Q1305.24 1532.13 1304.21 1530.17 Q1303.18 1528.17 1300.34 1528.17 Q1296.93 1528.17 1294.19 1531.04 Q1291.45 1533.9 1291.45 1538.73 L1291.45 1550.84 Q1291.45 1552.97 1292.26 1553.42 Q1293.1 1553.84 1296.57 1553.84 L1296.57 1555.87 Q1289.84 1555.67 1289.2 1555.67 Q1288.68 1555.67 1281.76 1555.87 Z" fill="#000000" fill-rule="nonzero" fill-opacity="1" /><path clip-path="url(#clip210)" d="M1335.88 1555.87 L1335.88 1553.84 Q1339.39 1553.84 1340.2 1553.42 Q1341 1552.97 1341 1550.84 L1341 1533.16 Q1341 1530.72 1340.13 1530.1 Q1339.3 1529.49 1335.88 1529.49 L1335.88 1527.43 L1345.16 1526.72 L1345.16 1533.65 Q1348.25 1526.72 1354.92 1526.72 Q1362.65 1526.72 1363.71 1533.16 Q1364.84 1530.65 1367.19 1528.69 Q1369.57 1526.72 1373.27 1526.72 Q1378.23 1526.72 1380.2 1529.17 Q1381.65 1530.81 1381.94 1532.65 Q1382.23 1534.48 1382.23 1539.25 L1382.23 1551.84 Q1382.29 1553.23 1383.35 1553.55 Q1384.42 1553.84 1387.38 1553.84 L1387.38 1555.87 Q1380.65 1555.67 1380.01 1555.67 Q1379.49 1555.67 1372.53 1555.87 L1372.53 1553.84 Q1376.04 1553.84 1376.85 1553.42 Q1377.69 1552.97 1377.69 1550.84 L1377.69 1535.48 Q1377.69 1532.13 1376.66 1530.17 Q1375.63 1528.17 1372.79 1528.17 Q1369.38 1528.17 1366.64 1531.04 Q1363.9 1533.9 1363.9 1538.73 L1363.9 1550.84 Q1363.9 1552.97 1364.71 1553.42 Q1365.54 1553.84 1369.06 1553.84 L1369.06 1555.87 Q1362.32 1555.67 1361.65 1555.67 Q1361.13 1555.67 1354.21 1555.87 L1354.21 1553.84 Q1357.72 1553.84 1358.52 1553.42 Q1359.36 1552.97 1359.36 1550.84 L1359.36 1535.48 Q1359.36 1532.13 1358.33 1530.17 Q1357.3 1528.17 1354.47 1528.17 Q1351.05 1528.17 1348.31 1531.04 Q1345.58 1533.9 1345.58 1538.73 L1345.58 1550.84 Q1345.58 1552.97 1346.38 1553.42 Q1347.22 1553.84 1350.7 1553.84 L1350.7 1555.87 Q1343.97 1555.67 1343.32 1555.67 Q1342.81 1555.67 1335.88 1555.87 Z" fill="#000000" fill-rule="nonzero" fill-opacity="1" /><path clip-path="url(#clip210)" d="M1390.27 1570.84 L1395.81 1570.84 L1395.81 1507.91 L1390.27 1507.91 L1390.27 1506.4 L1400.22 1506.4 L1400.22 1572.36 L1390.27 1572.36 L1390.27 1570.84 Z" fill="#000000" fill-rule="nonzero" fill-opacity="1" /><polyline clip-path="url(#clip210)" style="stroke:#000000; stroke-linecap:round; stroke-linejoin:round; stroke-width:4; stroke-opacity:1; fill:none" points="234.125,1423.18 234.125,47.2441 "/>
<polyline clip-path="url(#clip210)" style="stroke:#000000; stroke-linecap:round; stroke-linejoin:round; stroke-width:4; stroke-opacity:1; fill:none" points="234.125,1306.75 253.023,1306.75 "/>
<polyline clip-path="url(#clip210)" style="stroke:#000000; stroke-linecap:round; stroke-linejoin:round; stroke-width:4; stroke-opacity:1; fill:none" points="234.125,1040.75 253.023,1040.75 "/>
<polyline clip-path="url(#clip210)" style="stroke:#000000; stroke-linecap:round; stroke-linejoin:round; stroke-width:4; stroke-opacity:1; fill:none" points="234.125,774.756 253.023,774.756 "/>
<polyline clip-path="url(#clip210)" style="stroke:#000000; stroke-linecap:round; stroke-linejoin:round; stroke-width:4; stroke-opacity:1; fill:none" points="234.125,508.762 253.023,508.762 "/>
<polyline clip-path="url(#clip210)" style="stroke:#000000; stroke-linecap:round; stroke-linejoin:round; stroke-width:4; stroke-opacity:1; fill:none" points="234.125,242.768 253.023,242.768 "/>
<path clip-path="url(#clip210)" d="M116.668 1320.09 L124.306 1320.09 L124.306 1293.72 L115.996 1295.39 L115.996 1291.13 L124.26 1289.47 L128.936 1289.47 L128.936 1320.09 L136.575 1320.09 L136.575 1324.03 L116.668 1324.03 L116.668 1320.09 Z" fill="#000000" fill-rule="nonzero" fill-opacity="1" /><path clip-path="url(#clip210)" d="M156.019 1292.54 Q152.408 1292.54 150.579 1296.11 Q148.774 1299.65 148.774 1306.78 Q148.774 1313.89 150.579 1317.45 Q152.408 1320.99 156.019 1320.99 Q159.653 1320.99 161.459 1317.45 Q163.288 1313.89 163.288 1306.78 Q163.288 1299.65 161.459 1296.11 Q159.653 1292.54 156.019 1292.54 M156.019 1288.84 Q161.829 1288.84 164.885 1293.45 Q167.964 1298.03 167.964 1306.78 Q167.964 1315.51 164.885 1320.11 Q161.829 1324.7 156.019 1324.7 Q150.209 1324.7 147.13 1320.11 Q144.075 1315.51 144.075 1306.78 Q144.075 1298.03 147.13 1293.45 Q150.209 1288.84 156.019 1288.84 Z" fill="#000000" fill-rule="nonzero" fill-opacity="1" /><path clip-path="url(#clip210)" d="M186.181 1292.54 Q182.57 1292.54 180.741 1296.11 Q178.936 1299.65 178.936 1306.78 Q178.936 1313.89 180.741 1317.45 Q182.57 1320.99 186.181 1320.99 Q189.815 1320.99 191.621 1317.45 Q193.45 1313.89 193.45 1306.78 Q193.45 1299.65 191.621 1296.11 Q189.815 1292.54 186.181 1292.54 M186.181 1288.84 Q191.991 1288.84 195.047 1293.45 Q198.125 1298.03 198.125 1306.78 Q198.125 1315.51 195.047 1320.11 Q191.991 1324.7 186.181 1324.7 Q180.371 1324.7 177.292 1320.11 Q174.237 1315.51 174.237 1306.78 Q174.237 1298.03 177.292 1293.45 Q180.371 1288.84 186.181 1288.84 Z" fill="#000000" fill-rule="nonzero" fill-opacity="1" /><path clip-path="url(#clip210)" d="M116.668 1054.1 L124.306 1054.1 L124.306 1027.73 L115.996 1029.4 L115.996 1025.14 L124.26 1023.47 L128.936 1023.47 L128.936 1054.1 L136.575 1054.1 L136.575 1058.03 L116.668 1058.03 L116.668 1054.1 Z" fill="#000000" fill-rule="nonzero" fill-opacity="1" /><path clip-path="url(#clip210)" d="M146.066 1023.47 L164.422 1023.47 L164.422 1027.41 L150.348 1027.41 L150.348 1035.88 Q151.366 1035.53 152.385 1035.37 Q153.403 1035.18 154.422 1035.18 Q160.209 1035.18 163.589 1038.36 Q166.968 1041.53 166.968 1046.94 Q166.968 1052.52 163.496 1055.62 Q160.024 1058.7 153.704 1058.7 Q151.528 1058.7 149.26 1058.33 Q147.015 1057.96 144.607 1057.22 L144.607 1052.52 Q146.691 1053.66 148.913 1054.21 Q151.135 1054.77 153.612 1054.77 Q157.616 1054.77 159.954 1052.66 Q162.292 1050.55 162.292 1046.94 Q162.292 1043.33 159.954 1041.23 Q157.616 1039.12 153.612 1039.12 Q151.737 1039.12 149.862 1039.54 Q148.01 1039.95 146.066 1040.83 L146.066 1023.47 Z" fill="#000000" fill-rule="nonzero" fill-opacity="1" /><path clip-path="url(#clip210)" d="M186.181 1026.55 Q182.57 1026.55 180.741 1030.11 Q178.936 1033.66 178.936 1040.79 Q178.936 1047.89 180.741 1051.46 Q182.57 1055 186.181 1055 Q189.815 1055 191.621 1051.46 Q193.45 1047.89 193.45 1040.79 Q193.45 1033.66 191.621 1030.11 Q189.815 1026.55 186.181 1026.55 M186.181 1022.85 Q191.991 1022.85 195.047 1027.45 Q198.125 1032.04 198.125 1040.79 Q198.125 1049.51 195.047 1054.12 Q191.991 1058.7 186.181 1058.7 Q180.371 1058.7 177.292 1054.12 Q174.237 1049.51 174.237 1040.79 Q174.237 1032.04 177.292 1027.45 Q180.371 1022.85 186.181 1022.85 Z" fill="#000000" fill-rule="nonzero" fill-opacity="1" /><path clip-path="url(#clip210)" d="M119.885 788.101 L136.204 788.101 L136.204 792.036 L114.26 792.036 L114.26 788.101 Q116.922 785.347 121.505 780.717 Q126.112 776.064 127.292 774.722 Q129.538 772.199 130.417 770.463 Q131.32 768.703 131.32 767.013 Q131.32 764.259 129.376 762.523 Q127.455 760.787 124.353 760.787 Q122.154 760.787 119.7 761.551 Q117.269 762.314 114.492 763.865 L114.492 759.143 Q117.316 758.009 119.769 757.43 Q122.223 756.851 124.26 756.851 Q129.63 756.851 132.825 759.537 Q136.019 762.222 136.019 766.713 Q136.019 768.842 135.209 770.763 Q134.422 772.662 132.316 775.254 Q131.737 775.925 128.635 779.143 Q125.533 782.337 119.885 788.101 Z" fill="#000000" fill-rule="nonzero" fill-opacity="1" /><path clip-path="url(#clip210)" d="M156.019 760.555 Q152.408 760.555 150.579 764.12 Q148.774 767.662 148.774 774.791 Q148.774 781.898 150.579 785.462 Q152.408 789.004 156.019 789.004 Q159.653 789.004 161.459 785.462 Q163.288 781.898 163.288 774.791 Q163.288 767.662 161.459 764.12 Q159.653 760.555 156.019 760.555 M156.019 756.851 Q161.829 756.851 164.885 761.458 Q167.964 766.041 167.964 774.791 Q167.964 783.518 164.885 788.124 Q161.829 792.708 156.019 792.708 Q150.209 792.708 147.13 788.124 Q144.075 783.518 144.075 774.791 Q144.075 766.041 147.13 761.458 Q150.209 756.851 156.019 756.851 Z" fill="#000000" fill-rule="nonzero" fill-opacity="1" /><path clip-path="url(#clip210)" d="M186.181 760.555 Q182.57 760.555 180.741 764.12 Q178.936 767.662 178.936 774.791 Q178.936 781.898 180.741 785.462 Q182.57 789.004 186.181 789.004 Q189.815 789.004 191.621 785.462 Q193.45 781.898 193.45 774.791 Q193.45 767.662 191.621 764.12 Q189.815 760.555 186.181 760.555 M186.181 756.851 Q191.991 756.851 195.047 761.458 Q198.125 766.041 198.125 774.791 Q198.125 783.518 195.047 788.124 Q191.991 792.708 186.181 792.708 Q180.371 792.708 177.292 788.124 Q174.237 783.518 174.237 774.791 Q174.237 766.041 177.292 761.458 Q180.371 756.851 186.181 756.851 Z" fill="#000000" fill-rule="nonzero" fill-opacity="1" /><path clip-path="url(#clip210)" d="M119.885 522.107 L136.204 522.107 L136.204 526.042 L114.26 526.042 L114.26 522.107 Q116.922 519.352 121.505 514.723 Q126.112 510.07 127.292 508.727 Q129.538 506.204 130.417 504.468 Q131.32 502.709 131.32 501.019 Q131.32 498.264 129.376 496.528 Q127.455 494.792 124.353 494.792 Q122.154 494.792 119.7 495.556 Q117.269 496.32 114.492 497.871 L114.492 493.149 Q117.316 492.014 119.769 491.436 Q122.223 490.857 124.26 490.857 Q129.63 490.857 132.825 493.542 Q136.019 496.227 136.019 500.718 Q136.019 502.848 135.209 504.769 Q134.422 506.667 132.316 509.26 Q131.737 509.931 128.635 513.149 Q125.533 516.343 119.885 522.107 Z" fill="#000000" fill-rule="nonzero" fill-opacity="1" /><path clip-path="url(#clip210)" d="M146.066 491.482 L164.422 491.482 L164.422 495.417 L150.348 495.417 L150.348 503.889 Q151.366 503.542 152.385 503.38 Q153.403 503.195 154.422 503.195 Q160.209 503.195 163.589 506.366 Q166.968 509.538 166.968 514.954 Q166.968 520.533 163.496 523.635 Q160.024 526.713 153.704 526.713 Q151.528 526.713 149.26 526.343 Q147.015 525.973 144.607 525.232 L144.607 520.533 Q146.691 521.667 148.913 522.223 Q151.135 522.778 153.612 522.778 Q157.616 522.778 159.954 520.672 Q162.292 518.565 162.292 514.954 Q162.292 511.343 159.954 509.237 Q157.616 507.13 153.612 507.13 Q151.737 507.13 149.862 507.547 Q148.01 507.963 146.066 508.843 L146.066 491.482 Z" fill="#000000" fill-rule="nonzero" fill-opacity="1" /><path clip-path="url(#clip210)" d="M186.181 494.561 Q182.57 494.561 180.741 498.126 Q178.936 501.667 178.936 508.797 Q178.936 515.903 180.741 519.468 Q182.57 523.01 186.181 523.01 Q189.815 523.01 191.621 519.468 Q193.45 515.903 193.45 508.797 Q193.45 501.667 191.621 498.126 Q189.815 494.561 186.181 494.561 M186.181 490.857 Q191.991 490.857 195.047 495.464 Q198.125 500.047 198.125 508.797 Q198.125 517.524 195.047 522.13 Q191.991 526.713 186.181 526.713 Q180.371 526.713 177.292 522.13 Q174.237 517.524 174.237 508.797 Q174.237 500.047 177.292 495.464 Q180.371 490.857 186.181 490.857 Z" fill="#000000" fill-rule="nonzero" fill-opacity="1" /><path clip-path="url(#clip210)" d="M130.024 241.414 Q133.38 242.131 135.255 244.4 Q137.154 246.668 137.154 250.001 Q137.154 255.117 133.635 257.918 Q130.117 260.719 123.635 260.719 Q121.459 260.719 119.144 260.279 Q116.853 259.863 114.399 259.006 L114.399 254.492 Q116.343 255.626 118.658 256.205 Q120.973 256.784 123.496 256.784 Q127.894 256.784 130.186 255.048 Q132.501 253.312 132.501 250.001 Q132.501 246.946 130.348 245.233 Q128.218 243.497 124.399 243.497 L120.371 243.497 L120.371 239.654 L124.584 239.654 Q128.033 239.654 129.862 238.289 Q131.691 236.9 131.691 234.307 Q131.691 231.645 129.792 230.233 Q127.917 228.798 124.399 228.798 Q122.478 228.798 120.279 229.215 Q118.08 229.631 115.441 230.511 L115.441 226.344 Q118.103 225.603 120.418 225.233 Q122.755 224.863 124.816 224.863 Q130.14 224.863 133.242 227.293 Q136.343 229.701 136.343 233.821 Q136.343 236.691 134.7 238.682 Q133.056 240.65 130.024 241.414 Z" fill="#000000" fill-rule="nonzero" fill-opacity="1" /><path clip-path="url(#clip210)" d="M156.019 228.566 Q152.408 228.566 150.579 232.131 Q148.774 235.673 148.774 242.802 Q148.774 249.909 150.579 253.474 Q152.408 257.015 156.019 257.015 Q159.653 257.015 161.459 253.474 Q163.288 249.909 163.288 242.802 Q163.288 235.673 161.459 232.131 Q159.653 228.566 156.019 228.566 M156.019 224.863 Q161.829 224.863 164.885 229.469 Q167.964 234.052 167.964 242.802 Q167.964 251.529 164.885 256.136 Q161.829 260.719 156.019 260.719 Q150.209 260.719 147.13 256.136 Q144.075 251.529 144.075 242.802 Q144.075 234.052 147.13 229.469 Q150.209 224.863 156.019 224.863 Z" fill="#000000" fill-rule="nonzero" fill-opacity="1" /><path clip-path="url(#clip210)" d="M186.181 228.566 Q182.57 228.566 180.741 232.131 Q178.936 235.673 178.936 242.802 Q178.936 249.909 180.741 253.474 Q182.57 257.015 186.181 257.015 Q189.815 257.015 191.621 253.474 Q193.45 249.909 193.45 242.802 Q193.45 235.673 191.621 232.131 Q189.815 228.566 186.181 228.566 M186.181 224.863 Q191.991 224.863 195.047 229.469 Q198.125 234.052 198.125 242.802 Q198.125 251.529 195.047 256.136 Q191.991 260.719 186.181 260.719 Q180.371 260.719 177.292 256.136 Q174.237 251.529 174.237 242.802 Q174.237 234.052 177.292 229.469 Q180.371 224.863 186.181 224.863 Z" fill="#000000" fill-rule="nonzero" fill-opacity="1" /><path clip-path="url(#clip210)" d="M37.6463 821.144 L74.3288 830.258 Q75.4882 830.516 75.7781 830.516 Q76.1645 830.516 76.3256 830.419 Q76.5188 830.29 76.6798 829.582 Q76.8409 828.841 76.8409 827.359 Q76.8409 826.812 76.8409 826.619 Q76.8409 826.425 76.9053 826.136 Q76.9697 825.846 77.1307 825.749 Q77.2917 825.652 77.5494 825.652 Q78.8698 825.652 78.8698 826.812 Q78.8698 827.907 78.7732 830.193 Q78.6766 832.48 78.6766 833.607 Q78.6766 834.702 78.7732 836.925 Q78.8698 839.147 78.8698 840.21 Q78.8698 840.596 78.6766 840.821 Q78.5156 841.047 78.3223 841.047 L78.1613 841.079 Q77.2595 841.079 77.0341 840.725 Q76.8409 840.371 76.8409 839.565 Q76.8086 836.796 76.4222 835.991 Q76.0357 835.185 74.6509 834.799 L62.8635 831.836 Q66.8248 835.797 66.8248 839.63 Q66.8248 843.333 63.9263 845.846 Q60.9956 848.325 56.2613 848.325 Q52.7509 848.325 49.2082 846.941 Q45.6656 845.523 42.9925 843.333 Q40.3194 841.111 38.6447 838.213 Q36.9378 835.314 36.9378 832.448 Q36.9378 830.612 38.0006 828.97 Q39.0634 827.295 41.5432 826.297 Q40.1262 825.459 38.5803 823.913 Q37.0022 822.367 37.0022 821.82 Q37.0022 821.498 37.2276 821.337 Q37.4209 821.144 37.6463 821.144 M44.1841 827.231 Q43.8621 827.231 43.0569 827.488 Q42.2518 827.714 41.1568 828.229 Q40.0296 828.712 39.2244 829.839 Q38.3871 830.966 38.3871 832.448 Q38.3871 834.573 40.4482 836.86 Q42.4772 839.115 46.0198 840.596 Q48.3387 841.53 52.6543 842.593 Q56.9698 843.656 59.1598 843.656 Q59.6751 843.656 60.2548 843.623 Q60.8345 843.559 61.8007 843.301 Q62.7669 843.044 63.5076 842.657 Q64.2484 842.238 64.7959 841.401 Q65.3434 840.564 65.3434 839.437 Q65.3434 836.989 63.25 834.541 Q61.1566 832.094 59.2887 831.063 Q59.0954 830.934 51.7847 829.098 Q44.474 827.231 44.1841 827.231 Z" fill="#000000" fill-rule="nonzero" fill-opacity="1" /><path clip-path="url(#clip210)" d="M82.5735 766.909 L16.6159 766.909 L16.6159 756.957 L18.1296 756.957 L18.1296 762.497 L81.0598 762.497 L81.0598 756.957 L82.5735 756.957 L82.5735 766.909 Z" fill="#000000" fill-rule="nonzero" fill-opacity="1" /><path clip-path="url(#clip210)" d="M66.0841 748.759 L64.0551 748.759 Q64.0551 745.248 63.6364 744.443 Q63.1856 743.638 61.06 743.638 L43.379 743.638 Q40.9313 743.638 40.3194 744.507 Q39.7075 745.345 39.7075 748.759 L37.6463 748.759 L36.9378 739.483 L43.8621 739.483 Q36.9378 736.392 36.9378 729.725 Q36.9378 721.996 43.379 720.933 Q40.8669 719.806 38.9023 717.455 Q36.9378 715.071 36.9378 711.368 Q36.9378 706.408 39.3854 704.443 Q41.0279 702.994 42.8637 702.704 Q44.6994 702.414 49.4659 702.414 L62.0584 702.414 Q63.4432 702.35 63.7653 701.287 Q64.0551 700.224 64.0551 697.261 L66.0841 697.261 Q65.8909 703.993 65.8909 704.637 Q65.8909 705.152 66.0841 712.108 L64.0551 712.108 Q64.0551 708.598 63.6364 707.793 Q63.1856 706.955 61.06 706.955 L45.6978 706.955 Q42.3484 706.955 40.3838 707.986 Q38.3871 709.017 38.3871 711.851 Q38.3871 715.265 41.2534 718.002 Q44.1197 720.74 48.9506 720.74 L61.06 720.74 Q63.1856 720.74 63.6364 719.934 Q64.0551 719.097 64.0551 715.587 L66.0841 715.587 Q65.8909 722.318 65.8909 722.994 Q65.8909 723.509 66.0841 730.434 L64.0551 730.434 Q64.0551 726.923 63.6364 726.118 Q63.1856 725.281 61.06 725.281 L45.6978 725.281 Q42.3484 725.281 40.3838 726.311 Q38.3871 727.342 38.3871 730.176 Q38.3871 733.59 41.2534 736.327 Q44.1197 739.065 48.9506 739.065 L61.06 739.065 Q63.1856 739.065 63.6364 738.26 Q64.0551 737.422 64.0551 733.944 L66.0841 733.944 Q65.8909 740.675 65.8909 741.319 Q65.8909 741.834 66.0841 748.759 Z" fill="#000000" fill-rule="nonzero" fill-opacity="1" /><path clip-path="url(#clip210)" d="M66.0841 694.636 L64.0551 694.636 Q64.0551 691.125 63.6364 690.32 Q63.1856 689.515 61.06 689.515 L43.379 689.515 Q40.9313 689.515 40.3194 690.385 Q39.7075 691.222 39.7075 694.636 L37.6463 694.636 L36.9378 685.36 L43.8621 685.36 Q36.9378 682.269 36.9378 675.602 Q36.9378 667.873 43.379 666.81 Q40.8669 665.683 38.9023 663.332 Q36.9378 660.948 36.9378 657.245 Q36.9378 652.285 39.3854 650.32 Q41.0279 648.871 42.8637 648.581 Q44.6994 648.291 49.4659 648.291 L62.0584 648.291 Q63.4432 648.227 63.7653 647.164 Q64.0551 646.101 64.0551 643.139 L66.0841 643.139 Q65.8909 649.87 65.8909 650.514 Q65.8909 651.029 66.0841 657.985 L64.0551 657.985 Q64.0551 654.475 63.6364 653.67 Q63.1856 652.833 61.06 652.833 L45.6978 652.833 Q42.3484 652.833 40.3838 653.863 Q38.3871 654.894 38.3871 657.728 Q38.3871 661.142 41.2534 663.879 Q44.1197 666.617 48.9506 666.617 L61.06 666.617 Q63.1856 666.617 63.6364 665.811 Q64.0551 664.974 64.0551 661.464 L66.0841 661.464 Q65.8909 668.195 65.8909 668.871 Q65.8909 669.386 66.0841 676.311 L64.0551 676.311 Q64.0551 672.8 63.6364 671.995 Q63.1856 671.158 61.06 671.158 L45.6978 671.158 Q42.3484 671.158 40.3838 672.188 Q38.3871 673.219 38.3871 676.053 Q38.3871 679.467 41.2534 682.204 Q44.1197 684.942 48.9506 684.942 L61.06 684.942 Q63.1856 684.942 63.6364 684.137 Q64.0551 683.299 64.0551 679.821 L66.0841 679.821 Q65.8909 686.552 65.8909 687.196 Q65.8909 687.711 66.0841 694.636 Z" fill="#000000" fill-rule="nonzero" fill-opacity="1" /><path clip-path="url(#clip210)" d="M81.0598 640.249 L81.0598 634.709 L18.1296 634.709 L18.1296 640.249 L16.6159 640.249 L16.6159 630.297 L82.5735 630.297 L82.5735 640.249 L81.0598 640.249 Z" fill="#000000" fill-rule="nonzero" fill-opacity="1" /><circle clip-path="url(#clip212)" cx="294.087" cy="86.1857" r="10.8" fill="#000000" fill-rule="evenodd" fill-opacity="1" stroke="none"/>
<circle clip-path="url(#clip212)" cx="340.568" cy="525.076" r="10.8" fill="#000000" fill-rule="evenodd" fill-opacity="1" stroke="none"/>
<circle clip-path="url(#clip212)" cx="387.05" cy="751.172" r="10.8" fill="#000000" fill-rule="evenodd" fill-opacity="1" stroke="none"/>
<circle clip-path="url(#clip212)" cx="433.531" cy="884.169" r="10.8" fill="#000000" fill-rule="evenodd" fill-opacity="1" stroke="none"/>
<circle clip-path="url(#clip212)" cx="480.013" cy="979.927" r="10.8" fill="#000000" fill-rule="evenodd" fill-opacity="1" stroke="none"/>
<circle clip-path="url(#clip212)" cx="526.495" cy="1043.77" r="10.8" fill="#000000" fill-rule="evenodd" fill-opacity="1" stroke="none"/>
<circle clip-path="url(#clip212)" cx="619.458" cy="1134.2" r="10.8" fill="#000000" fill-rule="evenodd" fill-opacity="1" stroke="none"/>
<circle clip-path="url(#clip212)" cx="665.939" cy="1166.12" r="10.8" fill="#000000" fill-rule="evenodd" fill-opacity="1" stroke="none"/>
<circle clip-path="url(#clip212)" cx="712.421" cy="1192.72" r="10.8" fill="#000000" fill-rule="evenodd" fill-opacity="1" stroke="none"/>
<circle clip-path="url(#clip212)" cx="758.902" cy="1214" r="10.8" fill="#000000" fill-rule="evenodd" fill-opacity="1" stroke="none"/>
<circle clip-path="url(#clip212)" cx="805.384" cy="1229.96" r="10.8" fill="#000000" fill-rule="evenodd" fill-opacity="1" stroke="none"/>
<circle clip-path="url(#clip212)" cx="851.866" cy="1243.26" r="10.8" fill="#000000" fill-rule="evenodd" fill-opacity="1" stroke="none"/>
<circle clip-path="url(#clip212)" cx="898.347" cy="1259.22" r="10.8" fill="#000000" fill-rule="evenodd" fill-opacity="1" stroke="none"/>
<circle clip-path="url(#clip212)" cx="944.829" cy="1272.52" r="10.8" fill="#000000" fill-rule="evenodd" fill-opacity="1" stroke="none"/>
<circle clip-path="url(#clip212)" cx="991.31" cy="1283.16" r="10.8" fill="#000000" fill-rule="evenodd" fill-opacity="1" stroke="none"/>
<circle clip-path="url(#clip212)" cx="1037.79" cy="1288.48" r="10.8" fill="#000000" fill-rule="evenodd" fill-opacity="1" stroke="none"/>
<circle clip-path="url(#clip212)" cx="1084.27" cy="1293.8" r="10.8" fill="#000000" fill-rule="evenodd" fill-opacity="1" stroke="none"/>
<circle clip-path="url(#clip212)" cx="1130.76" cy="1307.1" r="10.8" fill="#000000" fill-rule="evenodd" fill-opacity="1" stroke="none"/>
<circle clip-path="url(#clip212)" cx="1177.24" cy="1312.42" r="10.8" fill="#000000" fill-rule="evenodd" fill-opacity="1" stroke="none"/>
<circle clip-path="url(#clip212)" cx="1223.72" cy="1320.4" r="10.8" fill="#000000" fill-rule="evenodd" fill-opacity="1" stroke="none"/>
<circle clip-path="url(#clip212)" cx="1270.2" cy="1320.4" r="10.8" fill="#000000" fill-rule="evenodd" fill-opacity="1" stroke="none"/>
<circle clip-path="url(#clip212)" cx="1316.68" cy="1331.04" r="10.8" fill="#000000" fill-rule="evenodd" fill-opacity="1" stroke="none"/>
<circle clip-path="url(#clip212)" cx="1363.16" cy="1336.36" r="10.8" fill="#000000" fill-rule="evenodd" fill-opacity="1" stroke="none"/>
<circle clip-path="url(#clip212)" cx="1409.64" cy="1336.36" r="10.8" fill="#000000" fill-rule="evenodd" fill-opacity="1" stroke="none"/>
<circle clip-path="url(#clip212)" cx="1456.13" cy="1347" r="10.8" fill="#000000" fill-rule="evenodd" fill-opacity="1" stroke="none"/>
<circle clip-path="url(#clip212)" cx="1502.61" cy="1347" r="10.8" fill="#000000" fill-rule="evenodd" fill-opacity="1" stroke="none"/>
<circle clip-path="url(#clip212)" cx="1549.09" cy="1352.32" r="10.8" fill="#000000" fill-rule="evenodd" fill-opacity="1" stroke="none"/>
<circle clip-path="url(#clip212)" cx="1595.57" cy="1352.32" r="10.8" fill="#000000" fill-rule="evenodd" fill-opacity="1" stroke="none"/>
<circle clip-path="url(#clip212)" cx="1642.05" cy="1357.64" r="10.8" fill="#000000" fill-rule="evenodd" fill-opacity="1" stroke="none"/>
<circle clip-path="url(#clip212)" cx="1688.53" cy="1362.96" r="10.8" fill="#000000" fill-rule="evenodd" fill-opacity="1" stroke="none"/>
<circle clip-path="url(#clip212)" cx="1735.02" cy="1362.96" r="10.8" fill="#000000" fill-rule="evenodd" fill-opacity="1" stroke="none"/>
<circle clip-path="url(#clip212)" cx="1781.5" cy="1362.96" r="10.8" fill="#000000" fill-rule="evenodd" fill-opacity="1" stroke="none"/>
<circle clip-path="url(#clip212)" cx="1827.98" cy="1368.28" r="10.8" fill="#000000" fill-rule="evenodd" fill-opacity="1" stroke="none"/>
<circle clip-path="url(#clip212)" cx="1874.46" cy="1368.28" r="10.8" fill="#000000" fill-rule="evenodd" fill-opacity="1" stroke="none"/>
<circle clip-path="url(#clip212)" cx="1920.94" cy="1370.94" r="10.8" fill="#000000" fill-rule="evenodd" fill-opacity="1" stroke="none"/>
<circle clip-path="url(#clip212)" cx="1967.42" cy="1373.6" r="10.8" fill="#000000" fill-rule="evenodd" fill-opacity="1" stroke="none"/>
<circle clip-path="url(#clip212)" cx="2013.91" cy="1373.6" r="10.8" fill="#000000" fill-rule="evenodd" fill-opacity="1" stroke="none"/>
<circle clip-path="url(#clip212)" cx="2060.39" cy="1378.92" r="10.8" fill="#000000" fill-rule="evenodd" fill-opacity="1" stroke="none"/>
<circle clip-path="url(#clip212)" cx="2106.87" cy="1378.92" r="10.8" fill="#000000" fill-rule="evenodd" fill-opacity="1" stroke="none"/>
<circle clip-path="url(#clip212)" cx="2153.35" cy="1378.92" r="10.8" fill="#000000" fill-rule="evenodd" fill-opacity="1" stroke="none"/>
<circle clip-path="url(#clip212)" cx="2199.83" cy="1381.58" r="10.8" fill="#000000" fill-rule="evenodd" fill-opacity="1" stroke="none"/>
<circle clip-path="url(#clip212)" cx="2246.31" cy="1384.24" r="10.8" fill="#000000" fill-rule="evenodd" fill-opacity="1" stroke="none"/>
<circle clip-path="url(#clip212)" cx="2292.79" cy="1384.24" r="10.8" fill="#000000" fill-rule="evenodd" fill-opacity="1" stroke="none"/>
</svg>
