<?xml version="1.0" encoding="utf-8"?>
<svg xmlns="http://www.w3.org/2000/svg" xmlns:xlink="http://www.w3.org/1999/xlink" width="600" height="400" viewBox="0 0 2400 1600">
<defs>
  <clipPath id="clip410">
    <rect x="0" y="0" width="2400" height="1600"/>
  </clipPath>
</defs>
<path clip-path="url(#clip410)" d="M0 1600 L2400 1600 L2400 0 L0 0  Z" fill="#ffffff" fill-rule="evenodd" fill-opacity="1"/>
<defs>
  <clipPath id="clip411">
    <rect x="480" y="0" width="1681" height="1600"/>
  </clipPath>
</defs>
<path clip-path="url(#clip410)" d="M234.125 1423.18 L2352.76 1423.18 L2352.76 47.2441 L234.125 47.2441  Z" fill="#ffffff" fill-rule="evenodd" fill-opacity="1"/>
<defs>
  <clipPath id="clip412">
    <rect x="234" y="47" width="2120" height="1377"/>
  </clipPath>
</defs>
<polyline clip-path="url(#clip412)" style="stroke:#000000; stroke-linecap:round; stroke-linejoin:round; stroke-width:2; stroke-opacity:0.1; fill:none" points="325.988,1423.18 325.988,47.2441 "/>
<polyline clip-path="url(#clip412)" style="stroke:#000000; stroke-linecap:round; stroke-linejoin:round; stroke-width:2; stroke-opacity:0.1; fill:none" points="789.92,1423.18 789.92,47.2441 "/>
<polyline clip-path="url(#clip412)" style="stroke:#000000; stroke-linecap:round; stroke-linejoin:round; stroke-width:2; stroke-opacity:0.1; fill:none" points="1253.85,1423.18 1253.85,47.2441 "/>
<polyline clip-path="url(#clip412)" style="stroke:#000000; stroke-linecap:round; stroke-linejoin:round; stroke-width:2; stroke-opacity:0.1; fill:none" points="1717.78,1423.18 1717.78,47.2441 "/>
<polyline clip-path="url(#clip412)" style="stroke:#000000; stroke-linecap:round; stroke-linejoin:round; stroke-width:2; stroke-opacity:0.1; fill:none" points="2181.72,1423.18 2181.72,47.2441 "/>
<polyline clip-path="url(#clip412)" style="stroke:#000000; stroke-linecap:round; stroke-linejoin:round; stroke-width:2; stroke-opacity:0.1; fill:none" points="234.125,1304.58 2352.76,1304.58 "/>
<polyline clip-path="url(#clip412)" style="stroke:#000000; stroke-linecap:round; stroke-linejoin:round; stroke-width:2; stroke-opacity:0.1; fill:none" points="234.125,1039.59 2352.76,1039.59 "/>
<polyline clip-path="url(#clip412)" style="stroke:#000000; stroke-linecap:round; stroke-linejoin:round; stroke-width:2; stroke-opacity:0.1; fill:none" points="234.125,774.606 2352.76,774.606 "/>
<polyline clip-path="url(#clip412)" style="stroke:#000000; stroke-linecap:round; stroke-linejoin:round; stroke-width:2; stroke-opacity:0.1; fill:none" points="234.125,509.622 2352.76,509.622 "/>
<polyline clip-path="url(#clip412)" style="stroke:#000000; stroke-linecap:round; stroke-linejoin:round; stroke-width:2; stroke-opacity:0.1; fill:none" points="234.125,244.637 2352.76,244.637 "/>
<polyline clip-path="url(#clip410)" style="stroke:#000000; stroke-linecap:round; stroke-linejoin:round; stroke-width:4; stroke-opacity:1; fill:none" points="234.125,1423.18 2352.76,1423.18 "/>
<polyline clip-path="url(#clip410)" style="stroke:#000000; stroke-linecap:round; stroke-linejoin:round; stroke-width:4; stroke-opacity:1; fill:none" points="325.988,1423.18 325.988,1404.28 "/>
<polyline clip-path="url(#clip410)" style="stroke:#000000; stroke-linecap:round; stroke-linejoin:round; stroke-width:4; stroke-opacity:1; fill:none" points="789.92,1423.18 789.92,1404.28 "/>
<polyline clip-path="url(#clip410)" style="stroke:#000000; stroke-linecap:round; stroke-linejoin:round; stroke-width:4; stroke-opacity:1; fill:none" points="1253.85,1423.18 1253.85,1404.28 "/>
<polyline clip-path="url(#clip410)" style="stroke:#000000; stroke-linecap:round; stroke-linejoin:round; stroke-width:4; stroke-opacity:1; fill:none" points="1717.78,1423.18 1717.78,1404.28 "/>
<polyline clip-path="url(#clip410)" style="stroke:#000000; stroke-linecap:round; stroke-linejoin:round; stroke-width:4; stroke-opacity:1; fill:none" points="2181.72,1423.18 2181.72,1404.28 "/>
<path clip-path="url(#clip410)" d="M285.595 1481.64 L293.233 1481.64 L293.233 1455.28 L284.923 1456.95 L284.923 1452.69 L293.187 1451.02 L297.863 1451.02 L297.863 1481.64 L305.502 1481.64 L305.502 1485.58 L285.595 1485.58 L285.595 1481.64 Z" fill="#000000" fill-rule="nonzero" fill-opacity="1" /><path clip-path="url(#clip410)" d="M324.946 1454.1 Q321.335 1454.1 319.506 1457.66 Q317.701 1461.2 317.701 1468.33 Q317.701 1475.44 319.506 1479.01 Q321.335 1482.55 324.946 1482.55 Q328.58 1482.55 330.386 1479.01 Q332.215 1475.44 332.215 1468.33 Q332.215 1461.2 330.386 1457.66 Q328.58 1454.1 324.946 1454.1 M324.946 1450.39 Q330.756 1450.39 333.812 1455 Q336.891 1459.58 336.891 1468.33 Q336.891 1477.06 333.812 1481.67 Q330.756 1486.25 324.946 1486.25 Q319.136 1486.25 316.057 1481.67 Q313.002 1477.06 313.002 1468.33 Q313.002 1459.58 316.057 1455 Q319.136 1450.39 324.946 1450.39 Z" fill="#000000" fill-rule="nonzero" fill-opacity="1" /><path clip-path="url(#clip410)" d="M355.108 1454.1 Q351.497 1454.1 349.668 1457.66 Q347.863 1461.2 347.863 1468.33 Q347.863 1475.44 349.668 1479.01 Q351.497 1482.55 355.108 1482.55 Q358.742 1482.55 360.548 1479.01 Q362.377 1475.44 362.377 1468.33 Q362.377 1461.2 360.548 1457.66 Q358.742 1454.1 355.108 1454.1 M355.108 1450.39 Q360.918 1450.39 363.974 1455 Q367.053 1459.58 367.053 1468.33 Q367.053 1477.06 363.974 1481.67 Q360.918 1486.25 355.108 1486.25 Q349.298 1486.25 346.219 1481.67 Q343.164 1477.06 343.164 1468.33 Q343.164 1459.58 346.219 1455 Q349.298 1450.39 355.108 1450.39 Z" fill="#000000" fill-rule="nonzero" fill-opacity="1" /><path clip-path="url(#clip410)" d="M753.612 1481.64 L769.932 1481.64 L769.932 1485.58 L747.987 1485.58 L747.987 1481.64 Q750.649 1478.89 755.233 1474.26 Q759.839 1469.61 761.02 1468.27 Q763.265 1465.74 764.145 1464.01 Q765.047 1462.25 765.047 1460.56 Q765.047 1457.8 763.103 1456.07 Q761.182 1454.33 758.08 1454.33 Q755.881 1454.33 753.427 1455.09 Q750.996 1455.86 748.219 1457.41 L748.219 1452.69 Q751.043 1451.55 753.496 1450.97 Q755.95 1450.39 757.987 1450.39 Q763.358 1450.39 766.552 1453.08 Q769.746 1455.77 769.746 1460.26 Q769.746 1462.39 768.936 1464.31 Q768.149 1466.2 766.043 1468.8 Q765.464 1469.47 762.362 1472.69 Q759.26 1475.88 753.612 1481.64 Z" fill="#000000" fill-rule="nonzero" fill-opacity="1" /><path clip-path="url(#clip410)" d="M789.746 1454.1 Q786.135 1454.1 784.306 1457.66 Q782.501 1461.2 782.501 1468.33 Q782.501 1475.44 784.306 1479.01 Q786.135 1482.55 789.746 1482.55 Q793.38 1482.55 795.186 1479.01 Q797.015 1475.44 797.015 1468.33 Q797.015 1461.2 795.186 1457.66 Q793.38 1454.1 789.746 1454.1 M789.746 1450.39 Q795.556 1450.39 798.612 1455 Q801.691 1459.58 801.691 1468.33 Q801.691 1477.06 798.612 1481.67 Q795.556 1486.25 789.746 1486.25 Q783.936 1486.25 780.857 1481.67 Q777.802 1477.06 777.802 1468.33 Q777.802 1459.58 780.857 1455 Q783.936 1450.39 789.746 1450.39 Z" fill="#000000" fill-rule="nonzero" fill-opacity="1" /><path clip-path="url(#clip410)" d="M819.908 1454.1 Q816.297 1454.1 814.468 1457.66 Q812.663 1461.2 812.663 1468.33 Q812.663 1475.44 814.468 1479.01 Q816.297 1482.55 819.908 1482.55 Q823.542 1482.55 825.348 1479.01 Q827.177 1475.44 827.177 1468.33 Q827.177 1461.2 825.348 1457.66 Q823.542 1454.1 819.908 1454.1 M819.908 1450.39 Q825.718 1450.39 828.774 1455 Q831.853 1459.58 831.853 1468.33 Q831.853 1477.06 828.774 1481.67 Q825.718 1486.25 819.908 1486.25 Q814.098 1486.25 811.019 1481.67 Q807.964 1477.06 807.964 1468.33 Q807.964 1459.58 811.019 1455 Q814.098 1450.39 819.908 1450.39 Z" fill="#000000" fill-rule="nonzero" fill-opacity="1" /><path clip-path="url(#clip410)" d="M1227.61 1466.95 Q1230.97 1467.66 1232.84 1469.93 Q1234.74 1472.2 1234.74 1475.53 Q1234.74 1480.65 1231.22 1483.45 Q1227.71 1486.25 1221.22 1486.25 Q1219.05 1486.25 1216.73 1485.81 Q1214.44 1485.39 1211.99 1484.54 L1211.99 1480.02 Q1213.93 1481.16 1216.25 1481.74 Q1218.56 1482.32 1221.09 1482.32 Q1225.48 1482.32 1227.78 1480.58 Q1230.09 1478.84 1230.09 1475.53 Q1230.09 1472.48 1227.94 1470.77 Q1225.81 1469.03 1221.99 1469.03 L1217.96 1469.03 L1217.96 1465.19 L1222.17 1465.19 Q1225.62 1465.19 1227.45 1463.82 Q1229.28 1462.43 1229.28 1459.84 Q1229.28 1457.18 1227.38 1455.77 Q1225.51 1454.33 1221.99 1454.33 Q1220.07 1454.33 1217.87 1454.75 Q1215.67 1455.16 1213.03 1456.04 L1213.03 1451.88 Q1215.69 1451.14 1218.01 1450.77 Q1220.35 1450.39 1222.41 1450.39 Q1227.73 1450.39 1230.83 1452.83 Q1233.93 1455.23 1233.93 1459.35 Q1233.93 1462.22 1232.29 1464.21 Q1230.65 1466.18 1227.61 1466.95 Z" fill="#000000" fill-rule="nonzero" fill-opacity="1" /><path clip-path="url(#clip410)" d="M1253.61 1454.1 Q1250 1454.1 1248.17 1457.66 Q1246.36 1461.2 1246.36 1468.33 Q1246.36 1475.44 1248.17 1479.01 Q1250 1482.55 1253.61 1482.55 Q1257.24 1482.55 1259.05 1479.01 Q1260.88 1475.44 1260.88 1468.33 Q1260.88 1461.2 1259.05 1457.66 Q1257.24 1454.1 1253.61 1454.1 M1253.61 1450.39 Q1259.42 1450.39 1262.47 1455 Q1265.55 1459.58 1265.55 1468.33 Q1265.55 1477.06 1262.47 1481.67 Q1259.42 1486.25 1253.61 1486.25 Q1247.8 1486.25 1244.72 1481.67 Q1241.66 1477.06 1241.66 1468.33 Q1241.66 1459.58 1244.72 1455 Q1247.8 1450.39 1253.61 1450.39 Z" fill="#000000" fill-rule="nonzero" fill-opacity="1" /><path clip-path="url(#clip410)" d="M1283.77 1454.1 Q1280.16 1454.1 1278.33 1457.66 Q1276.53 1461.2 1276.53 1468.33 Q1276.53 1475.44 1278.33 1479.01 Q1280.16 1482.55 1283.77 1482.55 Q1287.4 1482.55 1289.21 1479.01 Q1291.04 1475.44 1291.04 1468.33 Q1291.04 1461.2 1289.21 1457.66 Q1287.4 1454.1 1283.77 1454.1 M1283.77 1450.39 Q1289.58 1450.39 1292.64 1455 Q1295.72 1459.58 1295.72 1468.33 Q1295.72 1477.06 1292.64 1481.67 Q1289.58 1486.25 1283.77 1486.25 Q1277.96 1486.25 1274.88 1481.67 Q1271.83 1477.06 1271.83 1468.33 Q1271.83 1459.58 1274.88 1455 Q1277.96 1450.39 1283.77 1450.39 Z" fill="#000000" fill-rule="nonzero" fill-opacity="1" /><path clip-path="url(#clip410)" d="M1690.87 1455.09 L1679.07 1473.54 L1690.87 1473.54 L1690.87 1455.09 M1689.65 1451.02 L1695.53 1451.02 L1695.53 1473.54 L1700.46 1473.54 L1700.46 1477.43 L1695.53 1477.43 L1695.53 1485.58 L1690.87 1485.58 L1690.87 1477.43 L1675.27 1477.43 L1675.27 1472.92 L1689.65 1451.02 Z" fill="#000000" fill-rule="nonzero" fill-opacity="1" /><path clip-path="url(#clip410)" d="M1718.19 1454.1 Q1714.58 1454.1 1712.75 1457.66 Q1710.94 1461.2 1710.94 1468.33 Q1710.94 1475.44 1712.75 1479.01 Q1714.58 1482.55 1718.19 1482.55 Q1721.82 1482.55 1723.63 1479.01 Q1725.46 1475.44 1725.46 1468.33 Q1725.46 1461.2 1723.63 1457.66 Q1721.82 1454.1 1718.19 1454.1 M1718.19 1450.39 Q1724 1450.39 1727.05 1455 Q1730.13 1459.58 1730.13 1468.33 Q1730.13 1477.06 1727.05 1481.67 Q1724 1486.25 1718.19 1486.25 Q1712.38 1486.25 1709.3 1481.67 Q1706.24 1477.06 1706.24 1468.33 Q1706.24 1459.58 1709.3 1455 Q1712.38 1450.39 1718.19 1450.39 Z" fill="#000000" fill-rule="nonzero" fill-opacity="1" /><path clip-path="url(#clip410)" d="M1748.35 1454.1 Q1744.74 1454.1 1742.91 1457.66 Q1741.11 1461.2 1741.11 1468.33 Q1741.11 1475.44 1742.91 1479.01 Q1744.74 1482.55 1748.35 1482.55 Q1751.98 1482.55 1753.79 1479.01 Q1755.62 1475.44 1755.62 1468.33 Q1755.62 1461.2 1753.79 1457.66 Q1751.98 1454.1 1748.35 1454.1 M1748.35 1450.39 Q1754.16 1450.39 1757.22 1455 Q1760.3 1459.58 1760.3 1468.33 Q1760.3 1477.06 1757.22 1481.67 Q1754.16 1486.25 1748.35 1486.25 Q1742.54 1486.25 1739.46 1481.67 Q1736.41 1477.06 1736.41 1468.33 Q1736.41 1459.58 1739.46 1455 Q1742.54 1450.39 1748.35 1450.39 Z" fill="#000000" fill-rule="nonzero" fill-opacity="1" /><path clip-path="url(#clip410)" d="M2141.33 1451.02 L2159.69 1451.02 L2159.69 1454.96 L2145.62 1454.96 L2145.62 1463.43 Q2146.63 1463.08 2147.65 1462.92 Q2148.67 1462.73 2149.69 1462.73 Q2155.48 1462.73 2158.86 1465.9 Q2162.24 1469.08 2162.24 1474.49 Q2162.24 1480.07 2158.76 1483.17 Q2155.29 1486.25 2148.97 1486.25 Q2146.8 1486.25 2144.53 1485.88 Q2142.28 1485.51 2139.88 1484.77 L2139.88 1480.07 Q2141.96 1481.2 2144.18 1481.76 Q2146.4 1482.32 2148.88 1482.32 Q2152.88 1482.32 2155.22 1480.21 Q2157.56 1478.1 2157.56 1474.49 Q2157.56 1470.88 2155.22 1468.77 Q2152.88 1466.67 2148.88 1466.67 Q2147.01 1466.67 2145.13 1467.08 Q2143.28 1467.5 2141.33 1468.38 L2141.33 1451.02 Z" fill="#000000" fill-rule="nonzero" fill-opacity="1" /><path clip-path="url(#clip410)" d="M2181.45 1454.1 Q2177.84 1454.1 2176.01 1457.66 Q2174.2 1461.2 2174.2 1468.33 Q2174.2 1475.44 2176.01 1479.01 Q2177.84 1482.55 2181.45 1482.55 Q2185.08 1482.55 2186.89 1479.01 Q2188.72 1475.44 2188.72 1468.33 Q2188.72 1461.2 2186.89 1457.66 Q2185.08 1454.1 2181.45 1454.1 M2181.45 1450.39 Q2187.26 1450.39 2190.32 1455 Q2193.39 1459.58 2193.39 1468.33 Q2193.39 1477.06 2190.32 1481.67 Q2187.26 1486.25 2181.45 1486.25 Q2175.64 1486.25 2172.56 1481.67 Q2169.51 1477.06 2169.51 1468.33 Q2169.51 1459.58 2172.56 1455 Q2175.64 1450.39 2181.45 1450.39 Z" fill="#000000" fill-rule="nonzero" fill-opacity="1" /><path clip-path="url(#clip410)" d="M2211.61 1454.1 Q2208 1454.1 2206.17 1457.66 Q2204.37 1461.2 2204.37 1468.33 Q2204.37 1475.44 2206.17 1479.01 Q2208 1482.55 2211.61 1482.55 Q2215.25 1482.55 2217.05 1479.01 Q2218.88 1475.44 2218.88 1468.33 Q2218.88 1461.2 2217.05 1457.66 Q2215.25 1454.1 2211.61 1454.1 M2211.61 1450.39 Q2217.42 1450.39 2220.48 1455 Q2223.56 1459.58 2223.56 1468.33 Q2223.56 1477.06 2220.48 1481.67 Q2217.42 1486.25 2211.61 1486.25 Q2205.8 1486.25 2202.72 1481.67 Q2199.67 1477.06 2199.67 1468.33 Q2199.67 1459.58 2202.72 1455 Q2205.8 1450.39 2211.61 1450.39 Z" fill="#000000" fill-rule="nonzero" fill-opacity="1" /><path clip-path="url(#clip410)" d="M1212.92 1537.25 Q1212.92 1541.95 1210.54 1546.5 Q1208.19 1551.04 1204.48 1553.84 Q1200.78 1556.61 1197.01 1556.61 Q1194.76 1556.61 1193.24 1555.38 Q1191.76 1554.13 1190.96 1552.36 Q1190.35 1554.55 1189.02 1559.8 Q1187.7 1565.05 1187.7 1565.56 Q1187.7 1565.85 1187.77 1565.98 Q1187.83 1566.11 1188.12 1566.27 Q1188.41 1566.46 1189.12 1566.53 Q1189.83 1566.62 1191.02 1566.62 Q1191.63 1566.62 1191.86 1566.62 Q1192.12 1566.66 1192.34 1566.82 Q1192.6 1566.98 1192.6 1567.33 Q1192.6 1568.65 1191.41 1568.65 Q1190.35 1568.65 1188.16 1568.56 Q1185.97 1568.46 1184.87 1568.46 Q1183.94 1568.46 1182.07 1568.56 Q1180.2 1568.65 1179.33 1568.65 Q1178.46 1568.65 1178.46 1567.88 Q1178.46 1567.43 1178.59 1567.14 Q1178.69 1566.88 1178.94 1566.75 Q1179.2 1566.66 1179.43 1566.62 Q1179.62 1566.62 1180.01 1566.62 Q1181.49 1566.62 1182.13 1566.37 Q1182.78 1566.14 1183 1565.66 Q1183.26 1565.21 1183.55 1563.92 L1190.96 1534.55 Q1191.41 1532.58 1191.41 1531.2 Q1191.41 1529.46 1190.86 1528.81 Q1190.31 1528.17 1189.35 1528.17 Q1187.67 1528.17 1186.58 1530.17 Q1185.48 1532.16 1184.55 1536.03 Q1184.26 1537.09 1184.07 1537.32 Q1183.9 1537.54 1183.42 1537.54 Q1182.62 1537.51 1182.62 1536.87 Q1182.62 1536.71 1182.87 1535.67 Q1183.13 1534.61 1183.61 1533.07 Q1184.13 1531.49 1184.68 1530.49 Q1185 1529.81 1185.29 1529.36 Q1185.58 1528.91 1186.16 1528.2 Q1186.77 1527.49 1187.64 1527.11 Q1188.51 1526.72 1189.57 1526.72 Q1191.63 1526.72 1193.34 1527.95 Q1195.05 1529.17 1195.5 1531.65 Q1197.33 1529.49 1199.59 1528.11 Q1201.84 1526.72 1204.13 1526.72 Q1207.93 1526.72 1210.41 1529.68 Q1212.92 1532.62 1212.92 1537.25 M1208.15 1534.35 Q1208.15 1531.42 1207.03 1529.81 Q1205.93 1528.17 1203.94 1528.17 Q1201.46 1528.17 1198.59 1530.68 Q1195.76 1533.07 1195.18 1535.29 L1191.92 1548.2 L1191.73 1549.27 Q1191.73 1549.46 1191.83 1550.04 Q1191.96 1550.59 1192.31 1551.49 Q1192.7 1552.39 1193.21 1553.19 Q1193.76 1553.97 1194.73 1554.55 Q1195.72 1555.13 1196.95 1555.13 Q1198.91 1555.13 1201.04 1553.39 Q1203.2 1551.65 1204.81 1548.36 Q1205.8 1546.24 1206.96 1541.66 Q1208.15 1537.06 1208.15 1534.35 Z" fill="#000000" fill-rule="nonzero" fill-opacity="1" /><path clip-path="url(#clip410)" d="M1263.61 1572.36 L1263.61 1506.4 L1273.56 1506.4 L1273.56 1507.91 L1268.02 1507.91 L1268.02 1570.84 L1273.56 1570.84 L1273.56 1572.36 L1263.61 1572.36 Z" fill="#000000" fill-rule="nonzero" fill-opacity="1" /><path clip-path="url(#clip410)" d="M1281.76 1555.87 L1281.76 1553.84 Q1285.27 1553.84 1286.08 1553.42 Q1286.88 1552.97 1286.88 1550.84 L1286.88 1533.16 Q1286.88 1530.72 1286.01 1530.1 Q1285.17 1529.49 1281.76 1529.49 L1281.76 1527.43 L1291.04 1526.72 L1291.04 1533.65 Q1294.13 1526.72 1300.79 1526.72 Q1308.52 1526.72 1309.59 1533.16 Q1310.71 1530.65 1313.06 1528.69 Q1315.45 1526.72 1319.15 1526.72 Q1324.11 1526.72 1326.08 1529.17 Q1327.52 1530.81 1327.81 1532.65 Q1328.1 1534.48 1328.1 1539.25 L1328.1 1551.84 Q1328.17 1553.23 1329.23 1553.55 Q1330.29 1553.84 1333.26 1553.84 L1333.26 1555.87 Q1326.53 1555.67 1325.88 1555.67 Q1325.37 1555.67 1318.41 1555.87 L1318.41 1553.84 Q1321.92 1553.84 1322.73 1553.42 Q1323.56 1552.97 1323.56 1550.84 L1323.56 1535.48 Q1323.56 1532.13 1322.53 1530.17 Q1321.5 1528.17 1318.67 1528.17 Q1315.25 1528.17 1312.52 1531.04 Q1309.78 1533.9 1309.78 1538.73 L1309.78 1550.84 Q1309.78 1552.97 1310.58 1553.42 Q1311.42 1553.84 1314.93 1553.84 L1314.93 1555.87 Q1308.2 1555.67 1307.52 1555.67 Q1307.01 1555.67 1300.09 1555.87 L1300.09 1553.84 Q1303.6 1553.84 1304.4 1553.42 Q1305.24 1552.97 1305.24 1550.84 L1305.24 1535.48 Q1305.24 1532.13 1304.21 1530.17 Q1303.18 1528.17 1300.34 1528.17 Q1296.93 1528.17 1294.19 1531.04 Q1291.45 1533.9 1291.45 1538.73 L1291.45 1550.84 Q1291.45 1552.97 1292.26 1553.42 Q1293.1 1553.84 1296.57 1553.84 L1296.57 1555.87 Q1289.84 1555.67 1289.2 1555.67 Q1288.68 1555.67 1281.76 1555.87 Z" fill="#000000" fill-rule="nonzero" fill-opacity="1" /><path clip-path="url(#clip410)" d="M1335.88 1555.87 L1335.88 1553.84 Q1339.39 1553.84 1340.2 1553.42 Q1341 1552.97 1341 1550.84 L1341 1533.16 Q1341 1530.72 1340.13 1530.1 Q1339.3 1529.49 1335.88 1529.49 L1335.88 1527.43 L1345.16 1526.72 L1345.16 1533.65 Q1348.25 1526.72 1354.92 1526.72 Q1362.65 1526.72 1363.71 1533.16 Q1364.84 1530.65 1367.19 1528.69 Q1369.57 1526.72 1373.27 1526.72 Q1378.23 1526.72 1380.2 1529.17 Q1381.65 1530.81 1381.94 1532.65 Q1382.23 1534.48 1382.23 1539.25 L1382.23 1551.84 Q1382.29 1553.23 1383.35 1553.55 Q1384.42 1553.84 1387.38 1553.84 L1387.38 1555.87 Q1380.65 1555.67 1380.01 1555.67 Q1379.49 1555.67 1372.53 1555.87 L1372.53 1553.84 Q1376.04 1553.84 1376.85 1553.42 Q1377.69 1552.97 1377.69 1550.84 L1377.69 1535.48 Q1377.69 1532.13 1376.66 1530.17 Q1375.63 1528.17 1372.79 1528.17 Q1369.38 1528.17 1366.64 1531.04 Q1363.9 1533.9 1363.9 1538.73 L1363.9 1550.84 Q1363.9 1552.97 1364.71 1553.42 Q1365.54 1553.84 1369.06 1553.84 L1369.06 1555.87 Q1362.32 1555.67 1361.65 1555.67 Q1361.13 1555.67 1354.21 1555.87 L1354.21 1553.84 Q1357.72 1553.84 1358.52 1553.42 Q1359.36 1552.97 1359.36 1550.84 L1359.36 1535.48 Q1359.36 1532.13 1358.33 1530.17 Q1357.3 1528.17 1354.47 1528.17 Q1351.05 1528.17 1348.31 1531.04 Q1345.58 1533.9 1345.58 1538.73 L1345.58 1550.84 Q1345.58 1552.97 1346.38 1553.42 Q1347.22 1553.84 1350.7 1553.84 L1350.7 1555.87 Q1343.97 1555.67 1343.32 1555.67 Q1342.81 1555.67 1335.88 1555.87 Z" fill="#000000" fill-rule="nonzero" fill-opacity="1" /><path clip-path="url(#clip410)" d="M1390.27 1570.84 L1395.81 1570.84 L1395.81 1507.91 L1390.27 1507.91 L1390.27 1506.4 L1400.22 1506.4 L1400.22 1572.36 L1390.27 1572.36 L1390.27 1570.84 Z" fill="#000000" fill-rule="nonzero" fill-opacity="1" /><polyline clip-path="url(#clip410)" style="stroke:#000000; stroke-linecap:round; stroke-linejoin:round; stroke-width:4; stroke-opacity:1; fill:none" points="234.125,1423.18 234.125,47.2441 "/>
<polyline clip-path="url(#clip410)" style="stroke:#000000; stroke-linecap:round; stroke-linejoin:round; stroke-width:4; stroke-opacity:1; fill:none" points="234.125,1304.58 253.023,1304.58 "/>
<polyline clip-path="url(#clip410)" style="stroke:#000000; stroke-linecap:round; stroke-linejoin:round; stroke-width:4; stroke-opacity:1; fill:none" points="234.125,1039.59 253.023,1039.59 "/>
<polyline clip-path="url(#clip410)" style="stroke:#000000; stroke-linecap:round; stroke-linejoin:round; stroke-width:4; stroke-opacity:1; fill:none" points="234.125,774.606 253.023,774.606 "/>
<polyline clip-path="url(#clip410)" style="stroke:#000000; stroke-linecap:round; stroke-linejoin:round; stroke-width:4; stroke-opacity:1; fill:none" points="234.125,509.622 253.023,509.622 "/>
<polyline clip-path="url(#clip410)" style="stroke:#000000; stroke-linecap:round; stroke-linejoin:round; stroke-width:4; stroke-opacity:1; fill:none" points="234.125,244.637 253.023,244.637 "/>
<path clip-path="url(#clip410)" d="M116.668 1317.92 L124.306 1317.92 L124.306 1291.55 L115.996 1293.22 L115.996 1288.96 L124.26 1287.3 L128.936 1287.3 L128.936 1317.92 L136.575 1317.92 L136.575 1321.86 L116.668 1321.86 L116.668 1317.92 Z" fill="#000000" fill-rule="nonzero" fill-opacity="1" /><path clip-path="url(#clip410)" d="M156.019 1290.37 Q152.408 1290.37 150.579 1293.94 Q148.774 1297.48 148.774 1304.61 Q148.774 1311.72 150.579 1315.28 Q152.408 1318.82 156.019 1318.82 Q159.653 1318.82 161.459 1315.28 Q163.288 1311.72 163.288 1304.61 Q163.288 1297.48 161.459 1293.94 Q159.653 1290.37 156.019 1290.37 M156.019 1286.67 Q161.829 1286.67 164.885 1291.28 Q167.964 1295.86 167.964 1304.61 Q167.964 1313.34 164.885 1317.94 Q161.829 1322.53 156.019 1322.53 Q150.209 1322.53 147.13 1317.94 Q144.075 1313.34 144.075 1304.61 Q144.075 1295.86 147.13 1291.28 Q150.209 1286.67 156.019 1286.67 Z" fill="#000000" fill-rule="nonzero" fill-opacity="1" /><path clip-path="url(#clip410)" d="M186.181 1290.37 Q182.57 1290.37 180.741 1293.94 Q178.936 1297.48 178.936 1304.61 Q178.936 1311.72 180.741 1315.28 Q182.57 1318.82 186.181 1318.82 Q189.815 1318.82 191.621 1315.28 Q193.45 1311.72 193.45 1304.61 Q193.45 1297.48 191.621 1293.94 Q189.815 1290.37 186.181 1290.37 M186.181 1286.67 Q191.991 1286.67 195.047 1291.28 Q198.125 1295.86 198.125 1304.61 Q198.125 1313.34 195.047 1317.94 Q191.991 1322.53 186.181 1322.53 Q180.371 1322.53 177.292 1317.94 Q174.237 1313.34 174.237 1304.61 Q174.237 1295.86 177.292 1291.28 Q180.371 1286.67 186.181 1286.67 Z" fill="#000000" fill-rule="nonzero" fill-opacity="1" /><path clip-path="url(#clip410)" d="M116.668 1052.94 L124.306 1052.94 L124.306 1026.57 L115.996 1028.24 L115.996 1023.98 L124.26 1022.31 L128.936 1022.31 L128.936 1052.94 L136.575 1052.94 L136.575 1056.87 L116.668 1056.87 L116.668 1052.94 Z" fill="#000000" fill-rule="nonzero" fill-opacity="1" /><path clip-path="url(#clip410)" d="M146.066 1022.31 L164.422 1022.31 L164.422 1026.25 L150.348 1026.25 L150.348 1034.72 Q151.366 1034.37 152.385 1034.21 Q153.403 1034.02 154.422 1034.02 Q160.209 1034.02 163.589 1037.2 Q166.968 1040.37 166.968 1045.78 Q166.968 1051.36 163.496 1054.46 Q160.024 1057.54 153.704 1057.54 Q151.528 1057.54 149.26 1057.17 Q147.015 1056.8 144.607 1056.06 L144.607 1051.36 Q146.691 1052.5 148.913 1053.05 Q151.135 1053.61 153.612 1053.61 Q157.616 1053.61 159.954 1051.5 Q162.292 1049.39 162.292 1045.78 Q162.292 1042.17 159.954 1040.07 Q157.616 1037.96 153.612 1037.96 Q151.737 1037.96 149.862 1038.38 Q148.01 1038.79 146.066 1039.67 L146.066 1022.31 Z" fill="#000000" fill-rule="nonzero" fill-opacity="1" /><path clip-path="url(#clip410)" d="M186.181 1025.39 Q182.57 1025.39 180.741 1028.95 Q178.936 1032.5 178.936 1039.63 Q178.936 1046.73 180.741 1050.3 Q182.57 1053.84 186.181 1053.84 Q189.815 1053.84 191.621 1050.3 Q193.45 1046.73 193.45 1039.63 Q193.45 1032.5 191.621 1028.95 Q189.815 1025.39 186.181 1025.39 M186.181 1021.69 Q191.991 1021.69 195.047 1026.29 Q198.125 1030.88 198.125 1039.63 Q198.125 1048.35 195.047 1052.96 Q191.991 1057.54 186.181 1057.54 Q180.371 1057.54 177.292 1052.96 Q174.237 1048.35 174.237 1039.63 Q174.237 1030.88 177.292 1026.29 Q180.371 1021.69 186.181 1021.69 Z" fill="#000000" fill-rule="nonzero" fill-opacity="1" /><path clip-path="url(#clip410)" d="M119.885 787.951 L136.204 787.951 L136.204 791.886 L114.26 791.886 L114.26 787.951 Q116.922 785.197 121.505 780.567 Q126.112 775.914 127.292 774.572 Q129.538 772.048 130.417 770.312 Q131.32 768.553 131.32 766.863 Q131.32 764.109 129.376 762.373 Q127.455 760.637 124.353 760.637 Q122.154 760.637 119.7 761.4 Q117.269 762.164 114.492 763.715 L114.492 758.993 Q117.316 757.859 119.769 757.28 Q122.223 756.701 124.26 756.701 Q129.63 756.701 132.825 759.387 Q136.019 762.072 136.019 766.562 Q136.019 768.692 135.209 770.613 Q134.422 772.511 132.316 775.104 Q131.737 775.775 128.635 778.993 Q125.533 782.187 119.885 787.951 Z" fill="#000000" fill-rule="nonzero" fill-opacity="1" /><path clip-path="url(#clip410)" d="M156.019 760.405 Q152.408 760.405 150.579 763.97 Q148.774 767.511 148.774 774.641 Q148.774 781.748 150.579 785.312 Q152.408 788.854 156.019 788.854 Q159.653 788.854 161.459 785.312 Q163.288 781.748 163.288 774.641 Q163.288 767.511 161.459 763.97 Q159.653 760.405 156.019 760.405 M156.019 756.701 Q161.829 756.701 164.885 761.308 Q167.964 765.891 167.964 774.641 Q167.964 783.368 164.885 787.974 Q161.829 792.558 156.019 792.558 Q150.209 792.558 147.13 787.974 Q144.075 783.368 144.075 774.641 Q144.075 765.891 147.13 761.308 Q150.209 756.701 156.019 756.701 Z" fill="#000000" fill-rule="nonzero" fill-opacity="1" /><path clip-path="url(#clip410)" d="M186.181 760.405 Q182.57 760.405 180.741 763.97 Q178.936 767.511 178.936 774.641 Q178.936 781.748 180.741 785.312 Q182.57 788.854 186.181 788.854 Q189.815 788.854 191.621 785.312 Q193.45 781.748 193.45 774.641 Q193.45 767.511 191.621 763.97 Q189.815 760.405 186.181 760.405 M186.181 756.701 Q191.991 756.701 195.047 761.308 Q198.125 765.891 198.125 774.641 Q198.125 783.368 195.047 787.974 Q191.991 792.558 186.181 792.558 Q180.371 792.558 177.292 787.974 Q174.237 783.368 174.237 774.641 Q174.237 765.891 177.292 761.308 Q180.371 756.701 186.181 756.701 Z" fill="#000000" fill-rule="nonzero" fill-opacity="1" /><path clip-path="url(#clip410)" d="M119.885 522.967 L136.204 522.967 L136.204 526.902 L114.26 526.902 L114.26 522.967 Q116.922 520.212 121.505 515.582 Q126.112 510.93 127.292 509.587 Q129.538 507.064 130.417 505.328 Q131.32 503.568 131.32 501.879 Q131.32 499.124 129.376 497.388 Q127.455 495.652 124.353 495.652 Q122.154 495.652 119.7 496.416 Q117.269 497.18 114.492 498.731 L114.492 494.008 Q117.316 492.874 119.769 492.295 Q122.223 491.717 124.26 491.717 Q129.63 491.717 132.825 494.402 Q136.019 497.087 136.019 501.578 Q136.019 503.707 135.209 505.629 Q134.422 507.527 132.316 510.119 Q131.737 510.791 128.635 514.008 Q125.533 517.203 119.885 522.967 Z" fill="#000000" fill-rule="nonzero" fill-opacity="1" /><path clip-path="url(#clip410)" d="M146.066 492.342 L164.422 492.342 L164.422 496.277 L150.348 496.277 L150.348 504.749 Q151.366 504.402 152.385 504.24 Q153.403 504.055 154.422 504.055 Q160.209 504.055 163.589 507.226 Q166.968 510.397 166.968 515.814 Q166.968 521.392 163.496 524.494 Q160.024 527.573 153.704 527.573 Q151.528 527.573 149.26 527.203 Q147.015 526.832 144.607 526.092 L144.607 521.392 Q146.691 522.527 148.913 523.082 Q151.135 523.638 153.612 523.638 Q157.616 523.638 159.954 521.531 Q162.292 519.425 162.292 515.814 Q162.292 512.203 159.954 510.096 Q157.616 507.99 153.612 507.99 Q151.737 507.99 149.862 508.406 Q148.01 508.823 146.066 509.703 L146.066 492.342 Z" fill="#000000" fill-rule="nonzero" fill-opacity="1" /><path clip-path="url(#clip410)" d="M186.181 495.42 Q182.57 495.42 180.741 498.985 Q178.936 502.527 178.936 509.656 Q178.936 516.763 180.741 520.328 Q182.57 523.869 186.181 523.869 Q189.815 523.869 191.621 520.328 Q193.45 516.763 193.45 509.656 Q193.45 502.527 191.621 498.985 Q189.815 495.42 186.181 495.42 M186.181 491.717 Q191.991 491.717 195.047 496.323 Q198.125 500.906 198.125 509.656 Q198.125 518.383 195.047 522.99 Q191.991 527.573 186.181 527.573 Q180.371 527.573 177.292 522.99 Q174.237 518.383 174.237 509.656 Q174.237 500.906 177.292 496.323 Q180.371 491.717 186.181 491.717 Z" fill="#000000" fill-rule="nonzero" fill-opacity="1" /><path clip-path="url(#clip410)" d="M130.024 243.283 Q133.38 244 135.255 246.269 Q137.154 248.537 137.154 251.871 Q137.154 256.986 133.635 259.787 Q130.117 262.588 123.635 262.588 Q121.459 262.588 119.144 262.149 Q116.853 261.732 114.399 260.875 L114.399 256.361 Q116.343 257.496 118.658 258.074 Q120.973 258.653 123.496 258.653 Q127.894 258.653 130.186 256.917 Q132.501 255.181 132.501 251.871 Q132.501 248.815 130.348 247.102 Q128.218 245.366 124.399 245.366 L120.371 245.366 L120.371 241.524 L124.584 241.524 Q128.033 241.524 129.862 240.158 Q131.691 238.769 131.691 236.176 Q131.691 233.514 129.792 232.102 Q127.917 230.667 124.399 230.667 Q122.478 230.667 120.279 231.084 Q118.08 231.501 115.441 232.38 L115.441 228.213 Q118.103 227.473 120.418 227.102 Q122.755 226.732 124.816 226.732 Q130.14 226.732 133.242 229.163 Q136.343 231.57 136.343 235.69 Q136.343 238.561 134.7 240.551 Q133.056 242.519 130.024 243.283 Z" fill="#000000" fill-rule="nonzero" fill-opacity="1" /><path clip-path="url(#clip410)" d="M156.019 230.436 Q152.408 230.436 150.579 234.001 Q148.774 237.542 148.774 244.672 Q148.774 251.778 150.579 255.343 Q152.408 258.885 156.019 258.885 Q159.653 258.885 161.459 255.343 Q163.288 251.778 163.288 244.672 Q163.288 237.542 161.459 234.001 Q159.653 230.436 156.019 230.436 M156.019 226.732 Q161.829 226.732 164.885 231.338 Q167.964 235.922 167.964 244.672 Q167.964 253.399 164.885 258.005 Q161.829 262.588 156.019 262.588 Q150.209 262.588 147.13 258.005 Q144.075 253.399 144.075 244.672 Q144.075 235.922 147.13 231.338 Q150.209 226.732 156.019 226.732 Z" fill="#000000" fill-rule="nonzero" fill-opacity="1" /><path clip-path="url(#clip410)" d="M186.181 230.436 Q182.57 230.436 180.741 234.001 Q178.936 237.542 178.936 244.672 Q178.936 251.778 180.741 255.343 Q182.57 258.885 186.181 258.885 Q189.815 258.885 191.621 255.343 Q193.45 251.778 193.45 244.672 Q193.45 237.542 191.621 234.001 Q189.815 230.436 186.181 230.436 M186.181 226.732 Q191.991 226.732 195.047 231.338 Q198.125 235.922 198.125 244.672 Q198.125 253.399 195.047 258.005 Q191.991 262.588 186.181 262.588 Q180.371 262.588 177.292 258.005 Q174.237 253.399 174.237 244.672 Q174.237 235.922 177.292 231.338 Q180.371 226.732 186.181 226.732 Z" fill="#000000" fill-rule="nonzero" fill-opacity="1" /><path clip-path="url(#clip410)" d="M37.6463 821.144 L74.3288 830.258 Q75.4882 830.516 75.7781 830.516 Q76.1645 830.516 76.3256 830.419 Q76.5188 830.29 76.6798 829.582 Q76.8409 828.841 76.8409 827.359 Q76.8409 826.812 76.8409 826.619 Q76.8409 826.425 76.9053 826.136 Q76.9697 825.846 77.1307 825.749 Q77.2917 825.652 77.5494 825.652 Q78.8698 825.652 78.8698 826.812 Q78.8698 827.907 78.7732 830.193 Q78.6766 832.48 78.6766 833.607 Q78.6766 834.702 78.7732 836.925 Q78.8698 839.147 78.8698 840.21 Q78.8698 840.596 78.6766 840.821 Q78.5156 841.047 78.3223 841.047 L78.1613 841.079 Q77.2595 841.079 77.0341 840.725 Q76.8409 840.371 76.8409 839.565 Q76.8086 836.796 76.4222 835.991 Q76.0357 835.185 74.6509 834.799 L62.8635 831.836 Q66.8248 835.797 66.8248 839.63 Q66.8248 843.333 63.9263 845.846 Q60.9956 848.325 56.2613 848.325 Q52.7509 848.325 49.2082 846.941 Q45.6656 845.523 42.9925 843.333 Q40.3194 841.111 38.6447 838.213 Q36.9378 835.314 36.9378 832.448 Q36.9378 830.612 38.0006 828.97 Q39.0634 827.295 41.5432 826.297 Q40.1262 825.459 38.5803 823.913 Q37.0022 822.367 37.0022 821.82 Q37.0022 821.498 37.2276 821.337 Q37.4209 821.144 37.6463 821.144 M44.1841 827.231 Q43.8621 827.231 43.0569 827.488 Q42.2518 827.714 41.1568 828.229 Q40.0296 828.712 39.2244 829.839 Q38.3871 830.966 38.3871 832.448 Q38.3871 834.573 40.4482 836.86 Q42.4772 839.115 46.0198 840.596 Q48.3387 841.53 52.6543 842.593 Q56.9698 843.656 59.1598 843.656 Q59.6751 843.656 60.2548 843.623 Q60.8345 843.559 61.8007 843.301 Q62.7669 843.044 63.5076 842.657 Q64.2484 842.238 64.7959 841.401 Q65.3434 840.564 65.3434 839.437 Q65.3434 836.989 63.25 834.541 Q61.1566 832.094 59.2887 831.063 Q59.0954 830.934 51.7847 829.098 Q44.474 827.231 44.1841 827.231 Z" fill="#000000" fill-rule="nonzero" fill-opacity="1" /><path clip-path="url(#clip410)" d="M82.5735 766.909 L16.6159 766.909 L16.6159 756.957 L18.1296 756.957 L18.1296 762.497 L81.0598 762.497 L81.0598 756.957 L82.5735 756.957 L82.5735 766.909 Z" fill="#000000" fill-rule="nonzero" fill-opacity="1" /><path clip-path="url(#clip410)" d="M66.0841 748.759 L64.0551 748.759 Q64.0551 745.248 63.6364 744.443 Q63.1856 743.638 61.06 743.638 L43.379 743.638 Q40.9313 743.638 40.3194 744.507 Q39.7075 745.345 39.7075 748.759 L37.6463 748.759 L36.9378 739.483 L43.8621 739.483 Q36.9378 736.392 36.9378 729.725 Q36.9378 721.996 43.379 720.933 Q40.8669 719.806 38.9023 717.455 Q36.9378 715.071 36.9378 711.368 Q36.9378 706.408 39.3854 704.443 Q41.0279 702.994 42.8637 702.704 Q44.6994 702.414 49.4659 702.414 L62.0584 702.414 Q63.4432 702.35 63.7653 701.287 Q64.0551 700.224 64.0551 697.261 L66.0841 697.261 Q65.8909 703.993 65.8909 704.637 Q65.8909 705.152 66.0841 712.108 L64.0551 712.108 Q64.0551 708.598 63.6364 707.793 Q63.1856 706.955 61.06 706.955 L45.6978 706.955 Q42.3484 706.955 40.3838 707.986 Q38.3871 709.017 38.3871 711.851 Q38.3871 715.265 41.2534 718.002 Q44.1197 720.74 48.9506 720.74 L61.06 720.74 Q63.1856 720.74 63.6364 719.934 Q64.0551 719.097 64.0551 715.587 L66.0841 715.587 Q65.8909 722.318 65.8909 722.994 Q65.8909 723.509 66.0841 730.434 L64.0551 730.434 Q64.0551 726.923 63.6364 726.118 Q63.1856 725.281 61.06 725.281 L45.6978 725.281 Q42.3484 725.281 40.3838 726.311 Q38.3871 727.342 38.3871 730.176 Q38.3871 733.59 41.2534 736.327 Q44.1197 739.065 48.9506 739.065 L61.06 739.065 Q63.1856 739.065 63.6364 738.26 Q64.0551 737.422 64.0551 733.944 L66.0841 733.944 Q65.8909 740.675 65.8909 741.319 Q65.8909 741.834 66.0841 748.759 Z" fill="#000000" fill-rule="nonzero" fill-opacity="1" /><path clip-path="url(#clip410)" d="M66.0841 694.636 L64.0551 694.636 Q64.0551 691.125 63.6364 690.32 Q63.1856 689.515 61.06 689.515 L43.379 689.515 Q40.9313 689.515 40.3194 690.385 Q39.7075 691.222 39.7075 694.636 L37.6463 694.636 L36.9378 685.36 L43.8621 685.36 Q36.9378 682.269 36.9378 675.602 Q36.9378 667.873 43.379 666.81 Q40.8669 665.683 38.9023 663.332 Q36.9378 660.948 36.9378 657.245 Q36.9378 652.285 39.3854 650.32 Q41.0279 648.871 42.8637 648.581 Q44.6994 648.291 49.4659 648.291 L62.0584 648.291 Q63.4432 648.227 63.7653 647.164 Q64.0551 646.101 64.0551 643.139 L66.0841 643.139 Q65.8909 649.87 65.8909 650.514 Q65.8909 651.029 66.0841 657.985 L64.0551 657.985 Q64.0551 654.475 63.6364 653.67 Q63.1856 652.833 61.06 652.833 L45.6978 652.833 Q42.3484 652.833 40.3838 653.863 Q38.3871 654.894 38.3871 657.728 Q38.3871 661.142 41.2534 663.879 Q44.1197 666.617 48.9506 666.617 L61.06 666.617 Q63.1856 666.617 63.6364 665.811 Q64.0551 664.974 64.0551 661.464 L66.0841 661.464 Q65.8909 668.195 65.8909 668.871 Q65.8909 669.386 66.0841 676.311 L64.0551 676.311 Q64.0551 672.8 63.6364 671.995 Q63.1856 671.158 61.06 671.158 L45.6978 671.158 Q42.3484 671.158 40.3838 672.188 Q38.3871 673.219 38.3871 676.053 Q38.3871 679.467 41.2534 682.204 Q44.1197 684.942 48.9506 684.942 L61.06 684.942 Q63.1856 684.942 63.6364 684.137 Q64.0551 683.299 64.0551 679.821 L66.0841 679.821 Q65.8909 686.552 65.8909 687.196 Q65.8909 687.711 66.0841 694.636 Z" fill="#000000" fill-rule="nonzero" fill-opacity="1" /><path clip-path="url(#clip410)" d="M81.0598 640.249 L81.0598 634.709 L18.1296 634.709 L18.1296 640.249 L16.6159 640.249 L16.6159 630.297 L82.5735 630.297 L82.5735 640.249 L81.0598 640.249 Z" fill="#000000" fill-rule="nonzero" fill-opacity="1" /><polyline clip-path="url(#clip412)" style="stroke:#000000; stroke-linecap:round; stroke-linejoin:round; stroke-width:0; stroke-opacity:1; fill:none" points="294.087,88.6494 297.887,88.6494 "/>
<polyline clip-path="url(#clip412)" style="stroke:#000000; stroke-linecap:round; stroke-linejoin:round; stroke-width:0; stroke-opacity:1; fill:none" points="340.48,525.874 344.28,525.874 "/>
<polyline clip-path="url(#clip412)" style="stroke:#000000; stroke-linecap:round; stroke-linejoin:round; stroke-width:0; stroke-opacity:1; fill:none" points="386.873,751.111 390.674,751.111 "/>
<polyline clip-path="url(#clip412)" style="stroke:#000000; stroke-linecap:round; stroke-linejoin:round; stroke-width:0; stroke-opacity:1; fill:none" points="433.266,883.603 437.067,883.603 "/>
<polyline clip-path="url(#clip412)" style="stroke:#000000; stroke-linecap:round; stroke-linejoin:round; stroke-width:0; stroke-opacity:1; fill:none" points="479.659,978.998 483.46,978.998 "/>
<polyline clip-path="url(#clip412)" style="stroke:#000000; stroke-linecap:round; stroke-linejoin:round; stroke-width:0; stroke-opacity:1; fill:none" points="526.053,1042.59 529.853,1042.59 "/>
<polyline clip-path="url(#clip412)" style="stroke:#000000; stroke-linecap:round; stroke-linejoin:round; stroke-width:0; stroke-opacity:1; fill:none" points="618.839,1132.69 622.64,1132.69 "/>
<polyline clip-path="url(#clip412)" style="stroke:#000000; stroke-linecap:round; stroke-linejoin:round; stroke-width:0; stroke-opacity:1; fill:none" points="665.232,1164.49 669.033,1164.49 "/>
<polyline clip-path="url(#clip412)" style="stroke:#000000; stroke-linecap:round; stroke-linejoin:round; stroke-width:0; stroke-opacity:1; fill:none" points="711.625,1190.99 715.426,1190.99 "/>
<polyline clip-path="url(#clip412)" style="stroke:#000000; stroke-linecap:round; stroke-linejoin:round; stroke-width:0; stroke-opacity:1; fill:none" points="758.019,1212.18 761.819,1212.18 "/>
<polyline clip-path="url(#clip412)" style="stroke:#000000; stroke-linecap:round; stroke-linejoin:round; stroke-width:0; stroke-opacity:1; fill:none" points="804.412,1228.08 808.212,1228.08 "/>
<polyline clip-path="url(#clip412)" style="stroke:#000000; stroke-linecap:round; stroke-linejoin:round; stroke-width:0; stroke-opacity:1; fill:none" points="850.805,1241.33 854.606,1241.33 "/>
<polyline clip-path="url(#clip412)" style="stroke:#000000; stroke-linecap:round; stroke-linejoin:round; stroke-width:0; stroke-opacity:1; fill:none" points="897.198,1257.23 900.999,1257.23 "/>
<polyline clip-path="url(#clip412)" style="stroke:#000000; stroke-linecap:round; stroke-linejoin:round; stroke-width:0; stroke-opacity:1; fill:none" points="943.591,1270.48 947.392,1270.48 "/>
<polyline clip-path="url(#clip412)" style="stroke:#000000; stroke-linecap:round; stroke-linejoin:round; stroke-width:0; stroke-opacity:1; fill:none" points="989.985,1281.08 993.785,1281.08 "/>
<polyline clip-path="url(#clip412)" style="stroke:#000000; stroke-linecap:round; stroke-linejoin:round; stroke-width:0; stroke-opacity:1; fill:none" points="1036.38,1286.38 1040.18,1286.38 "/>
<polyline clip-path="url(#clip412)" style="stroke:#000000; stroke-linecap:round; stroke-linejoin:round; stroke-width:0; stroke-opacity:1; fill:none" points="1082.77,1291.68 1086.57,1291.68 "/>
<polyline clip-path="url(#clip412)" style="stroke:#000000; stroke-linecap:round; stroke-linejoin:round; stroke-width:0; stroke-opacity:1; fill:none" points="1129.16,1304.93 1132.96,1304.93 "/>
<polyline clip-path="url(#clip412)" style="stroke:#000000; stroke-linecap:round; stroke-linejoin:round; stroke-width:0; stroke-opacity:1; fill:none" points="1175.56,1310.23 1179.36,1310.23 "/>
<polyline clip-path="url(#clip412)" style="stroke:#000000; stroke-linecap:round; stroke-linejoin:round; stroke-width:0; stroke-opacity:1; fill:none" points="1221.95,1318.18 1225.75,1318.18 "/>
<polyline clip-path="url(#clip412)" style="stroke:#000000; stroke-linecap:round; stroke-linejoin:round; stroke-width:0; stroke-opacity:1; fill:none" points="1268.34,1318.18 1272.14,1318.18 "/>
<polyline clip-path="url(#clip412)" style="stroke:#000000; stroke-linecap:round; stroke-linejoin:round; stroke-width:0; stroke-opacity:1; fill:none" points="1314.74,1328.78 1318.54,1328.78 "/>
<polyline clip-path="url(#clip412)" style="stroke:#000000; stroke-linecap:round; stroke-linejoin:round; stroke-width:0; stroke-opacity:1; fill:none" points="1361.13,1334.08 1364.93,1334.08 "/>
<polyline clip-path="url(#clip412)" style="stroke:#000000; stroke-linecap:round; stroke-linejoin:round; stroke-width:0; stroke-opacity:1; fill:none" points="1407.52,1334.08 1411.32,1334.08 "/>
<polyline clip-path="url(#clip412)" style="stroke:#000000; stroke-linecap:round; stroke-linejoin:round; stroke-width:0; stroke-opacity:1; fill:none" points="1453.92,1344.68 1457.72,1344.68 "/>
<polyline clip-path="url(#clip412)" style="stroke:#000000; stroke-linecap:round; stroke-linejoin:round; stroke-width:0; stroke-opacity:1; fill:none" points="1500.31,1344.68 1504.11,1344.68 "/>
<polyline clip-path="url(#clip412)" style="stroke:#000000; stroke-linecap:round; stroke-linejoin:round; stroke-width:0; stroke-opacity:1; fill:none" points="1546.7,1349.98 1550.5,1349.98 "/>
<polyline clip-path="url(#clip412)" style="stroke:#000000; stroke-linecap:round; stroke-linejoin:round; stroke-width:0; stroke-opacity:1; fill:none" points="1593.1,1349.98 1596.9,1349.98 "/>
<polyline clip-path="url(#clip412)" style="stroke:#000000; stroke-linecap:round; stroke-linejoin:round; stroke-width:0; stroke-opacity:1; fill:none" points="1639.49,1355.28 1643.29,1355.28 "/>
<polyline clip-path="url(#clip412)" style="stroke:#000000; stroke-linecap:round; stroke-linejoin:round; stroke-width:0; stroke-opacity:1; fill:none" points="1685.88,1360.58 1689.68,1360.58 "/>
<polyline clip-path="url(#clip412)" style="stroke:#000000; stroke-linecap:round; stroke-linejoin:round; stroke-width:0; stroke-opacity:1; fill:none" points="1732.28,1360.58 1736.08,1360.58 "/>
<polyline clip-path="url(#clip412)" style="stroke:#000000; stroke-linecap:round; stroke-linejoin:round; stroke-width:0; stroke-opacity:1; fill:none" points="1778.67,1360.58 1782.47,1360.58 "/>
<polyline clip-path="url(#clip412)" style="stroke:#000000; stroke-linecap:round; stroke-linejoin:round; stroke-width:0; stroke-opacity:1; fill:none" points="1825.06,1365.88 1828.86,1365.88 "/>
<polyline clip-path="url(#clip412)" style="stroke:#000000; stroke-linecap:round; stroke-linejoin:round; stroke-width:0; stroke-opacity:1; fill:none" points="1871.46,1365.88 1875.26,1365.88 "/>
<polyline clip-path="url(#clip412)" style="stroke:#000000; stroke-linecap:round; stroke-linejoin:round; stroke-width:0; stroke-opacity:1; fill:none" points="1917.85,1368.53 1921.65,1368.53 "/>
<polyline clip-path="url(#clip412)" style="stroke:#000000; stroke-linecap:round; stroke-linejoin:round; stroke-width:0; stroke-opacity:1; fill:none" points="1964.24,1371.18 1968.04,1371.18 "/>
<polyline clip-path="url(#clip412)" style="stroke:#000000; stroke-linecap:round; stroke-linejoin:round; stroke-width:0; stroke-opacity:1; fill:none" points="2010.63,1371.18 2014.44,1371.18 "/>
<polyline clip-path="url(#clip412)" style="stroke:#000000; stroke-linecap:round; stroke-linejoin:round; stroke-width:0; stroke-opacity:1; fill:none" points="2057.03,1376.47 2060.83,1376.47 "/>
<polyline clip-path="url(#clip412)" style="stroke:#000000; stroke-linecap:round; stroke-linejoin:round; stroke-width:0; stroke-opacity:1; fill:none" points="2103.42,1376.47 2107.22,1376.47 "/>
<polyline clip-path="url(#clip412)" style="stroke:#000000; stroke-linecap:round; stroke-linejoin:round; stroke-width:0; stroke-opacity:1; fill:none" points="2149.81,1376.47 2153.62,1376.47 "/>
<polyline clip-path="url(#clip412)" style="stroke:#000000; stroke-linecap:round; stroke-linejoin:round; stroke-width:0; stroke-opacity:1; fill:none" points="2196.21,1379.12 2200.01,1379.12 "/>
<polyline clip-path="url(#clip412)" style="stroke:#000000; stroke-linecap:round; stroke-linejoin:round; stroke-width:0; stroke-opacity:1; fill:none" points="2242.6,1381.77 2246.4,1381.77 "/>
<polyline clip-path="url(#clip412)" style="stroke:#000000; stroke-linecap:round; stroke-linejoin:round; stroke-width:0; stroke-opacity:1; fill:none" points="2288.99,1381.77 2292.79,1381.77 "/>
<line clip-path="url(#clip412)" x1="294.087" y1="100.649" x2="294.087" y2="76.6494" style="stroke:#000000; stroke-width:0; stroke-opacity:1"/>
<line clip-path="url(#clip412)" x1="297.887" y1="100.649" x2="297.887" y2="76.6494" style="stroke:#000000; stroke-width:0; stroke-opacity:1"/>
<line clip-path="url(#clip412)" x1="340.48" y1="537.874" x2="340.48" y2="513.874" style="stroke:#000000; stroke-width:0; stroke-opacity:1"/>
<line clip-path="url(#clip412)" x1="344.28" y1="537.874" x2="344.28" y2="513.874" style="stroke:#000000; stroke-width:0; stroke-opacity:1"/>
<line clip-path="url(#clip412)" x1="386.873" y1="763.111" x2="386.873" y2="739.111" style="stroke:#000000; stroke-width:0; stroke-opacity:1"/>
<line clip-path="url(#clip412)" x1="390.674" y1="763.111" x2="390.674" y2="739.111" style="stroke:#000000; stroke-width:0; stroke-opacity:1"/>
<line clip-path="url(#clip412)" x1="433.266" y1="895.603" x2="433.266" y2="871.603" style="stroke:#000000; stroke-width:0; stroke-opacity:1"/>
<line clip-path="url(#clip412)" x1="437.067" y1="895.603" x2="437.067" y2="871.603" style="stroke:#000000; stroke-width:0; stroke-opacity:1"/>
<line clip-path="url(#clip412)" x1="479.659" y1="990.998" x2="479.659" y2="966.998" style="stroke:#000000; stroke-width:0; stroke-opacity:1"/>
<line clip-path="url(#clip412)" x1="483.46" y1="990.998" x2="483.46" y2="966.998" style="stroke:#000000; stroke-width:0; stroke-opacity:1"/>
<line clip-path="url(#clip412)" x1="526.053" y1="1054.59" x2="526.053" y2="1030.59" style="stroke:#000000; stroke-width:0; stroke-opacity:1"/>
<line clip-path="url(#clip412)" x1="529.853" y1="1054.59" x2="529.853" y2="1030.59" style="stroke:#000000; stroke-width:0; stroke-opacity:1"/>
<line clip-path="url(#clip412)" x1="618.839" y1="1144.69" x2="618.839" y2="1120.69" style="stroke:#000000; stroke-width:0; stroke-opacity:1"/>
<line clip-path="url(#clip412)" x1="622.64" y1="1144.69" x2="622.64" y2="1120.69" style="stroke:#000000; stroke-width:0; stroke-opacity:1"/>
<line clip-path="url(#clip412)" x1="665.232" y1="1176.49" x2="665.232" y2="1152.49" style="stroke:#000000; stroke-width:0; stroke-opacity:1"/>
<line clip-path="url(#clip412)" x1="669.033" y1="1176.49" x2="669.033" y2="1152.49" style="stroke:#000000; stroke-width:0; stroke-opacity:1"/>
<line clip-path="url(#clip412)" x1="711.625" y1="1202.99" x2="711.625" y2="1178.99" style="stroke:#000000; stroke-width:0; stroke-opacity:1"/>
<line clip-path="url(#clip412)" x1="715.426" y1="1202.99" x2="715.426" y2="1178.99" style="stroke:#000000; stroke-width:0; stroke-opacity:1"/>
<line clip-path="url(#clip412)" x1="758.019" y1="1224.18" x2="758.019" y2="1200.18" style="stroke:#000000; stroke-width:0; stroke-opacity:1"/>
<line clip-path="url(#clip412)" x1="761.819" y1="1224.18" x2="761.819" y2="1200.18" style="stroke:#000000; stroke-width:0; stroke-opacity:1"/>
<line clip-path="url(#clip412)" x1="804.412" y1="1240.08" x2="804.412" y2="1216.08" style="stroke:#000000; stroke-width:0; stroke-opacity:1"/>
<line clip-path="url(#clip412)" x1="808.212" y1="1240.08" x2="808.212" y2="1216.08" style="stroke:#000000; stroke-width:0; stroke-opacity:1"/>
<line clip-path="url(#clip412)" x1="850.805" y1="1253.33" x2="850.805" y2="1229.33" style="stroke:#000000; stroke-width:0; stroke-opacity:1"/>
<line clip-path="url(#clip412)" x1="854.606" y1="1253.33" x2="854.606" y2="1229.33" style="stroke:#000000; stroke-width:0; stroke-opacity:1"/>
<line clip-path="url(#clip412)" x1="897.198" y1="1269.23" x2="897.198" y2="1245.23" style="stroke:#000000; stroke-width:0; stroke-opacity:1"/>
<line clip-path="url(#clip412)" x1="900.999" y1="1269.23" x2="900.999" y2="1245.23" style="stroke:#000000; stroke-width:0; stroke-opacity:1"/>
<line clip-path="url(#clip412)" x1="943.591" y1="1282.48" x2="943.591" y2="1258.48" style="stroke:#000000; stroke-width:0; stroke-opacity:1"/>
<line clip-path="url(#clip412)" x1="947.392" y1="1282.48" x2="947.392" y2="1258.48" style="stroke:#000000; stroke-width:0; stroke-opacity:1"/>
<line clip-path="url(#clip412)" x1="989.985" y1="1293.08" x2="989.985" y2="1269.08" style="stroke:#000000; stroke-width:0; stroke-opacity:1"/>
<line clip-path="url(#clip412)" x1="993.785" y1="1293.08" x2="993.785" y2="1269.08" style="stroke:#000000; stroke-width:0; stroke-opacity:1"/>
<line clip-path="url(#clip412)" x1="1036.38" y1="1298.38" x2="1036.38" y2="1274.38" style="stroke:#000000; stroke-width:0; stroke-opacity:1"/>
<line clip-path="url(#clip412)" x1="1040.18" y1="1298.38" x2="1040.18" y2="1274.38" style="stroke:#000000; stroke-width:0; stroke-opacity:1"/>
<line clip-path="url(#clip412)" x1="1082.77" y1="1303.68" x2="1082.77" y2="1279.68" style="stroke:#000000; stroke-width:0; stroke-opacity:1"/>
<line clip-path="url(#clip412)" x1="1086.57" y1="1303.68" x2="1086.57" y2="1279.68" style="stroke:#000000; stroke-width:0; stroke-opacity:1"/>
<line clip-path="url(#clip412)" x1="1129.16" y1="1316.93" x2="1129.16" y2="1292.93" style="stroke:#000000; stroke-width:0; stroke-opacity:1"/>
<line clip-path="url(#clip412)" x1="1132.96" y1="1316.93" x2="1132.96" y2="1292.93" style="stroke:#000000; stroke-width:0; stroke-opacity:1"/>
<line clip-path="url(#clip412)" x1="1175.56" y1="1322.23" x2="1175.56" y2="1298.23" style="stroke:#000000; stroke-width:0; stroke-opacity:1"/>
<line clip-path="url(#clip412)" x1="1179.36" y1="1322.23" x2="1179.36" y2="1298.23" style="stroke:#000000; stroke-width:0; stroke-opacity:1"/>
<line clip-path="url(#clip412)" x1="1221.95" y1="1330.18" x2="1221.95" y2="1306.18" style="stroke:#000000; stroke-width:0; stroke-opacity:1"/>
<line clip-path="url(#clip412)" x1="1225.75" y1="1330.18" x2="1225.75" y2="1306.18" style="stroke:#000000; stroke-width:0; stroke-opacity:1"/>
<line clip-path="url(#clip412)" x1="1268.34" y1="1330.18" x2="1268.34" y2="1306.18" style="stroke:#000000; stroke-width:0; stroke-opacity:1"/>
<line clip-path="url(#clip412)" x1="1272.14" y1="1330.18" x2="1272.14" y2="1306.18" style="stroke:#000000; stroke-width:0; stroke-opacity:1"/>
<line clip-path="url(#clip412)" x1="1314.74" y1="1340.78" x2="1314.74" y2="1316.78" style="stroke:#000000; stroke-width:0; stroke-opacity:1"/>
<line clip-path="url(#clip412)" x1="1318.54" y1="1340.78" x2="1318.54" y2="1316.78" style="stroke:#000000; stroke-width:0; stroke-opacity:1"/>
<line clip-path="url(#clip412)" x1="1361.13" y1="1346.08" x2="1361.13" y2="1322.08" style="stroke:#000000; stroke-width:0; stroke-opacity:1"/>
<line clip-path="url(#clip412)" x1="1364.93" y1="1346.08" x2="1364.93" y2="1322.08" style="stroke:#000000; stroke-width:0; stroke-opacity:1"/>
<line clip-path="url(#clip412)" x1="1407.52" y1="1346.08" x2="1407.52" y2="1322.08" style="stroke:#000000; stroke-width:0; stroke-opacity:1"/>
<line clip-path="url(#clip412)" x1="1411.32" y1="1346.08" x2="1411.32" y2="1322.08" style="stroke:#000000; stroke-width:0; stroke-opacity:1"/>
<line clip-path="url(#clip412)" x1="1453.92" y1="1356.68" x2="1453.92" y2="1332.68" style="stroke:#000000; stroke-width:0; stroke-opacity:1"/>
<line clip-path="url(#clip412)" x1="1457.72" y1="1356.68" x2="1457.72" y2="1332.68" style="stroke:#000000; stroke-width:0; stroke-opacity:1"/>
<line clip-path="url(#clip412)" x1="1500.31" y1="1356.68" x2="1500.31" y2="1332.68" style="stroke:#000000; stroke-width:0; stroke-opacity:1"/>
<line clip-path="url(#clip412)" x1="1504.11" y1="1356.68" x2="1504.11" y2="1332.68" style="stroke:#000000; stroke-width:0; stroke-opacity:1"/>
<line clip-path="url(#clip412)" x1="1546.7" y1="1361.98" x2="1546.7" y2="1337.98" style="stroke:#000000; stroke-width:0; stroke-opacity:1"/>
<line clip-path="url(#clip412)" x1="1550.5" y1="1361.98" x2="1550.5" y2="1337.98" style="stroke:#000000; stroke-width:0; stroke-opacity:1"/>
<line clip-path="url(#clip412)" x1="1593.1" y1="1361.98" x2="1593.1" y2="1337.98" style="stroke:#000000; stroke-width:0; stroke-opacity:1"/>
<line clip-path="url(#clip412)" x1="1596.9" y1="1361.98" x2="1596.9" y2="1337.98" style="stroke:#000000; stroke-width:0; stroke-opacity:1"/>
<line clip-path="url(#clip412)" x1="1639.49" y1="1367.28" x2="1639.49" y2="1343.28" style="stroke:#000000; stroke-width:0; stroke-opacity:1"/>
<line clip-path="url(#clip412)" x1="1643.29" y1="1367.28" x2="1643.29" y2="1343.28" style="stroke:#000000; stroke-width:0; stroke-opacity:1"/>
<line clip-path="url(#clip412)" x1="1685.88" y1="1372.58" x2="1685.88" y2="1348.58" style="stroke:#000000; stroke-width:0; stroke-opacity:1"/>
<line clip-path="url(#clip412)" x1="1689.68" y1="1372.58" x2="1689.68" y2="1348.58" style="stroke:#000000; stroke-width:0; stroke-opacity:1"/>
<line clip-path="url(#clip412)" x1="1732.28" y1="1372.58" x2="1732.28" y2="1348.58" style="stroke:#000000; stroke-width:0; stroke-opacity:1"/>
<line clip-path="url(#clip412)" x1="1736.08" y1="1372.58" x2="1736.08" y2="1348.58" style="stroke:#000000; stroke-width:0; stroke-opacity:1"/>
<line clip-path="url(#clip412)" x1="1778.67" y1="1372.58" x2="1778.67" y2="1348.58" style="stroke:#000000; stroke-width:0; stroke-opacity:1"/>
<line clip-path="url(#clip412)" x1="1782.47" y1="1372.58" x2="1782.47" y2="1348.58" style="stroke:#000000; stroke-width:0; stroke-opacity:1"/>
<line clip-path="url(#clip412)" x1="1825.06" y1="1377.88" x2="1825.06" y2="1353.88" style="stroke:#000000; stroke-width:0; stroke-opacity:1"/>
<line clip-path="url(#clip412)" x1="1828.86" y1="1377.88" x2="1828.86" y2="1353.88" style="stroke:#000000; stroke-width:0; stroke-opacity:1"/>
<line clip-path="url(#clip412)" x1="1871.46" y1="1377.88" x2="1871.46" y2="1353.88" style="stroke:#000000; stroke-width:0; stroke-opacity:1"/>
<line clip-path="url(#clip412)" x1="1875.26" y1="1377.88" x2="1875.26" y2="1353.88" style="stroke:#000000; stroke-width:0; stroke-opacity:1"/>
<line clip-path="url(#clip412)" x1="1917.85" y1="1380.53" x2="1917.85" y2="1356.53" style="stroke:#000000; stroke-width:0; stroke-opacity:1"/>
<line clip-path="url(#clip412)" x1="1921.65" y1="1380.53" x2="1921.65" y2="1356.53" style="stroke:#000000; stroke-width:0; stroke-opacity:1"/>
<line clip-path="url(#clip412)" x1="1964.24" y1="1383.18" x2="1964.24" y2="1359.18" style="stroke:#000000; stroke-width:0; stroke-opacity:1"/>
<line clip-path="url(#clip412)" x1="1968.04" y1="1383.18" x2="1968.04" y2="1359.18" style="stroke:#000000; stroke-width:0; stroke-opacity:1"/>
<line clip-path="url(#clip412)" x1="2010.63" y1="1383.18" x2="2010.63" y2="1359.18" style="stroke:#000000; stroke-width:0; stroke-opacity:1"/>
<line clip-path="url(#clip412)" x1="2014.44" y1="1383.18" x2="2014.44" y2="1359.18" style="stroke:#000000; stroke-width:0; stroke-opacity:1"/>
<line clip-path="url(#clip412)" x1="2057.03" y1="1388.47" x2="2057.03" y2="1364.47" style="stroke:#000000; stroke-width:0; stroke-opacity:1"/>
<line clip-path="url(#clip412)" x1="2060.83" y1="1388.47" x2="2060.83" y2="1364.47" style="stroke:#000000; stroke-width:0; stroke-opacity:1"/>
<line clip-path="url(#clip412)" x1="2103.42" y1="1388.47" x2="2103.42" y2="1364.47" style="stroke:#000000; stroke-width:0; stroke-opacity:1"/>
<line clip-path="url(#clip412)" x1="2107.22" y1="1388.47" x2="2107.22" y2="1364.47" style="stroke:#000000; stroke-width:0; stroke-opacity:1"/>
<line clip-path="url(#clip412)" x1="2149.81" y1="1388.47" x2="2149.81" y2="1364.47" style="stroke:#000000; stroke-width:0; stroke-opacity:1"/>
<line clip-path="url(#clip412)" x1="2153.62" y1="1388.47" x2="2153.62" y2="1364.47" style="stroke:#000000; stroke-width:0; stroke-opacity:1"/>
<line clip-path="url(#clip412)" x1="2196.21" y1="1391.12" x2="2196.21" y2="1367.12" style="stroke:#000000; stroke-width:0; stroke-opacity:1"/>
<line clip-path="url(#clip412)" x1="2200.01" y1="1391.12" x2="2200.01" y2="1367.12" style="stroke:#000000; stroke-width:0; stroke-opacity:1"/>
<line clip-path="url(#clip412)" x1="2242.6" y1="1393.77" x2="2242.6" y2="1369.77" style="stroke:#000000; stroke-width:0; stroke-opacity:1"/>
<line clip-path="url(#clip412)" x1="2246.4" y1="1393.77" x2="2246.4" y2="1369.77" style="stroke:#000000; stroke-width:0; stroke-opacity:1"/>
<line clip-path="url(#clip412)" x1="2288.99" y1="1393.77" x2="2288.99" y2="1369.77" style="stroke:#000000; stroke-width:0; stroke-opacity:1"/>
<line clip-path="url(#clip412)" x1="2292.79" y1="1393.77" x2="2292.79" y2="1369.77" style="stroke:#000000; stroke-width:0; stroke-opacity:1"/>
<polyline clip-path="url(#clip412)" style="stroke:#000000; stroke-linecap:round; stroke-linejoin:round; stroke-width:0; stroke-opacity:1; fill:none" points="295.987,91.1131 295.987,86.1857 "/>
<polyline clip-path="url(#clip412)" style="stroke:#000000; stroke-linecap:round; stroke-linejoin:round; stroke-width:0; stroke-opacity:1; fill:none" points="342.38,528.338 342.38,523.41 "/>
<polyline clip-path="url(#clip412)" style="stroke:#000000; stroke-linecap:round; stroke-linejoin:round; stroke-width:0; stroke-opacity:1; fill:none" points="388.773,753.575 388.773,748.647 "/>
<polyline clip-path="url(#clip412)" style="stroke:#000000; stroke-linecap:round; stroke-linejoin:round; stroke-width:0; stroke-opacity:1; fill:none" points="435.167,886.067 435.167,881.14 "/>
<polyline clip-path="url(#clip412)" style="stroke:#000000; stroke-linecap:round; stroke-linejoin:round; stroke-width:0; stroke-opacity:1; fill:none" points="481.56,981.462 481.56,976.534 "/>
<polyline clip-path="url(#clip412)" style="stroke:#000000; stroke-linecap:round; stroke-linejoin:round; stroke-width:0; stroke-opacity:1; fill:none" points="527.953,1045.06 527.953,1040.13 "/>
<polyline clip-path="url(#clip412)" style="stroke:#000000; stroke-linecap:round; stroke-linejoin:round; stroke-width:0; stroke-opacity:1; fill:none" points="620.739,1135.15 620.739,1130.23 "/>
<polyline clip-path="url(#clip412)" style="stroke:#000000; stroke-linecap:round; stroke-linejoin:round; stroke-width:0; stroke-opacity:1; fill:none" points="667.133,1166.95 667.133,1162.02 "/>
<polyline clip-path="url(#clip412)" style="stroke:#000000; stroke-linecap:round; stroke-linejoin:round; stroke-width:0; stroke-opacity:1; fill:none" points="713.526,1193.45 713.526,1188.52 "/>
<polyline clip-path="url(#clip412)" style="stroke:#000000; stroke-linecap:round; stroke-linejoin:round; stroke-width:0; stroke-opacity:1; fill:none" points="759.919,1214.65 759.919,1209.72 "/>
<polyline clip-path="url(#clip412)" style="stroke:#000000; stroke-linecap:round; stroke-linejoin:round; stroke-width:0; stroke-opacity:1; fill:none" points="806.312,1230.55 806.312,1225.62 "/>
<polyline clip-path="url(#clip412)" style="stroke:#000000; stroke-linecap:round; stroke-linejoin:round; stroke-width:0; stroke-opacity:1; fill:none" points="852.705,1243.8 852.705,1238.87 "/>
<polyline clip-path="url(#clip412)" style="stroke:#000000; stroke-linecap:round; stroke-linejoin:round; stroke-width:0; stroke-opacity:1; fill:none" points="899.099,1259.7 899.099,1254.77 "/>
<polyline clip-path="url(#clip412)" style="stroke:#000000; stroke-linecap:round; stroke-linejoin:round; stroke-width:0; stroke-opacity:1; fill:none" points="945.492,1272.94 945.492,1268.02 "/>
<polyline clip-path="url(#clip412)" style="stroke:#000000; stroke-linecap:round; stroke-linejoin:round; stroke-width:0; stroke-opacity:1; fill:none" points="991.885,1283.54 991.885,1278.62 "/>
<polyline clip-path="url(#clip412)" style="stroke:#000000; stroke-linecap:round; stroke-linejoin:round; stroke-width:0; stroke-opacity:1; fill:none" points="1038.28,1288.84 1038.28,1283.92 "/>
<polyline clip-path="url(#clip412)" style="stroke:#000000; stroke-linecap:round; stroke-linejoin:round; stroke-width:0; stroke-opacity:1; fill:none" points="1084.67,1294.14 1084.67,1289.22 "/>
<polyline clip-path="url(#clip412)" style="stroke:#000000; stroke-linecap:round; stroke-linejoin:round; stroke-width:0; stroke-opacity:1; fill:none" points="1131.06,1307.39 1131.06,1302.47 "/>
<polyline clip-path="url(#clip412)" style="stroke:#000000; stroke-linecap:round; stroke-linejoin:round; stroke-width:0; stroke-opacity:1; fill:none" points="1177.46,1312.69 1177.46,1307.76 "/>
<polyline clip-path="url(#clip412)" style="stroke:#000000; stroke-linecap:round; stroke-linejoin:round; stroke-width:0; stroke-opacity:1; fill:none" points="1223.85,1320.64 1223.85,1315.71 "/>
<polyline clip-path="url(#clip412)" style="stroke:#000000; stroke-linecap:round; stroke-linejoin:round; stroke-width:0; stroke-opacity:1; fill:none" points="1270.24,1320.64 1270.24,1315.71 "/>
<polyline clip-path="url(#clip412)" style="stroke:#000000; stroke-linecap:round; stroke-linejoin:round; stroke-width:0; stroke-opacity:1; fill:none" points="1316.64,1331.24 1316.64,1326.31 "/>
<polyline clip-path="url(#clip412)" style="stroke:#000000; stroke-linecap:round; stroke-linejoin:round; stroke-width:0; stroke-opacity:1; fill:none" points="1363.03,1336.54 1363.03,1331.61 "/>
<polyline clip-path="url(#clip412)" style="stroke:#000000; stroke-linecap:round; stroke-linejoin:round; stroke-width:0; stroke-opacity:1; fill:none" points="1409.42,1336.54 1409.42,1331.61 "/>
<polyline clip-path="url(#clip412)" style="stroke:#000000; stroke-linecap:round; stroke-linejoin:round; stroke-width:0; stroke-opacity:1; fill:none" points="1455.82,1347.14 1455.82,1342.21 "/>
<polyline clip-path="url(#clip412)" style="stroke:#000000; stroke-linecap:round; stroke-linejoin:round; stroke-width:0; stroke-opacity:1; fill:none" points="1502.21,1347.14 1502.21,1342.21 "/>
<polyline clip-path="url(#clip412)" style="stroke:#000000; stroke-linecap:round; stroke-linejoin:round; stroke-width:0; stroke-opacity:1; fill:none" points="1548.6,1352.44 1548.6,1347.51 "/>
<polyline clip-path="url(#clip412)" style="stroke:#000000; stroke-linecap:round; stroke-linejoin:round; stroke-width:0; stroke-opacity:1; fill:none" points="1595,1352.44 1595,1347.51 "/>
<polyline clip-path="url(#clip412)" style="stroke:#000000; stroke-linecap:round; stroke-linejoin:round; stroke-width:0; stroke-opacity:1; fill:none" points="1641.39,1357.74 1641.39,1352.81 "/>
<polyline clip-path="url(#clip412)" style="stroke:#000000; stroke-linecap:round; stroke-linejoin:round; stroke-width:0; stroke-opacity:1; fill:none" points="1687.78,1363.04 1687.78,1358.11 "/>
<polyline clip-path="url(#clip412)" style="stroke:#000000; stroke-linecap:round; stroke-linejoin:round; stroke-width:0; stroke-opacity:1; fill:none" points="1734.18,1363.04 1734.18,1358.11 "/>
<polyline clip-path="url(#clip412)" style="stroke:#000000; stroke-linecap:round; stroke-linejoin:round; stroke-width:0; stroke-opacity:1; fill:none" points="1780.57,1363.04 1780.57,1358.11 "/>
<polyline clip-path="url(#clip412)" style="stroke:#000000; stroke-linecap:round; stroke-linejoin:round; stroke-width:0; stroke-opacity:1; fill:none" points="1826.96,1368.34 1826.96,1363.41 "/>
<polyline clip-path="url(#clip412)" style="stroke:#000000; stroke-linecap:round; stroke-linejoin:round; stroke-width:0; stroke-opacity:1; fill:none" points="1873.36,1368.34 1873.36,1363.41 "/>
<polyline clip-path="url(#clip412)" style="stroke:#000000; stroke-linecap:round; stroke-linejoin:round; stroke-width:0; stroke-opacity:1; fill:none" points="1919.75,1370.99 1919.75,1366.06 "/>
<polyline clip-path="url(#clip412)" style="stroke:#000000; stroke-linecap:round; stroke-linejoin:round; stroke-width:0; stroke-opacity:1; fill:none" points="1966.14,1373.64 1966.14,1368.71 "/>
<polyline clip-path="url(#clip412)" style="stroke:#000000; stroke-linecap:round; stroke-linejoin:round; stroke-width:0; stroke-opacity:1; fill:none" points="2012.54,1373.64 2012.54,1368.71 "/>
<polyline clip-path="url(#clip412)" style="stroke:#000000; stroke-linecap:round; stroke-linejoin:round; stroke-width:0; stroke-opacity:1; fill:none" points="2058.93,1378.94 2058.93,1374.01 "/>
<polyline clip-path="url(#clip412)" style="stroke:#000000; stroke-linecap:round; stroke-linejoin:round; stroke-width:0; stroke-opacity:1; fill:none" points="2105.32,1378.94 2105.32,1374.01 "/>
<polyline clip-path="url(#clip412)" style="stroke:#000000; stroke-linecap:round; stroke-linejoin:round; stroke-width:0; stroke-opacity:1; fill:none" points="2151.71,1378.94 2151.71,1374.01 "/>
<polyline clip-path="url(#clip412)" style="stroke:#000000; stroke-linecap:round; stroke-linejoin:round; stroke-width:0; stroke-opacity:1; fill:none" points="2198.11,1381.59 2198.11,1376.66 "/>
<polyline clip-path="url(#clip412)" style="stroke:#000000; stroke-linecap:round; stroke-linejoin:round; stroke-width:0; stroke-opacity:1; fill:none" points="2244.5,1384.24 2244.5,1379.31 "/>
<polyline clip-path="url(#clip412)" style="stroke:#000000; stroke-linecap:round; stroke-linejoin:round; stroke-width:0; stroke-opacity:1; fill:none" points="2290.89,1384.24 2290.89,1379.31 "/>
<line clip-path="url(#clip412)" x1="307.987" y1="91.1131" x2="283.987" y2="91.1131" style="stroke:#000000; stroke-width:0; stroke-opacity:1"/>
<line clip-path="url(#clip412)" x1="307.987" y1="86.1857" x2="283.987" y2="86.1857" style="stroke:#000000; stroke-width:0; stroke-opacity:1"/>
<line clip-path="url(#clip412)" x1="354.38" y1="528.338" x2="330.38" y2="528.338" style="stroke:#000000; stroke-width:0; stroke-opacity:1"/>
<line clip-path="url(#clip412)" x1="354.38" y1="523.41" x2="330.38" y2="523.41" style="stroke:#000000; stroke-width:0; stroke-opacity:1"/>
<line clip-path="url(#clip412)" x1="400.773" y1="753.575" x2="376.773" y2="753.575" style="stroke:#000000; stroke-width:0; stroke-opacity:1"/>
<line clip-path="url(#clip412)" x1="400.773" y1="748.647" x2="376.773" y2="748.647" style="stroke:#000000; stroke-width:0; stroke-opacity:1"/>
<line clip-path="url(#clip412)" x1="447.167" y1="886.067" x2="423.167" y2="886.067" style="stroke:#000000; stroke-width:0; stroke-opacity:1"/>
<line clip-path="url(#clip412)" x1="447.167" y1="881.14" x2="423.167" y2="881.14" style="stroke:#000000; stroke-width:0; stroke-opacity:1"/>
<line clip-path="url(#clip412)" x1="493.56" y1="981.462" x2="469.56" y2="981.462" style="stroke:#000000; stroke-width:0; stroke-opacity:1"/>
<line clip-path="url(#clip412)" x1="493.56" y1="976.534" x2="469.56" y2="976.534" style="stroke:#000000; stroke-width:0; stroke-opacity:1"/>
<line clip-path="url(#clip412)" x1="539.953" y1="1045.06" x2="515.953" y2="1045.06" style="stroke:#000000; stroke-width:0; stroke-opacity:1"/>
<line clip-path="url(#clip412)" x1="539.953" y1="1040.13" x2="515.953" y2="1040.13" style="stroke:#000000; stroke-width:0; stroke-opacity:1"/>
<line clip-path="url(#clip412)" x1="632.739" y1="1135.15" x2="608.739" y2="1135.15" style="stroke:#000000; stroke-width:0; stroke-opacity:1"/>
<line clip-path="url(#clip412)" x1="632.739" y1="1130.23" x2="608.739" y2="1130.23" style="stroke:#000000; stroke-width:0; stroke-opacity:1"/>
<line clip-path="url(#clip412)" x1="679.133" y1="1166.95" x2="655.133" y2="1166.95" style="stroke:#000000; stroke-width:0; stroke-opacity:1"/>
<line clip-path="url(#clip412)" x1="679.133" y1="1162.02" x2="655.133" y2="1162.02" style="stroke:#000000; stroke-width:0; stroke-opacity:1"/>
<line clip-path="url(#clip412)" x1="725.526" y1="1193.45" x2="701.526" y2="1193.45" style="stroke:#000000; stroke-width:0; stroke-opacity:1"/>
<line clip-path="url(#clip412)" x1="725.526" y1="1188.52" x2="701.526" y2="1188.52" style="stroke:#000000; stroke-width:0; stroke-opacity:1"/>
<line clip-path="url(#clip412)" x1="771.919" y1="1214.65" x2="747.919" y2="1214.65" style="stroke:#000000; stroke-width:0; stroke-opacity:1"/>
<line clip-path="url(#clip412)" x1="771.919" y1="1209.72" x2="747.919" y2="1209.72" style="stroke:#000000; stroke-width:0; stroke-opacity:1"/>
<line clip-path="url(#clip412)" x1="818.312" y1="1230.55" x2="794.312" y2="1230.55" style="stroke:#000000; stroke-width:0; stroke-opacity:1"/>
<line clip-path="url(#clip412)" x1="818.312" y1="1225.62" x2="794.312" y2="1225.62" style="stroke:#000000; stroke-width:0; stroke-opacity:1"/>
<line clip-path="url(#clip412)" x1="864.705" y1="1243.8" x2="840.705" y2="1243.8" style="stroke:#000000; stroke-width:0; stroke-opacity:1"/>
<line clip-path="url(#clip412)" x1="864.705" y1="1238.87" x2="840.705" y2="1238.87" style="stroke:#000000; stroke-width:0; stroke-opacity:1"/>
<line clip-path="url(#clip412)" x1="911.099" y1="1259.7" x2="887.099" y2="1259.7" style="stroke:#000000; stroke-width:0; stroke-opacity:1"/>
<line clip-path="url(#clip412)" x1="911.099" y1="1254.77" x2="887.099" y2="1254.77" style="stroke:#000000; stroke-width:0; stroke-opacity:1"/>
<line clip-path="url(#clip412)" x1="957.492" y1="1272.94" x2="933.492" y2="1272.94" style="stroke:#000000; stroke-width:0; stroke-opacity:1"/>
<line clip-path="url(#clip412)" x1="957.492" y1="1268.02" x2="933.492" y2="1268.02" style="stroke:#000000; stroke-width:0; stroke-opacity:1"/>
<line clip-path="url(#clip412)" x1="1003.88" y1="1283.54" x2="979.885" y2="1283.54" style="stroke:#000000; stroke-width:0; stroke-opacity:1"/>
<line clip-path="url(#clip412)" x1="1003.88" y1="1278.62" x2="979.885" y2="1278.62" style="stroke:#000000; stroke-width:0; stroke-opacity:1"/>
<line clip-path="url(#clip412)" x1="1050.28" y1="1288.84" x2="1026.28" y2="1288.84" style="stroke:#000000; stroke-width:0; stroke-opacity:1"/>
<line clip-path="url(#clip412)" x1="1050.28" y1="1283.92" x2="1026.28" y2="1283.92" style="stroke:#000000; stroke-width:0; stroke-opacity:1"/>
<line clip-path="url(#clip412)" x1="1096.67" y1="1294.14" x2="1072.67" y2="1294.14" style="stroke:#000000; stroke-width:0; stroke-opacity:1"/>
<line clip-path="url(#clip412)" x1="1096.67" y1="1289.22" x2="1072.67" y2="1289.22" style="stroke:#000000; stroke-width:0; stroke-opacity:1"/>
<line clip-path="url(#clip412)" x1="1143.06" y1="1307.39" x2="1119.06" y2="1307.39" style="stroke:#000000; stroke-width:0; stroke-opacity:1"/>
<line clip-path="url(#clip412)" x1="1143.06" y1="1302.47" x2="1119.06" y2="1302.47" style="stroke:#000000; stroke-width:0; stroke-opacity:1"/>
<line clip-path="url(#clip412)" x1="1189.46" y1="1312.69" x2="1165.46" y2="1312.69" style="stroke:#000000; stroke-width:0; stroke-opacity:1"/>
<line clip-path="url(#clip412)" x1="1189.46" y1="1307.76" x2="1165.46" y2="1307.76" style="stroke:#000000; stroke-width:0; stroke-opacity:1"/>
<line clip-path="url(#clip412)" x1="1235.85" y1="1320.64" x2="1211.85" y2="1320.64" style="stroke:#000000; stroke-width:0; stroke-opacity:1"/>
<line clip-path="url(#clip412)" x1="1235.85" y1="1315.71" x2="1211.85" y2="1315.71" style="stroke:#000000; stroke-width:0; stroke-opacity:1"/>
<line clip-path="url(#clip412)" x1="1282.24" y1="1320.64" x2="1258.24" y2="1320.64" style="stroke:#000000; stroke-width:0; stroke-opacity:1"/>
<line clip-path="url(#clip412)" x1="1282.24" y1="1315.71" x2="1258.24" y2="1315.71" style="stroke:#000000; stroke-width:0; stroke-opacity:1"/>
<line clip-path="url(#clip412)" x1="1328.64" y1="1331.24" x2="1304.64" y2="1331.24" style="stroke:#000000; stroke-width:0; stroke-opacity:1"/>
<line clip-path="url(#clip412)" x1="1328.64" y1="1326.31" x2="1304.64" y2="1326.31" style="stroke:#000000; stroke-width:0; stroke-opacity:1"/>
<line clip-path="url(#clip412)" x1="1375.03" y1="1336.54" x2="1351.03" y2="1336.54" style="stroke:#000000; stroke-width:0; stroke-opacity:1"/>
<line clip-path="url(#clip412)" x1="1375.03" y1="1331.61" x2="1351.03" y2="1331.61" style="stroke:#000000; stroke-width:0; stroke-opacity:1"/>
<line clip-path="url(#clip412)" x1="1421.42" y1="1336.54" x2="1397.42" y2="1336.54" style="stroke:#000000; stroke-width:0; stroke-opacity:1"/>
<line clip-path="url(#clip412)" x1="1421.42" y1="1331.61" x2="1397.42" y2="1331.61" style="stroke:#000000; stroke-width:0; stroke-opacity:1"/>
<line clip-path="url(#clip412)" x1="1467.82" y1="1347.14" x2="1443.82" y2="1347.14" style="stroke:#000000; stroke-width:0; stroke-opacity:1"/>
<line clip-path="url(#clip412)" x1="1467.82" y1="1342.21" x2="1443.82" y2="1342.21" style="stroke:#000000; stroke-width:0; stroke-opacity:1"/>
<line clip-path="url(#clip412)" x1="1514.21" y1="1347.14" x2="1490.21" y2="1347.14" style="stroke:#000000; stroke-width:0; stroke-opacity:1"/>
<line clip-path="url(#clip412)" x1="1514.21" y1="1342.21" x2="1490.21" y2="1342.21" style="stroke:#000000; stroke-width:0; stroke-opacity:1"/>
<line clip-path="url(#clip412)" x1="1560.6" y1="1352.44" x2="1536.6" y2="1352.44" style="stroke:#000000; stroke-width:0; stroke-opacity:1"/>
<line clip-path="url(#clip412)" x1="1560.6" y1="1347.51" x2="1536.6" y2="1347.51" style="stroke:#000000; stroke-width:0; stroke-opacity:1"/>
<line clip-path="url(#clip412)" x1="1607" y1="1352.44" x2="1583" y2="1352.44" style="stroke:#000000; stroke-width:0; stroke-opacity:1"/>
<line clip-path="url(#clip412)" x1="1607" y1="1347.51" x2="1583" y2="1347.51" style="stroke:#000000; stroke-width:0; stroke-opacity:1"/>
<line clip-path="url(#clip412)" x1="1653.39" y1="1357.74" x2="1629.39" y2="1357.74" style="stroke:#000000; stroke-width:0; stroke-opacity:1"/>
<line clip-path="url(#clip412)" x1="1653.39" y1="1352.81" x2="1629.39" y2="1352.81" style="stroke:#000000; stroke-width:0; stroke-opacity:1"/>
<line clip-path="url(#clip412)" x1="1699.78" y1="1363.04" x2="1675.78" y2="1363.04" style="stroke:#000000; stroke-width:0; stroke-opacity:1"/>
<line clip-path="url(#clip412)" x1="1699.78" y1="1358.11" x2="1675.78" y2="1358.11" style="stroke:#000000; stroke-width:0; stroke-opacity:1"/>
<line clip-path="url(#clip412)" x1="1746.18" y1="1363.04" x2="1722.18" y2="1363.04" style="stroke:#000000; stroke-width:0; stroke-opacity:1"/>
<line clip-path="url(#clip412)" x1="1746.18" y1="1358.11" x2="1722.18" y2="1358.11" style="stroke:#000000; stroke-width:0; stroke-opacity:1"/>
<line clip-path="url(#clip412)" x1="1792.57" y1="1363.04" x2="1768.57" y2="1363.04" style="stroke:#000000; stroke-width:0; stroke-opacity:1"/>
<line clip-path="url(#clip412)" x1="1792.57" y1="1358.11" x2="1768.57" y2="1358.11" style="stroke:#000000; stroke-width:0; stroke-opacity:1"/>
<line clip-path="url(#clip412)" x1="1838.96" y1="1368.34" x2="1814.96" y2="1368.34" style="stroke:#000000; stroke-width:0; stroke-opacity:1"/>
<line clip-path="url(#clip412)" x1="1838.96" y1="1363.41" x2="1814.96" y2="1363.41" style="stroke:#000000; stroke-width:0; stroke-opacity:1"/>
<line clip-path="url(#clip412)" x1="1885.36" y1="1368.34" x2="1861.36" y2="1368.34" style="stroke:#000000; stroke-width:0; stroke-opacity:1"/>
<line clip-path="url(#clip412)" x1="1885.36" y1="1363.41" x2="1861.36" y2="1363.41" style="stroke:#000000; stroke-width:0; stroke-opacity:1"/>
<line clip-path="url(#clip412)" x1="1931.75" y1="1370.99" x2="1907.75" y2="1370.99" style="stroke:#000000; stroke-width:0; stroke-opacity:1"/>
<line clip-path="url(#clip412)" x1="1931.75" y1="1366.06" x2="1907.75" y2="1366.06" style="stroke:#000000; stroke-width:0; stroke-opacity:1"/>
<line clip-path="url(#clip412)" x1="1978.14" y1="1373.64" x2="1954.14" y2="1373.64" style="stroke:#000000; stroke-width:0; stroke-opacity:1"/>
<line clip-path="url(#clip412)" x1="1978.14" y1="1368.71" x2="1954.14" y2="1368.71" style="stroke:#000000; stroke-width:0; stroke-opacity:1"/>
<line clip-path="url(#clip412)" x1="2024.54" y1="1373.64" x2="2000.54" y2="1373.64" style="stroke:#000000; stroke-width:0; stroke-opacity:1"/>
<line clip-path="url(#clip412)" x1="2024.54" y1="1368.71" x2="2000.54" y2="1368.71" style="stroke:#000000; stroke-width:0; stroke-opacity:1"/>
<line clip-path="url(#clip412)" x1="2070.93" y1="1378.94" x2="2046.93" y2="1378.94" style="stroke:#000000; stroke-width:0; stroke-opacity:1"/>
<line clip-path="url(#clip412)" x1="2070.93" y1="1374.01" x2="2046.93" y2="1374.01" style="stroke:#000000; stroke-width:0; stroke-opacity:1"/>
<line clip-path="url(#clip412)" x1="2117.32" y1="1378.94" x2="2093.32" y2="1378.94" style="stroke:#000000; stroke-width:0; stroke-opacity:1"/>
<line clip-path="url(#clip412)" x1="2117.32" y1="1374.01" x2="2093.32" y2="1374.01" style="stroke:#000000; stroke-width:0; stroke-opacity:1"/>
<line clip-path="url(#clip412)" x1="2163.71" y1="1378.94" x2="2139.71" y2="1378.94" style="stroke:#000000; stroke-width:0; stroke-opacity:1"/>
<line clip-path="url(#clip412)" x1="2163.71" y1="1374.01" x2="2139.71" y2="1374.01" style="stroke:#000000; stroke-width:0; stroke-opacity:1"/>
<line clip-path="url(#clip412)" x1="2210.11" y1="1381.59" x2="2186.11" y2="1381.59" style="stroke:#000000; stroke-width:0; stroke-opacity:1"/>
<line clip-path="url(#clip412)" x1="2210.11" y1="1376.66" x2="2186.11" y2="1376.66" style="stroke:#000000; stroke-width:0; stroke-opacity:1"/>
<line clip-path="url(#clip412)" x1="2256.5" y1="1384.24" x2="2232.5" y2="1384.24" style="stroke:#000000; stroke-width:0; stroke-opacity:1"/>
<line clip-path="url(#clip412)" x1="2256.5" y1="1379.31" x2="2232.5" y2="1379.31" style="stroke:#000000; stroke-width:0; stroke-opacity:1"/>
<line clip-path="url(#clip412)" x1="2302.89" y1="1384.24" x2="2278.89" y2="1384.24" style="stroke:#000000; stroke-width:0; stroke-opacity:1"/>
<line clip-path="url(#clip412)" x1="2302.89" y1="1379.31" x2="2278.89" y2="1379.31" style="stroke:#000000; stroke-width:0; stroke-opacity:1"/>
<circle clip-path="url(#clip412)" cx="295.987" cy="88.6494" r="10.8" fill="#000000" fill-rule="evenodd" fill-opacity="1" stroke="none"/>
<circle clip-path="url(#clip412)" cx="342.38" cy="525.874" r="10.8" fill="#000000" fill-rule="evenodd" fill-opacity="1" stroke="none"/>
<circle clip-path="url(#clip412)" cx="388.773" cy="751.111" r="10.8" fill="#000000" fill-rule="evenodd" fill-opacity="1" stroke="none"/>
<circle clip-path="url(#clip412)" cx="435.167" cy="883.603" r="10.8" fill="#000000" fill-rule="evenodd" fill-opacity="1" stroke="none"/>
<circle clip-path="url(#clip412)" cx="481.56" cy="978.998" r="10.8" fill="#000000" fill-rule="evenodd" fill-opacity="1" stroke="none"/>
<circle clip-path="url(#clip412)" cx="527.953" cy="1042.59" r="10.8" fill="#000000" fill-rule="evenodd" fill-opacity="1" stroke="none"/>
<circle clip-path="url(#clip412)" cx="620.739" cy="1132.69" r="10.8" fill="#000000" fill-rule="evenodd" fill-opacity="1" stroke="none"/>
<circle clip-path="url(#clip412)" cx="667.133" cy="1164.49" r="10.8" fill="#000000" fill-rule="evenodd" fill-opacity="1" stroke="none"/>
<circle clip-path="url(#clip412)" cx="713.526" cy="1190.99" r="10.8" fill="#000000" fill-rule="evenodd" fill-opacity="1" stroke="none"/>
<circle clip-path="url(#clip412)" cx="759.919" cy="1212.18" r="10.8" fill="#000000" fill-rule="evenodd" fill-opacity="1" stroke="none"/>
<circle clip-path="url(#clip412)" cx="806.312" cy="1228.08" r="10.8" fill="#000000" fill-rule="evenodd" fill-opacity="1" stroke="none"/>
<circle clip-path="url(#clip412)" cx="852.705" cy="1241.33" r="10.8" fill="#000000" fill-rule="evenodd" fill-opacity="1" stroke="none"/>
<circle clip-path="url(#clip412)" cx="899.099" cy="1257.23" r="10.8" fill="#000000" fill-rule="evenodd" fill-opacity="1" stroke="none"/>
<circle clip-path="url(#clip412)" cx="945.492" cy="1270.48" r="10.8" fill="#000000" fill-rule="evenodd" fill-opacity="1" stroke="none"/>
<circle clip-path="url(#clip412)" cx="991.885" cy="1281.08" r="10.8" fill="#000000" fill-rule="evenodd" fill-opacity="1" stroke="none"/>
<circle clip-path="url(#clip412)" cx="1038.28" cy="1286.38" r="10.8" fill="#000000" fill-rule="evenodd" fill-opacity="1" stroke="none"/>
<circle clip-path="url(#clip412)" cx="1084.67" cy="1291.68" r="10.8" fill="#000000" fill-rule="evenodd" fill-opacity="1" stroke="none"/>
<circle clip-path="url(#clip412)" cx="1131.06" cy="1304.93" r="10.8" fill="#000000" fill-rule="evenodd" fill-opacity="1" stroke="none"/>
<circle clip-path="url(#clip412)" cx="1177.46" cy="1310.23" r="10.8" fill="#000000" fill-rule="evenodd" fill-opacity="1" stroke="none"/>
<circle clip-path="url(#clip412)" cx="1223.85" cy="1318.18" r="10.8" fill="#000000" fill-rule="evenodd" fill-opacity="1" stroke="none"/>
<circle clip-path="url(#clip412)" cx="1270.24" cy="1318.18" r="10.8" fill="#000000" fill-rule="evenodd" fill-opacity="1" stroke="none"/>
<circle clip-path="url(#clip412)" cx="1316.64" cy="1328.78" r="10.8" fill="#000000" fill-rule="evenodd" fill-opacity="1" stroke="none"/>
<circle clip-path="url(#clip412)" cx="1363.03" cy="1334.08" r="10.8" fill="#000000" fill-rule="evenodd" fill-opacity="1" stroke="none"/>
<circle clip-path="url(#clip412)" cx="1409.42" cy="1334.08" r="10.8" fill="#000000" fill-rule="evenodd" fill-opacity="1" stroke="none"/>
<circle clip-path="url(#clip412)" cx="1455.82" cy="1344.68" r="10.8" fill="#000000" fill-rule="evenodd" fill-opacity="1" stroke="none"/>
<circle clip-path="url(#clip412)" cx="1502.21" cy="1344.68" r="10.8" fill="#000000" fill-rule="evenodd" fill-opacity="1" stroke="none"/>
<circle clip-path="url(#clip412)" cx="1548.6" cy="1349.98" r="10.8" fill="#000000" fill-rule="evenodd" fill-opacity="1" stroke="none"/>
<circle clip-path="url(#clip412)" cx="1595" cy="1349.98" r="10.8" fill="#000000" fill-rule="evenodd" fill-opacity="1" stroke="none"/>
<circle clip-path="url(#clip412)" cx="1641.39" cy="1355.28" r="10.8" fill="#000000" fill-rule="evenodd" fill-opacity="1" stroke="none"/>
<circle clip-path="url(#clip412)" cx="1687.78" cy="1360.58" r="10.8" fill="#000000" fill-rule="evenodd" fill-opacity="1" stroke="none"/>
<circle clip-path="url(#clip412)" cx="1734.18" cy="1360.58" r="10.8" fill="#000000" fill-rule="evenodd" fill-opacity="1" stroke="none"/>
<circle clip-path="url(#clip412)" cx="1780.57" cy="1360.58" r="10.8" fill="#000000" fill-rule="evenodd" fill-opacity="1" stroke="none"/>
<circle clip-path="url(#clip412)" cx="1826.96" cy="1365.88" r="10.8" fill="#000000" fill-rule="evenodd" fill-opacity="1" stroke="none"/>
<circle clip-path="url(#clip412)" cx="1873.36" cy="1365.88" r="10.8" fill="#000000" fill-rule="evenodd" fill-opacity="1" stroke="none"/>
<circle clip-path="url(#clip412)" cx="1919.75" cy="1368.53" r="10.8" fill="#000000" fill-rule="evenodd" fill-opacity="1" stroke="none"/>
<circle clip-path="url(#clip412)" cx="1966.14" cy="1371.18" r="10.8" fill="#000000" fill-rule="evenodd" fill-opacity="1" stroke="none"/>
<circle clip-path="url(#clip412)" cx="2012.54" cy="1371.18" r="10.8" fill="#000000" fill-rule="evenodd" fill-opacity="1" stroke="none"/>
<circle clip-path="url(#clip412)" cx="2058.93" cy="1376.47" r="10.8" fill="#000000" fill-rule="evenodd" fill-opacity="1" stroke="none"/>
<circle clip-path="url(#clip412)" cx="2105.32" cy="1376.47" r="10.8" fill="#000000" fill-rule="evenodd" fill-opacity="1" stroke="none"/>
<circle clip-path="url(#clip412)" cx="2151.71" cy="1376.47" r="10.8" fill="#000000" fill-rule="evenodd" fill-opacity="1" stroke="none"/>
<circle clip-path="url(#clip412)" cx="2198.11" cy="1379.12" r="10.8" fill="#000000" fill-rule="evenodd" fill-opacity="1" stroke="none"/>
<circle clip-path="url(#clip412)" cx="2244.5" cy="1381.77" r="10.8" fill="#000000" fill-rule="evenodd" fill-opacity="1" stroke="none"/>
<circle clip-path="url(#clip412)" cx="2290.89" cy="1381.77" r="10.8" fill="#000000" fill-rule="evenodd" fill-opacity="1" stroke="none"/>
</svg>
