<?xml version="1.0" encoding="utf-8"?>
<svg xmlns="http://www.w3.org/2000/svg" xmlns:xlink="http://www.w3.org/1999/xlink" width="600" height="400" viewBox="0 0 2400 1600">
<defs>
  <clipPath id="clip250">
    <rect x="0" y="0" width="2400" height="1600"/>
  </clipPath>
</defs>
<path clip-path="url(#clip250)" d="M0 1600 L2400 1600 L2400 0 L0 0  Z" fill="#ffffff" fill-rule="evenodd" fill-opacity="1"/>
<defs>
  <clipPath id="clip251">
    <rect x="480" y="0" width="1681" height="1600"/>
  </clipPath>
</defs>
<path clip-path="url(#clip250)" d="M280.19 1423.18 L2352.76 1423.18 L2352.76 47.2441 L280.19 47.2441  Z" fill="#ffffff" fill-rule="evenodd" fill-opacity="1"/>
<defs>
  <clipPath id="clip252">
    <rect x="280" y="47" width="2074" height="1377"/>
  </clipPath>
</defs>
<polyline clip-path="url(#clip252)" style="stroke:#000000; stroke-linecap:round; stroke-linejoin:round; stroke-width:2; stroke-opacity:0.1; fill:none" points="358.865,1423.18 358.865,47.2441 "/>
<polyline clip-path="url(#clip252)" style="stroke:#000000; stroke-linecap:round; stroke-linejoin:round; stroke-width:2; stroke-opacity:0.1; fill:none" points="804.188,1423.18 804.188,47.2441 "/>
<polyline clip-path="url(#clip252)" style="stroke:#000000; stroke-linecap:round; stroke-linejoin:round; stroke-width:2; stroke-opacity:0.1; fill:none" points="1249.51,1423.18 1249.51,47.2441 "/>
<polyline clip-path="url(#clip252)" style="stroke:#000000; stroke-linecap:round; stroke-linejoin:round; stroke-width:2; stroke-opacity:0.1; fill:none" points="1694.83,1423.18 1694.83,47.2441 "/>
<polyline clip-path="url(#clip252)" style="stroke:#000000; stroke-linecap:round; stroke-linejoin:round; stroke-width:2; stroke-opacity:0.1; fill:none" points="2140.16,1423.18 2140.16,47.2441 "/>
<polyline clip-path="url(#clip252)" style="stroke:#000000; stroke-linecap:round; stroke-linejoin:round; stroke-width:2; stroke-opacity:0.1; fill:none" points="280.19,1239.83 2352.76,1239.83 "/>
<polyline clip-path="url(#clip252)" style="stroke:#000000; stroke-linecap:round; stroke-linejoin:round; stroke-width:2; stroke-opacity:0.1; fill:none" points="280.19,940.378 2352.76,940.378 "/>
<polyline clip-path="url(#clip252)" style="stroke:#000000; stroke-linecap:round; stroke-linejoin:round; stroke-width:2; stroke-opacity:0.1; fill:none" points="280.19,640.926 2352.76,640.926 "/>
<polyline clip-path="url(#clip252)" style="stroke:#000000; stroke-linecap:round; stroke-linejoin:round; stroke-width:2; stroke-opacity:0.1; fill:none" points="280.19,341.474 2352.76,341.474 "/>
<polyline clip-path="url(#clip250)" style="stroke:#000000; stroke-linecap:round; stroke-linejoin:round; stroke-width:4; stroke-opacity:1; fill:none" points="280.19,1423.18 2352.76,1423.18 "/>
<polyline clip-path="url(#clip250)" style="stroke:#000000; stroke-linecap:round; stroke-linejoin:round; stroke-width:4; stroke-opacity:1; fill:none" points="358.865,1423.18 358.865,1404.28 "/>
<polyline clip-path="url(#clip250)" style="stroke:#000000; stroke-linecap:round; stroke-linejoin:round; stroke-width:4; stroke-opacity:1; fill:none" points="804.188,1423.18 804.188,1404.28 "/>
<polyline clip-path="url(#clip250)" style="stroke:#000000; stroke-linecap:round; stroke-linejoin:round; stroke-width:4; stroke-opacity:1; fill:none" points="1249.51,1423.18 1249.51,1404.28 "/>
<polyline clip-path="url(#clip250)" style="stroke:#000000; stroke-linecap:round; stroke-linejoin:round; stroke-width:4; stroke-opacity:1; fill:none" points="1694.83,1423.18 1694.83,1404.28 "/>
<polyline clip-path="url(#clip250)" style="stroke:#000000; stroke-linecap:round; stroke-linejoin:round; stroke-width:4; stroke-opacity:1; fill:none" points="2140.16,1423.18 2140.16,1404.28 "/>
<path clip-path="url(#clip250)" d="M306.886 1454.1 Q303.275 1454.1 301.447 1457.66 Q299.641 1461.2 299.641 1468.33 Q299.641 1475.44 301.447 1479.01 Q303.275 1482.55 306.886 1482.55 Q310.521 1482.55 312.326 1479.01 Q314.155 1475.44 314.155 1468.33 Q314.155 1461.2 312.326 1457.66 Q310.521 1454.1 306.886 1454.1 M306.886 1450.39 Q312.696 1450.39 315.752 1455 Q318.831 1459.58 318.831 1468.33 Q318.831 1477.06 315.752 1481.67 Q312.696 1486.25 306.886 1486.25 Q301.076 1486.25 297.997 1481.67 Q294.942 1477.06 294.942 1468.33 Q294.942 1459.58 297.997 1455 Q301.076 1450.39 306.886 1450.39 Z" fill="#000000" fill-rule="nonzero" fill-opacity="1" /><path clip-path="url(#clip250)" d="M327.048 1479.7 L331.933 1479.7 L331.933 1485.58 L327.048 1485.58 L327.048 1479.7 Z" fill="#000000" fill-rule="nonzero" fill-opacity="1" /><path clip-path="url(#clip250)" d="M352.118 1454.1 Q348.506 1454.1 346.678 1457.66 Q344.872 1461.2 344.872 1468.33 Q344.872 1475.44 346.678 1479.01 Q348.506 1482.55 352.118 1482.55 Q355.752 1482.55 357.557 1479.01 Q359.386 1475.44 359.386 1468.33 Q359.386 1461.2 357.557 1457.66 Q355.752 1454.1 352.118 1454.1 M352.118 1450.39 Q357.928 1450.39 360.983 1455 Q364.062 1459.58 364.062 1468.33 Q364.062 1477.06 360.983 1481.67 Q357.928 1486.25 352.118 1486.25 Q346.307 1486.25 343.229 1481.67 Q340.173 1477.06 340.173 1468.33 Q340.173 1459.58 343.229 1455 Q346.307 1450.39 352.118 1450.39 Z" fill="#000000" fill-rule="nonzero" fill-opacity="1" /><path clip-path="url(#clip250)" d="M382.279 1454.1 Q378.668 1454.1 376.84 1457.66 Q375.034 1461.2 375.034 1468.33 Q375.034 1475.44 376.84 1479.01 Q378.668 1482.55 382.279 1482.55 Q385.914 1482.55 387.719 1479.01 Q389.548 1475.44 389.548 1468.33 Q389.548 1461.2 387.719 1457.66 Q385.914 1454.1 382.279 1454.1 M382.279 1450.39 Q388.09 1450.39 391.145 1455 Q394.224 1459.58 394.224 1468.33 Q394.224 1477.06 391.145 1481.67 Q388.09 1486.25 382.279 1486.25 Q376.469 1486.25 373.391 1481.67 Q370.335 1477.06 370.335 1468.33 Q370.335 1459.58 373.391 1455 Q376.469 1450.39 382.279 1450.39 Z" fill="#000000" fill-rule="nonzero" fill-opacity="1" /><path clip-path="url(#clip250)" d="M406.469 1481.64 L422.788 1481.64 L422.788 1485.58 L400.844 1485.58 L400.844 1481.64 Q403.506 1478.89 408.09 1474.26 Q412.696 1469.61 413.877 1468.27 Q416.122 1465.74 417.001 1464.01 Q417.904 1462.25 417.904 1460.56 Q417.904 1457.8 415.96 1456.07 Q414.039 1454.33 410.937 1454.33 Q408.738 1454.33 406.284 1455.09 Q403.853 1455.86 401.076 1457.41 L401.076 1452.69 Q403.9 1451.55 406.353 1450.97 Q408.807 1450.39 410.844 1450.39 Q416.214 1450.39 419.409 1453.08 Q422.603 1455.77 422.603 1460.26 Q422.603 1462.39 421.793 1464.31 Q421.006 1466.2 418.9 1468.8 Q418.321 1469.47 415.219 1472.69 Q412.117 1475.88 406.469 1481.64 Z" fill="#000000" fill-rule="nonzero" fill-opacity="1" /><path clip-path="url(#clip250)" d="M751.167 1454.1 Q747.556 1454.1 745.728 1457.66 Q743.922 1461.2 743.922 1468.33 Q743.922 1475.44 745.728 1479.01 Q747.556 1482.55 751.167 1482.55 Q754.802 1482.55 756.607 1479.01 Q758.436 1475.44 758.436 1468.33 Q758.436 1461.2 756.607 1457.66 Q754.802 1454.1 751.167 1454.1 M751.167 1450.39 Q756.977 1450.39 760.033 1455 Q763.112 1459.58 763.112 1468.33 Q763.112 1477.06 760.033 1481.67 Q756.977 1486.25 751.167 1486.25 Q745.357 1486.25 742.278 1481.67 Q739.223 1477.06 739.223 1468.33 Q739.223 1459.58 742.278 1455 Q745.357 1450.39 751.167 1450.39 Z" fill="#000000" fill-rule="nonzero" fill-opacity="1" /><path clip-path="url(#clip250)" d="M771.329 1479.7 L776.213 1479.7 L776.213 1485.58 L771.329 1485.58 L771.329 1479.7 Z" fill="#000000" fill-rule="nonzero" fill-opacity="1" /><path clip-path="url(#clip250)" d="M796.399 1454.1 Q792.787 1454.1 790.959 1457.66 Q789.153 1461.2 789.153 1468.33 Q789.153 1475.44 790.959 1479.01 Q792.787 1482.55 796.399 1482.55 Q800.033 1482.55 801.838 1479.01 Q803.667 1475.44 803.667 1468.33 Q803.667 1461.2 801.838 1457.66 Q800.033 1454.1 796.399 1454.1 M796.399 1450.39 Q802.209 1450.39 805.264 1455 Q808.343 1459.58 808.343 1468.33 Q808.343 1477.06 805.264 1481.67 Q802.209 1486.25 796.399 1486.25 Q790.588 1486.25 787.51 1481.67 Q784.454 1477.06 784.454 1468.33 Q784.454 1459.58 787.51 1455 Q790.588 1450.39 796.399 1450.39 Z" fill="#000000" fill-rule="nonzero" fill-opacity="1" /><path clip-path="url(#clip250)" d="M826.56 1454.1 Q822.949 1454.1 821.121 1457.66 Q819.315 1461.2 819.315 1468.33 Q819.315 1475.44 821.121 1479.01 Q822.949 1482.55 826.56 1482.55 Q830.195 1482.55 832 1479.01 Q833.829 1475.44 833.829 1468.33 Q833.829 1461.2 832 1457.66 Q830.195 1454.1 826.56 1454.1 M826.56 1450.39 Q832.371 1450.39 835.426 1455 Q838.505 1459.58 838.505 1468.33 Q838.505 1477.06 835.426 1481.67 Q832.371 1486.25 826.56 1486.25 Q820.75 1486.25 817.672 1481.67 Q814.616 1477.06 814.616 1468.33 Q814.616 1459.58 817.672 1455 Q820.75 1450.39 826.56 1450.39 Z" fill="#000000" fill-rule="nonzero" fill-opacity="1" /><path clip-path="url(#clip250)" d="M859.57 1455.09 L847.764 1473.54 L859.57 1473.54 L859.57 1455.09 M858.343 1451.02 L864.222 1451.02 L864.222 1473.54 L869.153 1473.54 L869.153 1477.43 L864.222 1477.43 L864.222 1485.58 L859.57 1485.58 L859.57 1477.43 L843.968 1477.43 L843.968 1472.92 L858.343 1451.02 Z" fill="#000000" fill-rule="nonzero" fill-opacity="1" /><path clip-path="url(#clip250)" d="M1196.65 1454.1 Q1193.04 1454.1 1191.21 1457.66 Q1189.41 1461.2 1189.41 1468.33 Q1189.41 1475.44 1191.21 1479.01 Q1193.04 1482.55 1196.65 1482.55 Q1200.29 1482.55 1202.09 1479.01 Q1203.92 1475.44 1203.92 1468.33 Q1203.92 1461.2 1202.09 1457.66 Q1200.29 1454.1 1196.65 1454.1 M1196.65 1450.39 Q1202.46 1450.39 1205.52 1455 Q1208.6 1459.58 1208.6 1468.33 Q1208.6 1477.06 1205.52 1481.67 Q1202.46 1486.25 1196.65 1486.25 Q1190.84 1486.25 1187.76 1481.67 Q1184.71 1477.06 1184.71 1468.33 Q1184.71 1459.58 1187.76 1455 Q1190.84 1450.39 1196.65 1450.39 Z" fill="#000000" fill-rule="nonzero" fill-opacity="1" /><path clip-path="url(#clip250)" d="M1216.81 1479.7 L1221.7 1479.7 L1221.7 1485.58 L1216.81 1485.58 L1216.81 1479.7 Z" fill="#000000" fill-rule="nonzero" fill-opacity="1" /><path clip-path="url(#clip250)" d="M1241.88 1454.1 Q1238.27 1454.1 1236.44 1457.66 Q1234.64 1461.2 1234.64 1468.33 Q1234.64 1475.44 1236.44 1479.01 Q1238.27 1482.55 1241.88 1482.55 Q1245.52 1482.55 1247.32 1479.01 Q1249.15 1475.44 1249.15 1468.33 Q1249.15 1461.2 1247.32 1457.66 Q1245.52 1454.1 1241.88 1454.1 M1241.88 1450.39 Q1247.69 1450.39 1250.75 1455 Q1253.83 1459.58 1253.83 1468.33 Q1253.83 1477.06 1250.75 1481.67 Q1247.69 1486.25 1241.88 1486.25 Q1236.07 1486.25 1232.99 1481.67 Q1229.94 1477.06 1229.94 1468.33 Q1229.94 1459.58 1232.99 1455 Q1236.07 1450.39 1241.88 1450.39 Z" fill="#000000" fill-rule="nonzero" fill-opacity="1" /><path clip-path="url(#clip250)" d="M1272.05 1454.1 Q1268.43 1454.1 1266.61 1457.66 Q1264.8 1461.2 1264.8 1468.33 Q1264.8 1475.44 1266.61 1479.01 Q1268.43 1482.55 1272.05 1482.55 Q1275.68 1482.55 1277.48 1479.01 Q1279.31 1475.44 1279.31 1468.33 Q1279.31 1461.2 1277.48 1457.66 Q1275.68 1454.1 1272.05 1454.1 M1272.05 1450.39 Q1277.86 1450.39 1280.91 1455 Q1283.99 1459.58 1283.99 1468.33 Q1283.99 1477.06 1280.91 1481.67 Q1277.86 1486.25 1272.05 1486.25 Q1266.23 1486.25 1263.16 1481.67 Q1260.1 1477.06 1260.1 1468.33 Q1260.1 1459.58 1263.16 1455 Q1266.23 1450.39 1272.05 1450.39 Z" fill="#000000" fill-rule="nonzero" fill-opacity="1" /><path clip-path="url(#clip250)" d="M1302.79 1466.44 Q1299.64 1466.44 1297.79 1468.59 Q1295.96 1470.74 1295.96 1474.49 Q1295.96 1478.22 1297.79 1480.39 Q1299.64 1482.55 1302.79 1482.55 Q1305.93 1482.55 1307.76 1480.39 Q1309.61 1478.22 1309.61 1474.49 Q1309.61 1470.74 1307.76 1468.59 Q1305.93 1466.44 1302.79 1466.44 M1312.07 1451.78 L1312.07 1456.04 Q1310.31 1455.21 1308.5 1454.77 Q1306.72 1454.33 1304.96 1454.33 Q1300.33 1454.33 1297.88 1457.45 Q1295.45 1460.58 1295.1 1466.9 Q1296.47 1464.89 1298.53 1463.82 Q1300.59 1462.73 1303.06 1462.73 Q1308.27 1462.73 1311.28 1465.9 Q1314.31 1469.05 1314.31 1474.49 Q1314.31 1479.82 1311.17 1483.03 Q1308.02 1486.25 1302.79 1486.25 Q1296.79 1486.25 1293.62 1481.67 Q1290.45 1477.06 1290.45 1468.33 Q1290.45 1460.14 1294.34 1455.28 Q1298.23 1450.39 1304.78 1450.39 Q1306.54 1450.39 1308.32 1450.74 Q1310.12 1451.09 1312.07 1451.78 Z" fill="#000000" fill-rule="nonzero" fill-opacity="1" /><path clip-path="url(#clip250)" d="M1642.1 1454.1 Q1638.49 1454.1 1636.66 1457.66 Q1634.86 1461.2 1634.86 1468.33 Q1634.86 1475.44 1636.66 1479.01 Q1638.49 1482.55 1642.1 1482.55 Q1645.74 1482.55 1647.54 1479.01 Q1649.37 1475.44 1649.37 1468.33 Q1649.37 1461.2 1647.54 1457.66 Q1645.74 1454.1 1642.1 1454.1 M1642.1 1450.39 Q1647.91 1450.39 1650.97 1455 Q1654.05 1459.58 1654.05 1468.33 Q1654.05 1477.06 1650.97 1481.67 Q1647.91 1486.25 1642.1 1486.25 Q1636.29 1486.25 1633.21 1481.67 Q1630.16 1477.06 1630.16 1468.33 Q1630.16 1459.58 1633.21 1455 Q1636.29 1450.39 1642.1 1450.39 Z" fill="#000000" fill-rule="nonzero" fill-opacity="1" /><path clip-path="url(#clip250)" d="M1662.26 1479.7 L1667.15 1479.7 L1667.15 1485.58 L1662.26 1485.58 L1662.26 1479.7 Z" fill="#000000" fill-rule="nonzero" fill-opacity="1" /><path clip-path="url(#clip250)" d="M1687.33 1454.1 Q1683.72 1454.1 1681.89 1457.66 Q1680.09 1461.2 1680.09 1468.33 Q1680.09 1475.44 1681.89 1479.01 Q1683.72 1482.55 1687.33 1482.55 Q1690.97 1482.55 1692.77 1479.01 Q1694.6 1475.44 1694.6 1468.33 Q1694.6 1461.2 1692.77 1457.66 Q1690.97 1454.1 1687.33 1454.1 M1687.33 1450.39 Q1693.14 1450.39 1696.2 1455 Q1699.28 1459.58 1699.28 1468.33 Q1699.28 1477.06 1696.2 1481.67 Q1693.14 1486.25 1687.33 1486.25 Q1681.52 1486.25 1678.44 1481.67 Q1675.39 1477.06 1675.39 1468.33 Q1675.39 1459.58 1678.44 1455 Q1681.52 1450.39 1687.33 1450.39 Z" fill="#000000" fill-rule="nonzero" fill-opacity="1" /><path clip-path="url(#clip250)" d="M1717.5 1454.1 Q1713.88 1454.1 1712.06 1457.66 Q1710.25 1461.2 1710.25 1468.33 Q1710.25 1475.44 1712.06 1479.01 Q1713.88 1482.55 1717.5 1482.55 Q1721.13 1482.55 1722.93 1479.01 Q1724.76 1475.44 1724.76 1468.33 Q1724.76 1461.2 1722.93 1457.66 Q1721.13 1454.1 1717.5 1454.1 M1717.5 1450.39 Q1723.31 1450.39 1726.36 1455 Q1729.44 1459.58 1729.44 1468.33 Q1729.44 1477.06 1726.36 1481.67 Q1723.31 1486.25 1717.5 1486.25 Q1711.68 1486.25 1708.61 1481.67 Q1705.55 1477.06 1705.55 1468.33 Q1705.55 1459.58 1708.61 1455 Q1711.68 1450.39 1717.5 1450.39 Z" fill="#000000" fill-rule="nonzero" fill-opacity="1" /><path clip-path="url(#clip250)" d="M1747.66 1469.17 Q1744.32 1469.17 1742.4 1470.95 Q1740.5 1472.73 1740.5 1475.86 Q1740.5 1478.98 1742.4 1480.77 Q1744.32 1482.55 1747.66 1482.55 Q1750.99 1482.55 1752.91 1480.77 Q1754.83 1478.96 1754.83 1475.86 Q1754.83 1472.73 1752.91 1470.95 Q1751.01 1469.17 1747.66 1469.17 M1742.98 1467.18 Q1739.97 1466.44 1738.28 1464.38 Q1736.62 1462.32 1736.62 1459.35 Q1736.62 1455.21 1739.56 1452.8 Q1742.52 1450.39 1747.66 1450.39 Q1752.82 1450.39 1755.76 1452.8 Q1758.7 1455.21 1758.7 1459.35 Q1758.7 1462.32 1757.01 1464.38 Q1755.34 1466.44 1752.36 1467.18 Q1755.74 1467.96 1757.61 1470.26 Q1759.51 1472.55 1759.51 1475.86 Q1759.51 1480.88 1756.43 1483.57 Q1753.37 1486.25 1747.66 1486.25 Q1741.94 1486.25 1738.86 1483.57 Q1735.81 1480.88 1735.81 1475.86 Q1735.81 1472.55 1737.7 1470.26 Q1739.6 1467.96 1742.98 1467.18 M1741.27 1459.79 Q1741.27 1462.48 1742.93 1463.98 Q1744.62 1465.49 1747.66 1465.49 Q1750.67 1465.49 1752.36 1463.98 Q1754.07 1462.48 1754.07 1459.79 Q1754.07 1457.11 1752.36 1455.6 Q1750.67 1454.1 1747.66 1454.1 Q1744.62 1454.1 1742.93 1455.6 Q1741.27 1457.11 1741.27 1459.79 Z" fill="#000000" fill-rule="nonzero" fill-opacity="1" /><path clip-path="url(#clip250)" d="M2087.38 1454.1 Q2083.77 1454.1 2081.94 1457.66 Q2080.13 1461.2 2080.13 1468.33 Q2080.13 1475.44 2081.94 1479.01 Q2083.77 1482.55 2087.38 1482.55 Q2091.01 1482.55 2092.82 1479.01 Q2094.65 1475.44 2094.65 1468.33 Q2094.65 1461.2 2092.82 1457.66 Q2091.01 1454.1 2087.38 1454.1 M2087.38 1450.39 Q2093.19 1450.39 2096.24 1455 Q2099.32 1459.58 2099.32 1468.33 Q2099.32 1477.06 2096.24 1481.67 Q2093.19 1486.25 2087.38 1486.25 Q2081.57 1486.25 2078.49 1481.67 Q2075.43 1477.06 2075.43 1468.33 Q2075.43 1459.58 2078.49 1455 Q2081.57 1450.39 2087.38 1450.39 Z" fill="#000000" fill-rule="nonzero" fill-opacity="1" /><path clip-path="url(#clip250)" d="M2107.54 1479.7 L2112.42 1479.7 L2112.42 1485.58 L2107.54 1485.58 L2107.54 1479.7 Z" fill="#000000" fill-rule="nonzero" fill-opacity="1" /><path clip-path="url(#clip250)" d="M2132.61 1454.1 Q2129 1454.1 2127.17 1457.66 Q2125.36 1461.2 2125.36 1468.33 Q2125.36 1475.44 2127.17 1479.01 Q2129 1482.55 2132.61 1482.55 Q2136.24 1482.55 2138.05 1479.01 Q2139.88 1475.44 2139.88 1468.33 Q2139.88 1461.2 2138.05 1457.66 Q2136.24 1454.1 2132.61 1454.1 M2132.61 1450.39 Q2138.42 1450.39 2141.48 1455 Q2144.55 1459.58 2144.55 1468.33 Q2144.55 1477.06 2141.48 1481.67 Q2138.42 1486.25 2132.61 1486.25 Q2126.8 1486.25 2123.72 1481.67 Q2120.67 1477.06 2120.67 1468.33 Q2120.67 1459.58 2123.72 1455 Q2126.8 1450.39 2132.61 1450.39 Z" fill="#000000" fill-rule="nonzero" fill-opacity="1" /><path clip-path="url(#clip250)" d="M2153.58 1481.64 L2161.22 1481.64 L2161.22 1455.28 L2152.91 1456.95 L2152.91 1452.69 L2161.17 1451.02 L2165.85 1451.02 L2165.85 1481.64 L2173.49 1481.64 L2173.49 1485.58 L2153.58 1485.58 L2153.58 1481.64 Z" fill="#000000" fill-rule="nonzero" fill-opacity="1" /><path clip-path="url(#clip250)" d="M2192.93 1454.1 Q2189.32 1454.1 2187.49 1457.66 Q2185.69 1461.2 2185.69 1468.33 Q2185.69 1475.44 2187.49 1479.01 Q2189.32 1482.55 2192.93 1482.55 Q2196.57 1482.55 2198.37 1479.01 Q2200.2 1475.44 2200.2 1468.33 Q2200.2 1461.2 2198.37 1457.66 Q2196.57 1454.1 2192.93 1454.1 M2192.93 1450.39 Q2198.74 1450.39 2201.8 1455 Q2204.88 1459.58 2204.88 1468.33 Q2204.88 1477.06 2201.8 1481.67 Q2198.74 1486.25 2192.93 1486.25 Q2187.12 1486.25 2184.04 1481.67 Q2180.99 1477.06 2180.99 1468.33 Q2180.99 1459.58 2184.04 1455 Q2187.12 1450.39 2192.93 1450.39 Z" fill="#000000" fill-rule="nonzero" fill-opacity="1" /><path clip-path="url(#clip250)" d="M1137.75 1518.22 L1137.75 1516.16 Q1145.67 1516.16 1149.76 1511.94 Q1150.89 1511.94 1151.08 1512.2 Q1151.28 1512.45 1151.28 1513.65 L1151.28 1550.65 Q1151.28 1552.61 1152.24 1553.23 Q1153.21 1553.84 1157.43 1553.84 L1159.52 1553.84 L1159.52 1555.87 Q1157.2 1555.67 1148.83 1555.67 Q1140.45 1555.67 1138.17 1555.87 L1138.17 1553.84 L1140.26 1553.84 Q1144.42 1553.84 1145.41 1553.26 Q1146.41 1552.65 1146.41 1550.65 L1146.41 1516.48 Q1142.97 1518.22 1137.75 1518.22 Z" fill="#000000" fill-rule="nonzero" fill-opacity="1" /><path clip-path="url(#clip250)" d="M1170.41 1571.42 Q1170.41 1571.1 1170.67 1570.39 L1193.96 1508.17 Q1193.96 1508.11 1194.12 1507.75 Q1194.28 1507.4 1194.37 1507.17 Q1194.47 1506.91 1194.66 1506.72 Q1194.89 1506.53 1195.15 1506.53 Q1195.79 1506.53 1195.79 1507.33 Q1195.79 1507.4 1195.6 1508.17 L1172.25 1570.46 Q1171.86 1571.58 1171.61 1571.91 Q1171.38 1572.23 1170.99 1572.23 Q1170.41 1572.23 1170.41 1571.42 Z" fill="#000000" fill-rule="nonzero" fill-opacity="1" /><path clip-path="url(#clip250)" d="M1237.54 1537.25 Q1237.54 1541.95 1235.15 1546.5 Q1232.8 1551.04 1229.1 1553.84 Q1225.4 1556.61 1221.63 1556.61 Q1219.37 1556.61 1217.86 1555.38 Q1216.38 1554.13 1215.57 1552.36 Q1214.96 1554.55 1213.64 1559.8 Q1212.32 1565.05 1212.32 1565.56 Q1212.32 1565.85 1212.38 1565.98 Q1212.45 1566.11 1212.74 1566.27 Q1213.03 1566.46 1213.74 1566.53 Q1214.45 1566.62 1215.64 1566.62 Q1216.25 1566.62 1216.48 1566.62 Q1216.73 1566.66 1216.96 1566.82 Q1217.22 1566.98 1217.22 1567.33 Q1217.22 1568.65 1216.02 1568.65 Q1214.96 1568.65 1212.77 1568.56 Q1210.58 1568.46 1209.49 1568.46 Q1208.55 1568.46 1206.68 1568.56 Q1204.82 1568.65 1203.95 1568.65 Q1203.08 1568.65 1203.08 1567.88 Q1203.08 1567.43 1203.21 1567.14 Q1203.3 1566.88 1203.56 1566.75 Q1203.82 1566.66 1204.04 1566.62 Q1204.24 1566.62 1204.62 1566.62 Q1206.1 1566.62 1206.75 1566.37 Q1207.39 1566.14 1207.62 1565.66 Q1207.88 1565.21 1208.17 1563.92 L1215.57 1534.55 Q1216.02 1532.58 1216.02 1531.2 Q1216.02 1529.46 1215.48 1528.81 Q1214.93 1528.17 1213.96 1528.17 Q1212.29 1528.17 1211.19 1530.17 Q1210.1 1532.16 1209.16 1536.03 Q1208.87 1537.09 1208.68 1537.32 Q1208.52 1537.54 1208.04 1537.54 Q1207.23 1537.51 1207.23 1536.87 Q1207.23 1536.71 1207.49 1535.67 Q1207.75 1534.61 1208.23 1533.07 Q1208.75 1531.49 1209.29 1530.49 Q1209.62 1529.81 1209.91 1529.36 Q1210.19 1528.91 1210.77 1528.2 Q1211.39 1527.49 1212.26 1527.11 Q1213.13 1526.72 1214.19 1526.72 Q1216.25 1526.72 1217.96 1527.95 Q1219.66 1529.17 1220.11 1531.65 Q1221.95 1529.49 1224.2 1528.11 Q1226.46 1526.72 1228.75 1526.72 Q1232.55 1526.72 1235.03 1529.68 Q1237.54 1532.62 1237.54 1537.25 M1232.77 1534.35 Q1232.77 1531.42 1231.64 1529.81 Q1230.55 1528.17 1228.55 1528.17 Q1226.07 1528.17 1223.21 1530.68 Q1220.37 1533.07 1219.79 1535.29 L1216.54 1548.2 L1216.35 1549.27 Q1216.35 1549.46 1216.44 1550.04 Q1216.57 1550.59 1216.93 1551.49 Q1217.31 1552.39 1217.83 1553.19 Q1218.38 1553.97 1219.34 1554.55 Q1220.34 1555.13 1221.56 1555.13 Q1223.53 1555.13 1225.65 1553.39 Q1227.81 1551.65 1229.42 1548.36 Q1230.42 1546.24 1231.58 1541.66 Q1232.77 1537.06 1232.77 1534.35 Z" fill="#000000" fill-rule="nonzero" fill-opacity="1" /><path clip-path="url(#clip250)" d="M1288.23 1572.36 L1288.23 1506.4 L1298.18 1506.4 L1298.18 1507.91 L1292.64 1507.91 L1292.64 1570.84 L1298.18 1570.84 L1298.18 1572.36 L1288.23 1572.36 Z" fill="#000000" fill-rule="nonzero" fill-opacity="1" /><path clip-path="url(#clip250)" d="M1303.21 1518.22 L1303.21 1516.16 Q1311.13 1516.16 1315.22 1511.94 Q1316.35 1511.94 1316.54 1512.2 Q1316.73 1512.45 1316.73 1513.65 L1316.73 1550.65 Q1316.73 1552.61 1317.7 1553.23 Q1318.67 1553.84 1322.89 1553.84 L1324.98 1553.84 L1324.98 1555.87 Q1322.66 1555.67 1314.29 1555.67 Q1305.91 1555.67 1303.63 1555.87 L1303.63 1553.84 L1305.72 1553.84 Q1309.87 1553.84 1310.87 1553.26 Q1311.87 1552.65 1311.87 1550.65 L1311.87 1516.48 Q1308.43 1518.22 1303.21 1518.22 Z" fill="#000000" fill-rule="nonzero" fill-opacity="1" /><path clip-path="url(#clip250)" d="M1335.87 1571.42 Q1335.87 1571.1 1336.13 1570.39 L1359.41 1508.17 Q1359.41 1508.11 1359.58 1507.75 Q1359.74 1507.4 1359.83 1507.17 Q1359.93 1506.91 1360.12 1506.72 Q1360.35 1506.53 1360.61 1506.53 Q1361.25 1506.53 1361.25 1507.33 Q1361.25 1507.4 1361.06 1508.17 L1337.71 1570.46 Q1337.32 1571.58 1337.06 1571.91 Q1336.84 1572.23 1336.45 1572.23 Q1335.87 1572.23 1335.87 1571.42 Z" fill="#000000" fill-rule="nonzero" fill-opacity="1" /><path clip-path="url(#clip250)" d="M1368.54 1555.87 L1368.54 1553.84 Q1372.05 1553.84 1372.85 1553.42 Q1373.66 1552.97 1373.66 1550.84 L1373.66 1533.16 Q1373.66 1530.72 1372.79 1530.1 Q1371.95 1529.49 1368.54 1529.49 L1368.54 1527.43 L1377.81 1526.72 L1377.81 1533.65 Q1380.9 1526.72 1387.57 1526.72 Q1395.3 1526.72 1396.36 1533.16 Q1397.49 1530.65 1399.84 1528.69 Q1402.22 1526.72 1405.93 1526.72 Q1410.89 1526.72 1412.85 1529.17 Q1414.3 1530.81 1414.59 1532.65 Q1414.88 1534.48 1414.88 1539.25 L1414.88 1551.84 Q1414.95 1553.23 1416.01 1553.55 Q1417.07 1553.84 1420.03 1553.84 L1420.03 1555.87 Q1413.3 1555.67 1412.66 1555.67 Q1412.14 1555.67 1405.19 1555.87 L1405.19 1553.84 Q1408.7 1553.84 1409.5 1553.42 Q1410.34 1552.97 1410.34 1550.84 L1410.34 1535.48 Q1410.34 1532.13 1409.31 1530.17 Q1408.28 1528.17 1405.44 1528.17 Q1402.03 1528.17 1399.29 1531.04 Q1396.56 1533.9 1396.56 1538.73 L1396.56 1550.84 Q1396.56 1552.97 1397.36 1553.42 Q1398.2 1553.84 1401.71 1553.84 L1401.71 1555.87 Q1394.98 1555.67 1394.3 1555.67 Q1393.79 1555.67 1386.86 1555.87 L1386.86 1553.84 Q1390.37 1553.84 1391.18 1553.42 Q1392.01 1552.97 1392.01 1550.84 L1392.01 1535.48 Q1392.01 1532.13 1390.98 1530.17 Q1389.95 1528.17 1387.12 1528.17 Q1383.71 1528.17 1380.97 1531.04 Q1378.23 1533.9 1378.23 1538.73 L1378.23 1550.84 Q1378.23 1552.97 1379.04 1553.42 Q1379.87 1553.84 1383.35 1553.84 L1383.35 1555.87 Q1376.62 1555.67 1375.98 1555.67 Q1375.46 1555.67 1368.54 1555.87 Z" fill="#000000" fill-rule="nonzero" fill-opacity="1" /><path clip-path="url(#clip250)" d="M1422.66 1555.87 L1422.66 1553.84 Q1426.17 1553.84 1426.97 1553.42 Q1427.78 1552.97 1427.78 1550.84 L1427.78 1533.16 Q1427.78 1530.72 1426.91 1530.1 Q1426.07 1529.49 1422.66 1529.49 L1422.66 1527.43 L1431.93 1526.72 L1431.93 1533.65 Q1435.03 1526.72 1441.69 1526.72 Q1449.42 1526.72 1450.49 1533.16 Q1451.61 1530.65 1453.96 1528.69 Q1456.35 1526.72 1460.05 1526.72 Q1465.01 1526.72 1466.97 1529.17 Q1468.42 1530.81 1468.71 1532.65 Q1469 1534.48 1469 1539.25 L1469 1551.84 Q1469.07 1553.23 1470.13 1553.55 Q1471.19 1553.84 1474.16 1553.84 L1474.16 1555.87 Q1467.43 1555.67 1466.78 1555.67 Q1466.27 1555.67 1459.31 1555.87 L1459.31 1553.84 Q1462.82 1553.84 1463.63 1553.42 Q1464.46 1552.97 1464.46 1550.84 L1464.46 1535.48 Q1464.46 1532.13 1463.43 1530.17 Q1462.4 1528.17 1459.57 1528.17 Q1456.15 1528.17 1453.42 1531.04 Q1450.68 1533.9 1450.68 1538.73 L1450.68 1550.84 Q1450.68 1552.97 1451.48 1553.42 Q1452.32 1553.84 1455.83 1553.84 L1455.83 1555.87 Q1449.1 1555.67 1448.42 1555.67 Q1447.91 1555.67 1440.98 1555.87 L1440.98 1553.84 Q1444.49 1553.84 1445.3 1553.42 Q1446.14 1552.97 1446.14 1550.84 L1446.14 1535.48 Q1446.14 1532.13 1445.11 1530.17 Q1444.08 1528.17 1441.24 1528.17 Q1437.83 1528.17 1435.09 1531.04 Q1432.35 1533.9 1432.35 1538.73 L1432.35 1550.84 Q1432.35 1552.97 1433.16 1553.42 Q1434 1553.84 1437.47 1553.84 L1437.47 1555.87 Q1430.74 1555.67 1430.1 1555.67 Q1429.58 1555.67 1422.66 1555.87 Z" fill="#000000" fill-rule="nonzero" fill-opacity="1" /><path clip-path="url(#clip250)" d="M1477.05 1570.84 L1482.59 1570.84 L1482.59 1507.91 L1477.05 1507.91 L1477.05 1506.4 L1487 1506.4 L1487 1572.36 L1477.05 1572.36 L1477.05 1570.84 Z" fill="#000000" fill-rule="nonzero" fill-opacity="1" /><polyline clip-path="url(#clip250)" style="stroke:#000000; stroke-linecap:round; stroke-linejoin:round; stroke-width:4; stroke-opacity:1; fill:none" points="280.19,1423.18 280.19,47.2441 "/>
<polyline clip-path="url(#clip250)" style="stroke:#000000; stroke-linecap:round; stroke-linejoin:round; stroke-width:4; stroke-opacity:1; fill:none" points="280.19,1239.83 299.088,1239.83 "/>
<polyline clip-path="url(#clip250)" style="stroke:#000000; stroke-linecap:round; stroke-linejoin:round; stroke-width:4; stroke-opacity:1; fill:none" points="280.19,940.378 299.088,940.378 "/>
<polyline clip-path="url(#clip250)" style="stroke:#000000; stroke-linecap:round; stroke-linejoin:round; stroke-width:4; stroke-opacity:1; fill:none" points="280.19,640.926 299.088,640.926 "/>
<polyline clip-path="url(#clip250)" style="stroke:#000000; stroke-linecap:round; stroke-linejoin:round; stroke-width:4; stroke-opacity:1; fill:none" points="280.19,341.474 299.088,341.474 "/>
<path clip-path="url(#clip250)" d="M126.205 1225.63 Q122.593 1225.63 120.765 1229.19 Q118.959 1232.73 118.959 1239.86 Q118.959 1246.97 120.765 1250.54 Q122.593 1254.08 126.205 1254.08 Q129.839 1254.08 131.644 1250.54 Q133.473 1246.97 133.473 1239.86 Q133.473 1232.73 131.644 1229.19 Q129.839 1225.63 126.205 1225.63 M126.205 1221.92 Q132.015 1221.92 135.07 1226.53 Q138.149 1231.11 138.149 1239.86 Q138.149 1248.59 135.07 1253.2 Q132.015 1257.78 126.205 1257.78 Q120.394 1257.78 117.316 1253.2 Q114.26 1248.59 114.26 1239.86 Q114.26 1231.11 117.316 1226.53 Q120.394 1221.92 126.205 1221.92 Z" fill="#000000" fill-rule="nonzero" fill-opacity="1" /><path clip-path="url(#clip250)" d="M146.366 1251.23 L151.251 1251.23 L151.251 1257.11 L146.366 1257.11 L146.366 1251.23 Z" fill="#000000" fill-rule="nonzero" fill-opacity="1" /><path clip-path="url(#clip250)" d="M171.436 1225.63 Q167.825 1225.63 165.996 1229.19 Q164.19 1232.73 164.19 1239.86 Q164.19 1246.97 165.996 1250.54 Q167.825 1254.08 171.436 1254.08 Q175.07 1254.08 176.876 1250.54 Q178.704 1246.97 178.704 1239.86 Q178.704 1232.73 176.876 1229.19 Q175.07 1225.63 171.436 1225.63 M171.436 1221.92 Q177.246 1221.92 180.301 1226.53 Q183.38 1231.11 183.38 1239.86 Q183.38 1248.59 180.301 1253.2 Q177.246 1257.78 171.436 1257.78 Q165.626 1257.78 162.547 1253.2 Q159.491 1248.59 159.491 1239.86 Q159.491 1231.11 162.547 1226.53 Q165.626 1221.92 171.436 1221.92 Z" fill="#000000" fill-rule="nonzero" fill-opacity="1" /><path clip-path="url(#clip250)" d="M201.598 1225.63 Q197.987 1225.63 196.158 1229.19 Q194.352 1232.73 194.352 1239.86 Q194.352 1246.97 196.158 1250.54 Q197.987 1254.08 201.598 1254.08 Q205.232 1254.08 207.037 1250.54 Q208.866 1246.97 208.866 1239.86 Q208.866 1232.73 207.037 1229.19 Q205.232 1225.63 201.598 1225.63 M201.598 1221.92 Q207.408 1221.92 210.463 1226.53 Q213.542 1231.11 213.542 1239.86 Q213.542 1248.59 210.463 1253.2 Q207.408 1257.78 201.598 1257.78 Q195.787 1257.78 192.709 1253.2 Q189.653 1248.59 189.653 1239.86 Q189.653 1231.11 192.709 1226.53 Q195.787 1221.92 201.598 1221.92 Z" fill="#000000" fill-rule="nonzero" fill-opacity="1" /><path clip-path="url(#clip250)" d="M234.607 1226.62 L222.801 1245.07 L234.607 1245.07 L234.607 1226.62 M233.38 1222.55 L239.259 1222.55 L239.259 1245.07 L244.19 1245.07 L244.19 1248.96 L239.259 1248.96 L239.259 1257.11 L234.607 1257.11 L234.607 1248.96 L219.005 1248.96 L219.005 1244.45 L233.38 1222.55 Z" fill="#000000" fill-rule="nonzero" fill-opacity="1" /><path clip-path="url(#clip250)" d="M126.529 926.176 Q122.918 926.176 121.089 929.741 Q119.283 933.283 119.283 940.412 Q119.283 947.519 121.089 951.084 Q122.918 954.625 126.529 954.625 Q130.163 954.625 131.968 951.084 Q133.797 947.519 133.797 940.412 Q133.797 933.283 131.968 929.741 Q130.163 926.176 126.529 926.176 M126.529 922.473 Q132.339 922.473 135.394 927.079 Q138.473 931.662 138.473 940.412 Q138.473 949.139 135.394 953.746 Q132.339 958.329 126.529 958.329 Q120.718 958.329 117.64 953.746 Q114.584 949.139 114.584 940.412 Q114.584 931.662 117.64 927.079 Q120.718 922.473 126.529 922.473 Z" fill="#000000" fill-rule="nonzero" fill-opacity="1" /><path clip-path="url(#clip250)" d="M146.691 951.778 L151.575 951.778 L151.575 957.658 L146.691 957.658 L146.691 951.778 Z" fill="#000000" fill-rule="nonzero" fill-opacity="1" /><path clip-path="url(#clip250)" d="M171.76 926.176 Q168.149 926.176 166.32 929.741 Q164.515 933.283 164.515 940.412 Q164.515 947.519 166.32 951.084 Q168.149 954.625 171.76 954.625 Q175.394 954.625 177.2 951.084 Q179.028 947.519 179.028 940.412 Q179.028 933.283 177.2 929.741 Q175.394 926.176 171.76 926.176 M171.76 922.473 Q177.57 922.473 180.626 927.079 Q183.704 931.662 183.704 940.412 Q183.704 949.139 180.626 953.746 Q177.57 958.329 171.76 958.329 Q165.95 958.329 162.871 953.746 Q159.815 949.139 159.815 940.412 Q159.815 931.662 162.871 927.079 Q165.95 922.473 171.76 922.473 Z" fill="#000000" fill-rule="nonzero" fill-opacity="1" /><path clip-path="url(#clip250)" d="M201.922 926.176 Q198.311 926.176 196.482 929.741 Q194.676 933.283 194.676 940.412 Q194.676 947.519 196.482 951.084 Q198.311 954.625 201.922 954.625 Q205.556 954.625 207.362 951.084 Q209.19 947.519 209.19 940.412 Q209.19 933.283 207.362 929.741 Q205.556 926.176 201.922 926.176 M201.922 922.473 Q207.732 922.473 210.787 927.079 Q213.866 931.662 213.866 940.412 Q213.866 949.139 210.787 953.746 Q207.732 958.329 201.922 958.329 Q196.112 958.329 193.033 953.746 Q189.977 949.139 189.977 940.412 Q189.977 931.662 193.033 927.079 Q196.112 922.473 201.922 922.473 Z" fill="#000000" fill-rule="nonzero" fill-opacity="1" /><path clip-path="url(#clip250)" d="M232.662 938.514 Q229.514 938.514 227.662 940.667 Q225.834 942.82 225.834 946.57 Q225.834 950.297 227.662 952.473 Q229.514 954.625 232.662 954.625 Q235.81 954.625 237.639 952.473 Q239.491 950.297 239.491 946.57 Q239.491 942.82 237.639 940.667 Q235.81 938.514 232.662 938.514 M241.945 923.862 L241.945 928.121 Q240.185 927.288 238.38 926.848 Q236.597 926.408 234.838 926.408 Q230.209 926.408 227.755 929.533 Q225.324 932.658 224.977 938.977 Q226.343 936.963 228.403 935.899 Q230.463 934.811 232.94 934.811 Q238.148 934.811 241.158 937.982 Q244.19 941.13 244.19 946.57 Q244.19 951.894 241.042 955.111 Q237.894 958.329 232.662 958.329 Q226.667 958.329 223.496 953.746 Q220.324 949.139 220.324 940.412 Q220.324 932.218 224.213 927.357 Q228.102 922.473 234.653 922.473 Q236.412 922.473 238.195 922.82 Q240 923.167 241.945 923.862 Z" fill="#000000" fill-rule="nonzero" fill-opacity="1" /><path clip-path="url(#clip250)" d="M126.783 626.724 Q123.172 626.724 121.343 630.289 Q119.538 633.831 119.538 640.96 Q119.538 648.067 121.343 651.632 Q123.172 655.173 126.783 655.173 Q130.417 655.173 132.223 651.632 Q134.052 648.067 134.052 640.96 Q134.052 633.831 132.223 630.289 Q130.417 626.724 126.783 626.724 M126.783 623.021 Q132.593 623.021 135.649 627.627 Q138.728 632.21 138.728 640.96 Q138.728 649.687 135.649 654.294 Q132.593 658.877 126.783 658.877 Q120.973 658.877 117.894 654.294 Q114.839 649.687 114.839 640.96 Q114.839 632.21 117.894 627.627 Q120.973 623.021 126.783 623.021 Z" fill="#000000" fill-rule="nonzero" fill-opacity="1" /><path clip-path="url(#clip250)" d="M146.945 652.326 L151.829 652.326 L151.829 658.206 L146.945 658.206 L146.945 652.326 Z" fill="#000000" fill-rule="nonzero" fill-opacity="1" /><path clip-path="url(#clip250)" d="M172.014 626.724 Q168.403 626.724 166.575 630.289 Q164.769 633.831 164.769 640.96 Q164.769 648.067 166.575 651.632 Q168.403 655.173 172.014 655.173 Q175.649 655.173 177.454 651.632 Q179.283 648.067 179.283 640.96 Q179.283 633.831 177.454 630.289 Q175.649 626.724 172.014 626.724 M172.014 623.021 Q177.825 623.021 180.88 627.627 Q183.959 632.21 183.959 640.96 Q183.959 649.687 180.88 654.294 Q177.825 658.877 172.014 658.877 Q166.204 658.877 163.126 654.294 Q160.07 649.687 160.07 640.96 Q160.07 632.21 163.126 627.627 Q166.204 623.021 172.014 623.021 Z" fill="#000000" fill-rule="nonzero" fill-opacity="1" /><path clip-path="url(#clip250)" d="M202.176 626.724 Q198.565 626.724 196.737 630.289 Q194.931 633.831 194.931 640.96 Q194.931 648.067 196.737 651.632 Q198.565 655.173 202.176 655.173 Q205.811 655.173 207.616 651.632 Q209.445 648.067 209.445 640.96 Q209.445 633.831 207.616 630.289 Q205.811 626.724 202.176 626.724 M202.176 623.021 Q207.987 623.021 211.042 627.627 Q214.121 632.21 214.121 640.96 Q214.121 649.687 211.042 654.294 Q207.987 658.877 202.176 658.877 Q196.366 658.877 193.288 654.294 Q190.232 649.687 190.232 640.96 Q190.232 632.21 193.288 627.627 Q196.366 623.021 202.176 623.021 Z" fill="#000000" fill-rule="nonzero" fill-opacity="1" /><path clip-path="url(#clip250)" d="M232.338 641.794 Q229.005 641.794 227.084 643.576 Q225.185 645.358 225.185 648.483 Q225.185 651.608 227.084 653.391 Q229.005 655.173 232.338 655.173 Q235.672 655.173 237.593 653.391 Q239.514 651.585 239.514 648.483 Q239.514 645.358 237.593 643.576 Q235.695 641.794 232.338 641.794 M227.662 639.803 Q224.653 639.062 222.963 637.002 Q221.297 634.942 221.297 631.979 Q221.297 627.835 224.236 625.428 Q227.199 623.021 232.338 623.021 Q237.5 623.021 240.44 625.428 Q243.38 627.835 243.38 631.979 Q243.38 634.942 241.69 637.002 Q240.023 639.062 237.037 639.803 Q240.417 640.59 242.292 642.882 Q244.19 645.173 244.19 648.483 Q244.19 653.507 241.111 656.192 Q238.056 658.877 232.338 658.877 Q226.621 658.877 223.542 656.192 Q220.486 653.507 220.486 648.483 Q220.486 645.173 222.385 642.882 Q224.283 640.59 227.662 639.803 M225.949 632.419 Q225.949 635.104 227.616 636.609 Q229.306 638.113 232.338 638.113 Q235.347 638.113 237.037 636.609 Q238.75 635.104 238.75 632.419 Q238.75 629.734 237.037 628.229 Q235.347 626.724 232.338 626.724 Q229.306 626.724 227.616 628.229 Q225.949 629.734 225.949 632.419 Z" fill="#000000" fill-rule="nonzero" fill-opacity="1" /><path clip-path="url(#clip250)" d="M126.691 327.272 Q123.08 327.272 121.251 330.837 Q119.445 334.379 119.445 341.508 Q119.445 348.615 121.251 352.18 Q123.08 355.721 126.691 355.721 Q130.325 355.721 132.13 352.18 Q133.959 348.615 133.959 341.508 Q133.959 334.379 132.13 330.837 Q130.325 327.272 126.691 327.272 M126.691 323.569 Q132.501 323.569 135.556 328.175 Q138.635 332.758 138.635 341.508 Q138.635 350.235 135.556 354.842 Q132.501 359.425 126.691 359.425 Q120.88 359.425 117.802 354.842 Q114.746 350.235 114.746 341.508 Q114.746 332.758 117.802 328.175 Q120.88 323.569 126.691 323.569 Z" fill="#000000" fill-rule="nonzero" fill-opacity="1" /><path clip-path="url(#clip250)" d="M146.853 352.874 L151.737 352.874 L151.737 358.754 L146.853 358.754 L146.853 352.874 Z" fill="#000000" fill-rule="nonzero" fill-opacity="1" /><path clip-path="url(#clip250)" d="M171.922 327.272 Q168.311 327.272 166.482 330.837 Q164.677 334.379 164.677 341.508 Q164.677 348.615 166.482 352.18 Q168.311 355.721 171.922 355.721 Q175.556 355.721 177.362 352.18 Q179.19 348.615 179.19 341.508 Q179.19 334.379 177.362 330.837 Q175.556 327.272 171.922 327.272 M171.922 323.569 Q177.732 323.569 180.788 328.175 Q183.866 332.758 183.866 341.508 Q183.866 350.235 180.788 354.842 Q177.732 359.425 171.922 359.425 Q166.112 359.425 163.033 354.842 Q159.978 350.235 159.978 341.508 Q159.978 332.758 163.033 328.175 Q166.112 323.569 171.922 323.569 Z" fill="#000000" fill-rule="nonzero" fill-opacity="1" /><path clip-path="url(#clip250)" d="M192.894 354.818 L200.533 354.818 L200.533 328.453 L192.223 330.119 L192.223 325.86 L200.487 324.194 L205.162 324.194 L205.162 354.818 L212.801 354.818 L212.801 358.754 L192.894 358.754 L192.894 354.818 Z" fill="#000000" fill-rule="nonzero" fill-opacity="1" /><path clip-path="url(#clip250)" d="M232.246 327.272 Q228.635 327.272 226.806 330.837 Q225 334.379 225 341.508 Q225 348.615 226.806 352.18 Q228.635 355.721 232.246 355.721 Q235.88 355.721 237.685 352.18 Q239.514 348.615 239.514 341.508 Q239.514 334.379 237.685 330.837 Q235.88 327.272 232.246 327.272 M232.246 323.569 Q238.056 323.569 241.111 328.175 Q244.19 332.758 244.19 341.508 Q244.19 350.235 241.111 354.842 Q238.056 359.425 232.246 359.425 Q226.435 359.425 223.357 354.842 Q220.301 350.235 220.301 341.508 Q220.301 332.758 223.357 328.175 Q226.435 323.569 232.246 323.569 Z" fill="#000000" fill-rule="nonzero" fill-opacity="1" /><path clip-path="url(#clip250)" d="M28.4354 912.07 L26.3743 912.07 Q26.3743 904.147 22.1553 900.057 Q22.1553 898.93 22.4129 898.736 Q22.6706 898.543 23.8622 898.543 L60.8667 898.543 Q62.8313 898.543 63.4432 897.577 Q64.0551 896.611 64.0551 892.392 L64.0551 890.298 L66.0841 890.298 Q65.8909 892.617 65.8909 900.991 Q65.8909 909.364 66.0841 911.651 L64.0551 911.651 L64.0551 909.557 Q64.0551 905.403 63.4754 904.405 Q62.8635 903.406 60.8667 903.406 L26.6963 903.406 Q28.4354 906.852 28.4354 912.07 Z" fill="#000000" fill-rule="nonzero" fill-opacity="1" /><path clip-path="url(#clip250)" d="M81.6395 879.405 Q81.3175 879.405 80.6089 879.148 L18.3872 855.863 Q18.3228 855.863 17.9685 855.702 Q17.6143 855.541 17.3888 855.444 Q17.1312 855.348 16.938 855.154 Q16.7447 854.929 16.7447 854.671 Q16.7447 854.027 17.5499 854.027 Q17.6143 854.027 18.3872 854.22 L80.6734 877.57 Q81.8006 877.956 82.1226 878.214 Q82.4447 878.439 82.4447 878.826 Q82.4447 879.405 81.6395 879.405 Z" fill="#000000" fill-rule="nonzero" fill-opacity="1" /><path clip-path="url(#clip250)" d="M37.6463 819.56 L74.3288 828.674 Q75.4882 828.932 75.7781 828.932 Q76.1645 828.932 76.3256 828.835 Q76.5188 828.706 76.6798 827.998 Q76.8409 827.257 76.8409 825.775 Q76.8409 825.228 76.8409 825.035 Q76.8409 824.841 76.9053 824.552 Q76.9697 824.262 77.1307 824.165 Q77.2917 824.068 77.5494 824.068 Q78.8698 824.068 78.8698 825.228 Q78.8698 826.323 78.7732 828.609 Q78.6766 830.896 78.6766 832.023 Q78.6766 833.118 78.7732 835.341 Q78.8698 837.563 78.8698 838.626 Q78.8698 839.012 78.6766 839.237 Q78.5156 839.463 78.3223 839.463 L78.1613 839.495 Q77.2595 839.495 77.0341 839.141 Q76.8409 838.787 76.8409 837.981 Q76.8086 835.212 76.4222 834.407 Q76.0357 833.601 74.6509 833.215 L62.8635 830.252 Q66.8248 834.213 66.8248 838.046 Q66.8248 841.749 63.9263 844.262 Q60.9956 846.741 56.2613 846.741 Q52.7509 846.741 49.2082 845.357 Q45.6656 843.939 42.9925 841.749 Q40.3194 839.527 38.6447 836.629 Q36.9378 833.73 36.9378 830.864 Q36.9378 829.028 38.0006 827.386 Q39.0634 825.711 41.5432 824.713 Q40.1262 823.875 38.5803 822.329 Q37.0022 820.783 37.0022 820.236 Q37.0022 819.914 37.2276 819.753 Q37.4209 819.56 37.6463 819.56 M44.1841 825.647 Q43.8621 825.647 43.0569 825.904 Q42.2518 826.13 41.1568 826.645 Q40.0296 827.128 39.2244 828.255 Q38.3871 829.382 38.3871 830.864 Q38.3871 832.989 40.4482 835.276 Q42.4772 837.531 46.0198 839.012 Q48.3387 839.946 52.6543 841.009 Q56.9698 842.072 59.1598 842.072 Q59.6751 842.072 60.2548 842.039 Q60.8345 841.975 61.8007 841.717 Q62.7669 841.46 63.5076 841.073 Q64.2484 840.654 64.7959 839.817 Q65.3434 838.98 65.3434 837.853 Q65.3434 835.405 63.25 832.957 Q61.1566 830.51 59.2887 829.479 Q59.0954 829.35 51.7847 827.514 Q44.474 825.647 44.1841 825.647 Z" fill="#000000" fill-rule="nonzero" fill-opacity="1" /><path clip-path="url(#clip250)" d="M82.5735 765.325 L16.6159 765.325 L16.6159 755.373 L18.1296 755.373 L18.1296 760.913 L81.0598 760.913 L81.0598 755.373 L82.5735 755.373 L82.5735 765.325 Z" fill="#000000" fill-rule="nonzero" fill-opacity="1" /><path clip-path="url(#clip250)" d="M28.4354 750.343 L26.3743 750.343 Q26.3743 742.42 22.1553 738.33 Q22.1553 737.203 22.4129 737.009 Q22.6706 736.816 23.8622 736.816 L60.8667 736.816 Q62.8313 736.816 63.4432 735.85 Q64.0551 734.884 64.0551 730.665 L64.0551 728.571 L66.0841 728.571 Q65.8909 730.89 65.8909 739.264 Q65.8909 747.637 66.0841 749.924 L64.0551 749.924 L64.0551 747.831 Q64.0551 743.676 63.4754 742.678 Q62.8635 741.679 60.8667 741.679 L26.6963 741.679 Q28.4354 745.125 28.4354 750.343 Z" fill="#000000" fill-rule="nonzero" fill-opacity="1" /><path clip-path="url(#clip250)" d="M81.6395 717.679 Q81.3175 717.679 80.6089 717.421 L18.3872 694.136 Q18.3228 694.136 17.9685 693.975 Q17.6143 693.814 17.3888 693.717 Q17.1312 693.621 16.938 693.428 Q16.7447 693.202 16.7447 692.944 Q16.7447 692.3 17.5499 692.3 Q17.6143 692.3 18.3872 692.494 L80.6734 715.843 Q81.8006 716.229 82.1226 716.487 Q82.4447 716.712 82.4447 717.099 Q82.4447 717.679 81.6395 717.679 Z" fill="#000000" fill-rule="nonzero" fill-opacity="1" /><path clip-path="url(#clip250)" d="M66.0841 685.015 L64.0551 685.015 Q64.0551 681.504 63.6364 680.699 Q63.1856 679.894 61.06 679.894 L43.379 679.894 Q40.9313 679.894 40.3194 680.763 Q39.7075 681.601 39.7075 685.015 L37.6463 685.015 L36.9378 675.739 L43.8621 675.739 Q36.9378 672.647 36.9378 665.981 Q36.9378 658.251 43.379 657.189 Q40.8669 656.061 38.9023 653.71 Q36.9378 651.327 36.9378 647.624 Q36.9378 642.664 39.3854 640.699 Q41.0279 639.25 42.8637 638.96 Q44.6994 638.67 49.4659 638.67 L62.0584 638.67 Q63.4432 638.606 63.7653 637.543 Q64.0551 636.48 64.0551 633.517 L66.0841 633.517 Q65.8909 640.248 65.8909 640.892 Q65.8909 641.408 66.0841 648.364 L64.0551 648.364 Q64.0551 644.854 63.6364 644.049 Q63.1856 643.211 61.06 643.211 L45.6978 643.211 Q42.3484 643.211 40.3838 644.242 Q38.3871 645.272 38.3871 648.107 Q38.3871 651.52 41.2534 654.258 Q44.1197 656.995 48.9506 656.995 L61.06 656.995 Q63.1856 656.995 63.6364 656.19 Q64.0551 655.353 64.0551 651.842 L66.0841 651.842 Q65.8909 658.574 65.8909 659.25 Q65.8909 659.765 66.0841 666.689 L64.0551 666.689 Q64.0551 663.179 63.6364 662.374 Q63.1856 661.536 61.06 661.536 L45.6978 661.536 Q42.3484 661.536 40.3838 662.567 Q38.3871 663.598 38.3871 666.432 Q38.3871 669.846 41.2534 672.583 Q44.1197 675.321 48.9506 675.321 L61.06 675.321 Q63.1856 675.321 63.6364 674.515 Q64.0551 673.678 64.0551 670.2 L66.0841 670.2 Q65.8909 676.931 65.8909 677.575 Q65.8909 678.09 66.0841 685.015 Z" fill="#000000" fill-rule="nonzero" fill-opacity="1" /><path clip-path="url(#clip250)" d="M66.0841 630.892 L64.0551 630.892 Q64.0551 627.381 63.6364 626.576 Q63.1856 625.771 61.06 625.771 L43.379 625.771 Q40.9313 625.771 40.3194 626.64 Q39.7075 627.478 39.7075 630.892 L37.6463 630.892 L36.9378 621.616 L43.8621 621.616 Q36.9378 618.525 36.9378 611.858 Q36.9378 604.129 43.379 603.066 Q40.8669 601.939 38.9023 599.587 Q36.9378 597.204 36.9378 593.501 Q36.9378 588.541 39.3854 586.576 Q41.0279 585.127 42.8637 584.837 Q44.6994 584.547 49.4659 584.547 L62.0584 584.547 Q63.4432 584.483 63.7653 583.42 Q64.0551 582.357 64.0551 579.394 L66.0841 579.394 Q65.8909 586.125 65.8909 586.77 Q65.8909 587.285 66.0841 594.241 L64.0551 594.241 Q64.0551 590.731 63.6364 589.926 Q63.1856 589.088 61.06 589.088 L45.6978 589.088 Q42.3484 589.088 40.3838 590.119 Q38.3871 591.15 38.3871 593.984 Q38.3871 597.397 41.2534 600.135 Q44.1197 602.872 48.9506 602.872 L61.06 602.872 Q63.1856 602.872 63.6364 602.067 Q64.0551 601.23 64.0551 597.72 L66.0841 597.72 Q65.8909 604.451 65.8909 605.127 Q65.8909 605.642 66.0841 612.566 L64.0551 612.566 Q64.0551 609.056 63.6364 608.251 Q63.1856 607.414 61.06 607.414 L45.6978 607.414 Q42.3484 607.414 40.3838 608.444 Q38.3871 609.475 38.3871 612.309 Q38.3871 615.723 41.2534 618.46 Q44.1197 621.198 48.9506 621.198 L61.06 621.198 Q63.1856 621.198 63.6364 620.392 Q64.0551 619.555 64.0551 616.077 L66.0841 616.077 Q65.8909 622.808 65.8909 623.452 Q65.8909 623.967 66.0841 630.892 Z" fill="#000000" fill-rule="nonzero" fill-opacity="1" /><path clip-path="url(#clip250)" d="M81.0598 576.505 L81.0598 570.965 L18.1296 570.965 L18.1296 576.505 L16.6159 576.505 L16.6159 566.553 L82.5735 566.553 L82.5735 576.505 L81.0598 576.505 Z" fill="#000000" fill-rule="nonzero" fill-opacity="1" /><circle clip-path="url(#clip252)" cx="2294.1" cy="1384.24" r="10.8" fill="#000000" fill-rule="evenodd" fill-opacity="1" stroke="none"/>
<circle clip-path="url(#clip252)" cx="2064.17" cy="1232.39" r="10.8" fill="#000000" fill-rule="evenodd" fill-opacity="1" stroke="none"/>
<circle clip-path="url(#clip252)" cx="1874.74" cy="1106.34" r="10.8" fill="#000000" fill-rule="evenodd" fill-opacity="1" stroke="none"/>
<circle clip-path="url(#clip252)" cx="1715.98" cy="1004.3" r="10.8" fill="#000000" fill-rule="evenodd" fill-opacity="1" stroke="none"/>
<circle clip-path="url(#clip252)" cx="1581" cy="911.255" r="10.8" fill="#000000" fill-rule="evenodd" fill-opacity="1" stroke="none"/>
<circle clip-path="url(#clip252)" cx="1464.83" cy="836.775" r="10.8" fill="#000000" fill-rule="evenodd" fill-opacity="1" stroke="none"/>
<circle clip-path="url(#clip252)" cx="1275.11" cy="708.157" r="10.8" fill="#000000" fill-rule="evenodd" fill-opacity="1" stroke="none"/>
<circle clip-path="url(#clip252)" cx="1196.65" cy="654.505" r="10.8" fill="#000000" fill-rule="evenodd" fill-opacity="1" stroke="none"/>
<circle clip-path="url(#clip252)" cx="1126.74" cy="605.744" r="10.8" fill="#000000" fill-rule="evenodd" fill-opacity="1" stroke="none"/>
<circle clip-path="url(#clip252)" cx="1064.05" cy="563.746" r="10.8" fill="#000000" fill-rule="evenodd" fill-opacity="1" stroke="none"/>
<circle clip-path="url(#clip252)" cx="1007.52" cy="530.321" r="10.8" fill="#000000" fill-rule="evenodd" fill-opacity="1" stroke="none"/>
<circle clip-path="url(#clip252)" cx="956.29" cy="501.098" r="10.8" fill="#000000" fill-rule="evenodd" fill-opacity="1" stroke="none"/>
<circle clip-path="url(#clip252)" cx="909.642" cy="464.26" r="10.8" fill="#000000" fill-rule="evenodd" fill-opacity="1" stroke="none"/>
<circle clip-path="url(#clip252)" cx="866.988" cy="431.975" r="10.8" fill="#000000" fill-rule="evenodd" fill-opacity="1" stroke="none"/>
<circle clip-path="url(#clip252)" cx="827.838" cy="405.034" r="10.8" fill="#000000" fill-rule="evenodd" fill-opacity="1" stroke="none"/>
<circle clip-path="url(#clip252)" cx="791.776" cy="391.173" r="10.8" fill="#000000" fill-rule="evenodd" fill-opacity="1" stroke="none"/>
<circle clip-path="url(#clip252)" cx="758.45" cy="377.041" r="10.8" fill="#000000" fill-rule="evenodd" fill-opacity="1" stroke="none"/>
<circle clip-path="url(#clip252)" cx="727.562" cy="340.475" r="10.8" fill="#000000" fill-rule="evenodd" fill-opacity="1" stroke="none"/>
<circle clip-path="url(#clip252)" cx="698.852" cy="325.331" r="10.8" fill="#000000" fill-rule="evenodd" fill-opacity="1" stroke="none"/>
<circle clip-path="url(#clip252)" cx="672.098" cy="302.032" r="10.8" fill="#000000" fill-rule="evenodd" fill-opacity="1" stroke="none"/>
<circle clip-path="url(#clip252)" cx="647.107" cy="302.032" r="10.8" fill="#000000" fill-rule="evenodd" fill-opacity="1" stroke="none"/>
<circle clip-path="url(#clip252)" cx="623.711" cy="269.827" r="10.8" fill="#000000" fill-rule="evenodd" fill-opacity="1" stroke="none"/>
<circle clip-path="url(#clip252)" cx="601.76" cy="253.213" r="10.8" fill="#000000" fill-rule="evenodd" fill-opacity="1" stroke="none"/>
<circle clip-path="url(#clip252)" cx="581.126" cy="253.213" r="10.8" fill="#000000" fill-rule="evenodd" fill-opacity="1" stroke="none"/>
<circle clip-path="url(#clip252)" cx="561.693" cy="218.907" r="10.8" fill="#000000" fill-rule="evenodd" fill-opacity="1" stroke="none"/>
<circle clip-path="url(#clip252)" cx="543.36" cy="218.907" r="10.8" fill="#000000" fill-rule="evenodd" fill-opacity="1" stroke="none"/>
<circle clip-path="url(#clip252)" cx="526.035" cy="201.191" r="10.8" fill="#000000" fill-rule="evenodd" fill-opacity="1" stroke="none"/>
<circle clip-path="url(#clip252)" cx="509.638" cy="201.191" r="10.8" fill="#000000" fill-rule="evenodd" fill-opacity="1" stroke="none"/>
<circle clip-path="url(#clip252)" cx="494.095" cy="183.083" r="10.8" fill="#000000" fill-rule="evenodd" fill-opacity="1" stroke="none"/>
<circle clip-path="url(#clip252)" cx="479.343" cy="164.57" r="10.8" fill="#000000" fill-rule="evenodd" fill-opacity="1" stroke="none"/>
<circle clip-path="url(#clip252)" cx="465.322" cy="164.57" r="10.8" fill="#000000" fill-rule="evenodd" fill-opacity="1" stroke="none"/>
<circle clip-path="url(#clip252)" cx="451.979" cy="164.57" r="10.8" fill="#000000" fill-rule="evenodd" fill-opacity="1" stroke="none"/>
<circle clip-path="url(#clip252)" cx="439.266" cy="145.639" r="10.8" fill="#000000" fill-rule="evenodd" fill-opacity="1" stroke="none"/>
<circle clip-path="url(#clip252)" cx="427.139" cy="145.639" r="10.8" fill="#000000" fill-rule="evenodd" fill-opacity="1" stroke="none"/>
<circle clip-path="url(#clip252)" cx="415.56" cy="136.012" r="10.8" fill="#000000" fill-rule="evenodd" fill-opacity="1" stroke="none"/>
<circle clip-path="url(#clip252)" cx="404.491" cy="126.274" r="10.8" fill="#000000" fill-rule="evenodd" fill-opacity="1" stroke="none"/>
<circle clip-path="url(#clip252)" cx="393.899" cy="126.274" r="10.8" fill="#000000" fill-rule="evenodd" fill-opacity="1" stroke="none"/>
<circle clip-path="url(#clip252)" cx="383.755" cy="106.462" r="10.8" fill="#000000" fill-rule="evenodd" fill-opacity="1" stroke="none"/>
<circle clip-path="url(#clip252)" cx="374.031" cy="106.462" r="10.8" fill="#000000" fill-rule="evenodd" fill-opacity="1" stroke="none"/>
<circle clip-path="url(#clip252)" cx="364.7" cy="106.462" r="10.8" fill="#000000" fill-rule="evenodd" fill-opacity="1" stroke="none"/>
<circle clip-path="url(#clip252)" cx="355.74" cy="96.3828" r="10.8" fill="#000000" fill-rule="evenodd" fill-opacity="1" stroke="none"/>
<circle clip-path="url(#clip252)" cx="347.129" cy="86.1857" r="10.8" fill="#000000" fill-rule="evenodd" fill-opacity="1" stroke="none"/>
<circle clip-path="url(#clip252)" cx="338.848" cy="86.1857" r="10.8" fill="#000000" fill-rule="evenodd" fill-opacity="1" stroke="none"/>
</svg>
