<?xml version="1.0" encoding="utf-8"?>
<svg xmlns="http://www.w3.org/2000/svg" xmlns:xlink="http://www.w3.org/1999/xlink" width="600" height="400" viewBox="0 0 2400 1600">
<defs>
  <clipPath id="clip450">
    <rect x="0" y="0" width="2400" height="1600"/>
  </clipPath>
</defs>
<path clip-path="url(#clip450)" d="M0 1600 L2400 1600 L2400 0 L0 0  Z" fill="#ffffff" fill-rule="evenodd" fill-opacity="1"/>
<defs>
  <clipPath id="clip451">
    <rect x="480" y="0" width="1681" height="1600"/>
  </clipPath>
</defs>
<path clip-path="url(#clip450)" d="M280.19 1423.18 L2352.76 1423.18 L2352.76 47.2441 L280.19 47.2441  Z" fill="#ffffff" fill-rule="evenodd" fill-opacity="1"/>
<defs>
  <clipPath id="clip452">
    <rect x="280" y="47" width="2074" height="1377"/>
  </clipPath>
</defs>
<polyline clip-path="url(#clip452)" style="stroke:#000000; stroke-linecap:round; stroke-linejoin:round; stroke-width:2; stroke-opacity:0.1; fill:none" points="359.087,1423.18 359.087,47.2441 "/>
<polyline clip-path="url(#clip452)" style="stroke:#000000; stroke-linecap:round; stroke-linejoin:round; stroke-width:2; stroke-opacity:0.1; fill:none" points="801.972,1423.18 801.972,47.2441 "/>
<polyline clip-path="url(#clip452)" style="stroke:#000000; stroke-linecap:round; stroke-linejoin:round; stroke-width:2; stroke-opacity:0.1; fill:none" points="1244.86,1423.18 1244.86,47.2441 "/>
<polyline clip-path="url(#clip452)" style="stroke:#000000; stroke-linecap:round; stroke-linejoin:round; stroke-width:2; stroke-opacity:0.1; fill:none" points="1687.74,1423.18 1687.74,47.2441 "/>
<polyline clip-path="url(#clip452)" style="stroke:#000000; stroke-linecap:round; stroke-linejoin:round; stroke-width:2; stroke-opacity:0.1; fill:none" points="2130.63,1423.18 2130.63,47.2441 "/>
<polyline clip-path="url(#clip452)" style="stroke:#000000; stroke-linecap:round; stroke-linejoin:round; stroke-width:2; stroke-opacity:0.1; fill:none" points="280.19,1240.32 2352.76,1240.32 "/>
<polyline clip-path="url(#clip452)" style="stroke:#000000; stroke-linecap:round; stroke-linejoin:round; stroke-width:2; stroke-opacity:0.1; fill:none" points="280.19,943.194 2352.76,943.194 "/>
<polyline clip-path="url(#clip452)" style="stroke:#000000; stroke-linecap:round; stroke-linejoin:round; stroke-width:2; stroke-opacity:0.1; fill:none" points="280.19,646.072 2352.76,646.072 "/>
<polyline clip-path="url(#clip452)" style="stroke:#000000; stroke-linecap:round; stroke-linejoin:round; stroke-width:2; stroke-opacity:0.1; fill:none" points="280.19,348.95 2352.76,348.95 "/>
<polyline clip-path="url(#clip452)" style="stroke:#000000; stroke-linecap:round; stroke-linejoin:round; stroke-width:2; stroke-opacity:0.1; fill:none" points="280.19,51.8272 2352.76,51.8272 "/>
<polyline clip-path="url(#clip450)" style="stroke:#000000; stroke-linecap:round; stroke-linejoin:round; stroke-width:4; stroke-opacity:1; fill:none" points="280.19,1423.18 2352.76,1423.18 "/>
<polyline clip-path="url(#clip450)" style="stroke:#000000; stroke-linecap:round; stroke-linejoin:round; stroke-width:4; stroke-opacity:1; fill:none" points="359.087,1423.18 359.087,1404.28 "/>
<polyline clip-path="url(#clip450)" style="stroke:#000000; stroke-linecap:round; stroke-linejoin:round; stroke-width:4; stroke-opacity:1; fill:none" points="801.972,1423.18 801.972,1404.28 "/>
<polyline clip-path="url(#clip450)" style="stroke:#000000; stroke-linecap:round; stroke-linejoin:round; stroke-width:4; stroke-opacity:1; fill:none" points="1244.86,1423.18 1244.86,1404.28 "/>
<polyline clip-path="url(#clip450)" style="stroke:#000000; stroke-linecap:round; stroke-linejoin:round; stroke-width:4; stroke-opacity:1; fill:none" points="1687.74,1423.18 1687.74,1404.28 "/>
<polyline clip-path="url(#clip450)" style="stroke:#000000; stroke-linecap:round; stroke-linejoin:round; stroke-width:4; stroke-opacity:1; fill:none" points="2130.63,1423.18 2130.63,1404.28 "/>
<path clip-path="url(#clip450)" d="M307.108 1454.1 Q303.497 1454.1 301.668 1457.66 Q299.862 1461.2 299.862 1468.33 Q299.862 1475.44 301.668 1479.01 Q303.497 1482.55 307.108 1482.55 Q310.742 1482.55 312.548 1479.01 Q314.376 1475.44 314.376 1468.33 Q314.376 1461.2 312.548 1457.66 Q310.742 1454.1 307.108 1454.1 M307.108 1450.39 Q312.918 1450.39 315.973 1455 Q319.052 1459.58 319.052 1468.33 Q319.052 1477.06 315.973 1481.67 Q312.918 1486.25 307.108 1486.25 Q301.298 1486.25 298.219 1481.67 Q295.163 1477.06 295.163 1468.33 Q295.163 1459.58 298.219 1455 Q301.298 1450.39 307.108 1450.39 Z" fill="#000000" fill-rule="nonzero" fill-opacity="1" /><path clip-path="url(#clip450)" d="M327.27 1479.7 L332.154 1479.7 L332.154 1485.58 L327.27 1485.58 L327.27 1479.7 Z" fill="#000000" fill-rule="nonzero" fill-opacity="1" /><path clip-path="url(#clip450)" d="M352.339 1454.1 Q348.728 1454.1 346.899 1457.66 Q345.094 1461.2 345.094 1468.33 Q345.094 1475.44 346.899 1479.01 Q348.728 1482.55 352.339 1482.55 Q355.973 1482.55 357.779 1479.01 Q359.607 1475.44 359.607 1468.33 Q359.607 1461.2 357.779 1457.66 Q355.973 1454.1 352.339 1454.1 M352.339 1450.39 Q358.149 1450.39 361.205 1455 Q364.283 1459.58 364.283 1468.33 Q364.283 1477.06 361.205 1481.67 Q358.149 1486.25 352.339 1486.25 Q346.529 1486.25 343.45 1481.67 Q340.395 1477.06 340.395 1468.33 Q340.395 1459.58 343.45 1455 Q346.529 1450.39 352.339 1450.39 Z" fill="#000000" fill-rule="nonzero" fill-opacity="1" /><path clip-path="url(#clip450)" d="M382.501 1454.1 Q378.89 1454.1 377.061 1457.66 Q375.256 1461.2 375.256 1468.33 Q375.256 1475.44 377.061 1479.01 Q378.89 1482.55 382.501 1482.55 Q386.135 1482.55 387.941 1479.01 Q389.769 1475.44 389.769 1468.33 Q389.769 1461.2 387.941 1457.66 Q386.135 1454.1 382.501 1454.1 M382.501 1450.39 Q388.311 1450.39 391.367 1455 Q394.445 1459.58 394.445 1468.33 Q394.445 1477.06 391.367 1481.67 Q388.311 1486.25 382.501 1486.25 Q376.691 1486.25 373.612 1481.67 Q370.556 1477.06 370.556 1468.33 Q370.556 1459.58 373.612 1455 Q376.691 1450.39 382.501 1450.39 Z" fill="#000000" fill-rule="nonzero" fill-opacity="1" /><path clip-path="url(#clip450)" d="M406.691 1481.64 L423.01 1481.64 L423.01 1485.58 L401.066 1485.58 L401.066 1481.64 Q403.728 1478.89 408.311 1474.26 Q412.917 1469.61 414.098 1468.27 Q416.343 1465.74 417.223 1464.01 Q418.126 1462.25 418.126 1460.56 Q418.126 1457.8 416.181 1456.07 Q414.26 1454.33 411.158 1454.33 Q408.959 1454.33 406.505 1455.09 Q404.075 1455.86 401.297 1457.41 L401.297 1452.69 Q404.121 1451.55 406.575 1450.97 Q409.028 1450.39 411.066 1450.39 Q416.436 1450.39 419.63 1453.08 Q422.825 1455.77 422.825 1460.26 Q422.825 1462.39 422.015 1464.31 Q421.227 1466.2 419.121 1468.8 Q418.542 1469.47 415.44 1472.69 Q412.339 1475.88 406.691 1481.64 Z" fill="#000000" fill-rule="nonzero" fill-opacity="1" /><path clip-path="url(#clip450)" d="M748.952 1454.1 Q745.341 1454.1 743.512 1457.66 Q741.707 1461.2 741.707 1468.33 Q741.707 1475.44 743.512 1479.01 Q745.341 1482.55 748.952 1482.55 Q752.586 1482.55 754.392 1479.01 Q756.22 1475.44 756.22 1468.33 Q756.22 1461.2 754.392 1457.66 Q752.586 1454.1 748.952 1454.1 M748.952 1450.39 Q754.762 1450.39 757.818 1455 Q760.896 1459.58 760.896 1468.33 Q760.896 1477.06 757.818 1481.67 Q754.762 1486.25 748.952 1486.25 Q743.142 1486.25 740.063 1481.67 Q737.008 1477.06 737.008 1468.33 Q737.008 1459.58 740.063 1455 Q743.142 1450.39 748.952 1450.39 Z" fill="#000000" fill-rule="nonzero" fill-opacity="1" /><path clip-path="url(#clip450)" d="M769.114 1479.7 L773.998 1479.7 L773.998 1485.58 L769.114 1485.58 L769.114 1479.7 Z" fill="#000000" fill-rule="nonzero" fill-opacity="1" /><path clip-path="url(#clip450)" d="M794.183 1454.1 Q790.572 1454.1 788.743 1457.66 Q786.938 1461.2 786.938 1468.33 Q786.938 1475.44 788.743 1479.01 Q790.572 1482.55 794.183 1482.55 Q797.817 1482.55 799.623 1479.01 Q801.452 1475.44 801.452 1468.33 Q801.452 1461.2 799.623 1457.66 Q797.817 1454.1 794.183 1454.1 M794.183 1450.39 Q799.993 1450.39 803.049 1455 Q806.128 1459.58 806.128 1468.33 Q806.128 1477.06 803.049 1481.67 Q799.993 1486.25 794.183 1486.25 Q788.373 1486.25 785.294 1481.67 Q782.239 1477.06 782.239 1468.33 Q782.239 1459.58 785.294 1455 Q788.373 1450.39 794.183 1450.39 Z" fill="#000000" fill-rule="nonzero" fill-opacity="1" /><path clip-path="url(#clip450)" d="M824.345 1454.1 Q820.734 1454.1 818.905 1457.66 Q817.1 1461.2 817.1 1468.33 Q817.1 1475.44 818.905 1479.01 Q820.734 1482.55 824.345 1482.55 Q827.979 1482.55 829.785 1479.01 Q831.614 1475.44 831.614 1468.33 Q831.614 1461.2 829.785 1457.66 Q827.979 1454.1 824.345 1454.1 M824.345 1450.39 Q830.155 1450.39 833.211 1455 Q836.289 1459.58 836.289 1468.33 Q836.289 1477.06 833.211 1481.67 Q830.155 1486.25 824.345 1486.25 Q818.535 1486.25 815.456 1481.67 Q812.401 1477.06 812.401 1468.33 Q812.401 1459.58 815.456 1455 Q818.535 1450.39 824.345 1450.39 Z" fill="#000000" fill-rule="nonzero" fill-opacity="1" /><path clip-path="url(#clip450)" d="M857.354 1455.09 L845.549 1473.54 L857.354 1473.54 L857.354 1455.09 M856.127 1451.02 L862.007 1451.02 L862.007 1473.54 L866.937 1473.54 L866.937 1477.43 L862.007 1477.43 L862.007 1485.58 L857.354 1485.58 L857.354 1477.43 L841.752 1477.43 L841.752 1472.92 L856.127 1451.02 Z" fill="#000000" fill-rule="nonzero" fill-opacity="1" /><path clip-path="url(#clip450)" d="M1192 1454.1 Q1188.39 1454.1 1186.56 1457.66 Q1184.75 1461.2 1184.75 1468.33 Q1184.75 1475.44 1186.56 1479.01 Q1188.39 1482.55 1192 1482.55 Q1195.63 1482.55 1197.44 1479.01 Q1199.27 1475.44 1199.27 1468.33 Q1199.27 1461.2 1197.44 1457.66 Q1195.63 1454.1 1192 1454.1 M1192 1450.39 Q1197.81 1450.39 1200.87 1455 Q1203.94 1459.58 1203.94 1468.33 Q1203.94 1477.06 1200.87 1481.67 Q1197.81 1486.25 1192 1486.25 Q1186.19 1486.25 1183.11 1481.67 Q1180.06 1477.06 1180.06 1468.33 Q1180.06 1459.58 1183.11 1455 Q1186.19 1450.39 1192 1450.39 Z" fill="#000000" fill-rule="nonzero" fill-opacity="1" /><path clip-path="url(#clip450)" d="M1212.16 1479.7 L1217.05 1479.7 L1217.05 1485.58 L1212.16 1485.58 L1212.16 1479.7 Z" fill="#000000" fill-rule="nonzero" fill-opacity="1" /><path clip-path="url(#clip450)" d="M1237.23 1454.1 Q1233.62 1454.1 1231.79 1457.66 Q1229.99 1461.2 1229.99 1468.33 Q1229.99 1475.44 1231.79 1479.01 Q1233.62 1482.55 1237.23 1482.55 Q1240.87 1482.55 1242.67 1479.01 Q1244.5 1475.44 1244.5 1468.33 Q1244.5 1461.2 1242.67 1457.66 Q1240.87 1454.1 1237.23 1454.1 M1237.23 1450.39 Q1243.04 1450.39 1246.1 1455 Q1249.18 1459.58 1249.18 1468.33 Q1249.18 1477.06 1246.1 1481.67 Q1243.04 1486.25 1237.23 1486.25 Q1231.42 1486.25 1228.34 1481.67 Q1225.29 1477.06 1225.29 1468.33 Q1225.29 1459.58 1228.34 1455 Q1231.42 1450.39 1237.23 1450.39 Z" fill="#000000" fill-rule="nonzero" fill-opacity="1" /><path clip-path="url(#clip450)" d="M1267.39 1454.1 Q1263.78 1454.1 1261.95 1457.66 Q1260.15 1461.2 1260.15 1468.33 Q1260.15 1475.44 1261.95 1479.01 Q1263.78 1482.55 1267.39 1482.55 Q1271.03 1482.55 1272.83 1479.01 Q1274.66 1475.44 1274.66 1468.33 Q1274.66 1461.2 1272.83 1457.66 Q1271.03 1454.1 1267.39 1454.1 M1267.39 1450.39 Q1273.2 1450.39 1276.26 1455 Q1279.34 1459.58 1279.34 1468.33 Q1279.34 1477.06 1276.26 1481.67 Q1273.2 1486.25 1267.39 1486.25 Q1261.58 1486.25 1258.5 1481.67 Q1255.45 1477.06 1255.45 1468.33 Q1255.45 1459.58 1258.5 1455 Q1261.58 1450.39 1267.39 1450.39 Z" fill="#000000" fill-rule="nonzero" fill-opacity="1" /><path clip-path="url(#clip450)" d="M1298.13 1466.44 Q1294.99 1466.44 1293.13 1468.59 Q1291.3 1470.74 1291.3 1474.49 Q1291.3 1478.22 1293.13 1480.39 Q1294.99 1482.55 1298.13 1482.55 Q1301.28 1482.55 1303.11 1480.39 Q1304.96 1478.22 1304.96 1474.49 Q1304.96 1470.74 1303.11 1468.59 Q1301.28 1466.44 1298.13 1466.44 M1307.42 1451.78 L1307.42 1456.04 Q1305.66 1455.21 1303.85 1454.77 Q1302.07 1454.33 1300.31 1454.33 Q1295.68 1454.33 1293.23 1457.45 Q1290.8 1460.58 1290.45 1466.9 Q1291.81 1464.89 1293.87 1463.82 Q1295.93 1462.73 1298.41 1462.73 Q1303.62 1462.73 1306.63 1465.9 Q1309.66 1469.05 1309.66 1474.49 Q1309.66 1479.82 1306.51 1483.03 Q1303.36 1486.25 1298.13 1486.25 Q1292.14 1486.25 1288.97 1481.67 Q1285.8 1477.06 1285.8 1468.33 Q1285.8 1460.14 1289.68 1455.28 Q1293.57 1450.39 1300.12 1450.39 Q1301.88 1450.39 1303.67 1450.74 Q1305.47 1451.09 1307.42 1451.78 Z" fill="#000000" fill-rule="nonzero" fill-opacity="1" /><path clip-path="url(#clip450)" d="M1635.01 1454.1 Q1631.4 1454.1 1629.57 1457.66 Q1627.77 1461.2 1627.77 1468.33 Q1627.77 1475.44 1629.57 1479.01 Q1631.4 1482.55 1635.01 1482.55 Q1638.65 1482.55 1640.45 1479.01 Q1642.28 1475.44 1642.28 1468.33 Q1642.28 1461.2 1640.45 1457.66 Q1638.65 1454.1 1635.01 1454.1 M1635.01 1450.39 Q1640.82 1450.39 1643.88 1455 Q1646.96 1459.58 1646.96 1468.33 Q1646.96 1477.06 1643.88 1481.67 Q1640.82 1486.25 1635.01 1486.25 Q1629.2 1486.25 1626.12 1481.67 Q1623.07 1477.06 1623.07 1468.33 Q1623.07 1459.58 1626.12 1455 Q1629.2 1450.39 1635.01 1450.39 Z" fill="#000000" fill-rule="nonzero" fill-opacity="1" /><path clip-path="url(#clip450)" d="M1655.17 1479.7 L1660.06 1479.7 L1660.06 1485.58 L1655.17 1485.58 L1655.17 1479.7 Z" fill="#000000" fill-rule="nonzero" fill-opacity="1" /><path clip-path="url(#clip450)" d="M1680.24 1454.1 Q1676.63 1454.1 1674.8 1457.66 Q1673 1461.2 1673 1468.33 Q1673 1475.44 1674.8 1479.01 Q1676.63 1482.55 1680.24 1482.55 Q1683.88 1482.55 1685.68 1479.01 Q1687.51 1475.44 1687.51 1468.33 Q1687.51 1461.2 1685.68 1457.66 Q1683.88 1454.1 1680.24 1454.1 M1680.24 1450.39 Q1686.05 1450.39 1689.11 1455 Q1692.19 1459.58 1692.19 1468.33 Q1692.19 1477.06 1689.11 1481.67 Q1686.05 1486.25 1680.24 1486.25 Q1674.43 1486.25 1671.36 1481.67 Q1668.3 1477.06 1668.3 1468.33 Q1668.3 1459.58 1671.36 1455 Q1674.43 1450.39 1680.24 1450.39 Z" fill="#000000" fill-rule="nonzero" fill-opacity="1" /><path clip-path="url(#clip450)" d="M1710.41 1454.1 Q1706.8 1454.1 1704.97 1457.66 Q1703.16 1461.2 1703.16 1468.33 Q1703.16 1475.44 1704.97 1479.01 Q1706.8 1482.55 1710.41 1482.55 Q1714.04 1482.55 1715.85 1479.01 Q1717.67 1475.44 1717.67 1468.33 Q1717.67 1461.2 1715.85 1457.66 Q1714.04 1454.1 1710.41 1454.1 M1710.41 1450.39 Q1716.22 1450.39 1719.27 1455 Q1722.35 1459.58 1722.35 1468.33 Q1722.35 1477.06 1719.27 1481.67 Q1716.22 1486.25 1710.41 1486.25 Q1704.6 1486.25 1701.52 1481.67 Q1698.46 1477.06 1698.46 1468.33 Q1698.46 1459.58 1701.52 1455 Q1704.6 1450.39 1710.41 1450.39 Z" fill="#000000" fill-rule="nonzero" fill-opacity="1" /><path clip-path="url(#clip450)" d="M1740.57 1469.17 Q1737.23 1469.17 1735.31 1470.95 Q1733.42 1472.73 1733.42 1475.86 Q1733.42 1478.98 1735.31 1480.77 Q1737.23 1482.55 1740.57 1482.55 Q1743.9 1482.55 1745.82 1480.77 Q1747.74 1478.96 1747.74 1475.86 Q1747.74 1472.73 1745.82 1470.95 Q1743.92 1469.17 1740.57 1469.17 M1735.89 1467.18 Q1732.88 1466.44 1731.19 1464.38 Q1729.53 1462.32 1729.53 1459.35 Q1729.53 1455.21 1732.47 1452.8 Q1735.43 1450.39 1740.57 1450.39 Q1745.73 1450.39 1748.67 1452.8 Q1751.61 1455.21 1751.61 1459.35 Q1751.61 1462.32 1749.92 1464.38 Q1748.25 1466.44 1745.27 1467.18 Q1748.65 1467.96 1750.52 1470.26 Q1752.42 1472.55 1752.42 1475.86 Q1752.42 1480.88 1749.34 1483.57 Q1746.29 1486.25 1740.57 1486.25 Q1734.85 1486.25 1731.77 1483.57 Q1728.72 1480.88 1728.72 1475.86 Q1728.72 1472.55 1730.61 1470.26 Q1732.51 1467.96 1735.89 1467.18 M1734.18 1459.79 Q1734.18 1462.48 1735.85 1463.98 Q1737.54 1465.49 1740.57 1465.49 Q1743.58 1465.49 1745.27 1463.98 Q1746.98 1462.48 1746.98 1459.79 Q1746.98 1457.11 1745.27 1455.6 Q1743.58 1454.1 1740.57 1454.1 Q1737.54 1454.1 1735.85 1455.6 Q1734.18 1457.11 1734.18 1459.79 Z" fill="#000000" fill-rule="nonzero" fill-opacity="1" /><path clip-path="url(#clip450)" d="M2077.85 1454.1 Q2074.24 1454.1 2072.41 1457.66 Q2070.61 1461.2 2070.61 1468.33 Q2070.61 1475.44 2072.41 1479.01 Q2074.24 1482.55 2077.85 1482.55 Q2081.49 1482.55 2083.29 1479.01 Q2085.12 1475.44 2085.12 1468.33 Q2085.12 1461.2 2083.29 1457.66 Q2081.49 1454.1 2077.85 1454.1 M2077.85 1450.39 Q2083.66 1450.39 2086.72 1455 Q2089.8 1459.58 2089.8 1468.33 Q2089.8 1477.06 2086.72 1481.67 Q2083.66 1486.25 2077.85 1486.25 Q2072.04 1486.25 2068.96 1481.67 Q2065.91 1477.06 2065.91 1468.33 Q2065.91 1459.58 2068.96 1455 Q2072.04 1450.39 2077.85 1450.39 Z" fill="#000000" fill-rule="nonzero" fill-opacity="1" /><path clip-path="url(#clip450)" d="M2098.01 1479.7 L2102.9 1479.7 L2102.9 1485.58 L2098.01 1485.58 L2098.01 1479.7 Z" fill="#000000" fill-rule="nonzero" fill-opacity="1" /><path clip-path="url(#clip450)" d="M2123.08 1454.1 Q2119.47 1454.1 2117.64 1457.66 Q2115.84 1461.2 2115.84 1468.33 Q2115.84 1475.44 2117.64 1479.01 Q2119.47 1482.55 2123.08 1482.55 Q2126.72 1482.55 2128.52 1479.01 Q2130.35 1475.44 2130.35 1468.33 Q2130.35 1461.2 2128.52 1457.66 Q2126.72 1454.1 2123.08 1454.1 M2123.08 1450.39 Q2128.89 1450.39 2131.95 1455 Q2135.03 1459.58 2135.03 1468.33 Q2135.03 1477.06 2131.95 1481.67 Q2128.89 1486.25 2123.08 1486.25 Q2117.27 1486.25 2114.2 1481.67 Q2111.14 1477.06 2111.14 1468.33 Q2111.14 1459.58 2114.2 1455 Q2117.27 1450.39 2123.08 1450.39 Z" fill="#000000" fill-rule="nonzero" fill-opacity="1" /><path clip-path="url(#clip450)" d="M2144.06 1481.64 L2151.69 1481.64 L2151.69 1455.28 L2143.38 1456.95 L2143.38 1452.69 L2151.65 1451.02 L2156.32 1451.02 L2156.32 1481.64 L2163.96 1481.64 L2163.96 1485.58 L2144.06 1485.58 L2144.06 1481.64 Z" fill="#000000" fill-rule="nonzero" fill-opacity="1" /><path clip-path="url(#clip450)" d="M2183.41 1454.1 Q2179.8 1454.1 2177.97 1457.66 Q2176.16 1461.2 2176.16 1468.33 Q2176.16 1475.44 2177.97 1479.01 Q2179.8 1482.55 2183.41 1482.55 Q2187.04 1482.55 2188.85 1479.01 Q2190.68 1475.44 2190.68 1468.33 Q2190.68 1461.2 2188.85 1457.66 Q2187.04 1454.1 2183.41 1454.1 M2183.41 1450.39 Q2189.22 1450.39 2192.27 1455 Q2195.35 1459.58 2195.35 1468.33 Q2195.35 1477.06 2192.27 1481.67 Q2189.22 1486.25 2183.41 1486.25 Q2177.6 1486.25 2174.52 1481.67 Q2171.46 1477.06 2171.46 1468.33 Q2171.46 1459.58 2174.52 1455 Q2177.6 1450.39 2183.41 1450.39 Z" fill="#000000" fill-rule="nonzero" fill-opacity="1" /><path clip-path="url(#clip450)" d="M1137.75 1518.22 L1137.75 1516.16 Q1145.67 1516.16 1149.76 1511.94 Q1150.89 1511.94 1151.08 1512.2 Q1151.28 1512.45 1151.28 1513.65 L1151.28 1550.65 Q1151.28 1552.61 1152.24 1553.23 Q1153.21 1553.84 1157.43 1553.84 L1159.52 1553.84 L1159.52 1555.87 Q1157.2 1555.67 1148.83 1555.67 Q1140.45 1555.67 1138.17 1555.87 L1138.17 1553.84 L1140.26 1553.84 Q1144.42 1553.84 1145.41 1553.26 Q1146.41 1552.65 1146.41 1550.65 L1146.41 1516.48 Q1142.97 1518.22 1137.75 1518.22 Z" fill="#000000" fill-rule="nonzero" fill-opacity="1" /><path clip-path="url(#clip450)" d="M1170.41 1571.42 Q1170.41 1571.1 1170.67 1570.39 L1193.96 1508.17 Q1193.96 1508.11 1194.12 1507.75 Q1194.28 1507.4 1194.37 1507.17 Q1194.47 1506.91 1194.66 1506.72 Q1194.89 1506.53 1195.15 1506.53 Q1195.79 1506.53 1195.79 1507.33 Q1195.79 1507.4 1195.6 1508.17 L1172.25 1570.46 Q1171.86 1571.58 1171.61 1571.91 Q1171.38 1572.23 1170.99 1572.23 Q1170.41 1572.23 1170.41 1571.42 Z" fill="#000000" fill-rule="nonzero" fill-opacity="1" /><path clip-path="url(#clip450)" d="M1237.54 1537.25 Q1237.54 1541.95 1235.15 1546.5 Q1232.8 1551.04 1229.1 1553.84 Q1225.4 1556.61 1221.63 1556.61 Q1219.37 1556.61 1217.86 1555.38 Q1216.38 1554.13 1215.57 1552.36 Q1214.96 1554.55 1213.64 1559.8 Q1212.32 1565.05 1212.32 1565.56 Q1212.32 1565.85 1212.38 1565.98 Q1212.45 1566.11 1212.74 1566.27 Q1213.03 1566.46 1213.74 1566.53 Q1214.45 1566.62 1215.64 1566.62 Q1216.25 1566.62 1216.48 1566.62 Q1216.73 1566.66 1216.96 1566.82 Q1217.22 1566.98 1217.22 1567.33 Q1217.22 1568.65 1216.02 1568.65 Q1214.96 1568.65 1212.77 1568.56 Q1210.58 1568.46 1209.49 1568.46 Q1208.55 1568.46 1206.68 1568.56 Q1204.82 1568.65 1203.95 1568.65 Q1203.08 1568.65 1203.08 1567.88 Q1203.08 1567.43 1203.21 1567.14 Q1203.3 1566.88 1203.56 1566.75 Q1203.82 1566.66 1204.04 1566.62 Q1204.24 1566.62 1204.62 1566.62 Q1206.1 1566.62 1206.75 1566.37 Q1207.39 1566.14 1207.62 1565.66 Q1207.88 1565.21 1208.17 1563.92 L1215.57 1534.55 Q1216.02 1532.58 1216.02 1531.2 Q1216.02 1529.46 1215.48 1528.81 Q1214.93 1528.17 1213.96 1528.17 Q1212.29 1528.17 1211.19 1530.17 Q1210.1 1532.16 1209.16 1536.03 Q1208.87 1537.09 1208.68 1537.32 Q1208.52 1537.54 1208.04 1537.54 Q1207.23 1537.51 1207.23 1536.87 Q1207.23 1536.71 1207.49 1535.67 Q1207.75 1534.61 1208.23 1533.07 Q1208.75 1531.49 1209.29 1530.49 Q1209.62 1529.81 1209.91 1529.36 Q1210.19 1528.91 1210.77 1528.2 Q1211.39 1527.49 1212.26 1527.11 Q1213.13 1526.72 1214.19 1526.72 Q1216.25 1526.72 1217.96 1527.95 Q1219.66 1529.17 1220.11 1531.65 Q1221.95 1529.49 1224.2 1528.11 Q1226.46 1526.72 1228.75 1526.72 Q1232.55 1526.72 1235.03 1529.68 Q1237.54 1532.62 1237.54 1537.25 M1232.77 1534.35 Q1232.77 1531.42 1231.64 1529.81 Q1230.55 1528.17 1228.55 1528.17 Q1226.07 1528.17 1223.21 1530.68 Q1220.37 1533.07 1219.79 1535.29 L1216.54 1548.2 L1216.35 1549.27 Q1216.35 1549.46 1216.44 1550.04 Q1216.57 1550.59 1216.93 1551.49 Q1217.31 1552.39 1217.83 1553.19 Q1218.38 1553.97 1219.34 1554.55 Q1220.34 1555.13 1221.56 1555.13 Q1223.53 1555.13 1225.65 1553.39 Q1227.81 1551.65 1229.42 1548.36 Q1230.42 1546.24 1231.58 1541.66 Q1232.77 1537.06 1232.77 1534.35 Z" fill="#000000" fill-rule="nonzero" fill-opacity="1" /><path clip-path="url(#clip450)" d="M1288.23 1572.36 L1288.23 1506.4 L1298.18 1506.4 L1298.18 1507.91 L1292.64 1507.91 L1292.64 1570.84 L1298.18 1570.84 L1298.18 1572.36 L1288.23 1572.36 Z" fill="#000000" fill-rule="nonzero" fill-opacity="1" /><path clip-path="url(#clip450)" d="M1303.21 1518.22 L1303.21 1516.16 Q1311.13 1516.16 1315.22 1511.94 Q1316.35 1511.94 1316.54 1512.2 Q1316.73 1512.45 1316.73 1513.65 L1316.73 1550.65 Q1316.73 1552.61 1317.7 1553.23 Q1318.67 1553.84 1322.89 1553.84 L1324.98 1553.84 L1324.98 1555.87 Q1322.66 1555.67 1314.29 1555.67 Q1305.91 1555.67 1303.63 1555.87 L1303.63 1553.84 L1305.72 1553.84 Q1309.87 1553.84 1310.87 1553.26 Q1311.87 1552.65 1311.87 1550.65 L1311.87 1516.48 Q1308.43 1518.22 1303.21 1518.22 Z" fill="#000000" fill-rule="nonzero" fill-opacity="1" /><path clip-path="url(#clip450)" d="M1335.87 1571.42 Q1335.87 1571.1 1336.13 1570.39 L1359.41 1508.17 Q1359.41 1508.11 1359.58 1507.75 Q1359.74 1507.4 1359.83 1507.17 Q1359.93 1506.91 1360.12 1506.72 Q1360.35 1506.53 1360.61 1506.53 Q1361.25 1506.53 1361.25 1507.33 Q1361.25 1507.4 1361.06 1508.17 L1337.71 1570.46 Q1337.32 1571.58 1337.06 1571.91 Q1336.84 1572.23 1336.45 1572.23 Q1335.87 1572.23 1335.87 1571.42 Z" fill="#000000" fill-rule="nonzero" fill-opacity="1" /><path clip-path="url(#clip450)" d="M1368.54 1555.87 L1368.54 1553.84 Q1372.05 1553.84 1372.85 1553.42 Q1373.66 1552.97 1373.66 1550.84 L1373.66 1533.16 Q1373.66 1530.72 1372.79 1530.1 Q1371.95 1529.49 1368.54 1529.49 L1368.54 1527.43 L1377.81 1526.72 L1377.81 1533.65 Q1380.9 1526.72 1387.57 1526.72 Q1395.3 1526.72 1396.36 1533.16 Q1397.49 1530.65 1399.84 1528.69 Q1402.22 1526.72 1405.93 1526.72 Q1410.89 1526.72 1412.85 1529.17 Q1414.3 1530.81 1414.59 1532.65 Q1414.88 1534.48 1414.88 1539.25 L1414.88 1551.84 Q1414.95 1553.23 1416.01 1553.55 Q1417.07 1553.84 1420.03 1553.84 L1420.03 1555.87 Q1413.3 1555.67 1412.66 1555.67 Q1412.14 1555.67 1405.19 1555.87 L1405.19 1553.84 Q1408.7 1553.84 1409.5 1553.42 Q1410.34 1552.97 1410.34 1550.84 L1410.34 1535.48 Q1410.34 1532.13 1409.31 1530.17 Q1408.28 1528.17 1405.44 1528.17 Q1402.03 1528.17 1399.29 1531.04 Q1396.56 1533.9 1396.56 1538.73 L1396.56 1550.84 Q1396.56 1552.97 1397.36 1553.42 Q1398.2 1553.84 1401.71 1553.84 L1401.71 1555.87 Q1394.98 1555.67 1394.3 1555.67 Q1393.79 1555.67 1386.86 1555.87 L1386.86 1553.84 Q1390.37 1553.84 1391.18 1553.42 Q1392.01 1552.97 1392.01 1550.84 L1392.01 1535.48 Q1392.01 1532.13 1390.98 1530.17 Q1389.95 1528.17 1387.12 1528.17 Q1383.71 1528.17 1380.97 1531.04 Q1378.23 1533.9 1378.23 1538.73 L1378.23 1550.84 Q1378.23 1552.97 1379.04 1553.42 Q1379.87 1553.84 1383.35 1553.84 L1383.35 1555.87 Q1376.62 1555.67 1375.98 1555.67 Q1375.46 1555.67 1368.54 1555.87 Z" fill="#000000" fill-rule="nonzero" fill-opacity="1" /><path clip-path="url(#clip450)" d="M1422.66 1555.87 L1422.66 1553.84 Q1426.17 1553.84 1426.97 1553.42 Q1427.78 1552.97 1427.78 1550.84 L1427.78 1533.16 Q1427.78 1530.72 1426.91 1530.1 Q1426.07 1529.49 1422.66 1529.49 L1422.66 1527.43 L1431.93 1526.72 L1431.93 1533.65 Q1435.03 1526.72 1441.69 1526.72 Q1449.42 1526.72 1450.49 1533.16 Q1451.61 1530.65 1453.96 1528.69 Q1456.35 1526.72 1460.05 1526.72 Q1465.01 1526.72 1466.97 1529.17 Q1468.42 1530.81 1468.71 1532.65 Q1469 1534.48 1469 1539.25 L1469 1551.84 Q1469.07 1553.23 1470.13 1553.55 Q1471.19 1553.84 1474.16 1553.84 L1474.16 1555.87 Q1467.43 1555.67 1466.78 1555.67 Q1466.27 1555.67 1459.31 1555.87 L1459.31 1553.84 Q1462.82 1553.84 1463.63 1553.42 Q1464.46 1552.97 1464.46 1550.84 L1464.46 1535.48 Q1464.46 1532.13 1463.43 1530.17 Q1462.4 1528.17 1459.57 1528.17 Q1456.15 1528.17 1453.42 1531.04 Q1450.68 1533.9 1450.68 1538.73 L1450.68 1550.84 Q1450.68 1552.97 1451.48 1553.42 Q1452.32 1553.84 1455.83 1553.84 L1455.83 1555.87 Q1449.1 1555.67 1448.42 1555.67 Q1447.91 1555.67 1440.98 1555.87 L1440.98 1553.84 Q1444.49 1553.84 1445.3 1553.42 Q1446.14 1552.97 1446.14 1550.84 L1446.14 1535.48 Q1446.14 1532.13 1445.11 1530.17 Q1444.08 1528.17 1441.24 1528.17 Q1437.83 1528.17 1435.09 1531.04 Q1432.35 1533.9 1432.35 1538.73 L1432.35 1550.84 Q1432.35 1552.97 1433.16 1553.42 Q1434 1553.84 1437.47 1553.84 L1437.47 1555.87 Q1430.74 1555.67 1430.1 1555.67 Q1429.58 1555.67 1422.66 1555.87 Z" fill="#000000" fill-rule="nonzero" fill-opacity="1" /><path clip-path="url(#clip450)" d="M1477.05 1570.84 L1482.59 1570.84 L1482.59 1507.91 L1477.05 1507.91 L1477.05 1506.4 L1487 1506.4 L1487 1572.36 L1477.05 1572.36 L1477.05 1570.84 Z" fill="#000000" fill-rule="nonzero" fill-opacity="1" /><polyline clip-path="url(#clip450)" style="stroke:#000000; stroke-linecap:round; stroke-linejoin:round; stroke-width:4; stroke-opacity:1; fill:none" points="280.19,1423.18 280.19,47.2441 "/>
<polyline clip-path="url(#clip450)" style="stroke:#000000; stroke-linecap:round; stroke-linejoin:round; stroke-width:4; stroke-opacity:1; fill:none" points="280.19,1240.32 299.088,1240.32 "/>
<polyline clip-path="url(#clip450)" style="stroke:#000000; stroke-linecap:round; stroke-linejoin:round; stroke-width:4; stroke-opacity:1; fill:none" points="280.19,943.194 299.088,943.194 "/>
<polyline clip-path="url(#clip450)" style="stroke:#000000; stroke-linecap:round; stroke-linejoin:round; stroke-width:4; stroke-opacity:1; fill:none" points="280.19,646.072 299.088,646.072 "/>
<polyline clip-path="url(#clip450)" style="stroke:#000000; stroke-linecap:round; stroke-linejoin:round; stroke-width:4; stroke-opacity:1; fill:none" points="280.19,348.95 299.088,348.95 "/>
<polyline clip-path="url(#clip450)" style="stroke:#000000; stroke-linecap:round; stroke-linejoin:round; stroke-width:4; stroke-opacity:1; fill:none" points="280.19,51.8272 299.088,51.8272 "/>
<path clip-path="url(#clip450)" d="M126.205 1226.12 Q122.593 1226.12 120.765 1229.68 Q118.959 1233.22 118.959 1240.35 Q118.959 1247.46 120.765 1251.02 Q122.593 1254.56 126.205 1254.56 Q129.839 1254.56 131.644 1251.02 Q133.473 1247.46 133.473 1240.35 Q133.473 1233.22 131.644 1229.68 Q129.839 1226.12 126.205 1226.12 M126.205 1222.41 Q132.015 1222.41 135.07 1227.02 Q138.149 1231.6 138.149 1240.35 Q138.149 1249.08 135.07 1253.68 Q132.015 1258.27 126.205 1258.27 Q120.394 1258.27 117.316 1253.68 Q114.26 1249.08 114.26 1240.35 Q114.26 1231.6 117.316 1227.02 Q120.394 1222.41 126.205 1222.41 Z" fill="#000000" fill-rule="nonzero" fill-opacity="1" /><path clip-path="url(#clip450)" d="M146.366 1251.72 L151.251 1251.72 L151.251 1257.6 L146.366 1257.6 L146.366 1251.72 Z" fill="#000000" fill-rule="nonzero" fill-opacity="1" /><path clip-path="url(#clip450)" d="M171.436 1226.12 Q167.825 1226.12 165.996 1229.68 Q164.19 1233.22 164.19 1240.35 Q164.19 1247.46 165.996 1251.02 Q167.825 1254.56 171.436 1254.56 Q175.07 1254.56 176.876 1251.02 Q178.704 1247.46 178.704 1240.35 Q178.704 1233.22 176.876 1229.68 Q175.07 1226.12 171.436 1226.12 M171.436 1222.41 Q177.246 1222.41 180.301 1227.02 Q183.38 1231.6 183.38 1240.35 Q183.38 1249.08 180.301 1253.68 Q177.246 1258.27 171.436 1258.27 Q165.626 1258.27 162.547 1253.68 Q159.491 1249.08 159.491 1240.35 Q159.491 1231.6 162.547 1227.02 Q165.626 1222.41 171.436 1222.41 Z" fill="#000000" fill-rule="nonzero" fill-opacity="1" /><path clip-path="url(#clip450)" d="M201.598 1226.12 Q197.987 1226.12 196.158 1229.68 Q194.352 1233.22 194.352 1240.35 Q194.352 1247.46 196.158 1251.02 Q197.987 1254.56 201.598 1254.56 Q205.232 1254.56 207.037 1251.02 Q208.866 1247.46 208.866 1240.35 Q208.866 1233.22 207.037 1229.68 Q205.232 1226.12 201.598 1226.12 M201.598 1222.41 Q207.408 1222.41 210.463 1227.02 Q213.542 1231.6 213.542 1240.35 Q213.542 1249.08 210.463 1253.68 Q207.408 1258.27 201.598 1258.27 Q195.787 1258.27 192.709 1253.68 Q189.653 1249.08 189.653 1240.35 Q189.653 1231.6 192.709 1227.02 Q195.787 1222.41 201.598 1222.41 Z" fill="#000000" fill-rule="nonzero" fill-opacity="1" /><path clip-path="url(#clip450)" d="M234.607 1227.11 L222.801 1245.56 L234.607 1245.56 L234.607 1227.11 M233.38 1223.04 L239.259 1223.04 L239.259 1245.56 L244.19 1245.56 L244.19 1249.45 L239.259 1249.45 L239.259 1257.6 L234.607 1257.6 L234.607 1249.45 L219.005 1249.45 L219.005 1244.93 L233.38 1223.04 Z" fill="#000000" fill-rule="nonzero" fill-opacity="1" /><path clip-path="url(#clip450)" d="M126.529 928.993 Q122.918 928.993 121.089 932.558 Q119.283 936.1 119.283 943.229 Q119.283 950.336 121.089 953.9 Q122.918 957.442 126.529 957.442 Q130.163 957.442 131.968 953.9 Q133.797 950.336 133.797 943.229 Q133.797 936.1 131.968 932.558 Q130.163 928.993 126.529 928.993 M126.529 925.289 Q132.339 925.289 135.394 929.896 Q138.473 934.479 138.473 943.229 Q138.473 951.956 135.394 956.562 Q132.339 961.146 126.529 961.146 Q120.718 961.146 117.64 956.562 Q114.584 951.956 114.584 943.229 Q114.584 934.479 117.64 929.896 Q120.718 925.289 126.529 925.289 Z" fill="#000000" fill-rule="nonzero" fill-opacity="1" /><path clip-path="url(#clip450)" d="M146.691 954.595 L151.575 954.595 L151.575 960.474 L146.691 960.474 L146.691 954.595 Z" fill="#000000" fill-rule="nonzero" fill-opacity="1" /><path clip-path="url(#clip450)" d="M171.76 928.993 Q168.149 928.993 166.32 932.558 Q164.515 936.1 164.515 943.229 Q164.515 950.336 166.32 953.9 Q168.149 957.442 171.76 957.442 Q175.394 957.442 177.2 953.9 Q179.028 950.336 179.028 943.229 Q179.028 936.1 177.2 932.558 Q175.394 928.993 171.76 928.993 M171.76 925.289 Q177.57 925.289 180.626 929.896 Q183.704 934.479 183.704 943.229 Q183.704 951.956 180.626 956.562 Q177.57 961.146 171.76 961.146 Q165.95 961.146 162.871 956.562 Q159.815 951.956 159.815 943.229 Q159.815 934.479 162.871 929.896 Q165.95 925.289 171.76 925.289 Z" fill="#000000" fill-rule="nonzero" fill-opacity="1" /><path clip-path="url(#clip450)" d="M201.922 928.993 Q198.311 928.993 196.482 932.558 Q194.676 936.1 194.676 943.229 Q194.676 950.336 196.482 953.9 Q198.311 957.442 201.922 957.442 Q205.556 957.442 207.362 953.9 Q209.19 950.336 209.19 943.229 Q209.19 936.1 207.362 932.558 Q205.556 928.993 201.922 928.993 M201.922 925.289 Q207.732 925.289 210.787 929.896 Q213.866 934.479 213.866 943.229 Q213.866 951.956 210.787 956.562 Q207.732 961.146 201.922 961.146 Q196.112 961.146 193.033 956.562 Q189.977 951.956 189.977 943.229 Q189.977 934.479 193.033 929.896 Q196.112 925.289 201.922 925.289 Z" fill="#000000" fill-rule="nonzero" fill-opacity="1" /><path clip-path="url(#clip450)" d="M232.662 941.331 Q229.514 941.331 227.662 943.484 Q225.834 945.637 225.834 949.387 Q225.834 953.113 227.662 955.289 Q229.514 957.442 232.662 957.442 Q235.81 957.442 237.639 955.289 Q239.491 953.113 239.491 949.387 Q239.491 945.637 237.639 943.484 Q235.81 941.331 232.662 941.331 M241.945 926.678 L241.945 930.938 Q240.185 930.104 238.38 929.664 Q236.597 929.225 234.838 929.225 Q230.209 929.225 227.755 932.35 Q225.324 935.475 224.977 941.794 Q226.343 939.78 228.403 938.715 Q230.463 937.627 232.94 937.627 Q238.148 937.627 241.158 940.799 Q244.19 943.947 244.19 949.387 Q244.19 954.711 241.042 957.928 Q237.894 961.146 232.662 961.146 Q226.667 961.146 223.496 956.562 Q220.324 951.956 220.324 943.229 Q220.324 935.035 224.213 930.174 Q228.102 925.289 234.653 925.289 Q236.412 925.289 238.195 925.637 Q240 925.984 241.945 926.678 Z" fill="#000000" fill-rule="nonzero" fill-opacity="1" /><path clip-path="url(#clip450)" d="M126.783 631.871 Q123.172 631.871 121.343 635.436 Q119.538 638.977 119.538 646.107 Q119.538 653.213 121.343 656.778 Q123.172 660.32 126.783 660.32 Q130.417 660.32 132.223 656.778 Q134.052 653.213 134.052 646.107 Q134.052 638.977 132.223 635.436 Q130.417 631.871 126.783 631.871 M126.783 628.167 Q132.593 628.167 135.649 632.774 Q138.728 637.357 138.728 646.107 Q138.728 654.834 135.649 659.44 Q132.593 664.023 126.783 664.023 Q120.973 664.023 117.894 659.44 Q114.839 654.834 114.839 646.107 Q114.839 637.357 117.894 632.774 Q120.973 628.167 126.783 628.167 Z" fill="#000000" fill-rule="nonzero" fill-opacity="1" /><path clip-path="url(#clip450)" d="M146.945 657.472 L151.829 657.472 L151.829 663.352 L146.945 663.352 L146.945 657.472 Z" fill="#000000" fill-rule="nonzero" fill-opacity="1" /><path clip-path="url(#clip450)" d="M172.014 631.871 Q168.403 631.871 166.575 635.436 Q164.769 638.977 164.769 646.107 Q164.769 653.213 166.575 656.778 Q168.403 660.32 172.014 660.32 Q175.649 660.32 177.454 656.778 Q179.283 653.213 179.283 646.107 Q179.283 638.977 177.454 635.436 Q175.649 631.871 172.014 631.871 M172.014 628.167 Q177.825 628.167 180.88 632.774 Q183.959 637.357 183.959 646.107 Q183.959 654.834 180.88 659.44 Q177.825 664.023 172.014 664.023 Q166.204 664.023 163.126 659.44 Q160.07 654.834 160.07 646.107 Q160.07 637.357 163.126 632.774 Q166.204 628.167 172.014 628.167 Z" fill="#000000" fill-rule="nonzero" fill-opacity="1" /><path clip-path="url(#clip450)" d="M202.176 631.871 Q198.565 631.871 196.737 635.436 Q194.931 638.977 194.931 646.107 Q194.931 653.213 196.737 656.778 Q198.565 660.32 202.176 660.32 Q205.811 660.32 207.616 656.778 Q209.445 653.213 209.445 646.107 Q209.445 638.977 207.616 635.436 Q205.811 631.871 202.176 631.871 M202.176 628.167 Q207.987 628.167 211.042 632.774 Q214.121 637.357 214.121 646.107 Q214.121 654.834 211.042 659.44 Q207.987 664.023 202.176 664.023 Q196.366 664.023 193.288 659.44 Q190.232 654.834 190.232 646.107 Q190.232 637.357 193.288 632.774 Q196.366 628.167 202.176 628.167 Z" fill="#000000" fill-rule="nonzero" fill-opacity="1" /><path clip-path="url(#clip450)" d="M232.338 646.94 Q229.005 646.94 227.084 648.722 Q225.185 650.505 225.185 653.63 Q225.185 656.755 227.084 658.537 Q229.005 660.32 232.338 660.32 Q235.672 660.32 237.593 658.537 Q239.514 656.732 239.514 653.63 Q239.514 650.505 237.593 648.722 Q235.695 646.94 232.338 646.94 M227.662 644.949 Q224.653 644.209 222.963 642.148 Q221.297 640.088 221.297 637.125 Q221.297 632.982 224.236 630.574 Q227.199 628.167 232.338 628.167 Q237.5 628.167 240.44 630.574 Q243.38 632.982 243.38 637.125 Q243.38 640.088 241.69 642.148 Q240.023 644.209 237.037 644.949 Q240.417 645.736 242.292 648.028 Q244.19 650.32 244.19 653.63 Q244.19 658.653 241.111 661.338 Q238.056 664.023 232.338 664.023 Q226.621 664.023 223.542 661.338 Q220.486 658.653 220.486 653.63 Q220.486 650.32 222.385 648.028 Q224.283 645.736 227.662 644.949 M225.949 637.565 Q225.949 640.25 227.616 641.755 Q229.306 643.26 232.338 643.26 Q235.347 643.26 237.037 641.755 Q238.75 640.25 238.75 637.565 Q238.75 634.88 237.037 633.375 Q235.347 631.871 232.338 631.871 Q229.306 631.871 227.616 633.375 Q225.949 634.88 225.949 637.565 Z" fill="#000000" fill-rule="nonzero" fill-opacity="1" /><path clip-path="url(#clip450)" d="M126.691 334.748 Q123.08 334.748 121.251 338.313 Q119.445 341.855 119.445 348.984 Q119.445 356.091 121.251 359.656 Q123.08 363.197 126.691 363.197 Q130.325 363.197 132.13 359.656 Q133.959 356.091 133.959 348.984 Q133.959 341.855 132.13 338.313 Q130.325 334.748 126.691 334.748 M126.691 331.045 Q132.501 331.045 135.556 335.651 Q138.635 340.234 138.635 348.984 Q138.635 357.711 135.556 362.318 Q132.501 366.901 126.691 366.901 Q120.88 366.901 117.802 362.318 Q114.746 357.711 114.746 348.984 Q114.746 340.234 117.802 335.651 Q120.88 331.045 126.691 331.045 Z" fill="#000000" fill-rule="nonzero" fill-opacity="1" /><path clip-path="url(#clip450)" d="M146.853 360.35 L151.737 360.35 L151.737 366.23 L146.853 366.23 L146.853 360.35 Z" fill="#000000" fill-rule="nonzero" fill-opacity="1" /><path clip-path="url(#clip450)" d="M171.922 334.748 Q168.311 334.748 166.482 338.313 Q164.677 341.855 164.677 348.984 Q164.677 356.091 166.482 359.656 Q168.311 363.197 171.922 363.197 Q175.556 363.197 177.362 359.656 Q179.19 356.091 179.19 348.984 Q179.19 341.855 177.362 338.313 Q175.556 334.748 171.922 334.748 M171.922 331.045 Q177.732 331.045 180.788 335.651 Q183.866 340.234 183.866 348.984 Q183.866 357.711 180.788 362.318 Q177.732 366.901 171.922 366.901 Q166.112 366.901 163.033 362.318 Q159.978 357.711 159.978 348.984 Q159.978 340.234 163.033 335.651 Q166.112 331.045 171.922 331.045 Z" fill="#000000" fill-rule="nonzero" fill-opacity="1" /><path clip-path="url(#clip450)" d="M192.894 362.294 L200.533 362.294 L200.533 335.929 L192.223 337.596 L192.223 333.336 L200.487 331.67 L205.162 331.67 L205.162 362.294 L212.801 362.294 L212.801 366.23 L192.894 366.23 L192.894 362.294 Z" fill="#000000" fill-rule="nonzero" fill-opacity="1" /><path clip-path="url(#clip450)" d="M232.246 334.748 Q228.635 334.748 226.806 338.313 Q225 341.855 225 348.984 Q225 356.091 226.806 359.656 Q228.635 363.197 232.246 363.197 Q235.88 363.197 237.685 359.656 Q239.514 356.091 239.514 348.984 Q239.514 341.855 237.685 338.313 Q235.88 334.748 232.246 334.748 M232.246 331.045 Q238.056 331.045 241.111 335.651 Q244.19 340.234 244.19 348.984 Q244.19 357.711 241.111 362.318 Q238.056 366.901 232.246 366.901 Q226.435 366.901 223.357 362.318 Q220.301 357.711 220.301 348.984 Q220.301 340.234 223.357 335.651 Q226.435 331.045 232.246 331.045 Z" fill="#000000" fill-rule="nonzero" fill-opacity="1" /><path clip-path="url(#clip450)" d="M128.288 37.6259 Q124.677 37.6259 122.848 41.1907 Q121.043 44.7323 121.043 51.8619 Q121.043 58.9683 122.848 62.5331 Q124.677 66.0748 128.288 66.0748 Q131.922 66.0748 133.728 62.5331 Q135.556 58.9683 135.556 51.8619 Q135.556 44.7323 133.728 41.1907 Q131.922 37.6259 128.288 37.6259 M128.288 33.9222 Q134.098 33.9222 137.154 38.5286 Q140.232 43.1119 140.232 51.8619 Q140.232 60.5887 137.154 65.1952 Q134.098 69.7785 128.288 69.7785 Q122.478 69.7785 119.399 65.1952 Q116.343 60.5887 116.343 51.8619 Q116.343 43.1119 119.399 38.5286 Q122.478 33.9222 128.288 33.9222 Z" fill="#000000" fill-rule="nonzero" fill-opacity="1" /><path clip-path="url(#clip450)" d="M148.45 63.2276 L153.334 63.2276 L153.334 69.1072 L148.45 69.1072 L148.45 63.2276 Z" fill="#000000" fill-rule="nonzero" fill-opacity="1" /><path clip-path="url(#clip450)" d="M173.519 37.6259 Q169.908 37.6259 168.079 41.1907 Q166.274 44.7323 166.274 51.8619 Q166.274 58.9683 168.079 62.5331 Q169.908 66.0748 173.519 66.0748 Q177.153 66.0748 178.959 62.5331 Q180.788 58.9683 180.788 51.8619 Q180.788 44.7323 178.959 41.1907 Q177.153 37.6259 173.519 37.6259 M173.519 33.9222 Q179.329 33.9222 182.385 38.5286 Q185.463 43.1119 185.463 51.8619 Q185.463 60.5887 182.385 65.1952 Q179.329 69.7785 173.519 69.7785 Q167.709 69.7785 164.63 65.1952 Q161.575 60.5887 161.575 51.8619 Q161.575 43.1119 164.63 38.5286 Q167.709 33.9222 173.519 33.9222 Z" fill="#000000" fill-rule="nonzero" fill-opacity="1" /><path clip-path="url(#clip450)" d="M194.491 65.172 L202.13 65.172 L202.13 38.8064 L193.82 40.4731 L193.82 36.2138 L202.084 34.5472 L206.76 34.5472 L206.76 65.172 L214.399 65.172 L214.399 69.1072 L194.491 69.1072 L194.491 65.172 Z" fill="#000000" fill-rule="nonzero" fill-opacity="1" /><path clip-path="url(#clip450)" d="M227.871 65.172 L244.19 65.172 L244.19 69.1072 L222.246 69.1072 L222.246 65.172 Q224.908 62.4174 229.491 57.7878 Q234.097 53.135 235.278 51.7925 Q237.523 49.2693 238.403 47.5332 Q239.306 45.774 239.306 44.0842 Q239.306 41.3295 237.361 39.5934 Q235.44 37.8573 232.338 37.8573 Q230.139 37.8573 227.685 38.6212 Q225.255 39.3851 222.477 40.936 L222.477 36.2138 Q225.301 35.0796 227.755 34.5009 Q230.209 33.9222 232.246 33.9222 Q237.616 33.9222 240.81 36.6074 Q244.005 39.2925 244.005 43.7832 Q244.005 45.9129 243.195 47.8341 Q242.408 49.7323 240.301 52.3249 Q239.722 52.9962 236.621 56.2137 Q233.519 59.4082 227.871 65.172 Z" fill="#000000" fill-rule="nonzero" fill-opacity="1" /><path clip-path="url(#clip450)" d="M28.4354 912.07 L26.3743 912.07 Q26.3743 904.147 22.1553 900.057 Q22.1553 898.93 22.4129 898.736 Q22.6706 898.543 23.8622 898.543 L60.8667 898.543 Q62.8313 898.543 63.4432 897.577 Q64.0551 896.611 64.0551 892.392 L64.0551 890.298 L66.0841 890.298 Q65.8909 892.617 65.8909 900.991 Q65.8909 909.364 66.0841 911.651 L64.0551 911.651 L64.0551 909.557 Q64.0551 905.403 63.4754 904.405 Q62.8635 903.406 60.8667 903.406 L26.6963 903.406 Q28.4354 906.852 28.4354 912.07 Z" fill="#000000" fill-rule="nonzero" fill-opacity="1" /><path clip-path="url(#clip450)" d="M81.6395 879.405 Q81.3175 879.405 80.6089 879.148 L18.3872 855.863 Q18.3228 855.863 17.9685 855.702 Q17.6143 855.541 17.3888 855.444 Q17.1312 855.348 16.938 855.154 Q16.7447 854.929 16.7447 854.671 Q16.7447 854.027 17.5499 854.027 Q17.6143 854.027 18.3872 854.22 L80.6734 877.57 Q81.8006 877.956 82.1226 878.214 Q82.4447 878.439 82.4447 878.826 Q82.4447 879.405 81.6395 879.405 Z" fill="#000000" fill-rule="nonzero" fill-opacity="1" /><path clip-path="url(#clip450)" d="M37.6463 819.56 L74.3288 828.674 Q75.4882 828.932 75.7781 828.932 Q76.1645 828.932 76.3256 828.835 Q76.5188 828.706 76.6798 827.998 Q76.8409 827.257 76.8409 825.775 Q76.8409 825.228 76.8409 825.035 Q76.8409 824.841 76.9053 824.552 Q76.9697 824.262 77.1307 824.165 Q77.2917 824.068 77.5494 824.068 Q78.8698 824.068 78.8698 825.228 Q78.8698 826.323 78.7732 828.609 Q78.6766 830.896 78.6766 832.023 Q78.6766 833.118 78.7732 835.341 Q78.8698 837.563 78.8698 838.626 Q78.8698 839.012 78.6766 839.237 Q78.5156 839.463 78.3223 839.463 L78.1613 839.495 Q77.2595 839.495 77.0341 839.141 Q76.8409 838.787 76.8409 837.981 Q76.8086 835.212 76.4222 834.407 Q76.0357 833.601 74.6509 833.215 L62.8635 830.252 Q66.8248 834.213 66.8248 838.046 Q66.8248 841.749 63.9263 844.262 Q60.9956 846.741 56.2613 846.741 Q52.7509 846.741 49.2082 845.357 Q45.6656 843.939 42.9925 841.749 Q40.3194 839.527 38.6447 836.629 Q36.9378 833.73 36.9378 830.864 Q36.9378 829.028 38.0006 827.386 Q39.0634 825.711 41.5432 824.713 Q40.1262 823.875 38.5803 822.329 Q37.0022 820.783 37.0022 820.236 Q37.0022 819.914 37.2276 819.753 Q37.4209 819.56 37.6463 819.56 M44.1841 825.647 Q43.8621 825.647 43.0569 825.904 Q42.2518 826.13 41.1568 826.645 Q40.0296 827.128 39.2244 828.255 Q38.3871 829.382 38.3871 830.864 Q38.3871 832.989 40.4482 835.276 Q42.4772 837.531 46.0198 839.012 Q48.3387 839.946 52.6543 841.009 Q56.9698 842.072 59.1598 842.072 Q59.6751 842.072 60.2548 842.039 Q60.8345 841.975 61.8007 841.717 Q62.7669 841.46 63.5076 841.073 Q64.2484 840.654 64.7959 839.817 Q65.3434 838.98 65.3434 837.853 Q65.3434 835.405 63.25 832.957 Q61.1566 830.51 59.2887 829.479 Q59.0954 829.35 51.7847 827.514 Q44.474 825.647 44.1841 825.647 Z" fill="#000000" fill-rule="nonzero" fill-opacity="1" /><path clip-path="url(#clip450)" d="M82.5735 765.325 L16.6159 765.325 L16.6159 755.373 L18.1296 755.373 L18.1296 760.913 L81.0598 760.913 L81.0598 755.373 L82.5735 755.373 L82.5735 765.325 Z" fill="#000000" fill-rule="nonzero" fill-opacity="1" /><path clip-path="url(#clip450)" d="M28.4354 750.343 L26.3743 750.343 Q26.3743 742.42 22.1553 738.33 Q22.1553 737.203 22.4129 737.009 Q22.6706 736.816 23.8622 736.816 L60.8667 736.816 Q62.8313 736.816 63.4432 735.85 Q64.0551 734.884 64.0551 730.665 L64.0551 728.571 L66.0841 728.571 Q65.8909 730.89 65.8909 739.264 Q65.8909 747.637 66.0841 749.924 L64.0551 749.924 L64.0551 747.831 Q64.0551 743.676 63.4754 742.678 Q62.8635 741.679 60.8667 741.679 L26.6963 741.679 Q28.4354 745.125 28.4354 750.343 Z" fill="#000000" fill-rule="nonzero" fill-opacity="1" /><path clip-path="url(#clip450)" d="M81.6395 717.679 Q81.3175 717.679 80.6089 717.421 L18.3872 694.136 Q18.3228 694.136 17.9685 693.975 Q17.6143 693.814 17.3888 693.717 Q17.1312 693.621 16.938 693.428 Q16.7447 693.202 16.7447 692.944 Q16.7447 692.3 17.5499 692.3 Q17.6143 692.3 18.3872 692.494 L80.6734 715.843 Q81.8006 716.229 82.1226 716.487 Q82.4447 716.712 82.4447 717.099 Q82.4447 717.679 81.6395 717.679 Z" fill="#000000" fill-rule="nonzero" fill-opacity="1" /><path clip-path="url(#clip450)" d="M66.0841 685.015 L64.0551 685.015 Q64.0551 681.504 63.6364 680.699 Q63.1856 679.894 61.06 679.894 L43.379 679.894 Q40.9313 679.894 40.3194 680.763 Q39.7075 681.601 39.7075 685.015 L37.6463 685.015 L36.9378 675.739 L43.8621 675.739 Q36.9378 672.647 36.9378 665.981 Q36.9378 658.251 43.379 657.189 Q40.8669 656.061 38.9023 653.71 Q36.9378 651.327 36.9378 647.624 Q36.9378 642.664 39.3854 640.699 Q41.0279 639.25 42.8637 638.96 Q44.6994 638.67 49.4659 638.67 L62.0584 638.67 Q63.4432 638.606 63.7653 637.543 Q64.0551 636.48 64.0551 633.517 L66.0841 633.517 Q65.8909 640.248 65.8909 640.892 Q65.8909 641.408 66.0841 648.364 L64.0551 648.364 Q64.0551 644.854 63.6364 644.049 Q63.1856 643.211 61.06 643.211 L45.6978 643.211 Q42.3484 643.211 40.3838 644.242 Q38.3871 645.272 38.3871 648.107 Q38.3871 651.52 41.2534 654.258 Q44.1197 656.995 48.9506 656.995 L61.06 656.995 Q63.1856 656.995 63.6364 656.19 Q64.0551 655.353 64.0551 651.842 L66.0841 651.842 Q65.8909 658.574 65.8909 659.25 Q65.8909 659.765 66.0841 666.689 L64.0551 666.689 Q64.0551 663.179 63.6364 662.374 Q63.1856 661.536 61.06 661.536 L45.6978 661.536 Q42.3484 661.536 40.3838 662.567 Q38.3871 663.598 38.3871 666.432 Q38.3871 669.846 41.2534 672.583 Q44.1197 675.321 48.9506 675.321 L61.06 675.321 Q63.1856 675.321 63.6364 674.515 Q64.0551 673.678 64.0551 670.2 L66.0841 670.2 Q65.8909 676.931 65.8909 677.575 Q65.8909 678.09 66.0841 685.015 Z" fill="#000000" fill-rule="nonzero" fill-opacity="1" /><path clip-path="url(#clip450)" d="M66.0841 630.892 L64.0551 630.892 Q64.0551 627.381 63.6364 626.576 Q63.1856 625.771 61.06 625.771 L43.379 625.771 Q40.9313 625.771 40.3194 626.64 Q39.7075 627.478 39.7075 630.892 L37.6463 630.892 L36.9378 621.616 L43.8621 621.616 Q36.9378 618.525 36.9378 611.858 Q36.9378 604.129 43.379 603.066 Q40.8669 601.939 38.9023 599.587 Q36.9378 597.204 36.9378 593.501 Q36.9378 588.541 39.3854 586.576 Q41.0279 585.127 42.8637 584.837 Q44.6994 584.547 49.4659 584.547 L62.0584 584.547 Q63.4432 584.483 63.7653 583.42 Q64.0551 582.357 64.0551 579.394 L66.0841 579.394 Q65.8909 586.125 65.8909 586.77 Q65.8909 587.285 66.0841 594.241 L64.0551 594.241 Q64.0551 590.731 63.6364 589.926 Q63.1856 589.088 61.06 589.088 L45.6978 589.088 Q42.3484 589.088 40.3838 590.119 Q38.3871 591.15 38.3871 593.984 Q38.3871 597.397 41.2534 600.135 Q44.1197 602.872 48.9506 602.872 L61.06 602.872 Q63.1856 602.872 63.6364 602.067 Q64.0551 601.23 64.0551 597.72 L66.0841 597.72 Q65.8909 604.451 65.8909 605.127 Q65.8909 605.642 66.0841 612.566 L64.0551 612.566 Q64.0551 609.056 63.6364 608.251 Q63.1856 607.414 61.06 607.414 L45.6978 607.414 Q42.3484 607.414 40.3838 608.444 Q38.3871 609.475 38.3871 612.309 Q38.3871 615.723 41.2534 618.46 Q44.1197 621.198 48.9506 621.198 L61.06 621.198 Q63.1856 621.198 63.6364 620.392 Q64.0551 619.555 64.0551 616.077 L66.0841 616.077 Q65.8909 622.808 65.8909 623.452 Q65.8909 623.967 66.0841 630.892 Z" fill="#000000" fill-rule="nonzero" fill-opacity="1" /><path clip-path="url(#clip450)" d="M81.0598 576.505 L81.0598 570.965 L18.1296 570.965 L18.1296 576.505 L16.6159 576.505 L16.6159 566.553 L82.5735 566.553 L82.5735 576.505 L81.0598 576.505 Z" fill="#000000" fill-rule="nonzero" fill-opacity="1" /><polyline clip-path="url(#clip452)" style="stroke:#000000; stroke-linecap:round; stroke-linejoin:round; stroke-width:0; stroke-opacity:1; fill:none" points="2273.36,1383.6 2294.1,1383.6 "/>
<polyline clip-path="url(#clip452)" style="stroke:#000000; stroke-linecap:round; stroke-linejoin:round; stroke-width:0; stroke-opacity:1; fill:none" points="2046.6,1232.94 2063.52,1232.94 "/>
<polyline clip-path="url(#clip452)" style="stroke:#000000; stroke-linecap:round; stroke-linejoin:round; stroke-width:0; stroke-opacity:1; fill:none" points="1859.63,1107.86 1873.7,1107.86 "/>
<polyline clip-path="url(#clip452)" style="stroke:#000000; stroke-linecap:round; stroke-linejoin:round; stroke-width:0; stroke-opacity:1; fill:none" points="1702.83,1006.62 1714.72,1006.62 "/>
<polyline clip-path="url(#clip452)" style="stroke:#000000; stroke-linecap:round; stroke-linejoin:round; stroke-width:0; stroke-opacity:1; fill:none" points="1569.45,914.298 1579.62,914.298 "/>
<polyline clip-path="url(#clip452)" style="stroke:#000000; stroke-linecap:round; stroke-linejoin:round; stroke-width:0; stroke-opacity:1; fill:none" points="1454.6,840.398 1463.4,840.398 "/>
<polyline clip-path="url(#clip452)" style="stroke:#000000; stroke-linecap:round; stroke-linejoin:round; stroke-width:0; stroke-opacity:1; fill:none" points="1266.92,712.781 1273.71,712.781 "/>
<polyline clip-path="url(#clip452)" style="stroke:#000000; stroke-linecap:round; stroke-linejoin:round; stroke-width:0; stroke-opacity:1; fill:none" points="1189.27,659.546 1195.3,659.546 "/>
<polyline clip-path="url(#clip452)" style="stroke:#000000; stroke-linecap:round; stroke-linejoin:round; stroke-width:0; stroke-opacity:1; fill:none" points="1120.06,611.164 1125.45,611.164 "/>
<polyline clip-path="url(#clip452)" style="stroke:#000000; stroke-linecap:round; stroke-linejoin:round; stroke-width:0; stroke-opacity:1; fill:none" points="1057.99,569.493 1062.83,569.493 "/>
<polyline clip-path="url(#clip452)" style="stroke:#000000; stroke-linecap:round; stroke-linejoin:round; stroke-width:0; stroke-opacity:1; fill:none" points="1002,536.328 1006.38,536.328 "/>
<polyline clip-path="url(#clip452)" style="stroke:#000000; stroke-linecap:round; stroke-linejoin:round; stroke-width:0; stroke-opacity:1; fill:none" points="951.253,507.332 955.232,507.332 "/>
<polyline clip-path="url(#clip452)" style="stroke:#000000; stroke-linecap:round; stroke-linejoin:round; stroke-width:0; stroke-opacity:1; fill:none" points="905.034,470.781 908.664,470.781 "/>
<polyline clip-path="url(#clip452)" style="stroke:#000000; stroke-linecap:round; stroke-linejoin:round; stroke-width:0; stroke-opacity:1; fill:none" points="862.766,438.747 866.092,438.747 "/>
<polyline clip-path="url(#clip452)" style="stroke:#000000; stroke-linecap:round; stroke-linejoin:round; stroke-width:0; stroke-opacity:1; fill:none" points="823.963,412.016 827.022,412.016 "/>
<polyline clip-path="url(#clip452)" style="stroke:#000000; stroke-linecap:round; stroke-linejoin:round; stroke-width:0; stroke-opacity:1; fill:none" points="788.217,398.263 791.039,398.263 "/>
<polyline clip-path="url(#clip452)" style="stroke:#000000; stroke-linecap:round; stroke-linejoin:round; stroke-width:0; stroke-opacity:1; fill:none" points="755.179,384.241 757.791,384.241 "/>
<polyline clip-path="url(#clip452)" style="stroke:#000000; stroke-linecap:round; stroke-linejoin:round; stroke-width:0; stroke-opacity:1; fill:none" points="724.553,347.959 726.978,347.959 "/>
<polyline clip-path="url(#clip452)" style="stroke:#000000; stroke-linecap:round; stroke-linejoin:round; stroke-width:0; stroke-opacity:1; fill:none" points="696.084,332.932 698.341,332.932 "/>
<polyline clip-path="url(#clip452)" style="stroke:#000000; stroke-linecap:round; stroke-linejoin:round; stroke-width:0; stroke-opacity:1; fill:none" points="669.553,309.814 671.658,309.814 "/>
<polyline clip-path="url(#clip452)" style="stroke:#000000; stroke-linecap:round; stroke-linejoin:round; stroke-width:0; stroke-opacity:1; fill:none" points="644.767,309.814 646.736,309.814 "/>
<polyline clip-path="url(#clip452)" style="stroke:#000000; stroke-linecap:round; stroke-linejoin:round; stroke-width:0; stroke-opacity:1; fill:none" points="621.56,277.86 623.405,277.86 "/>
<polyline clip-path="url(#clip452)" style="stroke:#000000; stroke-linecap:round; stroke-linejoin:round; stroke-width:0; stroke-opacity:1; fill:none" points="599.786,261.376 601.519,261.376 "/>
<polyline clip-path="url(#clip452)" style="stroke:#000000; stroke-linecap:round; stroke-linejoin:round; stroke-width:0; stroke-opacity:1; fill:none" points="579.316,261.376 580.947,261.376 "/>
<polyline clip-path="url(#clip452)" style="stroke:#000000; stroke-linecap:round; stroke-linejoin:round; stroke-width:0; stroke-opacity:1; fill:none" points="560.036,227.336 561.573,227.336 "/>
<polyline clip-path="url(#clip452)" style="stroke:#000000; stroke-linecap:round; stroke-linejoin:round; stroke-width:0; stroke-opacity:1; fill:none" points="541.846,227.336 543.297,227.336 "/>
<polyline clip-path="url(#clip452)" style="stroke:#000000; stroke-linecap:round; stroke-linejoin:round; stroke-width:0; stroke-opacity:1; fill:none" points="524.655,209.758 526.028,209.758 "/>
<polyline clip-path="url(#clip452)" style="stroke:#000000; stroke-linecap:round; stroke-linejoin:round; stroke-width:0; stroke-opacity:1; fill:none" points="508.384,209.758 509.684,209.758 "/>
<polyline clip-path="url(#clip452)" style="stroke:#000000; stroke-linecap:round; stroke-linejoin:round; stroke-width:0; stroke-opacity:1; fill:none" points="492.96,191.791 494.193,191.791 "/>
<polyline clip-path="url(#clip452)" style="stroke:#000000; stroke-linecap:round; stroke-linejoin:round; stroke-width:0; stroke-opacity:1; fill:none" points="478.319,173.423 479.491,173.423 "/>
<polyline clip-path="url(#clip452)" style="stroke:#000000; stroke-linecap:round; stroke-linejoin:round; stroke-width:0; stroke-opacity:1; fill:none" points="464.404,173.423 465.518,173.423 "/>
<polyline clip-path="url(#clip452)" style="stroke:#000000; stroke-linecap:round; stroke-linejoin:round; stroke-width:0; stroke-opacity:1; fill:none" points="451.16,173.423 452.221,173.423 "/>
<polyline clip-path="url(#clip452)" style="stroke:#000000; stroke-linecap:round; stroke-linejoin:round; stroke-width:0; stroke-opacity:1; fill:none" points="438.542,154.638 439.553,154.638 "/>
<polyline clip-path="url(#clip452)" style="stroke:#000000; stroke-linecap:round; stroke-linejoin:round; stroke-width:0; stroke-opacity:1; fill:none" points="426.505,154.638 427.47,154.638 "/>
<polyline clip-path="url(#clip452)" style="stroke:#000000; stroke-linecap:round; stroke-linejoin:round; stroke-width:0; stroke-opacity:1; fill:none" points="415.01,145.086 415.932,145.086 "/>
<polyline clip-path="url(#clip452)" style="stroke:#000000; stroke-linecap:round; stroke-linejoin:round; stroke-width:0; stroke-opacity:1; fill:none" points="404.021,135.425 404.903,135.425 "/>
<polyline clip-path="url(#clip452)" style="stroke:#000000; stroke-linecap:round; stroke-linejoin:round; stroke-width:0; stroke-opacity:1; fill:none" points="393.507,135.425 394.351,135.425 "/>
<polyline clip-path="url(#clip452)" style="stroke:#000000; stroke-linecap:round; stroke-linejoin:round; stroke-width:0; stroke-opacity:1; fill:none" points="383.436,115.766 384.245,115.766 "/>
<polyline clip-path="url(#clip452)" style="stroke:#000000; stroke-linecap:round; stroke-linejoin:round; stroke-width:0; stroke-opacity:1; fill:none" points="373.781,115.766 374.557,115.766 "/>
<polyline clip-path="url(#clip452)" style="stroke:#000000; stroke-linecap:round; stroke-linejoin:round; stroke-width:0; stroke-opacity:1; fill:none" points="364.517,115.766 365.262,115.766 "/>
<polyline clip-path="url(#clip452)" style="stroke:#000000; stroke-linecap:round; stroke-linejoin:round; stroke-width:0; stroke-opacity:1; fill:none" points="355.621,105.766 356.337,105.766 "/>
<polyline clip-path="url(#clip452)" style="stroke:#000000; stroke-linecap:round; stroke-linejoin:round; stroke-width:0; stroke-opacity:1; fill:none" points="347.071,95.6478 347.759,95.6478 "/>
<polyline clip-path="url(#clip452)" style="stroke:#000000; stroke-linecap:round; stroke-linejoin:round; stroke-width:0; stroke-opacity:1; fill:none" points="338.848,95.6478 339.509,95.6478 "/>
<line clip-path="url(#clip452)" x1="2273.36" y1="1395.6" x2="2273.36" y2="1371.6" style="stroke:#000000; stroke-width:0; stroke-opacity:1"/>
<line clip-path="url(#clip452)" x1="2294.1" y1="1395.6" x2="2294.1" y2="1371.6" style="stroke:#000000; stroke-width:0; stroke-opacity:1"/>
<line clip-path="url(#clip452)" x1="2046.6" y1="1244.94" x2="2046.6" y2="1220.94" style="stroke:#000000; stroke-width:0; stroke-opacity:1"/>
<line clip-path="url(#clip452)" x1="2063.52" y1="1244.94" x2="2063.52" y2="1220.94" style="stroke:#000000; stroke-width:0; stroke-opacity:1"/>
<line clip-path="url(#clip452)" x1="1859.63" y1="1119.86" x2="1859.63" y2="1095.86" style="stroke:#000000; stroke-width:0; stroke-opacity:1"/>
<line clip-path="url(#clip452)" x1="1873.7" y1="1119.86" x2="1873.7" y2="1095.86" style="stroke:#000000; stroke-width:0; stroke-opacity:1"/>
<line clip-path="url(#clip452)" x1="1702.83" y1="1018.62" x2="1702.83" y2="994.615" style="stroke:#000000; stroke-width:0; stroke-opacity:1"/>
<line clip-path="url(#clip452)" x1="1714.72" y1="1018.62" x2="1714.72" y2="994.615" style="stroke:#000000; stroke-width:0; stroke-opacity:1"/>
<line clip-path="url(#clip452)" x1="1569.45" y1="926.298" x2="1569.45" y2="902.298" style="stroke:#000000; stroke-width:0; stroke-opacity:1"/>
<line clip-path="url(#clip452)" x1="1579.62" y1="926.298" x2="1579.62" y2="902.298" style="stroke:#000000; stroke-width:0; stroke-opacity:1"/>
<line clip-path="url(#clip452)" x1="1454.6" y1="852.398" x2="1454.6" y2="828.398" style="stroke:#000000; stroke-width:0; stroke-opacity:1"/>
<line clip-path="url(#clip452)" x1="1463.4" y1="852.398" x2="1463.4" y2="828.398" style="stroke:#000000; stroke-width:0; stroke-opacity:1"/>
<line clip-path="url(#clip452)" x1="1266.92" y1="724.781" x2="1266.92" y2="700.781" style="stroke:#000000; stroke-width:0; stroke-opacity:1"/>
<line clip-path="url(#clip452)" x1="1273.71" y1="724.781" x2="1273.71" y2="700.781" style="stroke:#000000; stroke-width:0; stroke-opacity:1"/>
<line clip-path="url(#clip452)" x1="1189.27" y1="671.546" x2="1189.27" y2="647.546" style="stroke:#000000; stroke-width:0; stroke-opacity:1"/>
<line clip-path="url(#clip452)" x1="1195.3" y1="671.546" x2="1195.3" y2="647.546" style="stroke:#000000; stroke-width:0; stroke-opacity:1"/>
<line clip-path="url(#clip452)" x1="1120.06" y1="623.164" x2="1120.06" y2="599.164" style="stroke:#000000; stroke-width:0; stroke-opacity:1"/>
<line clip-path="url(#clip452)" x1="1125.45" y1="623.164" x2="1125.45" y2="599.164" style="stroke:#000000; stroke-width:0; stroke-opacity:1"/>
<line clip-path="url(#clip452)" x1="1057.99" y1="581.493" x2="1057.99" y2="557.493" style="stroke:#000000; stroke-width:0; stroke-opacity:1"/>
<line clip-path="url(#clip452)" x1="1062.83" y1="581.493" x2="1062.83" y2="557.493" style="stroke:#000000; stroke-width:0; stroke-opacity:1"/>
<line clip-path="url(#clip452)" x1="1002" y1="548.328" x2="1002" y2="524.328" style="stroke:#000000; stroke-width:0; stroke-opacity:1"/>
<line clip-path="url(#clip452)" x1="1006.38" y1="548.328" x2="1006.38" y2="524.328" style="stroke:#000000; stroke-width:0; stroke-opacity:1"/>
<line clip-path="url(#clip452)" x1="951.253" y1="519.332" x2="951.253" y2="495.332" style="stroke:#000000; stroke-width:0; stroke-opacity:1"/>
<line clip-path="url(#clip452)" x1="955.232" y1="519.332" x2="955.232" y2="495.332" style="stroke:#000000; stroke-width:0; stroke-opacity:1"/>
<line clip-path="url(#clip452)" x1="905.034" y1="482.781" x2="905.034" y2="458.781" style="stroke:#000000; stroke-width:0; stroke-opacity:1"/>
<line clip-path="url(#clip452)" x1="908.664" y1="482.781" x2="908.664" y2="458.781" style="stroke:#000000; stroke-width:0; stroke-opacity:1"/>
<line clip-path="url(#clip452)" x1="862.766" y1="450.747" x2="862.766" y2="426.747" style="stroke:#000000; stroke-width:0; stroke-opacity:1"/>
<line clip-path="url(#clip452)" x1="866.092" y1="450.747" x2="866.092" y2="426.747" style="stroke:#000000; stroke-width:0; stroke-opacity:1"/>
<line clip-path="url(#clip452)" x1="823.963" y1="424.016" x2="823.963" y2="400.016" style="stroke:#000000; stroke-width:0; stroke-opacity:1"/>
<line clip-path="url(#clip452)" x1="827.022" y1="424.016" x2="827.022" y2="400.016" style="stroke:#000000; stroke-width:0; stroke-opacity:1"/>
<line clip-path="url(#clip452)" x1="788.217" y1="410.263" x2="788.217" y2="386.263" style="stroke:#000000; stroke-width:0; stroke-opacity:1"/>
<line clip-path="url(#clip452)" x1="791.039" y1="410.263" x2="791.039" y2="386.263" style="stroke:#000000; stroke-width:0; stroke-opacity:1"/>
<line clip-path="url(#clip452)" x1="755.179" y1="396.241" x2="755.179" y2="372.241" style="stroke:#000000; stroke-width:0; stroke-opacity:1"/>
<line clip-path="url(#clip452)" x1="757.791" y1="396.241" x2="757.791" y2="372.241" style="stroke:#000000; stroke-width:0; stroke-opacity:1"/>
<line clip-path="url(#clip452)" x1="724.553" y1="359.959" x2="724.553" y2="335.959" style="stroke:#000000; stroke-width:0; stroke-opacity:1"/>
<line clip-path="url(#clip452)" x1="726.978" y1="359.959" x2="726.978" y2="335.959" style="stroke:#000000; stroke-width:0; stroke-opacity:1"/>
<line clip-path="url(#clip452)" x1="696.084" y1="344.932" x2="696.084" y2="320.932" style="stroke:#000000; stroke-width:0; stroke-opacity:1"/>
<line clip-path="url(#clip452)" x1="698.341" y1="344.932" x2="698.341" y2="320.932" style="stroke:#000000; stroke-width:0; stroke-opacity:1"/>
<line clip-path="url(#clip452)" x1="669.553" y1="321.814" x2="669.553" y2="297.814" style="stroke:#000000; stroke-width:0; stroke-opacity:1"/>
<line clip-path="url(#clip452)" x1="671.658" y1="321.814" x2="671.658" y2="297.814" style="stroke:#000000; stroke-width:0; stroke-opacity:1"/>
<line clip-path="url(#clip452)" x1="644.767" y1="321.814" x2="644.767" y2="297.814" style="stroke:#000000; stroke-width:0; stroke-opacity:1"/>
<line clip-path="url(#clip452)" x1="646.736" y1="321.814" x2="646.736" y2="297.814" style="stroke:#000000; stroke-width:0; stroke-opacity:1"/>
<line clip-path="url(#clip452)" x1="621.56" y1="289.86" x2="621.56" y2="265.86" style="stroke:#000000; stroke-width:0; stroke-opacity:1"/>
<line clip-path="url(#clip452)" x1="623.405" y1="289.86" x2="623.405" y2="265.86" style="stroke:#000000; stroke-width:0; stroke-opacity:1"/>
<line clip-path="url(#clip452)" x1="599.786" y1="273.376" x2="599.786" y2="249.376" style="stroke:#000000; stroke-width:0; stroke-opacity:1"/>
<line clip-path="url(#clip452)" x1="601.519" y1="273.376" x2="601.519" y2="249.376" style="stroke:#000000; stroke-width:0; stroke-opacity:1"/>
<line clip-path="url(#clip452)" x1="579.316" y1="273.376" x2="579.316" y2="249.376" style="stroke:#000000; stroke-width:0; stroke-opacity:1"/>
<line clip-path="url(#clip452)" x1="580.947" y1="273.376" x2="580.947" y2="249.376" style="stroke:#000000; stroke-width:0; stroke-opacity:1"/>
<line clip-path="url(#clip452)" x1="560.036" y1="239.336" x2="560.036" y2="215.336" style="stroke:#000000; stroke-width:0; stroke-opacity:1"/>
<line clip-path="url(#clip452)" x1="561.573" y1="239.336" x2="561.573" y2="215.336" style="stroke:#000000; stroke-width:0; stroke-opacity:1"/>
<line clip-path="url(#clip452)" x1="541.846" y1="239.336" x2="541.846" y2="215.336" style="stroke:#000000; stroke-width:0; stroke-opacity:1"/>
<line clip-path="url(#clip452)" x1="543.297" y1="239.336" x2="543.297" y2="215.336" style="stroke:#000000; stroke-width:0; stroke-opacity:1"/>
<line clip-path="url(#clip452)" x1="524.655" y1="221.758" x2="524.655" y2="197.758" style="stroke:#000000; stroke-width:0; stroke-opacity:1"/>
<line clip-path="url(#clip452)" x1="526.028" y1="221.758" x2="526.028" y2="197.758" style="stroke:#000000; stroke-width:0; stroke-opacity:1"/>
<line clip-path="url(#clip452)" x1="508.384" y1="221.758" x2="508.384" y2="197.758" style="stroke:#000000; stroke-width:0; stroke-opacity:1"/>
<line clip-path="url(#clip452)" x1="509.684" y1="221.758" x2="509.684" y2="197.758" style="stroke:#000000; stroke-width:0; stroke-opacity:1"/>
<line clip-path="url(#clip452)" x1="492.96" y1="203.791" x2="492.96" y2="179.791" style="stroke:#000000; stroke-width:0; stroke-opacity:1"/>
<line clip-path="url(#clip452)" x1="494.193" y1="203.791" x2="494.193" y2="179.791" style="stroke:#000000; stroke-width:0; stroke-opacity:1"/>
<line clip-path="url(#clip452)" x1="478.319" y1="185.423" x2="478.319" y2="161.423" style="stroke:#000000; stroke-width:0; stroke-opacity:1"/>
<line clip-path="url(#clip452)" x1="479.491" y1="185.423" x2="479.491" y2="161.423" style="stroke:#000000; stroke-width:0; stroke-opacity:1"/>
<line clip-path="url(#clip452)" x1="464.404" y1="185.423" x2="464.404" y2="161.423" style="stroke:#000000; stroke-width:0; stroke-opacity:1"/>
<line clip-path="url(#clip452)" x1="465.518" y1="185.423" x2="465.518" y2="161.423" style="stroke:#000000; stroke-width:0; stroke-opacity:1"/>
<line clip-path="url(#clip452)" x1="451.16" y1="185.423" x2="451.16" y2="161.423" style="stroke:#000000; stroke-width:0; stroke-opacity:1"/>
<line clip-path="url(#clip452)" x1="452.221" y1="185.423" x2="452.221" y2="161.423" style="stroke:#000000; stroke-width:0; stroke-opacity:1"/>
<line clip-path="url(#clip452)" x1="438.542" y1="166.638" x2="438.542" y2="142.638" style="stroke:#000000; stroke-width:0; stroke-opacity:1"/>
<line clip-path="url(#clip452)" x1="439.553" y1="166.638" x2="439.553" y2="142.638" style="stroke:#000000; stroke-width:0; stroke-opacity:1"/>
<line clip-path="url(#clip452)" x1="426.505" y1="166.638" x2="426.505" y2="142.638" style="stroke:#000000; stroke-width:0; stroke-opacity:1"/>
<line clip-path="url(#clip452)" x1="427.47" y1="166.638" x2="427.47" y2="142.638" style="stroke:#000000; stroke-width:0; stroke-opacity:1"/>
<line clip-path="url(#clip452)" x1="415.01" y1="157.086" x2="415.01" y2="133.086" style="stroke:#000000; stroke-width:0; stroke-opacity:1"/>
<line clip-path="url(#clip452)" x1="415.932" y1="157.086" x2="415.932" y2="133.086" style="stroke:#000000; stroke-width:0; stroke-opacity:1"/>
<line clip-path="url(#clip452)" x1="404.021" y1="147.425" x2="404.021" y2="123.425" style="stroke:#000000; stroke-width:0; stroke-opacity:1"/>
<line clip-path="url(#clip452)" x1="404.903" y1="147.425" x2="404.903" y2="123.425" style="stroke:#000000; stroke-width:0; stroke-opacity:1"/>
<line clip-path="url(#clip452)" x1="393.507" y1="147.425" x2="393.507" y2="123.425" style="stroke:#000000; stroke-width:0; stroke-opacity:1"/>
<line clip-path="url(#clip452)" x1="394.351" y1="147.425" x2="394.351" y2="123.425" style="stroke:#000000; stroke-width:0; stroke-opacity:1"/>
<line clip-path="url(#clip452)" x1="383.436" y1="127.766" x2="383.436" y2="103.766" style="stroke:#000000; stroke-width:0; stroke-opacity:1"/>
<line clip-path="url(#clip452)" x1="384.245" y1="127.766" x2="384.245" y2="103.766" style="stroke:#000000; stroke-width:0; stroke-opacity:1"/>
<line clip-path="url(#clip452)" x1="373.781" y1="127.766" x2="373.781" y2="103.766" style="stroke:#000000; stroke-width:0; stroke-opacity:1"/>
<line clip-path="url(#clip452)" x1="374.557" y1="127.766" x2="374.557" y2="103.766" style="stroke:#000000; stroke-width:0; stroke-opacity:1"/>
<line clip-path="url(#clip452)" x1="364.517" y1="127.766" x2="364.517" y2="103.766" style="stroke:#000000; stroke-width:0; stroke-opacity:1"/>
<line clip-path="url(#clip452)" x1="365.262" y1="127.766" x2="365.262" y2="103.766" style="stroke:#000000; stroke-width:0; stroke-opacity:1"/>
<line clip-path="url(#clip452)" x1="355.621" y1="117.766" x2="355.621" y2="93.7656" style="stroke:#000000; stroke-width:0; stroke-opacity:1"/>
<line clip-path="url(#clip452)" x1="356.337" y1="117.766" x2="356.337" y2="93.7656" style="stroke:#000000; stroke-width:0; stroke-opacity:1"/>
<line clip-path="url(#clip452)" x1="347.071" y1="107.648" x2="347.071" y2="83.6478" style="stroke:#000000; stroke-width:0; stroke-opacity:1"/>
<line clip-path="url(#clip452)" x1="347.759" y1="107.648" x2="347.759" y2="83.6478" style="stroke:#000000; stroke-width:0; stroke-opacity:1"/>
<line clip-path="url(#clip452)" x1="338.848" y1="107.648" x2="338.848" y2="83.6478" style="stroke:#000000; stroke-width:0; stroke-opacity:1"/>
<line clip-path="url(#clip452)" x1="339.509" y1="107.648" x2="339.509" y2="83.6478" style="stroke:#000000; stroke-width:0; stroke-opacity:1"/>
<polyline clip-path="url(#clip452)" style="stroke:#000000; stroke-linecap:round; stroke-linejoin:round; stroke-width:0; stroke-opacity:1; fill:none" points="2283.73,1384.24 2283.73,1382.97 "/>
<polyline clip-path="url(#clip452)" style="stroke:#000000; stroke-linecap:round; stroke-linejoin:round; stroke-width:0; stroke-opacity:1; fill:none" points="2055.06,1234.07 2055.06,1231.8 "/>
<polyline clip-path="url(#clip452)" style="stroke:#000000; stroke-linecap:round; stroke-linejoin:round; stroke-width:0; stroke-opacity:1; fill:none" points="1866.67,1109.52 1866.67,1106.21 "/>
<polyline clip-path="url(#clip452)" style="stroke:#000000; stroke-linecap:round; stroke-linejoin:round; stroke-width:0; stroke-opacity:1; fill:none" points="1708.78,1008.76 1708.78,1004.47 "/>
<polyline clip-path="url(#clip452)" style="stroke:#000000; stroke-linecap:round; stroke-linejoin:round; stroke-width:0; stroke-opacity:1; fill:none" points="1574.54,916.948 1574.54,911.648 "/>
<polyline clip-path="url(#clip452)" style="stroke:#000000; stroke-linecap:round; stroke-linejoin:round; stroke-width:0; stroke-opacity:1; fill:none" points="1459,843.491 1459,837.305 "/>
<polyline clip-path="url(#clip452)" style="stroke:#000000; stroke-linecap:round; stroke-linejoin:round; stroke-width:0; stroke-opacity:1; fill:none" points="1270.32,716.718 1270.32,708.843 "/>
<polyline clip-path="url(#clip452)" style="stroke:#000000; stroke-linecap:round; stroke-linejoin:round; stroke-width:0; stroke-opacity:1; fill:none" points="1192.28,663.866 1192.28,655.225 "/>
<polyline clip-path="url(#clip452)" style="stroke:#000000; stroke-linecap:round; stroke-linejoin:round; stroke-width:0; stroke-opacity:1; fill:none" points="1122.76,615.848 1122.76,606.481 "/>
<polyline clip-path="url(#clip452)" style="stroke:#000000; stroke-linecap:round; stroke-linejoin:round; stroke-width:0; stroke-opacity:1; fill:none" points="1060.41,574.501 1060.41,564.485 "/>
<polyline clip-path="url(#clip452)" style="stroke:#000000; stroke-linecap:round; stroke-linejoin:round; stroke-width:0; stroke-opacity:1; fill:none" points="1004.19,541.602 1004.19,531.054 "/>
<polyline clip-path="url(#clip452)" style="stroke:#000000; stroke-linecap:round; stroke-linejoin:round; stroke-width:0; stroke-opacity:1; fill:none" points="953.242,512.845 953.242,501.82 "/>
<polyline clip-path="url(#clip452)" style="stroke:#000000; stroke-linecap:round; stroke-linejoin:round; stroke-width:0; stroke-opacity:1; fill:none" points="906.849,476.601 906.849,464.961 "/>
<polyline clip-path="url(#clip452)" style="stroke:#000000; stroke-linecap:round; stroke-linejoin:round; stroke-width:0; stroke-opacity:1; fill:none" points="864.429,444.844 864.429,432.65 "/>
<polyline clip-path="url(#clip452)" style="stroke:#000000; stroke-linecap:round; stroke-linejoin:round; stroke-width:0; stroke-opacity:1; fill:none" points="825.493,418.348 825.493,405.683 "/>
<polyline clip-path="url(#clip452)" style="stroke:#000000; stroke-linecap:round; stroke-linejoin:round; stroke-width:0; stroke-opacity:1; fill:none" points="789.628,404.718 789.628,391.807 "/>
<polyline clip-path="url(#clip452)" style="stroke:#000000; stroke-linecap:round; stroke-linejoin:round; stroke-width:0; stroke-opacity:1; fill:none" points="756.485,390.823 756.485,377.659 "/>
<polyline clip-path="url(#clip452)" style="stroke:#000000; stroke-linecap:round; stroke-linejoin:round; stroke-width:0; stroke-opacity:1; fill:none" points="725.765,354.874 725.765,341.043 "/>
<polyline clip-path="url(#clip452)" style="stroke:#000000; stroke-linecap:round; stroke-linejoin:round; stroke-width:0; stroke-opacity:1; fill:none" points="697.213,339.988 697.213,325.876 "/>
<polyline clip-path="url(#clip452)" style="stroke:#000000; stroke-linecap:round; stroke-linejoin:round; stroke-width:0; stroke-opacity:1; fill:none" points="670.605,317.089 670.605,302.539 "/>
<polyline clip-path="url(#clip452)" style="stroke:#000000; stroke-linecap:round; stroke-linejoin:round; stroke-width:0; stroke-opacity:1; fill:none" points="645.751,317.089 645.751,302.539 "/>
<polyline clip-path="url(#clip452)" style="stroke:#000000; stroke-linecap:round; stroke-linejoin:round; stroke-width:0; stroke-opacity:1; fill:none" points="622.483,285.443 622.483,270.277 "/>
<polyline clip-path="url(#clip452)" style="stroke:#000000; stroke-linecap:round; stroke-linejoin:round; stroke-width:0; stroke-opacity:1; fill:none" points="600.652,269.12 600.652,253.631 "/>
<polyline clip-path="url(#clip452)" style="stroke:#000000; stroke-linecap:round; stroke-linejoin:round; stroke-width:0; stroke-opacity:1; fill:none" points="580.131,269.12 580.131,253.631 "/>
<polyline clip-path="url(#clip452)" style="stroke:#000000; stroke-linecap:round; stroke-linejoin:round; stroke-width:0; stroke-opacity:1; fill:none" points="560.805,235.419 560.805,219.253 "/>
<polyline clip-path="url(#clip452)" style="stroke:#000000; stroke-linecap:round; stroke-linejoin:round; stroke-width:0; stroke-opacity:1; fill:none" points="542.571,235.419 542.571,219.253 "/>
<polyline clip-path="url(#clip452)" style="stroke:#000000; stroke-linecap:round; stroke-linejoin:round; stroke-width:0; stroke-opacity:1; fill:none" points="525.341,218.019 525.341,201.497 "/>
<polyline clip-path="url(#clip452)" style="stroke:#000000; stroke-linecap:round; stroke-linejoin:round; stroke-width:0; stroke-opacity:1; fill:none" points="509.034,218.019 509.034,201.497 "/>
<polyline clip-path="url(#clip452)" style="stroke:#000000; stroke-linecap:round; stroke-linejoin:round; stroke-width:0; stroke-opacity:1; fill:none" points="493.577,200.236 493.577,183.346 "/>
<polyline clip-path="url(#clip452)" style="stroke:#000000; stroke-linecap:round; stroke-linejoin:round; stroke-width:0; stroke-opacity:1; fill:none" points="478.905,182.057 478.905,164.788 "/>
<polyline clip-path="url(#clip452)" style="stroke:#000000; stroke-linecap:round; stroke-linejoin:round; stroke-width:0; stroke-opacity:1; fill:none" points="464.961,182.057 464.961,164.788 "/>
<polyline clip-path="url(#clip452)" style="stroke:#000000; stroke-linecap:round; stroke-linejoin:round; stroke-width:0; stroke-opacity:1; fill:none" points="451.691,182.057 451.691,164.788 "/>
<polyline clip-path="url(#clip452)" style="stroke:#000000; stroke-linecap:round; stroke-linejoin:round; stroke-width:0; stroke-opacity:1; fill:none" points="439.047,163.47 439.047,145.807 "/>
<polyline clip-path="url(#clip452)" style="stroke:#000000; stroke-linecap:round; stroke-linejoin:round; stroke-width:0; stroke-opacity:1; fill:none" points="426.987,163.47 426.987,145.807 "/>
<polyline clip-path="url(#clip452)" style="stroke:#000000; stroke-linecap:round; stroke-linejoin:round; stroke-width:0; stroke-opacity:1; fill:none" points="415.471,154.018 415.471,136.154 "/>
<polyline clip-path="url(#clip452)" style="stroke:#000000; stroke-linecap:round; stroke-linejoin:round; stroke-width:0; stroke-opacity:1; fill:none" points="404.462,144.459 404.462,126.391 "/>
<polyline clip-path="url(#clip452)" style="stroke:#000000; stroke-linecap:round; stroke-linejoin:round; stroke-width:0; stroke-opacity:1; fill:none" points="393.929,144.459 393.929,126.391 "/>
<polyline clip-path="url(#clip452)" style="stroke:#000000; stroke-linecap:round; stroke-linejoin:round; stroke-width:0; stroke-opacity:1; fill:none" points="383.84,125.011 383.84,106.522 "/>
<polyline clip-path="url(#clip452)" style="stroke:#000000; stroke-linecap:round; stroke-linejoin:round; stroke-width:0; stroke-opacity:1; fill:none" points="374.169,125.011 374.169,106.522 "/>
<polyline clip-path="url(#clip452)" style="stroke:#000000; stroke-linecap:round; stroke-linejoin:round; stroke-width:0; stroke-opacity:1; fill:none" points="364.89,125.011 364.89,106.522 "/>
<polyline clip-path="url(#clip452)" style="stroke:#000000; stroke-linecap:round; stroke-linejoin:round; stroke-width:0; stroke-opacity:1; fill:none" points="355.979,115.118 355.979,96.4133 "/>
<polyline clip-path="url(#clip452)" style="stroke:#000000; stroke-linecap:round; stroke-linejoin:round; stroke-width:0; stroke-opacity:1; fill:none" points="347.415,105.11 347.415,86.1857 "/>
<polyline clip-path="url(#clip452)" style="stroke:#000000; stroke-linecap:round; stroke-linejoin:round; stroke-width:0; stroke-opacity:1; fill:none" points="339.178,105.11 339.178,86.1857 "/>
<line clip-path="url(#clip452)" x1="2295.73" y1="1384.24" x2="2271.73" y2="1384.24" style="stroke:#000000; stroke-width:0; stroke-opacity:1"/>
<line clip-path="url(#clip452)" x1="2295.73" y1="1382.97" x2="2271.73" y2="1382.97" style="stroke:#000000; stroke-width:0; stroke-opacity:1"/>
<line clip-path="url(#clip452)" x1="2067.06" y1="1234.07" x2="2043.06" y2="1234.07" style="stroke:#000000; stroke-width:0; stroke-opacity:1"/>
<line clip-path="url(#clip452)" x1="2067.06" y1="1231.8" x2="2043.06" y2="1231.8" style="stroke:#000000; stroke-width:0; stroke-opacity:1"/>
<line clip-path="url(#clip452)" x1="1878.67" y1="1109.52" x2="1854.67" y2="1109.52" style="stroke:#000000; stroke-width:0; stroke-opacity:1"/>
<line clip-path="url(#clip452)" x1="1878.67" y1="1106.21" x2="1854.67" y2="1106.21" style="stroke:#000000; stroke-width:0; stroke-opacity:1"/>
<line clip-path="url(#clip452)" x1="1720.78" y1="1008.76" x2="1696.78" y2="1008.76" style="stroke:#000000; stroke-width:0; stroke-opacity:1"/>
<line clip-path="url(#clip452)" x1="1720.78" y1="1004.47" x2="1696.78" y2="1004.47" style="stroke:#000000; stroke-width:0; stroke-opacity:1"/>
<line clip-path="url(#clip452)" x1="1586.54" y1="916.948" x2="1562.54" y2="916.948" style="stroke:#000000; stroke-width:0; stroke-opacity:1"/>
<line clip-path="url(#clip452)" x1="1586.54" y1="911.648" x2="1562.54" y2="911.648" style="stroke:#000000; stroke-width:0; stroke-opacity:1"/>
<line clip-path="url(#clip452)" x1="1471" y1="843.491" x2="1447" y2="843.491" style="stroke:#000000; stroke-width:0; stroke-opacity:1"/>
<line clip-path="url(#clip452)" x1="1471" y1="837.305" x2="1447" y2="837.305" style="stroke:#000000; stroke-width:0; stroke-opacity:1"/>
<line clip-path="url(#clip452)" x1="1282.32" y1="716.718" x2="1258.32" y2="716.718" style="stroke:#000000; stroke-width:0; stroke-opacity:1"/>
<line clip-path="url(#clip452)" x1="1282.32" y1="708.843" x2="1258.32" y2="708.843" style="stroke:#000000; stroke-width:0; stroke-opacity:1"/>
<line clip-path="url(#clip452)" x1="1204.28" y1="663.866" x2="1180.28" y2="663.866" style="stroke:#000000; stroke-width:0; stroke-opacity:1"/>
<line clip-path="url(#clip452)" x1="1204.28" y1="655.225" x2="1180.28" y2="655.225" style="stroke:#000000; stroke-width:0; stroke-opacity:1"/>
<line clip-path="url(#clip452)" x1="1134.76" y1="615.848" x2="1110.76" y2="615.848" style="stroke:#000000; stroke-width:0; stroke-opacity:1"/>
<line clip-path="url(#clip452)" x1="1134.76" y1="606.481" x2="1110.76" y2="606.481" style="stroke:#000000; stroke-width:0; stroke-opacity:1"/>
<line clip-path="url(#clip452)" x1="1072.41" y1="574.501" x2="1048.41" y2="574.501" style="stroke:#000000; stroke-width:0; stroke-opacity:1"/>
<line clip-path="url(#clip452)" x1="1072.41" y1="564.485" x2="1048.41" y2="564.485" style="stroke:#000000; stroke-width:0; stroke-opacity:1"/>
<line clip-path="url(#clip452)" x1="1016.19" y1="541.602" x2="992.194" y2="541.602" style="stroke:#000000; stroke-width:0; stroke-opacity:1"/>
<line clip-path="url(#clip452)" x1="1016.19" y1="531.054" x2="992.194" y2="531.054" style="stroke:#000000; stroke-width:0; stroke-opacity:1"/>
<line clip-path="url(#clip452)" x1="965.242" y1="512.845" x2="941.242" y2="512.845" style="stroke:#000000; stroke-width:0; stroke-opacity:1"/>
<line clip-path="url(#clip452)" x1="965.242" y1="501.82" x2="941.242" y2="501.82" style="stroke:#000000; stroke-width:0; stroke-opacity:1"/>
<line clip-path="url(#clip452)" x1="918.849" y1="476.601" x2="894.849" y2="476.601" style="stroke:#000000; stroke-width:0; stroke-opacity:1"/>
<line clip-path="url(#clip452)" x1="918.849" y1="464.961" x2="894.849" y2="464.961" style="stroke:#000000; stroke-width:0; stroke-opacity:1"/>
<line clip-path="url(#clip452)" x1="876.429" y1="444.844" x2="852.429" y2="444.844" style="stroke:#000000; stroke-width:0; stroke-opacity:1"/>
<line clip-path="url(#clip452)" x1="876.429" y1="432.65" x2="852.429" y2="432.65" style="stroke:#000000; stroke-width:0; stroke-opacity:1"/>
<line clip-path="url(#clip452)" x1="837.493" y1="418.348" x2="813.493" y2="418.348" style="stroke:#000000; stroke-width:0; stroke-opacity:1"/>
<line clip-path="url(#clip452)" x1="837.493" y1="405.683" x2="813.493" y2="405.683" style="stroke:#000000; stroke-width:0; stroke-opacity:1"/>
<line clip-path="url(#clip452)" x1="801.628" y1="404.718" x2="777.628" y2="404.718" style="stroke:#000000; stroke-width:0; stroke-opacity:1"/>
<line clip-path="url(#clip452)" x1="801.628" y1="391.807" x2="777.628" y2="391.807" style="stroke:#000000; stroke-width:0; stroke-opacity:1"/>
<line clip-path="url(#clip452)" x1="768.485" y1="390.823" x2="744.485" y2="390.823" style="stroke:#000000; stroke-width:0; stroke-opacity:1"/>
<line clip-path="url(#clip452)" x1="768.485" y1="377.659" x2="744.485" y2="377.659" style="stroke:#000000; stroke-width:0; stroke-opacity:1"/>
<line clip-path="url(#clip452)" x1="737.765" y1="354.874" x2="713.765" y2="354.874" style="stroke:#000000; stroke-width:0; stroke-opacity:1"/>
<line clip-path="url(#clip452)" x1="737.765" y1="341.043" x2="713.765" y2="341.043" style="stroke:#000000; stroke-width:0; stroke-opacity:1"/>
<line clip-path="url(#clip452)" x1="709.213" y1="339.988" x2="685.213" y2="339.988" style="stroke:#000000; stroke-width:0; stroke-opacity:1"/>
<line clip-path="url(#clip452)" x1="709.213" y1="325.876" x2="685.213" y2="325.876" style="stroke:#000000; stroke-width:0; stroke-opacity:1"/>
<line clip-path="url(#clip452)" x1="682.605" y1="317.089" x2="658.605" y2="317.089" style="stroke:#000000; stroke-width:0; stroke-opacity:1"/>
<line clip-path="url(#clip452)" x1="682.605" y1="302.539" x2="658.605" y2="302.539" style="stroke:#000000; stroke-width:0; stroke-opacity:1"/>
<line clip-path="url(#clip452)" x1="657.751" y1="317.089" x2="633.751" y2="317.089" style="stroke:#000000; stroke-width:0; stroke-opacity:1"/>
<line clip-path="url(#clip452)" x1="657.751" y1="302.539" x2="633.751" y2="302.539" style="stroke:#000000; stroke-width:0; stroke-opacity:1"/>
<line clip-path="url(#clip452)" x1="634.483" y1="285.443" x2="610.483" y2="285.443" style="stroke:#000000; stroke-width:0; stroke-opacity:1"/>
<line clip-path="url(#clip452)" x1="634.483" y1="270.277" x2="610.483" y2="270.277" style="stroke:#000000; stroke-width:0; stroke-opacity:1"/>
<line clip-path="url(#clip452)" x1="612.652" y1="269.12" x2="588.652" y2="269.12" style="stroke:#000000; stroke-width:0; stroke-opacity:1"/>
<line clip-path="url(#clip452)" x1="612.652" y1="253.631" x2="588.652" y2="253.631" style="stroke:#000000; stroke-width:0; stroke-opacity:1"/>
<line clip-path="url(#clip452)" x1="592.131" y1="269.12" x2="568.131" y2="269.12" style="stroke:#000000; stroke-width:0; stroke-opacity:1"/>
<line clip-path="url(#clip452)" x1="592.131" y1="253.631" x2="568.131" y2="253.631" style="stroke:#000000; stroke-width:0; stroke-opacity:1"/>
<line clip-path="url(#clip452)" x1="572.805" y1="235.419" x2="548.805" y2="235.419" style="stroke:#000000; stroke-width:0; stroke-opacity:1"/>
<line clip-path="url(#clip452)" x1="572.805" y1="219.253" x2="548.805" y2="219.253" style="stroke:#000000; stroke-width:0; stroke-opacity:1"/>
<line clip-path="url(#clip452)" x1="554.571" y1="235.419" x2="530.571" y2="235.419" style="stroke:#000000; stroke-width:0; stroke-opacity:1"/>
<line clip-path="url(#clip452)" x1="554.571" y1="219.253" x2="530.571" y2="219.253" style="stroke:#000000; stroke-width:0; stroke-opacity:1"/>
<line clip-path="url(#clip452)" x1="537.341" y1="218.019" x2="513.341" y2="218.019" style="stroke:#000000; stroke-width:0; stroke-opacity:1"/>
<line clip-path="url(#clip452)" x1="537.341" y1="201.497" x2="513.341" y2="201.497" style="stroke:#000000; stroke-width:0; stroke-opacity:1"/>
<line clip-path="url(#clip452)" x1="521.034" y1="218.019" x2="497.034" y2="218.019" style="stroke:#000000; stroke-width:0; stroke-opacity:1"/>
<line clip-path="url(#clip452)" x1="521.034" y1="201.497" x2="497.034" y2="201.497" style="stroke:#000000; stroke-width:0; stroke-opacity:1"/>
<line clip-path="url(#clip452)" x1="505.577" y1="200.236" x2="481.577" y2="200.236" style="stroke:#000000; stroke-width:0; stroke-opacity:1"/>
<line clip-path="url(#clip452)" x1="505.577" y1="183.346" x2="481.577" y2="183.346" style="stroke:#000000; stroke-width:0; stroke-opacity:1"/>
<line clip-path="url(#clip452)" x1="490.905" y1="182.057" x2="466.905" y2="182.057" style="stroke:#000000; stroke-width:0; stroke-opacity:1"/>
<line clip-path="url(#clip452)" x1="490.905" y1="164.788" x2="466.905" y2="164.788" style="stroke:#000000; stroke-width:0; stroke-opacity:1"/>
<line clip-path="url(#clip452)" x1="476.961" y1="182.057" x2="452.961" y2="182.057" style="stroke:#000000; stroke-width:0; stroke-opacity:1"/>
<line clip-path="url(#clip452)" x1="476.961" y1="164.788" x2="452.961" y2="164.788" style="stroke:#000000; stroke-width:0; stroke-opacity:1"/>
<line clip-path="url(#clip452)" x1="463.691" y1="182.057" x2="439.691" y2="182.057" style="stroke:#000000; stroke-width:0; stroke-opacity:1"/>
<line clip-path="url(#clip452)" x1="463.691" y1="164.788" x2="439.691" y2="164.788" style="stroke:#000000; stroke-width:0; stroke-opacity:1"/>
<line clip-path="url(#clip452)" x1="451.047" y1="163.47" x2="427.047" y2="163.47" style="stroke:#000000; stroke-width:0; stroke-opacity:1"/>
<line clip-path="url(#clip452)" x1="451.047" y1="145.807" x2="427.047" y2="145.807" style="stroke:#000000; stroke-width:0; stroke-opacity:1"/>
<line clip-path="url(#clip452)" x1="438.987" y1="163.47" x2="414.987" y2="163.47" style="stroke:#000000; stroke-width:0; stroke-opacity:1"/>
<line clip-path="url(#clip452)" x1="438.987" y1="145.807" x2="414.987" y2="145.807" style="stroke:#000000; stroke-width:0; stroke-opacity:1"/>
<line clip-path="url(#clip452)" x1="427.471" y1="154.018" x2="403.471" y2="154.018" style="stroke:#000000; stroke-width:0; stroke-opacity:1"/>
<line clip-path="url(#clip452)" x1="427.471" y1="136.154" x2="403.471" y2="136.154" style="stroke:#000000; stroke-width:0; stroke-opacity:1"/>
<line clip-path="url(#clip452)" x1="416.462" y1="144.459" x2="392.462" y2="144.459" style="stroke:#000000; stroke-width:0; stroke-opacity:1"/>
<line clip-path="url(#clip452)" x1="416.462" y1="126.391" x2="392.462" y2="126.391" style="stroke:#000000; stroke-width:0; stroke-opacity:1"/>
<line clip-path="url(#clip452)" x1="405.929" y1="144.459" x2="381.929" y2="144.459" style="stroke:#000000; stroke-width:0; stroke-opacity:1"/>
<line clip-path="url(#clip452)" x1="405.929" y1="126.391" x2="381.929" y2="126.391" style="stroke:#000000; stroke-width:0; stroke-opacity:1"/>
<line clip-path="url(#clip452)" x1="395.84" y1="125.011" x2="371.84" y2="125.011" style="stroke:#000000; stroke-width:0; stroke-opacity:1"/>
<line clip-path="url(#clip452)" x1="395.84" y1="106.522" x2="371.84" y2="106.522" style="stroke:#000000; stroke-width:0; stroke-opacity:1"/>
<line clip-path="url(#clip452)" x1="386.169" y1="125.011" x2="362.169" y2="125.011" style="stroke:#000000; stroke-width:0; stroke-opacity:1"/>
<line clip-path="url(#clip452)" x1="386.169" y1="106.522" x2="362.169" y2="106.522" style="stroke:#000000; stroke-width:0; stroke-opacity:1"/>
<line clip-path="url(#clip452)" x1="376.89" y1="125.011" x2="352.89" y2="125.011" style="stroke:#000000; stroke-width:0; stroke-opacity:1"/>
<line clip-path="url(#clip452)" x1="376.89" y1="106.522" x2="352.89" y2="106.522" style="stroke:#000000; stroke-width:0; stroke-opacity:1"/>
<line clip-path="url(#clip452)" x1="367.979" y1="115.118" x2="343.979" y2="115.118" style="stroke:#000000; stroke-width:0; stroke-opacity:1"/>
<line clip-path="url(#clip452)" x1="367.979" y1="96.4133" x2="343.979" y2="96.4133" style="stroke:#000000; stroke-width:0; stroke-opacity:1"/>
<line clip-path="url(#clip452)" x1="359.415" y1="105.11" x2="335.415" y2="105.11" style="stroke:#000000; stroke-width:0; stroke-opacity:1"/>
<line clip-path="url(#clip452)" x1="359.415" y1="86.1857" x2="335.415" y2="86.1857" style="stroke:#000000; stroke-width:0; stroke-opacity:1"/>
<line clip-path="url(#clip452)" x1="351.178" y1="105.11" x2="327.178" y2="105.11" style="stroke:#000000; stroke-width:0; stroke-opacity:1"/>
<line clip-path="url(#clip452)" x1="351.178" y1="86.1857" x2="327.178" y2="86.1857" style="stroke:#000000; stroke-width:0; stroke-opacity:1"/>
<circle clip-path="url(#clip452)" cx="2283.73" cy="1383.6" r="10.8" fill="#000000" fill-rule="evenodd" fill-opacity="1" stroke="none"/>
<circle clip-path="url(#clip452)" cx="2055.06" cy="1232.94" r="10.8" fill="#000000" fill-rule="evenodd" fill-opacity="1" stroke="none"/>
<circle clip-path="url(#clip452)" cx="1866.67" cy="1107.86" r="10.8" fill="#000000" fill-rule="evenodd" fill-opacity="1" stroke="none"/>
<circle clip-path="url(#clip452)" cx="1708.78" cy="1006.62" r="10.8" fill="#000000" fill-rule="evenodd" fill-opacity="1" stroke="none"/>
<circle clip-path="url(#clip452)" cx="1574.54" cy="914.298" r="10.8" fill="#000000" fill-rule="evenodd" fill-opacity="1" stroke="none"/>
<circle clip-path="url(#clip452)" cx="1459" cy="840.398" r="10.8" fill="#000000" fill-rule="evenodd" fill-opacity="1" stroke="none"/>
<circle clip-path="url(#clip452)" cx="1270.32" cy="712.781" r="10.8" fill="#000000" fill-rule="evenodd" fill-opacity="1" stroke="none"/>
<circle clip-path="url(#clip452)" cx="1192.28" cy="659.546" r="10.8" fill="#000000" fill-rule="evenodd" fill-opacity="1" stroke="none"/>
<circle clip-path="url(#clip452)" cx="1122.76" cy="611.164" r="10.8" fill="#000000" fill-rule="evenodd" fill-opacity="1" stroke="none"/>
<circle clip-path="url(#clip452)" cx="1060.41" cy="569.493" r="10.8" fill="#000000" fill-rule="evenodd" fill-opacity="1" stroke="none"/>
<circle clip-path="url(#clip452)" cx="1004.19" cy="536.328" r="10.8" fill="#000000" fill-rule="evenodd" fill-opacity="1" stroke="none"/>
<circle clip-path="url(#clip452)" cx="953.242" cy="507.332" r="10.8" fill="#000000" fill-rule="evenodd" fill-opacity="1" stroke="none"/>
<circle clip-path="url(#clip452)" cx="906.849" cy="470.781" r="10.8" fill="#000000" fill-rule="evenodd" fill-opacity="1" stroke="none"/>
<circle clip-path="url(#clip452)" cx="864.429" cy="438.747" r="10.8" fill="#000000" fill-rule="evenodd" fill-opacity="1" stroke="none"/>
<circle clip-path="url(#clip452)" cx="825.493" cy="412.016" r="10.8" fill="#000000" fill-rule="evenodd" fill-opacity="1" stroke="none"/>
<circle clip-path="url(#clip452)" cx="789.628" cy="398.263" r="10.8" fill="#000000" fill-rule="evenodd" fill-opacity="1" stroke="none"/>
<circle clip-path="url(#clip452)" cx="756.485" cy="384.241" r="10.8" fill="#000000" fill-rule="evenodd" fill-opacity="1" stroke="none"/>
<circle clip-path="url(#clip452)" cx="725.765" cy="347.959" r="10.8" fill="#000000" fill-rule="evenodd" fill-opacity="1" stroke="none"/>
<circle clip-path="url(#clip452)" cx="697.213" cy="332.932" r="10.8" fill="#000000" fill-rule="evenodd" fill-opacity="1" stroke="none"/>
<circle clip-path="url(#clip452)" cx="670.605" cy="309.814" r="10.8" fill="#000000" fill-rule="evenodd" fill-opacity="1" stroke="none"/>
<circle clip-path="url(#clip452)" cx="645.751" cy="309.814" r="10.8" fill="#000000" fill-rule="evenodd" fill-opacity="1" stroke="none"/>
<circle clip-path="url(#clip452)" cx="622.483" cy="277.86" r="10.8" fill="#000000" fill-rule="evenodd" fill-opacity="1" stroke="none"/>
<circle clip-path="url(#clip452)" cx="600.652" cy="261.376" r="10.8" fill="#000000" fill-rule="evenodd" fill-opacity="1" stroke="none"/>
<circle clip-path="url(#clip452)" cx="580.131" cy="261.376" r="10.8" fill="#000000" fill-rule="evenodd" fill-opacity="1" stroke="none"/>
<circle clip-path="url(#clip452)" cx="560.805" cy="227.336" r="10.8" fill="#000000" fill-rule="evenodd" fill-opacity="1" stroke="none"/>
<circle clip-path="url(#clip452)" cx="542.571" cy="227.336" r="10.8" fill="#000000" fill-rule="evenodd" fill-opacity="1" stroke="none"/>
<circle clip-path="url(#clip452)" cx="525.341" cy="209.758" r="10.8" fill="#000000" fill-rule="evenodd" fill-opacity="1" stroke="none"/>
<circle clip-path="url(#clip452)" cx="509.034" cy="209.758" r="10.8" fill="#000000" fill-rule="evenodd" fill-opacity="1" stroke="none"/>
<circle clip-path="url(#clip452)" cx="493.577" cy="191.791" r="10.8" fill="#000000" fill-rule="evenodd" fill-opacity="1" stroke="none"/>
<circle clip-path="url(#clip452)" cx="478.905" cy="173.423" r="10.8" fill="#000000" fill-rule="evenodd" fill-opacity="1" stroke="none"/>
<circle clip-path="url(#clip452)" cx="464.961" cy="173.423" r="10.8" fill="#000000" fill-rule="evenodd" fill-opacity="1" stroke="none"/>
<circle clip-path="url(#clip452)" cx="451.691" cy="173.423" r="10.8" fill="#000000" fill-rule="evenodd" fill-opacity="1" stroke="none"/>
<circle clip-path="url(#clip452)" cx="439.047" cy="154.638" r="10.8" fill="#000000" fill-rule="evenodd" fill-opacity="1" stroke="none"/>
<circle clip-path="url(#clip452)" cx="426.987" cy="154.638" r="10.8" fill="#000000" fill-rule="evenodd" fill-opacity="1" stroke="none"/>
<circle clip-path="url(#clip452)" cx="415.471" cy="145.086" r="10.8" fill="#000000" fill-rule="evenodd" fill-opacity="1" stroke="none"/>
<circle clip-path="url(#clip452)" cx="404.462" cy="135.425" r="10.8" fill="#000000" fill-rule="evenodd" fill-opacity="1" stroke="none"/>
<circle clip-path="url(#clip452)" cx="393.929" cy="135.425" r="10.8" fill="#000000" fill-rule="evenodd" fill-opacity="1" stroke="none"/>
<circle clip-path="url(#clip452)" cx="383.84" cy="115.766" r="10.8" fill="#000000" fill-rule="evenodd" fill-opacity="1" stroke="none"/>
<circle clip-path="url(#clip452)" cx="374.169" cy="115.766" r="10.8" fill="#000000" fill-rule="evenodd" fill-opacity="1" stroke="none"/>
<circle clip-path="url(#clip452)" cx="364.89" cy="115.766" r="10.8" fill="#000000" fill-rule="evenodd" fill-opacity="1" stroke="none"/>
<circle clip-path="url(#clip452)" cx="355.979" cy="105.766" r="10.8" fill="#000000" fill-rule="evenodd" fill-opacity="1" stroke="none"/>
<circle clip-path="url(#clip452)" cx="347.415" cy="95.6478" r="10.8" fill="#000000" fill-rule="evenodd" fill-opacity="1" stroke="none"/>
<circle clip-path="url(#clip452)" cx="339.178" cy="95.6478" r="10.8" fill="#000000" fill-rule="evenodd" fill-opacity="1" stroke="none"/>
</svg>
